<svg xmlns="http://www.w3.org/2000/svg" xmlns:xlink="http://www.w3.org/1999/xlink" width="130" height="130" viewBox="0 0 130 130">
  <defs>
    <clipPath id="clip-Speciality">
      <rect width="130" height="130"/>
    </clipPath>
  </defs>
  <g id="Speciality" clip-path="url(#clip-Speciality)">
    <g id="Layer_1" data-name="Layer 1" transform="translate(21.001 22)">
      <g id="Group_54" data-name="Group 54" transform="translate(0 0)">
        <path id="Path_384" data-name="Path 384" d="M87.036,204.882c-.132-.118-.24-.122-.3.068a3.907,3.907,0,0,1-3.338,2.617c-2.562.517-5.052,1.32-7.574,1.991-2.286.608-4.569,1.225-6.864,1.8-2.583.644-5.139,1.39-7.712,2.068q-3.779,1-7.563,2.007a7.4,7.4,0,0,1-4.082-.256c-1.694-.506-3.388-1.043-5.1-1.463-3.254-.8-6.463-1.76-9.717-2.553a12.626,12.626,0,0,0-2.916-.519,7.1,7.1,0,0,0-6.059,3.152c-.44.6-.857,1.222-1.333,1.791-.247.3-.215.474.054.687a4.142,4.142,0,0,1,.3.3c1.492,1.476,1.383,2.383.247,3.869-2.168,2.835-4.32,5.683-6.5,8.513a3.183,3.183,0,0,1-2.753,1.417c-4.352-.075-8.706-.082-13.055,0A2.964,2.964,0,0,1,0,228.978V210.823a13.425,13.425,0,0,1,2.039-2.293q7.334-7.337,14.665-14.676a38.944,38.944,0,0,1,7.057-6.089,4.1,4.1,0,0,0,1.181-.551,19.86,19.86,0,0,1,3.553-1.073,28.415,28.415,0,0,1,7.252-.506c1.259.059,1.8,1.084,1.206,2.021a1.221,1.221,0,0,1-1.17.5,41.149,41.149,0,0,0-4.392.125h-.678a19.508,19.508,0,0,0-4.4,1.22,14.856,14.856,0,0,0-4.851,3.309c-3.218,3.222-6.427,6.449-9.669,9.647-.467.46-.431.692.016,1.12,1.408,1.349,2.778,2.739,4.143,4.134.42.429.957.9.581,1.587-.576,1.05-1.209,1.415-2.331.342-1.451-1.386-2.857-2.819-4.263-4.254-.363-.372-.608-.469-1.025-.043-2.039,2.079-4.109,4.127-6.164,6.191a1.422,1.422,0,0,0-.172.277c-.011.93-.032,1.859-.032,2.787,0,4.145-.009,8.291.018,12.436,0,.225-.333.735.32.723,4.093.009,8.189.048,12.282,0a2.533,2.533,0,0,0,1.957-1.1q2.633-3.517,5.286-7.023c.243-.322.81-.708.744-.891-.15-.41-.592-.719-.927-1.057-1.075-1.082-2.182-2.134-3.218-3.252-.386-.417-.891-.878-.594-1.592a1.357,1.357,0,0,1,2.27-.426c.478.438.925.912,1.374,1.379.24.252.354.313.6-.059.544-.828,1.184-1.6,1.782-2.388.342-.345.687-.687,1.03-1.032a12.245,12.245,0,0,1,3.506-1.864,10.357,10.357,0,0,1,5.578,0c4.012,1.054,8.019,2.138,12.023,3.22,1.6.433,3.182.95,4.8,1.318a6.465,6.465,0,0,0,3.191-.351c2.011-.567,3.991-1.274,6.025-1.726,2.612-.578,5.148-1.431,7.758-2.018,1.308-.295,2.61-.8,3.928-1.088,2.848-.626,5.6-1.578,8.433-2.254a28.292,28.292,0,0,0,2.912-.8c.608-.215.655-.429.553-1a4.969,4.969,0,0,0-1.451-2.941,2.8,2.8,0,0,0-2.773-.449c-3.358.927-6.746,1.744-10.093,2.7-2.744.785-5.52,1.458-8.257,2.284-1.839.556-3.726,1-5.6,1.474a11.109,11.109,0,0,1-2.728.3.677.677,0,0,0-.678-.17,7.992,7.992,0,0,1-2.379-1.086l-.2-.132c-3-2.98-6-5.95-8.982-8.946a2.2,2.2,0,0,0-1.764-.732c-1.268.043-2.538,0-3.805-.011.02-.22-.079-.435-.274-.451-.474-.039-.515-.388-.61-.717l.17-.34c.113-.17.227-.34.34-.508a1,1,0,0,1,1.041-.515c4.268.02,8.538.014,12.806.011,1.63,0,2.78-.941,2.807-2.288.041-1.937-.914-3.025-2.78-3.061-2.2-.041-4.411-.007-6.615-.014a1.692,1.692,0,0,1-1.451-.467,1.173,1.173,0,0,1,.494-1.975.259.259,0,0,1,.084,0c3.188-.043,6.415-.551,9.536.367a4.931,4.931,0,0,1,3.322,5.177,5.254,5.254,0,0,1-2.134,3.878,4.256,4.256,0,0,1-2.662.93c-1.753,0-3.5.018-5.256.029-.152-.025-.426-.054-.417.036a.48.48,0,0,0,.417.41c1.356,1.342,2.735,2.665,4.059,4.036.41.424.769.5,1.2.145.746-.624,1.825-.746,2.413-1.6.154-.061.424.279.474-.138l.488-.209a.851.851,0,0,0,.7-.472c.5-.345,1.252-.352,1.413-1.143.032-.156.295-.057.454-.036.029.066.059.132.088.2.027-.068.054-.136.082-.2.735-.338,1.469-.639,2.2,0a.287.287,0,0,0,.306.306c.082,1.295-.828,1.85-1.778,2.37-.209.113-.474.12-.619.349l-.111.118q-2.347,1.194-4.594,2.567c-.113.034-.29-.014-.311.154-.029.236.175.2.317.22a1.808,1.808,0,0,0,1.531.871c.045.234.116.395.345.127a.852.852,0,0,0,1.052.011c.61-.329,1.206-.683,1.807-1.025a.845.845,0,0,0,.7-.469c.163-.07.324-.141.488-.209a.853.853,0,0,0,.7-.469c.921-.569,2.025-.846,2.751-1.728.154-.061.424.279.474-.138.163-.07.324-.141.488-.209a.853.853,0,0,0,.7-.469,3.932,3.932,0,0,0,1.567-1.048c.152-.061.422.277.469-.136l.488-.211a.853.853,0,0,0,.7-.469,13.686,13.686,0,0,0,2.751-1.728l.252-.125a.093.093,0,0,1,.132,0v.152l.027-.156c.184-.073.367-.143.549-.215.272.048.354-.215.526-.327.025.011.052.023.077.036-.023-.014-.045-.029-.07-.043,0-.059,0-.118-.009-.177.678-.5.655-.805-.12-1.166a3.1,3.1,0,0,0-3.079.052c-1.066.649-2.1,1.342-3.186,1.968-.893.517-1.714.558-2.2-.211-.469-.746-.256-1.279.655-1.971.755-.574,1.789-.71,2.367-1.544.154-.061.424.279.472-.138a8.757,8.757,0,0,1,4.193-1.17c.54-.018,1.082.447,1.646.594a4.3,4.3,0,0,1,2,1.553c.256.279.413.431.807.27a5.684,5.684,0,0,1,7.134,2.776,7.135,7.135,0,0,1,.669,1.211c.147.581.7.549,1.084.605a5.585,5.585,0,0,1,3.667,2.481.279.279,0,0,0,.29.3l.048.181c0,.052,0,.1,0,.159a35.257,35.257,0,0,0,1.018,3.563v.34ZM62.769,202.24a43.471,43.471,0,0,0,5.66-1.383,42.54,42.54,0,0,1,4.4-1.2c1.807-.322,3.474-1.125,5.284-1.395.308-.045.324-.2.245-.388-.794-1.864-2.524-3.247-4.665-2.089-2.873,1.553-5.674,3.243-8.492,4.891a12.446,12.446,0,0,0-2.429,1.562Z" transform="translate(0 -143.457)" fill="#858585"/>
        <path id="Path_385" data-name="Path 385" d="M171.783,23.916a4.152,4.152,0,0,1,.238-1.458,2.16,2.16,0,0,0-.823-2.483c-1.655-1.533-3.288-3.093-4.869-4.7a2.772,2.772,0,0,1-.952-2.175,2.914,2.914,0,0,1,.984-2.084l.186-.129a6.7,6.7,0,0,1,2.665-.708c1.524-.345,3.073-.542,4.615-.782.363-.057.721-.043,1.079-.084,1.429-.159,1.873-1.284,2.329-2.374.812-1.941,1.85-3.769,2.757-5.665.327-.683,1.123-.828,1.655-1.281h1.7c2.424,1.61,2.787,4.517,4.231,6.744a6.263,6.263,0,0,1,.687,1.386,1.762,1.762,0,0,0,1.463,1.161c.857.177,1.739.24,2.61.351l1.018.17c1.381.236,2.771.426,4.141.721a2.385,2.385,0,0,1,1.941,1.932,3.022,3.022,0,0,1-1.1,3.129,4.6,4.6,0,0,0-.4.283c-1.565,1.5-3.134,2.991-4.683,4.506a1.6,1.6,0,0,0-.46,1.628c.435,2.125.717,4.281,1.086,6.42a4.5,4.5,0,0,1,.014,2.538c-.708,1.705-2.551,2.413-4.633,1.175-1.848-1.1-3.787-2.05-5.653-3.125a2.58,2.58,0,0,0-2.773.2c-1.959,1.077-3.93,2.132-5.891,3.2a2.52,2.52,0,0,1-3.021-.211,3.022,3.022,0,0,1-1.073-3.138c.263-1.145.451-2.3.6-3.46-.014-.3.354-.517.175-.848.014-.168.027-.336.043-.5.2-.059.161-.2.122-.347Zm.349-11.717c-1.127.181-2.216.556-3.352.685-.295.034-.708-.129-.825.231-.127.39.311.574.546.766,1.769,1.438,3.234,3.193,4.964,4.674a4.12,4.12,0,0,1,1.188,4.041c-.381,2.324-.871,4.631-1.306,6.948a.492.492,0,0,0,.2.594.444.444,0,0,0,.472-.025c1.7-.973,3.386-1.984,5.123-2.891a7.746,7.746,0,0,1,2.959-1.134c1.581-.136,2.744.689,4,1.358q2.419,1.289,4.812,2.621c.469.263.549.132.6-.345a4.025,4.025,0,0,0-.2-1.141c-.3-1.81-.61-3.619-.977-5.417a4.549,4.549,0,0,1,.571-3.948,24.582,24.582,0,0,1,3.236-3.227c.927-.787,1.726-1.692,2.606-2.517.229-.215.442-.506-.177-.594-2.179-.313-4.343-.735-6.529-.986a4.709,4.709,0,0,1-4.136-2.8c-.948-2.052-2-4.057-3-6.082-.1-.2-.152-.417-.426-.463-.338-.054-.347.259-.426.42-.719,1.469-1.494,2.909-2.163,4.4-.71,1.585-1.361,3.309-3.138,4.027a18.851,18.851,0,0,1-4.612.8Z" transform="translate(-127.867 0.01)" fill="#858585"/>
        <path id="Path_386" data-name="Path 386" d="M131.209,35.141a1.315,1.315,0,0,1,1.147.44c.8.8,1.621,1.576,2.386,2.406.435.474.875,1.016.265,1.692a1.264,1.264,0,0,1-1.943.181,25.373,25.373,0,0,1-2.8-2.678.892.892,0,0,1-.218-1.206c.288-.454.522-.946,1.161-.832Z" transform="translate(-100.441 -27.159)" fill="#858585"/>
        <path id="Path_387" data-name="Path 387" d="M329.317,40.126a.772.772,0,0,1-.884-.508,1.3,1.3,0,0,1-.059-1.349,15.871,15.871,0,0,1,2.925-2.975,1.325,1.325,0,0,1,1.744.061,1.3,1.3,0,0,1-.054,1.8c-.875.918-1.8,1.787-2.68,2.7-.279.293-.6.259-.993.265Z" transform="translate(-253.779 -27.057)" fill="#858585"/>
        <path id="Path_388" data-name="Path 388" d="M119.008,83.968c-.592,0-1.186.011-1.778,0a1.216,1.216,0,0,1-1.268-1.127,1.237,1.237,0,0,1,1.206-1.388c1.3-.043,2.6-.059,3.894,0a1.2,1.2,0,0,1,1.172,1.261,1.209,1.209,0,0,1-1.193,1.247c-.676.041-1.354.009-2.032.009v0Z" transform="translate(-89.664 -62.949)" fill="#858585"/>
        <path id="Path_389" data-name="Path 389" d="M131.575,121.761a1.193,1.193,0,0,1-1.159-.66,1.164,1.164,0,0,1,.109-1.435c.937-.937,1.857-1.889,2.81-2.81a1.764,1.764,0,0,1,1.855.125.969.969,0,0,1,.039,1.5c-.957,1.068-2,2.059-3.046,3.048C132.033,121.67,131.781,121.865,131.575,121.761Z" transform="translate(-100.691 -90.19)" fill="#858585"/>
        <path id="Path_390" data-name="Path 390" d="M341.2,81.481c.592,0,1.186-.014,1.778,0,.862.023,1.236.388,1.268,1.2a1.179,1.179,0,0,1-1.17,1.324,39.438,39.438,0,0,1-3.978-.018,1.105,1.105,0,0,1-.971-1.249c0-.7.292-1.2,1.041-1.24.676-.041,1.354-.009,2.032-.009v-.011Z" transform="translate(-261.453 -62.998)" fill="#858585"/>
        <path id="Path_391" data-name="Path 391" d="M333.241,119.712c.338.825.2,1.431-.435,1.81a1.2,1.2,0,0,1-1.685-.295c-.735-.812-1.547-1.553-2.313-2.338a1.4,1.4,0,0,1-.218-1.928,1.46,1.46,0,0,1,1.937.036A36.492,36.492,0,0,0,333.241,119.712Z" transform="translate(-253.847 -90.166)" fill="#858585"/>
      </g>
    </g>
  </g>
</svg>
