<svg xmlns="http://www.w3.org/2000/svg" xmlns:xlink="http://www.w3.org/1999/xlink" width="130" height="130" viewBox="0 0 130 130">
  <defs>
    <clipPath id="clip-baby_changing_rooms">
      <rect width="130" height="130"/>
    </clipPath>
  </defs>
  <g id="baby_changing_rooms" data-name="baby changing rooms" clip-path="url(#clip-baby_changing_rooms)">
    <g id="Layer_1" data-name="Layer 1" transform="translate(23.42 27.995)">
      <g id="Group_31" data-name="Group 31" transform="translate(0.01 0.005)">
        <path id="Path_157" data-name="Path 157" d="M14.423,172a4.621,4.621,0,0,1-2.472-2.581c.271-.271.042-.3-.164-.339a20.057,20.057,0,0,0-.589-3.137,5.193,5.193,0,0,1-.033-.633c.23-.241.046-.285-.153-.322-.127-1.379-.493-2.712-.753-4.065-.394-2.047-.823-4.087-1.241-6.129-.484-2.364-.972-4.728-1.449-7.095a5.366,5.366,0,0,1-.053-.729c.024-.116-.02-.162-.136-.131-1.813-.009-3.627-.039-5.44-.015A2.141,2.141,0,0,1,.01,146.15v-.164a.551.551,0,0,0,0-.819V145c1.007-1.552,1.611-3.308,2.461-4.939.5-.963.924-1.968,1.408-2.942a1.4,1.4,0,0,1,1.8-.76,1.407,1.407,0,0,1,.414,1.845c-.954,2.031-1.931,4.054-2.927,6.14H7.989c1.16,0,1.563.247,1.793,1.377.6,2.931,1.119,5.878,1.7,8.813.512,2.588,1.073,5.166,1.6,7.752.407,1.994.784,4,1.191,5.989.138.681.394,1.274,1.252,1.3.9.024,1.3-.21,1.519-1.182.42-1.883.768-3.781,1.151-5.67.414-2.045.843-4.087,1.246-6.134.416-2.1.8-4.212,1.211-6.316.322-1.659.626-3.321,1.007-4.967a1.219,1.219,0,0,1,1.313-.963c1.692.02,3.384.007,5.14.007a12,12,0,0,0-1.136-2.583c-1.263-2.62-2.574-5.217-3.846-7.833-.425-.873-.757-1.791-1.189-2.66a.9.9,0,0,1,.228-1.141c1.559-1.635,3.255-3.13,4.739-4.842a1.268,1.268,0,0,1,1.657.037c.873.86,1.747,1.723,2.605,2.6a1.457,1.457,0,0,1-.088,2.242c-.6.339-1.149-.116-1.6-.484a11.006,11.006,0,0,1-1.257-1.278c-.344-.39-.584-.313-.93.022a19.443,19.443,0,0,1-2.478,2.342c-.372.252-.217.554-.068.845.749,1.489,1.543,2.957,2.237,4.47.6,1.294,1.208,2.577,1.876,3.833a2.23,2.23,0,0,0,.451.854,32.287,32.287,0,0,0,1.762,3.8,1.756,1.756,0,0,1,.28.937c-.127,1.171-.247,1.294-1.419,1.3-1.637,0-3.275,0-4.912,0-1.215,0-1.235,0-1.421,1.167-.169,1.066-.464,2.11-.635,3.17-.7,4.334-1.74,8.605-2.489,12.931-.306,1.764-.81,3.5-1.112,5.263-.188,1.1-1.018,1.565-1.714,2.209-.93.86-2.036.377-3.069.451-.026-.066-.053-.131-.079-.195l-.083.193Z" transform="translate(-0.01 -97.638)" fill="#858585"/>
        <path id="Path_158" data-name="Path 158" d="M213.676,219.847H194.51a3.668,3.668,0,0,1-3.255-1.718,3.309,3.309,0,0,1-.652-2.745,4.574,4.574,0,0,1,2.592-3.378,1.862,1.862,0,0,1,.827-.215c3.9-.009,7.806-.026,11.707-.028q11.342-.007,22.681,0a3.985,3.985,0,0,1,3.568,1.865,4,4,0,0,1-3.176,6.178c-3.246.048-6.5.02-9.744.015a1.241,1.241,0,0,1-1.287-1.23,1.225,1.225,0,0,1,1.309-1.219c3.111-.011,6.224,0,9.334-.007a1.521,1.521,0,0,0,1.64-1.723,1.619,1.619,0,0,0-1.64-1.421c-.136-.007-.274,0-.409,0q-16.254,0-32.508-.013a3.945,3.945,0,0,0-1.944.609c-.6.331-.418,1-.32,1.482a1.4,1.4,0,0,0,1.193,1.044,5.411,5.411,0,0,0,.981.026c6.086,0,12.174.009,18.259-.009.781,0,1.4.188,1.635.992.18.609-.306,1.263-1.13,1.618-.114-.256-.322-.127-.5-.118Z" transform="translate(-148.815 -165.406)" fill="#858585"/>
        <path id="Path_159" data-name="Path 159" d="M226.759,139.958a4.972,4.972,0,0,1-2.951.994c-2.642-.053-5.287,0-7.929-.013a4.592,4.592,0,0,1-3.4-1.957c-.144-.164-.366-.271-.449-.493.276-.381.022-.53-.287-.657-.07-.269-.138-.539-.208-.808l-.131-.173q-.916-2.315-1.83-4.63a.725.725,0,0,0-.775-.495,22.94,22.94,0,0,1-4.212-.12,4.415,4.415,0,0,1-3.069-3.227c-.648-2.487,1.874-4.974,4.12-4.939,2.209.035,4.429-.123,6.624.044a5.276,5.276,0,0,1,4.626,2.912c.363.731.714,1.469,1.077,2.2a2.059,2.059,0,0,0,2.329.635c.247-.153.182-.37.188-.576.022-.845,0-1.692.059-2.535a3.807,3.807,0,0,1,3.621-3.376,4.135,4.135,0,0,1,3.949,1.935,4.521,4.521,0,0,1,.624,2.428c.024,2.973.024,5.946.031,8.916-.039.147-.068.289.125.352-.05.208-.311.271-.322.528a3.963,3.963,0,0,1-1.635,2.922c-.118-.042-.153.037-.18.125Zm-15.512-9.984c-.035.118.037.153.129.173.821,2.082,1.613,4.175,2.476,6.239.543,1.3,1.156,2.148,3,2.1,2.347-.063,4.693-.015,7.042-.015a2.415,2.415,0,0,0,2.246-1.856,6.013,6.013,0,0,0,.147-1.513c0-2.566.028-5.131-.009-7.7-.024-1.705-.676-2.242-1.69-2.2-1.263.057-1.631.482-1.633,2.117,0,.954.011,1.911,0,2.866a1.368,1.368,0,0,1-1.556,1.55c-1.2.011-2.4-.011-3.6.007a1.541,1.541,0,0,1-1.5-.957c-.519-1.038-1.073-2.06-1.546-3.119a2.815,2.815,0,0,0-2.8-1.751c-1.856-.013-3.713,0-5.569-.007a3.143,3.143,0,0,0-1.718.326c-.118-.046-.151.035-.179.123-.158.127-.315.254-.473.379-.039,0-.077.009-.116.011.037.037.077.072.114.109a1.722,1.722,0,0,0,1.834,2.423c1.327,0,2.655.015,3.982-.007a1.49,1.49,0,0,1,1.423.694Z" transform="translate(-157.327 -95.872)" fill="#858585"/>
        <path id="Path_160" data-name="Path 160" d="M66.334,83.788a5.117,5.117,0,0,1-1.324,4.359,4.348,4.348,0,0,1-4.525,1.143,3.9,3.9,0,0,1-1.743-1.053c-1.37-1.419-2.787-2.793-4.186-4.186a1.058,1.058,0,0,1-.092-1.574,1.236,1.236,0,0,1,1.675-.142,3.38,3.38,0,0,1,.749.6c1.125,1.112,2.237,2.237,3.358,3.356a2.036,2.036,0,0,0,3.1.07,2.327,2.327,0,0,0-.074-3.109q-5.208-5.211-10.42-10.416a1.555,1.555,0,0,1-.468-1.705A5.084,5.084,0,0,0,50.608,65.4l-.177-.123a4,4,0,0,0-1.786-.69l-.171-.134a7.162,7.162,0,0,0-3.067.32,3.168,3.168,0,0,0-1.386.992l-.12.114a80.613,80.613,0,0,0-6.679,7.1A72.659,72.659,0,0,0,29.864,84.14c-.615,1.125-1.552,1.287-2.178.341a1.565,1.565,0,0,1,.116-1.729,80.918,80.918,0,0,1,5.125-8.24c1.629-2.167,3.316-4.282,5.129-6.3,1.2-1.34,2.5-2.577,3.741-3.866A7.8,7.8,0,0,1,51.93,63.337a7.145,7.145,0,0,1,3.146,5.35,6.436,6.436,0,0,1-.022,1.642,1.8,1.8,0,0,0,.574,1.74c2.907,2.8,5.755,5.665,8.586,8.544a8.488,8.488,0,0,1,1.865,2.467,3.98,3.98,0,0,1,.131.536c-.044.118.033.151.123.175Z" transform="translate(-21.46 -48.365)" fill="#858585"/>
        <path id="Path_161" data-name="Path 161" d="M145.808,15.4a10.675,10.675,0,0,1-3.914,1.143,8,8,0,0,1-3.391-.661,7.974,7.974,0,0,1-4.934-6.018A8.11,8.11,0,0,1,139.915.214a7.864,7.864,0,0,1,7.292,2.021,7.651,7.651,0,0,1,2.559,5.228,8.353,8.353,0,0,1-2.671,6.92,9.657,9.657,0,0,1-.944.729.291.291,0,0,0-.346.291ZM141.6,13.957a5.581,5.581,0,0,0,5.775-5.766,5.752,5.752,0,0,0-11.5.1A5.632,5.632,0,0,0,141.6,13.957Z" transform="translate(-104.204 -0.005)" fill="#858585"/>
        <path id="Path_162" data-name="Path 162" d="M329.387,152.841a5.885,5.885,0,0,1,3.448-8.752,5.778,5.778,0,0,1,7.421,4.323,5.323,5.323,0,0,1-.565,4.188,6.613,6.613,0,0,1-3.262,2.793,5.491,5.491,0,0,1-6.182-1.447c-.28-.269-.727-.355-.86-.777.105-.015.23-.028.23-.164S329.492,152.856,329.387,152.841Zm5.2.493c1.392.035,3.54-1.445,3.411-3.435-.138-2.128-1.274-3.349-3.61-3.588-1.7-.175-3.373,1.646-3.4,3.5A3.528,3.528,0,0,0,334.591,153.334Z" transform="translate(-256.632 -112.355)" fill="#858585"/>
        <path id="Path_163" data-name="Path 163" d="M33.67,224.727c.118-.031.162.015.136.131C33.76,224.815,33.714,224.771,33.67,224.727Z" transform="translate(-26.301 -175.526)" fill="#858585"/>
      </g>
    </g>
  </g>
</svg>
