<svg xmlns="http://www.w3.org/2000/svg" xmlns:xlink="http://www.w3.org/1999/xlink" width="130" height="130" viewBox="0 0 130 130">
  <defs>
    <clipPath id="clip-telecommunication">
      <rect width="130" height="130"/>
    </clipPath>
  </defs>
  <g id="telecommunication" clip-path="url(#clip-telecommunication)">
    <g id="Layer_1" data-name="Layer 1" transform="translate(23.001 20)">
      <g id="Group_41" data-name="Group 41" transform="translate(0 0)">
        <path id="Path_315" data-name="Path 315" d="M66.753,95.477c.014.369.325.53.542.748,1.57,1.584,3.151,3.156,4.726,4.735,1.733,1.738,2.144,3.441.829,5.616l-.026.028a3.849,3.849,0,0,1-2.8,1.467c.016-.019.054-.044.049-.054-.03-.082-.065-.077-.082.007,0,.012.037.03.056.044-1.18-.021-2.378.3-3.534-.173-.292-.119-.47.152-.729.161a19.133,19.133,0,0,1-3.829-.411,1.459,1.459,0,0,1-.925-1.715,1.588,1.588,0,0,1,1.645-.834c.776.25,1.593.054,2.352.325a.326.326,0,0,0,.36-.385c-.014-.332-.273-.5-.477-.7C56.589,96.07,48.373,87.7,39.993,79.5c-2.556-2.5-5.015-5.1-7.566-7.613-.572-.563-1.082-1.3-2-1.406l0,0-.11-.18c-.649-.47-.147-.993.047-1.369a1.11,1.11,0,0,1,1.418-.493,3.434,3.434,0,0,1,1.252.862Q50.691,86.98,68.362,104.644c.895.895,1.7,1.012,2.415.355.453-.413.194-1.42-.563-2.177q-26.9-26.9-53.8-53.8a6.3,6.3,0,0,1-.645-.7,1.263,1.263,0,0,0-1.392-.547,1.262,1.262,0,0,0-1.051.9,1.3,1.3,0,0,0,.57,1.551,2.893,2.893,0,0,1,.575.526q6.15,6.146,12.3,12.288A17.737,17.737,0,0,1,28.72,65.23c-.037.126.037.166.142.182-.035.425.21.988-.521,1.079-.3.124-.514.3-.42.67-.243-.435-.544.114-.8-.044.089-.5-.217-.8-.535-1.117Q20.44,59.872,14.306,53.732c-.145-.145-.285-.292-.442-.423a.382.382,0,0,0-.61.04c-.2.28.033.411.245.526a23.67,23.67,0,0,0,.381,3.369,35.665,35.665,0,0,0,.862,4.852,12.014,12.014,0,0,1,.346,2.257c0,.206.154.276.3.355.463,1.6,1.007,3.168,1.619,4.716-.037.126.04.166.14.187a6.72,6.72,0,0,0,.96,2.273c.007.121-.157.287.089.348a43.909,43.909,0,0,0,3.053,5.91,51.834,51.834,0,0,0,5.382,7.45,49.753,49.753,0,0,0,7.039,6.917c.2.159.388.339.582.509.037.091.072.185.2.143a46.958,46.958,0,0,0,5.6,3.974,70.679,70.679,0,0,0,7.536,4,39.739,39.739,0,0,0,4.656,1.652,4.029,4.029,0,0,1,.925.381c1.14.717,2.493.577,3.721.941a2.352,2.352,0,0,1,1.371,1.147c0,.117,0,.234.007.35-.22.92-.743,1.25-1.817,1.1a9.828,9.828,0,0,1-1.325-.285,68.356,68.356,0,0,1-10.183-3.642c-.014-.39-.082-.684-.533-.3a47.613,47.613,0,0,1-7.394-4.2c-.474-.318-.766-.385-1.2.084-1.007,1.089-2.081,2.116-3.137,3.161a.906.906,0,0,0-.236,1.147c1.64,4.359,3.182,8.756,4.836,13.108.677,1.78,1.413,3.541,2.06,5.336a.517.517,0,0,0,.565.4c.2,0,.406,0,.612,0,12.138,0,24.276.014,36.417-.021,1.322,0,1.878.878,1.736,1.6-.084.432-.484.68-.691,1.044H26.942c-.138-.409-.666-.521-.71-1.03a1.36,1.36,0,0,1,1.535-1.589c2.96-.007,5.92,0,8.956,0-.93-2.451-1.862-4.826-2.719-7.232a.789.789,0,0,0-.906-.645q-8.031.025-16.063,0a.825.825,0,0,0-.958.675c-.752,2.208-1.56,4.4-2.446,6.553-.285.691-.021.649.463.647,2.591-.007,5.179,0,7.77,0a1.733,1.733,0,0,1,1.25.376c.738.663.638,1.318-.364,2.247H.9c-.572-.411-1.084-.888-.825-1.67.264-.8.927-.967,1.712-.96,2.677.023,5.354-.014,8.029.028a.97.97,0,0,0,1.072-.736c1.292-3.049,2.252-6.219,3.462-9.3.974-2.479,1.885-4.98,2.813-7.475.145-.392.227-.808.339-1.212.224-.037.449-.072.173-.353.355-.477.012-.783-.287-1.072a10.274,10.274,0,0,1-3.21-7.312,9.754,9.754,0,0,1,1.236-5.394,12.557,12.557,0,0,1,2.5-3.163c.869-.773,1.631-1.668,2.493-2.448a.814.814,0,0,0,.1-1.306,15.357,15.357,0,0,1-2.156-3.775c.093-.285-.079-.348-.306-.364a22.075,22.075,0,0,1-2.313-4.88c.1-.292-.075-.355-.308-.364a38.766,38.766,0,0,1-2.448-6.966l.126-.126-.128-.063a14.468,14.468,0,0,1-1.037-3.71c-.392-1.906-.638-3.838-.925-5.765a40.163,40.163,0,0,1-.283-6.964,3.181,3.181,0,0,1,1.355-2.789l.189-.126a3.268,3.268,0,0,1,3.67-.21c.03.572.442.266.7.306a2.2,2.2,0,0,1,1.194.794Q40.5,69.424,63.169,92.092c.264.264.556.5.834.755.042.042.084.084.126.124,0-.044.007-.091.012-.135q.011-12.187.021-24.372c0-1.311-.014-2.621-.021-3.929.044-.133-.012-.173-.138-.152a11.556,11.556,0,0,1-2.985.5,5.535,5.535,0,0,1-3.079-.986,11.257,11.257,0,0,1-1.871-1.25,7.08,7.08,0,0,1-2.042-5.595,7.693,7.693,0,0,1,1.472-4A4.207,4.207,0,0,1,57.369,51.8l.138.14c2.724,2.743,5.438,5.492,8.174,8.221a3.4,3.4,0,0,1,1.131,2.644c-.065,3.518-.012,7.036-.037,10.554a.921.921,0,0,0,.654,1.009c1.521.647,2.9,1.6,4.481,2.112.4.131.313.764.836.652a.327.327,0,0,0,.037.154,1.167,1.167,0,0,1-.21.7c-.2.042-.135.224-.182.346-.4.8-1.075.612-1.733.488-.026-.07-.054-.138-.079-.208l-.1.192c-.939-.484-1.876-.969-2.82-1.446-.862-.435-.869-.427-.871.544q-.014,8.6-.023,17.205c-.084.049-.227.082-.243.147-.042.173.107.2.243.222Zm-35.62,11.014c-.047-.061-.091-.124-.138-.185-.25-.715-.512-1.427-.745-2.147a.628.628,0,0,0-.923-.439,9.366,9.366,0,0,1-2.593.7,10.1,10.1,0,0,1-5.688-.575c-.628-.292-1.021-.166-1.257.477l-2.425,6.655H32.712c-.18-.577-.355-1.135-.528-1.691-.047-.061-.091-.121-.138-.185l-.911-2.612Zm1.546-11.377c-.283-.243-.563-.486-.846-.727-.068-.049-.135-.1-.2-.145-.5-.423-1.033-.818-1.5-1.275a63.528,63.528,0,0,1-7.3-7.98c-.236-.327-.465-.449-.813-.056-.962,1.079-2.025,2.06-3,3.135a8.176,8.176,0,0,0-2.007,7.655A5.933,5.933,0,0,0,18.96,99.21c.178-.472.322-.862.47-1.25a5.8,5.8,0,0,1,6.959-3.738c2.6.533,3.826,2.313,4.56,4.609.152.479.227.547.572.18.46-.486.946-.948,1.416-1.425.388-.392,1.026-.752,1.093-1.2.091-.6-.818-.67-1.145-1.131l-.2-.143Zm-7.707,1.577a2.95,2.95,0,0,0-1.738.435c-1.252.757-1.434,2.067-1.916,3.256-.243.6,0,.771.413.965a7.892,7.892,0,0,0,6.782-.11c.346-.152.5-.35.346-.717-.269-.647-.533-1.3-.813-1.941a2.89,2.89,0,0,0-3.074-1.885ZM61.338,62.256a3.62,3.62,0,0,0,1.542-.332c.479-.18.5-.374.145-.724-1.841-1.824-3.679-3.649-5.492-5.5-.446-.458-.6-.1-.666.2a5.633,5.633,0,0,0-.245,2.3,4.783,4.783,0,0,0,4.712,4.06Z" transform="translate(-0.004 -34.628)" fill="#858585"/>
        <path id="Path_316" data-name="Path 316" d="M189.8,71.761c.5.371,1,.748,1.5,1.112a1.6,1.6,0,0,1,.577,2.154c-.416.582-1.247.6-2.067.021a56.977,56.977,0,0,1-8.473-7.447,65.483,65.483,0,0,1-4.5-5.368c-.829-1.084-1.509-2.4-2.259-3.6a62.727,62.727,0,0,1-4.118-8.02,1.241,1.241,0,0,1,.577-1.745,1.334,1.334,0,0,1,1.813.68,56.285,56.285,0,0,0,7.641,12.991,48.63,48.63,0,0,0,5.237,5.77c1.247,1.149,2.579,2.208,3.871,3.308.035.091.072.182.2.143Z" transform="translate(-130.528 -37.351)" fill="#858585"/>
        <path id="Path_317" data-name="Path 317" d="M249.267,36.36a42.4,42.4,0,0,1-4.763-6.268,40.065,40.065,0,0,1-2.712-5.317,1.349,1.349,0,0,1,2.556-.864,38.388,38.388,0,0,0,2.13,4.305c.264.467.589.9.888,1.346-.03.124.04.166.145.182a17.6,17.6,0,0,0,2.32,3.245,33.439,33.439,0,0,0,7.559,6.707,37.442,37.442,0,0,0,5.6,2.978c.5.222.932.47.974,1.135a1.221,1.221,0,0,1-.738,1.32,1.517,1.517,0,0,1-1.6-.114,24.079,24.079,0,0,0-2.458-1.259,33.031,33.031,0,0,1-7.118-4.847c-.383-.339-.794-.645-1.191-.965l-1.586-1.586Z" transform="translate(-185.265 -17.665)" fill="#858585"/>
        <path id="Path_318" data-name="Path 318" d="M318.078,12.438a5.918,5.918,0,0,1-2.208-.916A19.679,19.679,0,0,1,309.022,5.4a14.9,14.9,0,0,1-1.895-3.654,1.171,1.171,0,0,1,.432-1.488,1.224,1.224,0,0,1,1.635.114,2.044,2.044,0,0,1,.542.766A16.071,16.071,0,0,0,314.2,7.18a22.176,22.176,0,0,0,4.443,2.785c.537.276.955.673.783,1.282s-.491,1.25-1.348,1.189Z" transform="translate(-235.304 -0.002)" fill="#858585"/>
      </g>
    </g>
  </g>
</svg>
