<svg xmlns="http://www.w3.org/2000/svg" xmlns:xlink="http://www.w3.org/1999/xlink" width="130" height="130" viewBox="0 0 130 130">
  <defs>
    <clipPath id="clip-Valet_Service_gray_">
      <rect width="130" height="130"/>
    </clipPath>
  </defs>
  <g id="Valet_Service_gray_" data-name="Valet Service (gray)" clip-path="url(#clip-Valet_Service_gray_)">
    <g id="Layer_1" data-name="Layer 1" transform="translate(27.242 27.028)">
      <g id="Group_39" data-name="Group 39" transform="translate(-0.01 0)">
        <path id="Path_296" data-name="Path 296" d="M51.231,26.673c-.722-.008-1.447-.022-2.169-.024-.936,0-.926,0-.926.96q0,8.9,0,17.805a2.449,2.449,0,0,1-.124.948A1.428,1.428,0,0,1,46.637,47.4c-1.323-.018-2.645-.016-3.966,0-.82.008-1.235-.636-1.769-1.074A12.087,12.087,0,0,1,38.558,44.4a1.553,1.553,0,0,1-.356-.988c.008-3.343-.016-6.687.016-10.03.006-.65-.142-.828-.816-.826q-17.662.036-35.326.02a2.889,2.889,0,0,1-1.943-.486c.254-.246.184-.388-.142-.452V8.133a2.041,2.041,0,0,1,1.847-.9q4.34,0,8.682,0a1.486,1.486,0,0,1,1.567.83c.182.434.292.13.458.024Q16.55,5.49,20.562,2.9a22.147,22.147,0,0,1,4.6-2.649A4.954,4.954,0,0,1,26.3.052a9.732,9.732,0,0,1,6.763,1.839c2.579,1.8,5.282,3.417,7.917,5.138a1.246,1.246,0,0,0,.754.2c1.571,0,3.143.034,4.714-.016a3.211,3.211,0,0,1,1.965.64c1.245.842,2.5,1.669,3.726,2.537a1.662,1.662,0,0,1,.692,1.395c0,4.39.01,8.782,0,13.171a1.638,1.638,0,0,1-1.541,1.713l-.032-.02-.03.022ZM35.619,9.362c.494-.384.986-.77,1.485-1.158a4.313,4.313,0,0,0-.456-.382c-2.075-1.339-4.12-2.723-6.209-4.038a4.914,4.914,0,0,0-2.951-.86,5.117,5.117,0,0,0-2.679.774c-.642.452-1.315.882-1.981,1.309-1.925,1.233-3.84,2.483-5.754,3.73a27.773,27.773,0,0,1-3.83,2.439c-.966.422-.95.962-.948,1.741.014,5.29.02,10.578-.01,15.868,0,.664.162.814.816.812q14.406-.054,28.812-.048a2.962,2.962,0,0,0,3.225-2.429,2.931,2.931,0,0,0-2.357-3.547,28.12,28.12,0,0,0-3.559-.148c-3.617-.018-7.235,0-10.852-.018a4.621,4.621,0,0,1-2.2-.644,6.915,6.915,0,0,1-2.381-2.681c0-.042,0-.086,0-.128-.02-.142-.046-.284-.06-.428a5.778,5.778,0,0,1,.492-3.746,6.568,6.568,0,0,1,2.747-2.4c.148.088.27.124.268-.12.328.236.636-.05.96-.048,1.565.014,3.131-.062,4.7-.032.586.01.694-.162.644-.7a2.115,2.115,0,0,1,.718-2.1l.164-.11,1.022-.78c.058-.04.116-.08.174-.122Zm14.228,8.722c0-1.695-.014-3.391.01-5.086a.889.889,0,0,0-.39-.812c-.774-.542-1.561-1.066-2.343-1.6a2.12,2.12,0,0,0-1.3-.376c-1.769.034-3.541.062-5.308-.008a2.739,2.739,0,0,0-2.067.724c-.362.33-.8.554-1.154.872-.276.244-.652.428-.648.926q.03,3.628,0,7.255c0,.376.13.444.472.448q2.416.027,4.832.09a5.828,5.828,0,0,1,4.934,2.295,1.859,1.859,0,0,0,1.929.84,1.464,1.464,0,0,1,.374,0c.508.08.684-.1.67-.638-.038-1.645-.014-3.291-.014-4.936Zm-46.861,1.8c0,3.043.01,6.086-.012,9.13,0,.462.114.584.576.576,1.745-.03,3.491-.026,5.238,0,.434.006.532-.136.53-.546q-.018-9.13,0-18.259c0-.47-.126-.578-.58-.57-1.721.028-3.441.032-5.162,0-.5-.01-.606.148-.6.62.022,3.017.01,6.036.01,9.054ZM45.14,38.228c0-1.921-.006-3.842.006-5.762,0-.39-.056-.69-.52-.464a5.951,5.951,0,0,1-2.685.544c-.49,0-.766.186-.76.786.032,2.943.014,5.886.016,8.83,0,.244-.06.51.168.694.934.75,1.713,1.777,3.165,1.535.452-.076.632-.12.624-.624-.032-1.845-.012-3.692-.012-5.536ZM30.755,20.416v0c.8,0,1.595-.024,2.389.01.438.018.542-.14.526-.548-.03-.77-.008-1.543-.008-2.315a1.21,1.21,0,0,0-1.347-1.353c-.172,0-.344-.05-.516-.052a17.887,17.887,0,0,0-3.417.044,1.991,1.991,0,0,0-1.745,2.421,2.03,2.03,0,0,0,2.1,1.795C29.41,20.39,30.084,20.416,30.755,20.416Z" transform="translate(0.01 0)" fill="#858585"/>
        <path id="Path_297" data-name="Path 297" d="M48.918,256.919a3.5,3.5,0,0,1-.546-2.155c.044-.252-.226-.558-.352-.84.16-.038.5.078.26-.3a5.112,5.112,0,0,1,.348-1.647c.036-.054.072-.108.108-.16a4.582,4.582,0,0,1,1.641-2.235l.158-.108a6.067,6.067,0,0,1,5.546-.846c1.557.388,3.073.938,4.634,1.311,2.3.548,4.514,1.385,6.807,1.961.4.1.776-.15,1.13.08,0,.05,0,.1-.008.148-.01.024-.018.048-.028.072.014-.02.028-.04.04-.06l.266-.006a18.435,18.435,0,0,0,2.339.866c.116.044.264.084.34-.028.114-.164-.014-.3-.08-.466a7.292,7.292,0,0,1-.17-4.848,1.629,1.629,0,0,1,.17-.318l.116-.162a5.132,5.132,0,0,1,2.555-2.671,1.781,1.781,0,0,0,.744-.61c.048.1.11.238.228.192.056-.022.05-.2.072-.306a3.238,3.238,0,0,0,1.1-.02c2.717-.012,5.434-.092,8.147-.012A10.162,10.162,0,0,0,88.6,242.9a14.961,14.961,0,0,1,6.8-1.09,19.155,19.155,0,0,1,8.107,2.733,5.288,5.288,0,0,0,3.009.888c2.163-.1,4.336-.034,6.5-.028,1.379,0,2.035.558,2.037,2.053,0,6.755-.006,13.509.012,20.264a2.366,2.366,0,0,1-1.058,2.223h-9.73a1.909,1.909,0,0,1-.944-1.913c.048-.744-.016-1.5.02-2.243.022-.472-.1-.64-.61-.636a33.791,33.791,0,0,0-4.618.41c-1.613.23-3.233.442-4.852.654-1.973.258-3.93.67-5.908.854-1.679.156-3.333.45-5,.658-1.192.148-2.373.082-3.557.118a23.415,23.415,0,0,1-8.343-1.713,4.343,4.343,0,0,1-2.217-1.146A1.177,1.177,0,0,1,68,263.642a1.326,1.326,0,0,1,1.208-.9,9.094,9.094,0,0,1,3.321.944,22.119,22.119,0,0,0,8.89,1.146c1.693-.116,3.365-.486,5.052-.716,1.955-.266,3.926-.44,5.866-.774,1.915-.33,3.85-.5,5.766-.84a18.151,18.151,0,0,1,4.634-.32c.5.042.62-.134.618-.62-.018-4.39-.012-8.78-.008-13.171,0-.3.014-.566-.32-.74a27.116,27.116,0,0,0-5.29-2.383,12.188,12.188,0,0,0-6.831.064c-1.253.37-2.459.844-3.665,1.325a1.2,1.2,0,0,1-.5.058c-2.993,0-5.986.006-8.98,0-2.117,0-3.421.8-3.816,2.865-.216,1.126.964,3.123,2.075,3.3a1.183,1.183,0,0,0,.558-.124c0,.29.032.544.426.334,3.165,0,6.331-.014,9.494-.008a1.667,1.667,0,0,1,1.829,1.743c.014.408-.656,1.1-1.208,1.2a4.451,4.451,0,0,1-.818.046c-3.613,0-7.229.042-10.84-.014-1.925-.03-3.882.328-5.768-.362-.024-.06-.048-.12-.072-.178l-.078.174-1.951-.7c-.006-.32-.23-.314-.458-.308A11.363,11.363,0,0,1,64.4,254.1c-3.123-.866-6.225-1.8-9.34-2.7a3.166,3.166,0,0,0-3.381,1.172,3.121,3.121,0,0,0,.216,3.481,5.056,5.056,0,0,0,2.429,1.317c1.084.388,2.183.732,3.255,1.15a1.3,1.3,0,0,1,.792,1.735,1.506,1.506,0,0,1-1.929,1c-1.3-.422-2.567-.942-3.874-1.331a5.991,5.991,0,0,1-3.541-2.843c-.04-.052-.08-.106-.118-.158Zm63.146.828c0-2.915-.012-5.832.012-8.748,0-.486-.12-.626-.614-.616-1.519.034-3.039.022-4.56.006-.38,0-.574.044-.572.508q.024,8.785,0,17.569c0,.4.122.5.5.49,1.545-.02,3.091-.03,4.634,0,.5.012.608-.138.606-.616-.022-2.865-.012-5.732-.012-8.6Z" transform="translate(-38.41 -193.391)" fill="#858585"/>
        <path id="Path_298" data-name="Path 298" d="M117.5,335.462a1.376,1.376,0,0,1,1.473,1.469,1.636,1.636,0,0,1-1.493,1.525,1.6,1.6,0,0,1-1.5-1.589,1.374,1.374,0,0,1,1.523-1.407Z" transform="translate(-92.772 -268.341)" fill="#858585"/>
        <path id="Path_299" data-name="Path 299" d="M191.216,297.024c-.394.21-.424-.044-.426-.334C190.934,296.8,191.192,296.762,191.216,297.024Z" transform="translate(-152.614 -237.328)" fill="#858585"/>
        <path id="Path_300" data-name="Path 300" d="M182.86,251.745c-.022.106-.016.284-.072.306-.12.046-.182-.088-.228-.192C182.608,251.685,182.738,251.725,182.86,251.745Z" transform="translate(-146.031 -201.361)" fill="#858585"/>
        <path id="Path_301" data-name="Path 301" d="M143.59,306.3c.226-.008.452-.014.458.308A.493.493,0,0,1,143.59,306.3Z" transform="translate(-114.858 -245.014)" fill="#858585"/>
        <path id="Path_302" data-name="Path 302" d="M151.1,292.938c0-.05.008-.1.008-.148.1.036.27-.056.27.154l-.266.006Z" transform="translate(-120.866 -234.208)" fill="#858585"/>
        <path id="Path_303" data-name="Path 303" d="M155.62,310.644l.078-.174c.024.06.048.12.072.178-.05,0-.1,0-.15-.006Z" transform="translate(-124.481 -248.351)" fill="#858585"/>
        <path id="Path_304" data-name="Path 304" d="M256.082,133.222l.03-.022.032.02c.018.054.048.116-.052.112a.624.624,0,0,1-.012-.11Z" transform="translate(-204.841 -106.549)" fill="#858585"/>
        <path id="Path_305" data-name="Path 305" d="M165.57,268.79l-.116.162C165.42,268.846,165.488,268.812,165.57,268.79Z" transform="translate(-132.341 -215.01)" fill="#858585"/>
        <path id="Path_306" data-name="Path 306" d="M134.83,66.293c.014-.208.16-.122.268-.12C135.1,66.417,134.978,66.381,134.83,66.293Z" transform="translate(-107.851 -52.917)" fill="#858585"/>
        <path id="Path_307" data-name="Path 307" d="M177.19,46.877c.032-.078.062-.158.174-.122C177.306,46.794,177.248,46.835,177.19,46.877Z" transform="translate(-141.736 -37.393)" fill="#858585"/>
        <path id="Path_308" data-name="Path 308" d="M171.26,51.357c.026-.08.054-.154.164-.11Z" transform="translate(-136.992 -40.983)" fill="#858585"/>
        <path id="Path_309" data-name="Path 309" d="M118.512,99.838l-.112-.018.108-.11C118.512,99.752,118.512,99.8,118.512,99.838Z" transform="translate(-94.708 -79.76)" fill="#858585"/>
        <path id="Path_310" data-name="Path 310" d="M151,293.552c-.014.02-.028.04-.04.06.01-.024.018-.048.028-.072Z" transform="translate(-120.754 -234.808)" fill="#858585"/>
        <path id="Path_311" data-name="Path 311" d="M210.141,69.677a1.343,1.343,0,0,1-1.4-1.431,1.309,1.309,0,0,1,1.451-1.417,1.357,1.357,0,0,1,1.511,1.409A1.5,1.5,0,0,1,210.141,69.677Z" transform="translate(-166.973 -53.459)" fill="#858585"/>
      </g>
    </g>
  </g>
</svg>
