<svg xmlns="http://www.w3.org/2000/svg" xmlns:xlink="http://www.w3.org/1999/xlink" width="130" height="130" viewBox="0 0 130 130">
  <defs>
    <clipPath id="clip-path">
      <rect id="Rectangle_16" data-name="Rectangle 16" width="81.193" height="81.217" fill="#858585"/>
    </clipPath>
    <clipPath id="clip-Accessories">
      <rect width="130" height="130"/>
    </clipPath>
  </defs>
  <g id="Accessories" clip-path="url(#clip-Accessories)">
    <g id="Group_58" data-name="Group 58" transform="translate(21385.791 -3695.256)">
      <g id="Group_57" data-name="Group 57" transform="translate(-21361.791 3719.256)">
        <g id="Group_56" data-name="Group 56" clip-path="url(#clip-path)">
          <path id="Path_398" data-name="Path 398" d="M75.918,74.612a7.822,7.822,0,0,0-4.6-1.522q-22.343.007-44.685-.013A7.5,7.5,0,0,0,20.666,75.3c-.4-.048-.568.13-.517.525l-.656,1.17c-.22.026-.464.039-.179.335-.207,1.177-.207,1.177,1.018,1.177H52.1a6.531,6.531,0,0,1,.675.006,1.349,1.349,0,1,1-.026,2.7c-.112.011-.225,0-.338,0H18.192c-.14,0-.28-.017-.42-.027-.025-.167-.08-.307-.288-.285-.164.017-.194.147-.219.277a5.055,5.055,0,0,1-2.875-.509c-.017-.174.035-.392-.215-.438-.2-.038-.265.111-.292.279l-.853-.46c.013-.57-.212-.684-.672-.351a8.8,8.8,0,0,1-3.391-4.061c.325-.4.261-.639-.281-.682a1.938,1.938,0,0,1-.357-1.183c.644-.4.217-.533-.169-.677l-.395-1.86a.669.669,0,0,0-.169-.677c.179-.469-.286-.884-.113-1.353.427-.323.4-.422-.169-.676l-.733-3.721a.666.666,0,0,0-.169-.677c.18-.469-.286-.884-.113-1.353.644-.4.217-.533-.169-.677L5.4,58.378a.666.666,0,0,0-.169-.677c.18-.469-.286-.885-.113-1.353.644-.4.217-.533-.169-.677L4.73,54.326c.117-.032.308-.014.271-.2-.041-.2-.248-.13-.392-.15l-.395-2.03a.666.666,0,0,0-.169-.677c.179-.469-.286-.884-.113-1.353.644-.4.217-.534-.169-.677q-.109-.673-.217-1.346c.117-.031.308-.014.271-.2-.041-.2-.247-.13-.392-.15-.213-1.138-.412-2.279-.65-3.411a2.182,2.182,0,0,1-.026-.647c.644-.4.217-.534-.169-.677l-.217-1.346c.117-.031.308-.014.271-.2-.041-.2-.248-.13-.392-.15a12.914,12.914,0,0,0-.395-2.03.423.423,0,0,0,0-.676c.03-.477-.493-.839-.282-1.353.207-.018.484.026.445-.3-.042-.352-.333-.371-.614-.372L.663,32.67c-.011-.233.165-.5-.121-.684.062-.462-.3-.874-.16-1.346a.308.308,0,0,0,.3-.381c-.027-.3-.255-.285-.467-.3a3.74,3.74,0,0,1-.155-1.691,1.025,1.025,0,0,0,.972-1.146l13.052-.038c.954,0,1.911-.04,2.862.014.586.034.686-.187.671-.707-.03-1.065.007-2.132.017-3.2.109-.017.238-.029.239-.168s-.129-.153-.238-.17a19.206,19.206,0,0,1,.28-4.228l.228-.677c.569-.257.594-.355.166-.676a15.206,15.206,0,0,1,1.144-3.387c.179-.017.408.059.479-.191.06-.211-.094-.281-.27-.313l.507-1.015c.3-.014.645.07.773-.316.085-.255-.1-.342-.316-.368a5.422,5.422,0,0,1,1.186-1.86c.565.065.545-.308.515-.688l-.008.007c.565.077.54-.3.523-.676l.211-.325c.452-.012.983.046.632-.7l.582-.681a.1.1,0,0,0,.078-.076l.708-.727.154-.038c.109.137.245.231.394.085s.036-.282-.08-.4l.7-.534c.527.417.494.008.5-.34l-.007.008c.38.03.753.05.688-.515a5.916,5.916,0,0,1,1.86-1.186c.03.126.024.316.207.287.325-.052.3-.332.308-.575a4.216,4.216,0,0,1,1.176-.554c.431.386.579.1.684-.289L34.16.866c.155.055.341.194.355-.131l.338,0c.028.239.175.32.4.3.207-.022.26-.166.27-.344a7.383,7.383,0,0,1,2.443-.44A8.8,8.8,0,0,1,40.6.056c.016.108.028.238.167.24s.154-.127.171-.236A24.7,24.7,0,0,1,45,.563c.143.387.276.812.677.169a10.032,10.032,0,0,1,3.044.949l.163.054c.1.269.354.091.513.186.082.737.512.7,1.034.467a.991.991,0,0,1,.665.326c.052.734.416.85,1.01.508A11.059,11.059,0,0,1,54.744,5,.886.886,0,0,1,54.781,6.5c-1,.959-.915,1.034-2.24.164A29.663,29.663,0,0,0,47.005,3.74c-.069-.027-.117-.106-.175-.16.018-.123.077-.28-.095-.32-.136-.031-.316-.071-.386.136a8.315,8.315,0,0,1-2.963-.525c-.1-.029-.2-.136-.3-.128-1.9.171-3.831-.243-5.7.357h-.677c-.279.212-.616.1-.922.169-.165.182-.4.12-.6.169a1.391,1.391,0,0,1-1.007.328c-.416-.342-.65-.258-.684.293-.645-.085-.869.778-1.522.676-.054-.32-.186-.56-.552-.36-.273.149-.732.229-.444.734l-1.368.85c-.028-.134-.071-.365-.219-.275-.529.319-1.16.558-1.292,1.284a.856.856,0,0,1-.5.677l-.187.133A7.692,7.692,0,0,0,25.2,9.906c-.161.206-.176.53-.487.618-.086-.127-.25-.235-.346-.137a5.159,5.159,0,0,0-1.117,1.477c-.042.093.125.155.238.172-.282.384-.377.892-.789,1.191-.773.312-.928.622-.507,1.014.188.746-.486,1.122-.724,1.685-.348.071-.391.244-.169.505.111.225-.1.344-.169.509-.369.094-.4.267-.122.515a.174.174,0,0,0,.009.164l-.169.506a11.558,11.558,0,0,0-.475,4.225,6.724,6.724,0,0,1-.058.936q-.007,7.12,0,14.24c0,1.492.6,1.956,2.019,1.568.207-.046.434.256.586.053s-.1-.3-.256-.395a1.986,1.986,0,0,0,.363-1.325q0-7.114.022-14.228c.109-.017.239-.029.239-.168s-.129-.153-.237-.17a18.656,18.656,0,0,1,.861-5.745,12.338,12.338,0,0,1,1.172-2.542c.108-.015.234-.03.238-.166s-.121-.157-.23-.174c-.1-.273.021-.362.278-.346.171.034.224.4.433.221.178-.151.123-.39-.077-.551a14.326,14.326,0,0,1,2.867-3.4c.273.3.438.224.515-.151q0-.158,0-.316a20.184,20.184,0,0,1,3.3-2.237,15.986,15.986,0,0,1,7.052-1.844A17.1,17.1,0,0,1,50.987,8.883a15.48,15.48,0,0,1,5.037,5.861c-.038.121.037.158.133.18a18.684,18.684,0,0,1,1.894,7.222c.281,4.886.036,9.77.139,14.653.007.31,0,.619,0,.929.016.967.482,1.533,1.259,1.533A1.516,1.516,0,0,0,60.9,37.679q0-7.431,0-14.861a8.091,8.091,0,0,1-.144-1.987c.364.025.512-.146.472-.505-.048-.435-.384-.311-.641-.341a19.288,19.288,0,0,0-3.223-8.2c-.218-.314-.407-.648-.638-.951a1.36,1.36,0,0,1,.07-2.047,1.412,1.412,0,0,1,2.07.384,21.929,21.929,0,0,1,3.718,7.336,24.217,24.217,0,0,1,.875,4.925c.28,3.4.059,6.795.137,10.191a1.059,1.059,0,0,0,.52,1.014A7.608,7.608,0,0,1,67.6,39.075,8.106,8.106,0,0,1,54.3,45.5l-.186-.137-.157-.157c.1-.623-.083-.991-.8-.865a7.057,7.057,0,0,1-1.2-2.029c.241-.034.514-.141.408-.4-.215-.533-.114-1.289-.915-1.458a9.552,9.552,0,0,1,.838-4.9,2.022,2.022,0,0,1,.3-.372c.166.235.332.243.521.018.259-.309.455-.621.165-1.016a10.549,10.549,0,0,1,1.508-1.514l.187-.124c.376-.039.488-.261.517-.623.169-2.122.177-2.121-1.936-2.121q-11.511,0-23.021,0c-.365,0-.729-.024-1.094-.037-.094-.471-.136-1-.856-.782a.919.919,0,0,1,0-1.063c.721.216.764-.312.857-.783.365-.013.731-.037,1.1-.037,8.026,0,16.052-.016,24.078.021.782,0,.89-.231.889-.928a26.28,26.28,0,0,0-.693-7.341A14.267,14.267,0,0,0,51.7,13.235a14.07,14.07,0,0,0-7.718-4.628,15.074,15.074,0,0,0-8.431.425,14.545,14.545,0,0,0-3.061,1.494c-.108-.155-.251-.238-.409-.1-.1.091-.023.193.078.259a3.958,3.958,0,0,1-1.189.859c-.087-.148-.21-.187-.343-.076-.155.129-.184.274.013.4l-1.193,1.194c-.128-.2-.273-.168-.4-.013-.111.133-.072.255.077.342l-.859,1.19c-.061-.1-.149-.189-.249-.084s-.006.189.093.248c-.285.7-.9,1.226-1.041,2-.093.028-.172.064-.13.186l-.093.264-.024.027c-.192.139.041.462-.245.56-.652.275-.747.521-.328.849.06.657-.436,1.2-.386,1.854-.108.016-.237.028-.24.166s.125.155.234.172a5.674,5.674,0,0,0-.112,2.239c-.056,2.863-.009,5.727-.036,8.591a1.021,1.021,0,0,0,.531,1.005c-.194.132-.158.276,0,.4.133.109.255.069.34-.078a2.533,2.533,0,0,1,1.355,1.348c.031.481.063.961.7,1.026.684.823.659,1.892,1,2.833a6.665,6.665,0,0,1-.045,2.423,1.651,1.651,0,0,0-.564,1.794,5.89,5.89,0,0,1-1.261,2.112c-.6-.257-.478.2-.507.51a7.709,7.709,0,0,1-5.119,2.358A7.679,7.679,0,0,1,15.9,45.035c.35-.737-.175-.683-.627-.7a5.982,5.982,0,0,1-1.2-2.029,1.185,1.185,0,0,0-.216-1.59c-.025-.012-.134.144-.2.222-.251-2.032-.246-4.018,1.052-5.767.832.083.619-.555.686-1a10.556,10.556,0,0,1,1.508-1.513l.187-.124c.7-.233.5-.819.506-1.313.009-1.431,0-1.431-1.433-1.431H2.982l.387,2.875c-.644.4-.217.533.169.677.416,1.959.814,3.922,1.061,5.912-.273.227-.113.3.123.346l.732,3.89c-.127.271.214.426.169.677l.159,1.345c-.281.248-.245.421.123.515.049.508.4.973.216,1.514-.273.226-.114.3.122.346a10.843,10.843,0,0,1,.366,1.932c-.018.243.135.269.319.267s.394,0,.59,0q12.865,0,25.731,0c.309,0,.617.018.926.027.091.363.262.4.512.128.364-.068.578.2.831.376.372,1.134.212,1.625-.654,2.011-.254-.075-.557-.406-.69.135q-6.665.014-13.331.027c-4.107,0-8.214.028-12.32-.019-.931-.011-1.2.4-1.221,1.2-.273.226-.114.3.123.346a12.222,12.222,0,0,1,.394,2.029l.169.846c-.051,1.093.659,1.029,1.441,1.027,6.508-.021,13.015-.008,19.523-.018a1.748,1.748,0,0,1,1.485.537,1.212,1.212,0,0,1,.16,1.443,1.317,1.317,0,0,1-1.348.734q-9.635-.007-19.27,0H8.654a11.5,11.5,0,0,1,.352,1.86c-.127.271.215.426.169.677L9.335,64.8c-.281.248-.245.421.123.515l.733,3.89c-.126.271.215.426.169.677l.159,1.345c-.281.248-.245.421.122.515l.554,2.529c-.282.28-.057.31.168.34a4.64,4.64,0,0,1,.667,1.171c-.048.385.115.566.507.524l.5.5c-.041.392.139.556.524.508l1.672.881c.046.238.12.4.345.122.493.059.789.113.886-.644A6.319,6.319,0,0,1,18.255,74.1c.567.07.547-.307.524-.687l.676-.676c.111.157.26.246.417.094s.073-.3-.082-.418l.049-.338.129-.132.34,0c.043.3.25.342.491.28.351-.091.358-.377.347-.665a1.238,1.238,0,0,1,.845-.337c.422.364.5.1.516-.281l1.184-.348c.024.131.05.264.215.284.21.025.266-.116.292-.284,2.3-.42,4.621-.089,6.928-.206.279-.014.611.179.844-.141-.016-.343.017-.758-.508-.338A3.47,3.47,0,0,1,29.8,67.249a6.049,6.049,0,0,1,.005-1.091c.167-.025.308-.08.285-.289-.018-.164-.149-.193-.28-.218a2.415,2.415,0,0,1,.785-2.039c.62.072.741-.3.7-.8.376-.382.916-.451,1.355-.711.149-.018.354.052.412-.134s-.137-.174-.255-.207a8.06,8.06,0,0,1,.733-2.534c.16-.017.359.03.421-.182s-.088-.293-.271-.325a8.367,8.367,0,0,1,1.141-2.06c.87.158.387-.524.514-.827l-.006,0c.564.064.535-.312.509-.686l-.007.006c.57.072.538-.311.518-.685A6.5,6.5,0,0,1,38.4,52.44c.437.283.3-.112.346-.292a18.459,18.459,0,0,1,5.75-2.874c.024.131.05.264.215.284.21.025.266-.116.292-.284a9.755,9.755,0,0,1,3.551-.5c.008.222,0,.449.32.459.24.008.341-.122.361-.342l1.517.044c.016.108.028.236.165.24s.156-.123.173-.232l1.353.33c.046.238.12.4.346.122a5.633,5.633,0,0,1,1.689.513c.032.224.066.445.341.164q9.527.009,19.053.027c.415,0,.523-.1.586-.535.163-1.13.443-2.243.676-3.363.281,0,.572-.02.614-.372.04-.332-.237-.287-.445-.305.183-1.12.361-2.24.552-3.358.146-.855.308-1.708.463-2.561.181-.018.416.036.445-.235.024-.217-.156-.254-.323-.279l.724-4.052c.144-.019.347.048.392-.146s-.147-.165-.264-.2q.105-.759.21-1.518c.149-.02.352.052.41-.149s-.118-.272-.256-.353c-.152-.417.254-.774.127-1.189.134-.266.444-.5.169-.846l.183-.884H67.324c-.094-.471-.136-1-.856-.782a.919.919,0,0,1,0-1.063c.721.216.764-.311.857-.783l12.5-.035c.137,0,.285-.01.352.156A.986.986,0,0,0,81,28.1a7.112,7.112,0,0,1-.165,2.023c-.285.184-.11.45-.121.683l-.733,3.721c-.572.254-.6.353-.169.677.143.472-.222.884-.161,1.347-.48.15-.1.452-.121.683L78.8,40.958c-.572.254-.6.353-.169.677.172.469-.285.885-.113,1.353-.4.14-.223.424-.169.677l-.733,3.721c-.572.255-.6.353-.169.677.189.416-.248.773-.113,1.184-.039.285-.449.5-.169.846l-.733,3.721c-.387.143-.812.276-.169.677.189.416-.248.773-.113,1.184-.039.285-.449.5-.169.846l-.733,3.721c-.572.254-.6.353-.169.676.189.416-.248.773-.113,1.184,0,.293-.316.523-.169.846-.236,1.256-.467,2.512-.708,3.766a1.4,1.4,0,0,1-1.609.966,1.74,1.74,0,0,1-1.085-1.59l.527-2.465c.281,0,.572-.02.614-.372.04-.331-.237-.287-.445-.3-.124-.528.244-1,.17-1.522.127-.029.314-.047.207-.232-.071-.123-.183-.019-.243.081a1.347,1.347,0,0,0-.966-.369c-1.944.028-3.89.036-5.834,0-.639-.012-.893.21-.812.824a53.359,53.359,0,0,1,.337,8.207c-.011.49.245.458.574.457,1.776-.007,3.551-.012,5.327,0a10.754,10.754,0,0,1,5.678,1.379,9.244,9.244,0,0,1,4.356,6.049,15.543,15.543,0,0,0,.275,1.865c.216.609-.567,1.44-1.321,1.522a6.3,6.3,0,0,1-.676.006q-10.147,0-20.293,0c-.337,0-.675-.024-1.012-.037-.094-.471-.136-1-.856-.782a.919.919,0,0,1,0-1.063c.721.216.763-.312.857-.783,3.093-.013,6.186-.031,9.279-.037,3.178-.007,6.357,0,9.535,0,1.576,0,1.6-.032,1.136-1.505l-.134-.185a10.6,10.6,0,0,0-1.554-2.059l-.2-.144M55.053,42.356l.075.226c-.163.234-.208.484.068.641.223.126.262-.09.3-.254l.678.676c-.009.285-.013.576.343.664.212.052.3-.09.326-.274.182.086.406.1.522.3-.233.172-.157.336.051.424.239.1.245-.116.279-.269a8.273,8.273,0,0,0,3.534-.009c.428.383.5.111.519-.278l.646-.368.2-.134c2.685-2.395,3.066-5.149,1.017-7.8,0,.618.022,1.17,0,1.719a4.211,4.211,0,0,1-2,3.738,3.775,3.775,0,0,1-3.969.151,3.587,3.587,0,0,1-2.134-3.328c0-.7-.008-1.407-.013-2.11-.035-.161.1-.445-.2-.423-.176.013-.118.262-.129.416a5.349,5.349,0,0,0-.371,5.908c-.35.063-.293.257-.138.463.18.238.311.139.41-.08M24.876,43.832c.436-.025.836-.075.469-.666a.173.173,0,0,1,.088-.117.8.8,0,0,0,.943-1.084c.937-2.523.773-4.176-.645-6.061-.017,1.556.129,3.089-.852,4.387-.845-.315-.918.283-1.011.856a3.54,3.54,0,0,1-4.585.012c.137-.811-.344-.935-.982-.883a3.327,3.327,0,0,1-.7-2.428c.031-.59,0-1.183,0-1.775-.035-.161.1-.445-.2-.423-.176.013-.118.262-.129.416a5.315,5.315,0,0,0-1.052,3.013,7.051,7.051,0,0,0,.734,3.055c-.015.6.207.878.659.837l1.035.853c-.1.057-.2.141-.1.248s.189.013.249-.087a1.113,1.113,0,0,1,.674.344c.032.224.064.446.34.164a6.942,6.942,0,0,0,3.714-.125c.017.108.041.254.166.237.235-.033.144-.251.173-.4l.651-.37h.364m16.749,26.2c-.361-.148-.724-.292-1.083-.446a3.045,3.045,0,0,0-2.983.15l-1.971.572a3.028,3.028,0,0,0,.389.078c.358,0,.716-.016,1.074-.024h5.5c0-.035,0-.069.007-.1l-.93-.225M37.077,57.88c-.456,1.048-.95,2.081-1.358,3.147-.462,1.211-.429,1.227.78,1.64a10.5,10.5,0,0,1,1.47.488,2.986,2.986,0,0,0,2.534,0c.918-.326,1.856-.594,2.784-.891A4,4,0,0,1,48.3,64.5c.16.4.3.483.675.483,4.219-.009,8.438-.023,12.657.012.657.005.653-.269.6-.744a28.025,28.025,0,0,0-.828-4l-.136-.18a13.748,13.748,0,0,0-4.09-5.614l-.186-.131A14.012,14.012,0,0,0,48.4,51.44a17.941,17.941,0,0,0-4.578.869c-.284-.3-.444-.216-.51.163l-2.2,1.19c-.626,0-.89.217-.819.671l-.691.5q-.994-.137-.858.858l-.542.657c-.393-.035-.516.171-.473.527.038.315-.278.424-.381.657-.185.042-.575-.078-.277.348M59.271,52.8a13.781,13.781,0,0,1,3.9,5.063c.15.39.427.35.727.35,2.59,0,5.179.007,7.769-.008.405,0,.9.2,1.2-.113a2.118,2.118,0,0,0,.47-1.417,12.112,12.112,0,0,1,.489-3.264c.125-.686-.09-.615-.525-.614q-3.5.007-7.009,0ZM46.45,70.387H60.2c2.218,0,2.2,0,2.06-2.262-.025-.391-.159-.451-.5-.45-4.305.009-8.611.005-12.917.009-.2,0-.375-.058-.487.279a4.513,4.513,0,0,1-1.911,2.424m-1.853-5.6a25.071,25.071,0,0,0-3.735,1.063c-.3.074-.231.4-.268.645-.05.337.219.376.393.438,1.044.375,2.086.761,3.153,1.061a1.394,1.394,0,0,0,1.54-.589,1.845,1.845,0,0,0,.151-1.946,1.057,1.057,0,0,0-1.234-.672m-10.662-.009c-.463.061-.8-.073-1.084.235a2.3,2.3,0,0,0,.085,2.686,1.142,1.142,0,0,0,1.075.3c1.191-.367,2.368-.777,3.55-1.171a.415.415,0,0,0,.334-.424c-.006-.181.054-.352-.233-.446a28.386,28.386,0,0,0-3.727-1.18" transform="translate(0 0)" fill="#858585"/>
          <path id="Path_399" data-name="Path 399" d="M227.638,178.956c.8.169.7.925.915,1.458.106.262-.168.369-.408.4a5.161,5.161,0,0,1-.507-1.86" transform="translate(-176.184 -138.506)" fill="#858585"/>
          <path id="Path_400" data-name="Path 400" d="M124.332,26.36c.131-.726.763-.965,1.292-1.284.149-.09.191.141.219.275l-1.511,1.009" transform="translate(-96.229 -19.392)" fill="#858585"/>
          <path id="Path_401" data-name="Path 401" d="M103.063,47.47c-.113-.017-.279-.079-.238-.172a5.158,5.158,0,0,1,1.117-1.477c.1-.1.26.01.346.137-.582.364-.793,1.027-1.226,1.512" transform="translate(-79.579 -35.435)" fill="#858585"/>
          <path id="Path_402" data-name="Path 402" d="M60.435,180.372c.07-.078.178-.234.2-.222a1.186,1.186,0,0,1,.216,1.59,4.478,4.478,0,0,1-.419-1.368" transform="translate(-46.775 -139.43)" fill="#858585"/>
          <path id="Path_403" data-name="Path 403" d="M1.225,120.014a1.025,1.025,0,0,1-.972,1.146,1.13,1.13,0,0,1,.972-1.146" transform="translate(-0.196 -92.887)" fill="#858585"/>
          <path id="Path_404" data-name="Path 404" d="M233.373,151.2c.289.395.095.707-.165,1.016-.189.225-.355.217-.521-.018a1.481,1.481,0,0,1,.686-1" transform="translate(-180.092 -117.027)" fill="#858585"/>
          <path id="Path_405" data-name="Path 405" d="M136.756,19.839c-.287-.505.171-.585.444-.734.366-.2.5.041.551.36l-1,.374" transform="translate(-105.774 -14.73)" fill="#858585"/>
          <path id="Path_406" data-name="Path 406" d="M128.119,181.5a1.652,1.652,0,0,1,.564-1.794,4.777,4.777,0,0,1-.564,1.794" transform="translate(-99.101 -139.086)" fill="#858585"/>
          <path id="Path_407" data-name="Path 407" d="M97.383,59.531c-.421-.393-.266-.7.507-1.014.068.456-.358.666-.507,1.014" transform="translate(-75.194 -45.29)" fill="#858585"/>
          <path id="Path_408" data-name="Path 408" d="M126.464,128.013c.721-.216.763.311.856.782-.413-.121-.8-.275-.856-.782" transform="translate(-97.879 -99.039)" fill="#858585"/>
          <path id="Path_409" data-name="Path 409" d="M65.776,151.2c-.068.443.146,1.08-.686,1a1.482,1.482,0,0,1,.686-1" transform="translate(-50.378 -117.026)" fill="#858585"/>
          <path id="Path_410" data-name="Path 410" d="M127.318,120.014c-.094.471-.136,1-.857.783.061-.507.442-.663.857-.783" transform="translate(-97.877 -92.887)" fill="#858585"/>
          <path id="Path_411" data-name="Path 411" d="M294.916,120.014c-.094.471-.136,1-.857.783.061-.507.442-.663.857-.783" transform="translate(-227.592 -92.887)" fill="#858585"/>
          <path id="Path_412" data-name="Path 412" d="M294.062,128.013c.721-.216.763.311.856.782-.413-.121-.8-.275-.856-.782" transform="translate(-227.595 -99.039)" fill="#858585"/>
          <path id="Path_413" data-name="Path 413" d="M252.163,355.486c.721-.216.763.311.856.782-.413-.121-.8-.275-.856-.782" transform="translate(-195.166 -275.096)" fill="#858585"/>
          <path id="Path_414" data-name="Path 414" d="M253.016,347.487c-.094.471-.136,1-.857.783.062-.507.442-.663.857-.783" transform="translate(-195.163 -268.944)" fill="#858585"/>
          <path id="Path_415" data-name="Path 415" d="M268.046,88.416c.258.03.593-.095.642.341.04.36-.109.53-.473.505l-.169-.846" transform="translate(-207.459 -68.431)" fill="#858585"/>
          <path id="Path_416" data-name="Path 416" d="M227.063,12.516c-.594.342-.957.226-1.01-.508a2.18,2.18,0,0,1,1.01.508" transform="translate(-174.958 -9.294)" fill="#858585"/>
          <path id="Path_417" data-name="Path 417" d="M219.574,8.959c-.522.236-.952.27-1.034-.467a1.646,1.646,0,0,1,1.034.467" transform="translate(-169.143 -6.572)" fill="#858585"/>
          <path id="Path_418" data-name="Path 418" d="M235.181,196.081c.715-.126.895.242.8.865a2.306,2.306,0,0,1-.8-.865" transform="translate(-182.023 -151.742)" fill="#858585"/>
          <path id="Path_419" data-name="Path 419" d="M6.053,161c.281,0,.572.02.614.372.04.331-.237.287-.445.3A.674.674,0,0,1,6.053,161" transform="translate(-4.658 -124.607)" fill="#858585"/>
          <path id="Path_420" data-name="Path 420" d="M355.546,121.407a.986.986,0,0,1-.819-.855.886.886,0,0,1,.819.855" transform="translate(-274.548 -93.303)" fill="#858585"/>
          <path id="Path_421" data-name="Path 421" d="M318.224,278.476c.208.018.484-.027.445.3-.042.352-.333.371-.614.372a.674.674,0,0,1,.169-.676" transform="translate(-246.137 -215.532)" fill="#858585"/>
          <path id="Path_422" data-name="Path 422" d="M90.687,316.552c.011.288,0,.575-.347.665-.241.062-.448.024-.491-.28l.838-.386" transform="translate(-69.54 -245.001)" fill="#858585"/>
          <path id="Path_423" data-name="Path 423" d="M89.682,51.718c.219.026.4.113.316.368-.128.387-.477.3-.773.316l.457-.684" transform="translate(-69.057 -40.028)" fill="#858585"/>
          <path id="Path_424" data-name="Path 424" d="M115.253,79.551c-.42-.328-.325-.574.327-.849a1.861,1.861,0,0,1-.327.849" transform="translate(-89.005 -60.913)" fill="#858585"/>
          <path id="Path_425" data-name="Path 425" d="M124.26,152.938c-.639-.065-.67-.545-.7-1.026a1.594,1.594,0,0,1,.7,1.026" transform="translate(-95.63 -117.575)" fill="#858585"/>
          <path id="Path_426" data-name="Path 426" d="M332.464,201.4c.207.018.484-.026.445.305-.042.351-.333.371-.614.372-.126-.271.213-.426.169-.677" transform="translate(-257.164 -155.88)" fill="#858585"/>
          <path id="Path_427" data-name="Path 427" d="M154.644,247c-.128.3.355.986-.514.827a1.136,1.136,0,0,1,.514-.827" transform="translate(-119.292 -191.166)" fill="#858585"/>
          <path id="Path_428" data-name="Path 428" d="M136.075,277.881c.038.506-.083.873-.7.8a1.1,1.1,0,0,1,.7-.8" transform="translate(-104.774 -215.071)" fill="#858585"/>
          <path id="Path_429" data-name="Path 429" d="M215.48,215.728c-.02.22-.121.35-.361.342-.316-.011-.312-.238-.321-.46.235,0,.5-.168.682.117" transform="translate(-166.247 -166.837)" fill="#858585"/>
          <path id="Path_430" data-name="Path 430" d="M67.583,196.165c.453.012.978-.042.627.7a1.459,1.459,0,0,1-.627-.7" transform="translate(-52.307 -151.826)" fill="#858585"/>
          <path id="Path_431" data-name="Path 431" d="M102.474,32.987a1.177,1.177,0,0,0,.142-.026c.351.742-.179.683-.632.7.04-.313.4-.4.489-.67" transform="translate(-78.933 -25.511)" fill="#858585"/>
          <path id="Path_432" data-name="Path 432" d="M.646,132.564c.212.01.441-.009.467.3a.308.308,0,0,1-.3.381c-.4-.14-.223-.424-.169-.677" transform="translate(-0.434 -102.6)" fill="#858585"/>
          <path id="Path_433" data-name="Path 433" d="M337.017,172.939c.168.025.347.062.323.279-.029.271-.264.217-.445.235-.065-.2-.514-.484.122-.514" transform="translate(-260.58 -133.849)" fill="#858585"/>
          <path id="Path_434" data-name="Path 434" d="M35.982,323.372c.386.143.813.276.169.676a.674.674,0,0,1-.169-.676" transform="translate(-27.821 -250.28)" fill="#858585"/>
          <path id="Path_435" data-name="Path 435" d="M199.763,2.539c-.4.643-.534.218-.676-.169a.673.673,0,0,1,.676.169" transform="translate(-154.086 -1.807)" fill="#858585"/>
          <path id="Path_436" data-name="Path 436" d="M80.057,77.121,80,76.951l.225-.507c.427.322.4.42-.166.677" transform="translate(-61.916 -59.165)" fill="#858585"/>
          <path id="Path_437" data-name="Path 437" d="M352.087,153.444c-.427-.323-.4-.422.169-.677a.663.663,0,0,1-.169.677" transform="translate(-272.277 -118.237)" fill="#858585"/>
          <path id="Path_438" data-name="Path 438" d="M27,274.734c.386.143.813.276.169.677a.674.674,0,0,1-.169-.677" transform="translate(-20.872 -212.635)" fill="#858585"/>
          <path id="Path_439" data-name="Path 439" d="M13.939,145.214c-.386-.143-.813-.276-.169-.677a.664.664,0,0,1,.169.677" transform="translate(-10.401 -111.867)" fill="#858585"/>
          <path id="Path_440" data-name="Path 440" d="M331.137,267.181c-.427-.323-.4-.422.169-.677a.674.674,0,0,1-.169.677" transform="translate(-256.062 -206.266)" fill="#858585"/>
          <path id="Path_441" data-name="Path 441" d="M21.766,246.3c.386.143.813.276.169.676a.674.674,0,0,1-.169-.676" transform="translate(-16.819 -190.628)" fill="#858585"/>
          <path id="Path_442" data-name="Path 442" d="M346.85,181.878c-.427-.323-.4-.422.169-.677a.674.674,0,0,1-.169.677" transform="translate(-268.224 -140.244)" fill="#858585"/>
          <path id="Path_443" data-name="Path 443" d="M341.612,210.312c-.427-.323-.4-.422.169-.677a.674.674,0,0,1-.169.677" transform="translate(-264.169 -162.251)" fill="#858585"/>
          <path id="Path_444" data-name="Path 444" d="M336.246,238.746c-.643-.4-.218-.534.169-.676a.673.673,0,0,1-.169.676" transform="translate(-259.988 -184.258)" fill="#858585"/>
          <path id="Path_445" data-name="Path 445" d="M54.673,351.948c.459-.333.684-.219.672.351a1.012,1.012,0,0,1-.672-.351" transform="translate(-42.315 -272.253)" fill="#858585"/>
          <path id="Path_446" data-name="Path 446" d="M32.24,303.169c.572.255.6.354.169.677a.674.674,0,0,1-.169-.677" transform="translate(-24.925 -234.643)" fill="#858585"/>
          <path id="Path_447" data-name="Path 447" d="M137.635,8.452c-.105.387-.253.675-.684.289a.766.766,0,0,1,.684-.289" transform="translate(-105.996 -6.533)" fill="#858585"/>
          <path id="Path_448" data-name="Path 448" d="M129.985,12.218c-.01.243.017.523-.308.575-.183.029-.178-.161-.207-.287a.828.828,0,0,1,.515-.288" transform="translate(-100.206 -9.456)" fill="#858585"/>
          <path id="Path_449" data-name="Path 449" d="M148.208,16.256c.034-.551.268-.635.684-.292-.159.258-.491.112-.684.292" transform="translate(-114.708 -12.198)" fill="#858585"/>
          <path id="Path_450" data-name="Path 450" d="M118.883,18.738c.065.565-.308.545-.688.515.172-.249.339-.5.688-.515" transform="translate(-91.479 -14.503)" fill="#858585"/>
          <path id="Path_451" data-name="Path 451" d="M112.571,59.982c.2.161.254.4.077.551-.209.178-.262-.187-.433-.221a.585.585,0,0,1,.356-.33" transform="translate(-86.851 -46.424)" fill="#858585"/>
          <path id="Path_452" data-name="Path 452" d="M11.315,189.432c.386.143.813.276.169.677.044-.25-.3-.405-.169-.677" transform="translate(-8.735 -146.614)" fill="#858585"/>
          <path id="Path_453" data-name="Path 453" d="M159.121,240.977c.019.374.051.757-.518.685a.9.9,0,0,1,.518-.685" transform="translate(-122.754 -186.509)" fill="#858585"/>
          <path id="Path_454" data-name="Path 454" d="M99.26,37.479c.017.374.042.753-.523.676a.868.868,0,0,1,.523-.676" transform="translate(-76.419 -29.008)" fill="#858585"/>
          <path id="Path_455" data-name="Path 455" d="M16.552,217.866c.386.143.813.276.169.676.044-.25-.3-.405-.169-.676" transform="translate(-12.789 -168.621)" fill="#858585"/>
          <path id="Path_456" data-name="Path 456" d="M97.008,40.442c.031.381.05.753-.515.688a.919.919,0,0,1,.515-.688" transform="translate(-74.683 -31.301)" fill="#858585"/>
          <path id="Path_457" data-name="Path 457" d="M81.288,324.783c.023.38.042.757-.524.687a.923.923,0,0,1,.524-.687" transform="translate(-62.509 -251.372)" fill="#858585"/>
          <path id="Path_458" data-name="Path 458" d="M38.429,331.6c.541.043.606.282.281.682-.271-.154-.135-.476-.281-.682" transform="translate(-29.743 -256.649)" fill="#858585"/>
          <path id="Path_459" data-name="Path 459" d="M156.89,243.98c.026.374.054.75-.509.686a.889.889,0,0,1,.509-.686" transform="translate(-121.034 -188.833)" fill="#858585"/>
          <path id="Path_460" data-name="Path 460" d="M154.863,3.028c-.011.177-.063.321-.27.344-.224.024-.371-.057-.4-.3l.669-.048" transform="translate(-119.341 -2.344)" fill="#858585"/>
          <path id="Path_461" data-name="Path 461" d="M116.5,20.982c-.008.349.024.757-.5.34a.51.51,0,0,1,.5-.34" transform="translate(-89.781 -16.239)" fill="#858585"/>
          <path id="Path_462" data-name="Path 462" d="M139.2,308.634c.524-.42.492,0,.507.339a.511.511,0,0,1-.507-.339" transform="translate(-107.735 -238.736)" fill="#858585"/>
          <path id="Path_463" data-name="Path 463" d="M120.557,197.24c.029-.309-.091-.767.507-.51a1.3,1.3,0,0,1-.507.51" transform="translate(-93.307 -152.204)" fill="#858585"/>
          <path id="Path_464" data-name="Path 464" d="M86.249,59.234c.175.031.33.1.27.312-.071.25-.3.174-.479.191-.035-.211.122-.342.209-.5" transform="translate(-66.588 -45.845)" fill="#858585"/>
          <path id="Path_465" data-name="Path 465" d="M99.114,171.444c.158.09.4.2.256.394s-.378-.1-.586-.053a.565.565,0,0,1,.33-.342" transform="translate(-76.456 -132.692)" fill="#858585"/>
          <path id="Path_466" data-name="Path 466" d="M342.923,144.557c.138.081.311.162.256.353s-.261.129-.41.15q-.014-.169-.029-.337c0-.04,0-.08,0-.12l.181-.045" transform="translate(-265.27 -111.883)" fill="#858585"/>
          <path id="Path_467" data-name="Path 467" d="M86.407,320.36c.155.115.239.266.082.418s-.305.063-.417-.094a.557.557,0,0,1,.335-.324" transform="translate(-66.617 -247.948)" fill="#858585"/>
          <path id="Path_468" data-name="Path 468" d="M61.417,355.2c.027-.167.089-.316.292-.279.25.046.2.264.215.439-.227.131-.342-.093-.507-.16" transform="translate(-47.535 -274.69)" fill="#858585"/>
          <path id="Path_469" data-name="Path 469" d="M148.568,259.769c.183.032.336.1.271.326s-.261.165-.421.182l.15-.508" transform="translate(-114.871 -201.053)" fill="#858585"/>
          <path id="Path_470" data-name="Path 470" d="M151.2,232.414c.133-.541.436-.21.69-.135-.184.279-.451.133-.69.135" transform="translate(-117.025 -179.646)" fill="#858585"/>
          <path id="Path_471" data-name="Path 471" d="M126.99,43.627c-.077.374-.242.447-.515.151l.339-.338.177.187" transform="translate(-97.888 -33.621)" fill="#858585"/>
          <path id="Path_472" data-name="Path 472" d="M135.087,50.932c-.2-.128-.168-.273-.013-.4.133-.111.256-.072.343.076l-.33.326" transform="translate(-104.446 -39.059)" fill="#858585"/>
          <path id="Path_473" data-name="Path 473" d="M25.071,201.884c-.368-.094-.4-.267-.123-.515.29.113.35.28.123.515" transform="translate(-19.165 -155.853)" fill="#858585"/>
          <path id="Path_474" data-name="Path 474" d="M115.96,144.841c-.086.147-.208.188-.34.078-.153-.126-.19-.27,0-.4a.551.551,0,0,1,.336.323" transform="translate(-89.386 -111.852)" fill="#858585"/>
          <path id="Path_475" data-name="Path 475" d="M205.053,14.473c.07-.207.251-.167.386-.136.172.039.113.2.095.32-.169-.039-.466.258-.481-.183" transform="translate(-158.705 -11.077)" fill="#858585"/>
          <path id="Path_476" data-name="Path 476" d="M128.36,57.663c-.149-.087-.187-.21-.077-.342.13-.155.274-.184.4.013l-.326.33" transform="translate(-99.238 -44.267)" fill="#858585"/>
          <path id="Path_477" data-name="Path 477" d="M97.811,313.814c-.012.386-.094.645-.516.281.123-.183.329-.215.516-.281" transform="translate(-75.303 -242.882)" fill="#858585"/>
          <path id="Path_478" data-name="Path 478" d="M9.823,181.949c.144.021.351-.05.392.15.037.181-.153.164-.271.2-.2-.06-.151-.205-.121-.345" transform="translate(-7.582 -140.823)" fill="#858585"/>
          <path id="Path_479" data-name="Path 479" d="M144.637,273.225c.117.033.313.019.255.207s-.264.116-.412.134c.032-.123-.022-.286.158-.341" transform="translate(-111.822 -211.468)" fill="#858585"/>
          <path id="Path_480" data-name="Path 480" d="M40.783,287.187c-.368-.094-.4-.267-.123-.515.258.12.127.333.123.515" transform="translate(-31.327 -221.875)" fill="#858585"/>
          <path id="Path_481" data-name="Path 481" d="M131.878,290.448c.131.025.262.054.28.218.023.209-.118.264-.285.289q0-.254.005-.507" transform="translate(-102.066 -224.798)" fill="#858585"/>
          <path id="Path_482" data-name="Path 482" d="M341.407,153.5c.117.031.305.015.264.2s-.248.127-.392.146c-.028-.141-.079-.29.128-.342" transform="translate(-264.119 -118.802)" fill="#858585"/>
          <path id="Path_483" data-name="Path 483" d="M105.32,312.273c-.026.168-.082.309-.292.284-.165-.02-.191-.153-.215-.284h.507" transform="translate(-81.122 -241.689)" fill="#858585"/>
          <path id="Path_484" data-name="Path 484" d="M141.851,46.152c-.1-.065-.18-.167-.078-.259.158-.142.3-.058.409.1-.04.2-.2.144-.33.162" transform="translate(-109.691 -35.464)" fill="#858585"/>
          <path id="Path_485" data-name="Path 485" d="M46.02,315.621c-.368-.094-.4-.267-.123-.515.258.12.127.333.123.515" transform="translate(-35.38 -243.882)" fill="#858585"/>
          <path id="Path_486" data-name="Path 486" d="M92.287,75.463c-.282-.248-.247-.421.122-.515,0,.182.136.394-.122.515" transform="translate(-71.283 -58.007)" fill="#858585"/>
          <path id="Path_487" data-name="Path 487" d="M15.061,210.384c.144.02.35-.049.392.15.037.181-.153.164-.271.2-.2-.06-.151-.205-.121-.345" transform="translate(-11.636 -162.831)" fill="#858585"/>
          <path id="Path_488" data-name="Path 488" d="M197.349,217.991c-.026.168-.082.309-.292.284-.165-.02-.191-.153-.215-.284h.507" transform="translate(-152.349 -168.718)" fill="#858585"/>
          <path id="Path_489" data-name="Path 489" d="M89.111,333.63c-.051-.4.119-.573.517-.525l-.517.525" transform="translate(-68.963 -257.807)" fill="#858585"/>
          <path id="Path_490" data-name="Path 490" d="M53.7,335.783c-.392.042-.556-.139-.508-.524a1.257,1.257,0,0,1,.508.524" transform="translate(-41.161 -259.48)" fill="#858585"/>
          <path id="Path_491" data-name="Path 491" d="M58.192,340.308c-.385.048-.565-.116-.524-.508a1.258,1.258,0,0,1,.524.508" transform="translate(-44.629 -262.994)" fill="#858585"/>
          <path id="Path_492" data-name="Path 492" d="M151.7,221.728a.956.956,0,0,0,.016.129c-.25.276-.422.236-.512-.128h.5" transform="translate(-117.026 -171.61)" fill="#858585"/>
          <path id="Path_493" data-name="Path 493" d="M20.3,238.818c.144.02.35-.05.392.15.037.181-.153.164-.271.2-.2-.06-.151-.205-.121-.345" transform="translate(-15.689 -184.838)" fill="#858585"/>
          <path id="Path_494" data-name="Path 494" d="M76.381,358.172c.025-.131.055-.26.219-.277.209-.022.263.118.288.285l-.507-.008" transform="translate(-59.116 -276.997)" fill="#858585"/>
          <path id="Path_495" data-name="Path 495" d="M93.746,70.963c-.221-.261-.179-.435.169-.505.112.225-.1.342-.169.505" transform="translate(-72.451 -54.532)" fill="#858585"/>
          <path id="Path_496" data-name="Path 496" d="M170.218,230.708c-.045.181.09.576-.346.292.079-.141.148-.293.346-.292" transform="translate(-131.476 -178.561)" fill="#858585"/>
          <path id="Path_497" data-name="Path 497" d="M19.979,174.03c-.236-.046-.4-.119-.123-.346.2.059.156.2.123.346" transform="translate(-15.256 -134.426)" fill="#858585"/>
          <path id="Path_498" data-name="Path 498" d="M123.887,64.247c-.1-.058-.193-.144-.093-.247s.188-.015.249.084l-.156.163" transform="translate(-95.779 -49.498)" fill="#858585"/>
          <path id="Path_499" data-name="Path 499" d="M31.949,239.129c-.237-.046-.4-.12-.122-.346.2.06.152.206.122.346" transform="translate(-24.521 -184.811)" fill="#858585"/>
          <path id="Path_500" data-name="Path 500" d="M241.349,220.963c-.275.282-.308.06-.341-.163.127.026.3-.044.341.163" transform="translate(-186.533 -170.892)" fill="#858585"/>
          <path id="Path_501" data-name="Path 501" d="M110.958,62.972c.109.017.233.036.23.174s-.13.151-.238.166q0-.17.008-.34" transform="translate(-85.872 -48.738)" fill="#858585"/>
          <path id="Path_502" data-name="Path 502" d="M26.712,210.7c-.237-.046-.4-.12-.122-.346.2.06.152.206.122.346" transform="translate(-20.468 -162.803)" fill="#858585"/>
          <path id="Path_503" data-name="Path 503" d="M232.353,218.015c-.226.274-.3.116-.346-.122.141-.031.287-.08.346.122" transform="translate(-179.566 -168.62)" fill="#858585"/>
          <path id="Path_504" data-name="Path 504" d="M49.244,328.915c-.225-.03-.45-.06-.168-.34.192.046.133.216.168.34" transform="translate(-37.881 -254.307)" fill="#858585"/>
          <path id="Path_505" data-name="Path 505" d="M101.946,101.137c.109.017.238.031.237.17s-.13.152-.239.168l0-.338" transform="translate(-78.901 -78.277)" fill="#858585"/>
          <path id="Path_506" data-name="Path 506" d="M78,101.137c.109.017.238.031.237.17s-.13.152-.239.168l0-.338" transform="translate(-60.371 -78.277)" fill="#858585"/>
          <path id="Path_507" data-name="Path 507" d="M85,340.966c-.285-.3-.041-.309.179-.335-.026.13.023.3-.179.335" transform="translate(-65.69 -263.638)" fill="#858585"/>
          <path id="Path_508" data-name="Path 508" d="M67.748,345.966c-.226.273-.3.116-.346-.122.141-.031.288-.081.346.122" transform="translate(-52.167 -267.65)" fill="#858585"/>
          <path id="Path_509" data-name="Path 509" d="M113.587,91c-.108-.017-.237-.033-.234-.172s.132-.15.24-.166q0,.169-.006.338" transform="translate(-87.731 -70.169)" fill="#858585"/>
          <path id="Path_510" data-name="Path 510" d="M319.516,270.606c.06-.1.171-.2.243-.08.108.185-.08.2-.207.232a.344.344,0,0,1-.036-.151" transform="translate(-247.295 -209.335)" fill="#858585"/>
          <path id="Path_511" data-name="Path 511" d="M224.864,216.5c-.018.108-.035.236-.174.232s-.149-.132-.165-.24l.339.009" transform="translate(-173.775 -167.56)" fill="#858585"/>
          <path id="Path_512" data-name="Path 512" d="M179.971.25c-.017.109-.032.238-.171.236s-.151-.131-.167-.24l.338,0" transform="translate(-139.03 -0.19)" fill="#858585"/>
          <path id="Path_513" data-name="Path 513" d="M151.482,3.163c-.014.326-.2.186-.355.131.062-.2.208-.165.355-.131" transform="translate(-116.968 -2.429)" fill="#858585"/>
          <path id="Path_514" data-name="Path 514" d="M215.709,6.877l-.163-.054.115-.18.048.233" transform="translate(-166.826 -5.142)" fill="#858585"/>
          <path id="Path_515" data-name="Path 515" d="M128.151,43.137l-.177-.187c.024-.091.05-.179.177-.129q0,.158,0,.316" transform="translate(-99.048 -33.13)" fill="#858585"/>
          <path id="Path_516" data-name="Path 516" d="M335.871,330.1l.2.144c-.125.033-.162-.053-.2-.144" transform="translate(-259.954 -255.483)" fill="#858585"/>
          <path id="Path_517" data-name="Path 517" d="M121.281,33.955l.187-.133c-.028.092-.066.171-.187.133" transform="translate(-93.868 -26.177)" fill="#858585"/>
          <path id="Path_518" data-name="Path 518" d="M239.4,200.687l.186.137c-.119.031-.159-.044-.186-.137" transform="translate(-185.29 -155.325)" fill="#858585"/>
          <path id="Path_519" data-name="Path 519" d="M242.582,143.906l-.187.124c.03-.09.063-.175.187-.124" transform="translate(-187.606 -111.367)" fill="#858585"/>
          <path id="Path_520" data-name="Path 520" d="M343.588,339.84l.134.185c-.094-.026-.171-.064-.134-.185" transform="translate(-265.919 -263.025)" fill="#858585"/>
          <path id="Path_521" data-name="Path 521" d="M118.679,76.109l.119.083c-.1.116-.092-.044-.143-.056l.023-.027" transform="translate(-91.836 -58.906)" fill="#858585"/>
          <path id="Path_522" data-name="Path 522" d="M87.869,318.258l-.129.132c-.032-.117.016-.157.129-.132" transform="translate(-67.901 -246.316)" fill="#858585"/>
          <path id="Path_523" data-name="Path 523" d="M74.984,143.906l-.187.124c.03-.09.063-.175.187-.124" transform="translate(-57.891 -111.366)" fill="#858585"/>
          <path id="Path_524" data-name="Path 524" d="M119.131,74.3c-.042-.122.038-.158.13-.186l-.13.186" transform="translate(-92.195 -57.365)" fill="#858585"/>
          <path id="Path_525" data-name="Path 525" d="M342.339,144.758c0,.04,0,.08,0,.12l-.118-.11.119-.01" transform="translate(-264.867 -112.038)" fill="#858585"/>
          <path id="Path_526" data-name="Path 526" d="M247.958,65.406c-.1-.022-.171-.059-.133-.18l.133.18" transform="translate(-191.801 -50.483)" fill="#858585"/>
          <path id="Path_527" data-name="Path 527" d="M112.516,186.74l.943-1.084a.8.8,0,0,1-.943,1.084" transform="translate(-87.084 -143.692)" fill="#858585"/>
          <path id="Path_528" data-name="Path 528" d="M106.6,177.95c-.291.34-.5.778-1.011.856.093-.573.165-1.171,1.011-.856" transform="translate(-81.726 -137.66)" fill="#858585"/>
          <path id="Path_529" data-name="Path 529" d="M81.944,179.027c-.493-.111-.731-.5-.982-.883.639-.052,1.12.072.982.883" transform="translate(-62.662 -137.87)" fill="#858585"/>
          <path id="Path_530" data-name="Path 530" d="M172.237,242.534l-.858.858q-.137-.994.858-.858" transform="translate(-132.629 -187.701)" fill="#858585"/>
          <path id="Path_531" data-name="Path 531" d="M74.989,186.4l.659.837c-.452.041-.674-.241-.659-.837" transform="translate(-58.038 -144.266)" fill="#858585"/>
          <path id="Path_532" data-name="Path 532" d="M179.068,237.406c-.177.34-.6.379-.819.671-.071-.453.193-.67.819-.671" transform="translate(-137.95 -183.745)" fill="#858585"/>
          <path id="Path_533" data-name="Path 533" d="M248.492,193.083c.314-.026.442.267.669.389-.031.184-.114.327-.326.275-.356-.088-.352-.379-.343-.664" transform="translate(-192.323 -149.439)" fill="#858585"/>
          <path id="Path_534" data-name="Path 534" d="M110.027,191.454a1.146,1.146,0,0,1,.475-.484c.367.591-.033.641-.469.666,0-.061,0-.122-.006-.183" transform="translate(-85.157 -147.805)" fill="#858585"/>
          <path id="Path_535" data-name="Path 535" d="M243.446,188.388l.363.387c-.033.164-.072.38-.3.254-.276-.156-.231-.406-.068-.641" transform="translate(-188.318 -145.806)" fill="#858585"/>
          <path id="Path_536" data-name="Path 536" d="M241.466,185.692l.272.383c-.1.219-.23.317-.41.08-.156-.205-.212-.4.138-.463" transform="translate(-186.686 -143.72)" fill="#858585"/>
          <path id="Path_537" data-name="Path 537" d="M253.28,196.141c.128.014.288-.041.33.155-.034.153-.04.37-.278.269-.209-.088-.284-.253-.052-.424" transform="translate(-195.92 -151.807)" fill="#858585"/>
          <path id="Path_538" data-name="Path 538" d="M270.865,195.838l.519-.278c-.014.389-.091.661-.519.278" transform="translate(-209.641 -151.357)" fill="#858585"/>
          <path id="Path_539" data-name="Path 539" d="M167.39,249.28a.974.974,0,0,1-.473.527c-.044-.356.08-.562.473-.527" transform="translate(-129.182 -192.932)" fill="#858585"/>
          <path id="Path_540" data-name="Path 540" d="M76.725,158.133l-.327-.007c.012-.154-.047-.4.129-.416.3-.022.163.263.2.423" transform="translate(-59.13 -122.062)" fill="#858585"/>
          <path id="Path_541" data-name="Path 541" d="M192.135,230.8c-.1.264-.34.11-.51.163.066-.379.226-.465.51-.163" transform="translate(-148.312 -178.488)" fill="#858585"/>
          <path id="Path_542" data-name="Path 542" d="M244.323,158.133l-.327-.007c.012-.153-.047-.4.129-.416.3-.022.163.262.2.423" transform="translate(-188.845 -122.062)" fill="#858585"/>
          <path id="Path_543" data-name="Path 543" d="M104.065,195.722l.338-.162c-.028.148.062.365-.173.4-.125.018-.149-.129-.166-.237" transform="translate(-80.543 -151.357)" fill="#858585"/>
          <path id="Path_544" data-name="Path 544" d="M163.938,254.531a.419.419,0,0,1-.277.348c-.3-.426.092-.306.277-.348" transform="translate(-126.585 -196.999)" fill="#858585"/>
          <path id="Path_545" data-name="Path 545" d="M82,193.874l.149.161c-.06.1-.148.194-.249.087s0-.191.1-.248" transform="translate(-63.358 -150.052)" fill="#858585"/>
          <path id="Path_546" data-name="Path 546" d="M86.13,196.105c.126.028.3-.042.34.164-.276.282-.308.06-.34-.164" transform="translate(-66.662 -151.779)" fill="#858585"/>
          <path id="Path_547" data-name="Path 547" d="M108.8,193.11c0,.061,0,.122.006.183h-.364c.045-.207.227-.145.358-.184" transform="translate(-83.931 -149.461)" fill="#858585"/>
          <path id="Path_548" data-name="Path 548" d="M252.312,240.476c-.121.04-.158-.039-.186-.131l.186.131" transform="translate(-195.138 -186.019)" fill="#858585"/>
          <path id="Path_549" data-name="Path 549" d="M271.146,265.942c-.1-.021-.172-.059-.136-.181l.136.181" transform="translate(-209.747 -205.691)" fill="#858585"/>
          <path id="Path_550" data-name="Path 550" d="M276.019,193.43c.036-.088.069-.18.2-.134l-.2.134" transform="translate(-213.63 -149.595)" fill="#858585"/>
        </g>
      </g>
    </g>
  </g>
</svg>
