<svg xmlns="http://www.w3.org/2000/svg" xmlns:xlink="http://www.w3.org/1999/xlink" width="130" height="130" viewBox="0 0 130 130">
  <defs>
    <clipPath id="clip-Car_Wash_Services">
      <rect width="130" height="130"/>
    </clipPath>
  </defs>
  <g id="Car_Wash_Services" data-name="Car Wash Services" clip-path="url(#clip-Car_Wash_Services)">
    <g id="Layer_1" data-name="Layer 1" transform="translate(21.001 28)">
      <g id="Group_34" data-name="Group 34" transform="translate(0 0)">
        <path id="Path_170" data-name="Path 170" d="M0,31a6.98,6.98,0,0,1,1.521-2.218l.18-.125a5.126,5.126,0,0,1,3.19-.92c1.475-.011,2.953-.039,4.429.007a3.813,3.813,0,0,1,3.627,1.881c.285.535.435.389.706-.052,1.851-3.012,3.679-6.041,5.619-9A9.828,9.828,0,0,1,27.3,15.863c8.554-.394,17.115-.075,25.674-.162,1.207-.011,1.207,0,1.207-1.17a6.591,6.591,0,0,1,0-.765c.061-.537-.241-.531-.617-.449-3.292.722-5.567-.867-6.471-3.843a5.214,5.214,0,0,1,4.092-6.45,6.286,6.286,0,0,1,2.757.173,1.06,1.06,0,0,0,1.28-.48A6.316,6.316,0,0,1,60.037.132C61.931-.014,63.819,0,65.706,0a10.481,10.481,0,0,1,4.611.829,6.943,6.943,0,0,1,3.525,7.908A2.621,2.621,0,0,0,73.6,10.03c.055.28-.182.631.389.749a.84.84,0,0,0,.959-.25,3.712,3.712,0,0,1,3.859-1.091,3.505,3.505,0,0,1,2.821,3.026c.419,1.938-1.245,4.406-3.21,4.349-1.273-.036-2.22.132-2.712,1.412a.454.454,0,0,1-.237.237c-1.318.494-1.453,1.48-1.4,2.755a5.912,5.912,0,0,1-1.963,4.506.967.967,0,0,0-.164,1.469c.546.8,1.068,1.619,1.557,2.452.189.323.342.48.562.089.924-1.635,2.436-2.02,4.155-2.006,1.334.011,2.669,0,4,0A4.655,4.655,0,0,1,87.2,31.911a4,4,0,0,1-.581,2.363,4.205,4.205,0,0,1-2.181,2.051,6.946,6.946,0,0,1-2.548.385c-.879.02-1.76,0-2.787,0a23.877,23.877,0,0,0,1.728,1.89,5.841,5.841,0,0,1,1.947,4.665c0,4.713.007,9.426-.011,14.139a1.369,1.369,0,0,0,.524,1.234,2.235,2.235,0,0,1,.886,2.056c-.041.594-.007,1.193-.007,1.787A2.918,2.918,0,0,1,81.1,65.581c-.4,0-.8.03-1.191-.007-.476-.046-.635.112-.628.606a34.228,34.228,0,0,1-.064,3.486,4.449,4.449,0,0,1-4.276,3.923c-3.493-.014-6.985-.023-10.478-.007a4.366,4.366,0,0,1-3.812-2.857,15.162,15.162,0,0,1-.194-4.292c0-.715-.191-.883-.89-.881-5.906.03-11.812.016-17.719.016-4.827,0-9.654.009-14.481-.014-.587,0-.781.139-.758.745a31.252,31.252,0,0,1-.032,3.233A4.392,4.392,0,0,1,22.3,73.58c-3.493.011-6.985-.023-10.478.007a4.006,4.006,0,0,1-3.459-2.1c-.836-1.232-.56-2.648-.583-4.005-.032-1.9-.009-1.9-1.878-1.9A2.976,2.976,0,0,1,2.73,62.412c0-.455.036-.913-.007-1.362A2.852,2.852,0,0,1,3.991,58.3a1.047,1.047,0,0,0,.474-1.031q0-7.411.009-14.823a4.892,4.892,0,0,1,.883-2.791,22.657,22.657,0,0,1,2.584-2.9c-1.714-.166-3.306.123-4.873-.178-.014-.326-.2-.184-.357-.132a5.993,5.993,0,0,1-2.2-1.872c0-.059,0-.118,0-.178.014-.114-.055-.157-.153-.178A1.044,1.044,0,0,0,0,33.379v-.51c.221-.171.219-.342,0-.51v-.342c.221-.171.221-.342,0-.51V31ZM29.672,57.576c-.023.121.018.175.143.137,2.527.009,5.052.023,7.58.023q9.922-.007,19.845-.023c.128.041.166-.016.15-.134a8.582,8.582,0,0,0-.512-1.869c.025-.125-.025-.173-.148-.137-.312-.009-.624-.023-.936-.023H32.555a5,5,0,0,0-2.168.1c-.56.3-.474,1.266-.717,1.924ZM23.509,19.793c-.13-.043-.164.05-.2.139a8.605,8.605,0,0,0-1.68,1.758c-1.981,3.16-3.985,6.3-5.936,9.481a12.336,12.336,0,0,0-1.749,3.062c-.235.03-.383.173-.26.383s.316.171.455-.036c.681.007,1.362.007,2.04.025a.578.578,0,0,0,.587-.332c1.607-2.612,3.224-5.216,4.879-7.8,1-1.553,1.667-3.342,3.208-4.508l.184-.123a6.15,6.15,0,0,1,1.639-.733,26.834,26.834,0,0,1,5.979-.289,1.262,1.262,0,0,1,1.414,1.38c-.025.756-.5,1.159-1.4,1.163-1.391.009-2.785-.061-4.171.023a3.458,3.458,0,0,0-2.933,1.469c-1.264,2.01-2.5,4.041-3.736,6.063-.74,1.2-1.473,2.414-2.222,3.638H67.544c-.289-.444-.526-.806-.76-1.168l-.139-.171c-.071-.148-.132-.3-.216-.444a40.844,40.844,0,0,1-2.2-3.643l-.137-.171a2.076,2.076,0,0,0-2.454-1.148c-.36.052-.738-.014-1.1.007a6.048,6.048,0,0,1-4.144-1.453c-.066-.046-.132-.093-.2-.139a6.889,6.889,0,0,1-1.972-2.534.507.507,0,0,0-.546-.328q-7.572,0-15.146.007c-.883,0-1.316-.305-1.389-1.107-.077-.833.241-1.154,1.1-1.332a8.848,8.848,0,0,1,1.847-.121c4.169,0,8.34-.014,12.509.007.715,0,1.3.025,1.1-.977a1.414,1.414,0,0,1,.194-.788c.387-.833-.075-.811-.665-.806-2.525.014-5.05-.02-7.573.011-6.111.073-12.227-.2-18.333.148a8.138,8.138,0,0,0-3.793,1.384Zm36.8,37.919c.312.009.624.023.936.023,1.76,0,3.52-.009,5.28,0,1.109.009,1.459.355,1.448,1.362-.007.722-.6,1.2-1.485,1.2-.369,0-.738-.011-1.107-.011H6.954c-1.96,0-1.6-.223-1.694,1.662-.043.874.225,1.1,1.088,1.082,2.951-.055,5.906-.027,8.857-.016.688,0,1.355.118,1.485.979a1.263,1.263,0,0,1-1.371,1.564c-1.448.02-2.9.027-4.344-.007-.51-.011-.7.1-.667.647.057,1.047.043,2.1.055,3.147a1.607,1.607,0,0,0,1.628,1.68q5.109.01,10.221,0a1.626,1.626,0,0,0,1.658-1.25c.421-1.3.107-2.634.187-3.95.023-.371-.305-.255-.5-.257-.879-.014-1.762.02-2.639-.02a1.081,1.081,0,0,1-1.161-1.109c-.046-1.088.344-1.43,1.644-1.43H79.828c1.785,0,1.746,0,1.794-1.808.02-.795-.287-.94-.993-.931-2.753.034-5.508.016-8.263.009a1.108,1.108,0,0,1-.79-.175,1.378,1.378,0,0,1-.494-1.58c.18-.642.694-.8,1.3-.8,2.384.007,4.77-.011,7.154.011.492,0,.69-.082.685-.642-.023-4.713,0-9.426-.025-14.139a2.939,2.939,0,0,0-.713-2.077c-.813-.865-1.628-1.726-2.439-2.591a3.61,3.61,0,0,0-2.762-1.143q-30.834,0-61.667.009a2.985,2.985,0,0,0-2.3.931c-.79.854-1.635,1.658-2.452,2.486a2.552,2.552,0,0,0-.854,1.742c-.025,4.911,0,9.822-.025,14.736,0,.59.2.7.729.688,1.619-.032,3.235-.011,4.854-.011q6.814,0,13.629,0c.378,0,.742.1.913-.48,1.068-3.648,2.079-7.316,3.322-10.9.792-2.291,2.375-4.18,6.111-4.2,4.991-.02,9.989-.232,14.971.123A5.565,5.565,0,0,1,56.478,45.9c.934,2.37,1.546,4.868,2.309,7.307.455,1.457.924,2.91,1.387,4.367q-.055.188.137.137ZM64,2.55c-.924,0-1.605,0-2.286,0a12.821,12.821,0,0,0-2,.153,4.323,4.323,0,0,0-3.429,4.934,27.854,27.854,0,0,1,.6,6.822,15.293,15.293,0,0,1-.5,5.157,4.439,4.439,0,0,0,4.322,5.66c1.642-.084,3.29-.02,4.934-.009a8.689,8.689,0,0,0,2.086.041,4.61,4.61,0,0,0,3.83-5.2c-.027-.342-.189-.444-.51-.54a4.5,4.5,0,0,1-3.365-3.641,4.169,4.169,0,0,1,1.965-4.679A2.417,2.417,0,0,0,71.207,9.1c.048-1.031.474-2.006.2-3.1a4.272,4.272,0,0,0-3.356-3.272A20.324,20.324,0,0,0,64,2.548Zm5.824,63.024c-1.958,0-3.919.052-5.874-.025-.861-.034-1.047.244-.981,1.029.073.845.018,1.7.018,2.552a1.675,1.675,0,0,0,1.906,1.9q4.853.01,9.706,0a1.918,1.918,0,0,0,2.127-2.058c.032-.936-.02-1.874.018-2.81.02-.494-.143-.612-.617-.608-2.1.025-4.2.011-6.3.011ZM31.173,52.944H56.039a19.111,19.111,0,0,1-.587-1.865c-.137-.642-.46-.8-1.1-.8-6.954.025-13.9.016-20.859.016-1.655,0-1.66,0-2.1,1.56-.1.346-.146.706-.223,1.088ZM32.737,47.7H54.329a3.514,3.514,0,0,0-3.812-3c-4.511-.05-9.021-.039-13.532-.007-2.689.02-3.677.89-4.246,3ZM7.361,34.165c.961,0,1.924.007,2.885-.007.209,0,.5.128.619-.121.271-.567,1.082-1.022.754-1.7-.43-.895-.772-2.036-2.1-2.045-1.7-.014-3.395-.018-5.091.011-1.245.023-1.919.858-1.872,2.238a1.823,1.823,0,0,0,2,1.621c.934-.009,1.867,0,2.8,0Zm72.366,0c.879,0,1.76-.007,2.639,0a1.959,1.959,0,1,0,.107-3.875c-1.389-.011-2.785.073-4.169-.025a2.211,2.211,0,0,0-2.484,1.5.726.726,0,0,1-.184.271c-.583.5-.087.861.157,1.255s.362.924,1.045.89c.961-.05,1.929-.014,2.894-.014ZM52.216,5.442a2.706,2.706,0,0,0-2.785,2.709,2.954,2.954,0,0,0,2.835,2.912c1.587-.016,2.051-.7,1.669-2.22a5.135,5.135,0,0,1-.241-2.318c.15-.685-.107-.854-.679-1a7.847,7.847,0,0,0-.8-.084ZM66.36,27.833a53.628,53.628,0,0,1,3.021,4.9A2.874,2.874,0,0,0,72.867,34.6a.348.348,0,0,1,.084,0c.54.055.56-.148.3-.556q-1.947-3.084-3.866-6.186c-.125-.2-.246-.332-.446-.25-.8.323-1.655.043-2.587.228ZM74.281,15.1a1.976,1.976,0,0,0-2.17-2.136,2.043,2.043,0,0,0-1.931,2.213,2.051,2.051,0,1,0,4.1-.077ZM77.86,14.3a1.281,1.281,0,1,0,0-2.557,1.394,1.394,0,0,0-1.364,1.277A1.367,1.367,0,0,0,77.858,14.3Z" transform="translate(0 0)" fill="#858585"/>
        <path id="Path_171" data-name="Path 171" d="M93.81,24.628c-2.484.216-4.884-2.24-4.8-4.863a4.623,4.623,0,0,1,4.472-4.645c2.9.032,4.784,1.535,5.073,4.406a4.791,4.791,0,0,1-4.745,5.1ZM96,19.887c-.009-1.639-1.148-2.165-2.432-2.234a2.128,2.128,0,0,0-2,2.243A2.216,2.216,0,0,0,96,19.887Z" transform="translate(-68.743 -11.677)" fill="#858585"/>
        <path id="Path_172" data-name="Path 172" d="M48.974,189.722a40.16,40.16,0,0,1-4.458-.087,3.515,3.515,0,0,1-2.946-3.481,38.891,38.891,0,0,1,.03-4.249,3.561,3.561,0,0,1,3.427-3.313c2.889-.087,5.788-.137,8.673,0a3.791,3.791,0,0,1,3.8,3.846,12.845,12.845,0,0,1-.189,4.374,3.811,3.811,0,0,1-3.837,2.905c-1.389.023-2.778,0-4.492,0Zm.528-8.611c-1.3,0-2.609-.011-3.912,0-1.1.014-1.453.355-1.487,1.466-.03,1.02-.027,2.042,0,3.062.03,1.145.387,1.51,1.537,1.519,2.58.02,5.159.014,7.739,0a1.486,1.486,0,0,0,1.585-1.571c.023-.963.02-1.929,0-2.892a1.451,1.451,0,0,0-1.633-1.589C52.055,181.1,50.778,181.109,49.5,181.111Z" transform="translate(-32.071 -137.864)" fill="#858585"/>
        <path id="Path_173" data-name="Path 173" d="M279.152,189.761c-1.277,0-2.555-.05-3.83.011a3.863,3.863,0,0,1-4.007-3.893c.036-1.3-.027-2.612.059-3.912a3.528,3.528,0,0,1,3.4-3.331c2.892-.089,5.79-.114,8.68-.009a3.631,3.631,0,0,1,3.727,3.249,11.02,11.02,0,0,1-.139,5.123,3.6,3.6,0,0,1-3.3,2.7c-1.521.125-3.06.027-4.59.027Zm.155-8.613c-1.3,0-2.609-.011-3.912,0-1.111.011-1.478.351-1.512,1.437-.032,1.047-.032,2.1,0,3.147.03,1.086.4,1.453,1.5,1.462q3.914.031,7.826,0a1.445,1.445,0,0,0,1.53-1.537c.02-.936.014-1.872,0-2.807-.014-1.175-.533-1.7-1.692-1.705-1.248-.009-2.5,0-3.743,0Z" transform="translate(-209.538 -137.903)" fill="#858585"/>
        <path id="Path_174" data-name="Path 174" d="M164.059,111.33c1.041.073,2.095-.08,3.024.688a3.4,3.4,0,0,1,1.409,2.669,7.022,7.022,0,0,0,.1,1.227c.143.731-.556,1.1-.911,1.589a3.789,3.789,0,0,1-4.13,1.346,4.208,4.208,0,0,1-2.741-3.764c-.036-1.908,1.125-2.9,2.591-3.718l.663-.036Zm.64,2.584c-.886,0-1.307.346-1.321,1.1a1.53,1.53,0,0,0,1.375,1.462,1.629,1.629,0,0,0,1.339-1.541C166.076,114.427,165.375,113.917,164.7,113.914Z" transform="translate(-124.193 -85.981)" fill="#858585"/>
      </g>
    </g>
  </g>
</svg>
