<svg xmlns="http://www.w3.org/2000/svg" xmlns:xlink="http://www.w3.org/1999/xlink" width="130" height="130" viewBox="0 0 130 130">
  <defs>
    <clipPath id="clip-Home">
      <rect width="130" height="130"/>
    </clipPath>
  </defs>
  <g id="Home" clip-path="url(#clip-Home)">
    <g id="Layer_1" data-name="Layer 1" transform="translate(17 21)">
      <path id="Path_365" data-name="Path 365" d="M79.713,76.544l-.933.813a2.544,2.544,0,0,0-.949.881q-.466.406-.933.81a2.583,2.583,0,0,0-.949.881l-1.128.94c-.342.214-.744.349-.944.742-.4.047-.619.389-.935.572a2.559,2.559,0,0,0-1.128.565,1.119,1.119,0,0,0-.179.052c-.221.184-.582.038-.761.323-.652.014-1.208.459-1.873.429-.252.073-.5.144-.751.217-2.153.294-4.306.586-6.458.89a4.582,4.582,0,0,0-.685.21l-.565.007c-.252-.139-.382.106-.563.181-.245-.118-.483-.438-.754-.038-.24-.057-.382.134-.563.226-.325-.016-.669-.172-.947.134l-.367.052h-.94c-.125.064-.25.125-.377.188-.325-.009-.669-.174-.947.134a49.332,49.332,0,0,0-5.351.725c-1.863.3-3.736.535-5.606.8-.419.061-.836.144-1.255.217-.125,0-.25,0-.377,0-.356-.17-.615.184-.94.177-.125,0-.25.009-.377.012a.728.728,0,0,0-.751.181h-.751a8.434,8.434,0,0,1-5.342-.191c-2.176-.834-4.374-1.609-6.564-2.407-.245-.047-.4-.327-.683-.266-1.041-.488-2.2-.69-3.2-1.267-.247-.075-.495-.153-.74-.228a1.521,1.521,0,0,0-.952-.339c-.179-.085-.306-.3-.551-.224a1.4,1.4,0,0,0-.829-.306c-.245-.047-.4-.33-.683-.266q-1.6-.632-3.2-1.267c-.247-.075-.492-.153-.74-.228a1.3,1.3,0,0,0-.834-.29c-.212-.106-.424-.21-.636-.318-.634-.323-.372.179-.391.424a9.067,9.067,0,0,1-.436,1.87c-.174.426-.7.615-.747,1.128l-1.1.806-.761.495c-2.4.605-4.833.28-7.254.2a5.209,5.209,0,0,1-1.2-.33l-.744-.426A4.6,4.6,0,0,1,.01,80.42,23.846,23.846,0,0,0,0,77.891a1.128,1.128,0,0,1,1.083-1.317,1.319,1.319,0,0,1,1.555.961c.316.841.016,1.738.186,2.6.012.313.026.627.038.94A2.439,2.439,0,0,0,5.51,82.58a24.6,24.6,0,0,1,3.005,0c2.059.122,3.182-.883,3.175-3.13-.026-8.02-.009-16.042-.009-24.062V48.432a2.864,2.864,0,0,0-.558-1.955c-.271-.3-.431-.756-.959-.714-1.611-.506-3.257-.186-4.887-.212-.325,0-.671-.132-.952.153a1.689,1.689,0,0,0-1.479,1.526,7.3,7.3,0,0,0-.066,1.4q0,9.889-.007,19.78c0,.4-.064.8-.1,1.2-.078.186-.158.372-.236.558-.059.059-.118.12-.179.179-.236-.033-.379.146-.558.245C.048,70.592-.007,70,0,68.74.029,61.667.017,54.594.01,47.523a4.825,4.825,0,0,1,4.039-4.607,20.252,20.252,0,0,1,6.988.186A4.81,4.81,0,0,1,14.3,47.229a1.217,1.217,0,0,0,1.39,1.343,26.341,26.341,0,0,1,4.237.342c.544.085,1.041.009,1.034-.791-.031-3.474-.021-6.948-.035-10.42,0-.2.118-.466-.139-.577s-.37.16-.518.3q-1.675,1.547-3.338,3.1c-.13-.042-.17.007-.137.132a5.231,5.231,0,0,1-4.143,1.514c-1.7-.16-4.117-2.167-4.2-4.294a5.474,5.474,0,0,1,2.369-4.972c1.213-.9,2.186-2.11,3.326-3.128,1.929-1.722,3.738-3.578,5.6-5.37A3.834,3.834,0,0,1,20.4,23.9a1.645,1.645,0,0,0,.808-1.555c-.057-4.072-.052-8.142-.057-12.215a2.163,2.163,0,0,1,2.28-2.48c2.5-.068,5.012-.068,7.516-.019a2.271,2.271,0,0,1,2.348,2.492v1.291c.309.2.426-.054.568-.191,1.689-1.616,3.359-3.25,5.062-4.852,1.92-1.8,3.865-3.58,5.8-5.368.073-.052.148-.1.221-.153,2.028-1.42,4.555-.954,6.649.928,2,1.8,3.908,3.691,5.9,5.5,1.832,1.658,3.533,3.462,5.361,5.125q4.173,3.794,8.237,7.7a1.16,1.16,0,0,1,.382,1.533,1.35,1.35,0,0,1-1.595.787,2.691,2.691,0,0,1-1.26-.879c-1.644-1.526-3.234-3.114-4.871-4.649-1.924-1.8-3.891-3.564-5.815-5.368-2.028-1.9-4.025-3.832-6.044-5.745-.834-.789-1.7-1.547-2.527-2.341a2.72,2.72,0,0,0-3.5.106q-2.78,2.777-5.651,5.462c-2.344,2.183-4.664,4.393-6.991,6.6-2.007,1.9-4.042,3.776-6.049,5.679-3.363,3.184-6.774,6.322-10.1,9.549-1.646,1.6-3.4,3.093-5.036,4.7-1.3,1.279-1.2,2.537.221,3.568a2.063,2.063,0,0,0,2.381-.191q1.611-1.487,3.2-3c2.64-2.508,5.248-5.052,7.923-7.525,2.1-1.941,4.169-3.915,6.256-5.867,2.254-2.108,4.482-4.244,6.732-6.355,2.073-1.946,4.185-3.849,6.2-5.853.57-.565,1.187-1.083,1.8-1.606a1.3,1.3,0,0,1,1.894.031q1.986,1.777,3.948,3.58,4,3.7,7.982,7.424c1.717,1.613,3.373,3.29,5.1,4.89,3.064,2.836,6.133,5.665,9.136,8.569,1.889,1.828,3.87,3.557,5.735,5.406a2.062,2.062,0,0,0,2.5.516,1.537,1.537,0,0,0,1.006-1.974c-.049-.24.1-.405.167-.605.29-.589-.146-.544-.5-.572-.021-.059-.04-.12-.061-.179.313-.325.04-.344-.2-.384-1.726-1.639-3.479-3.25-5.2-4.892-.806-.768-1.623-1.536-2.431-2.306a1.405,1.405,0,0,1-.236-2.113,1.507,1.507,0,0,1,2,.134c1.557,1.4,3.093,2.822,4.628,4.247,1.161,1.079,2.348,2.139,3.453,3.274a4.905,4.905,0,0,1-2.11,8.166,8.933,8.933,0,0,1-2.52.1,1.02,1.02,0,0,0-.744-.24,41.957,41.957,0,0,1-5.54-5.022V62.289c2.009-1.366,3.9-2.673,5.811-3.95a74.268,74.268,0,0,1,6.854-4.388,5.805,5.805,0,0,1,8.5,3.394,3.474,3.474,0,0,0,.346.608v2.256c-.372.12-.4.417-.379.74-.1.028-.193.061-.137.2-.08.247-.16.492-.243.74-.377.219-.469.657-.735.961-.415.212-.506.754-.952.935a3.258,3.258,0,0,0-.947.919c-.311.271-.622.544-.93.815a2.551,2.551,0,0,0-.949.876c-.311.271-.622.544-.93.815a2.551,2.551,0,0,0-.949.876c-.311.271-.622.544-.93.815a2.538,2.538,0,0,0-.949.879q-.466.406-.933.815a2.557,2.557,0,0,0-.949.879l-.933.813a2.557,2.557,0,0,0-.949.879l-.933.813a2.557,2.557,0,0,0-.949.879l-.933.813a2.557,2.557,0,0,0-.949.879ZM23.919,10.582q.011,4.883.024,9.768c.012.052.026.1.038.155.031-.049.061-.1.09-.151,1.538-1.441,2.977-3.015,4.642-4.291A4.637,4.637,0,0,0,30.658,11.2a.616.616,0,0,1,0-.186c.059-.452-.059-.657-.591-.645-2,.045-3.995.035-5.992.047-.141-.031-.191.028-.158.165Zm17.67,42.3v3.01c-.033.132.019.181.151.153.7-.08,1.361.337,2.07.188.393-.045.716.337,1.128.188,1.571.231,3.159.3,4.727.568a19.985,19.985,0,0,0,4.294.365c.141.042.188-.012.155-.151q0-8.207.016-16.412c0-.462-.094-.664-.615-.662q-5.674.039-11.348.019c-.492,0-.636.141-.634.634.031,4.032.038,8.065.049,12.1ZM23.738,49.309c-.033.132.016.179.146.151a1.933,1.933,0,0,0,.4.217,25.873,25.873,0,0,1,6.454,2.584,32.076,32.076,0,0,0,6.955,3.022c1,.294,1.109.2,1.109-.831q-.007-7.048-.019-14.1c0-2.068.824-2.9,2.89-2.909,4.011-.012,8.02.028,12.031-.033a2.881,2.881,0,0,1,3.175,3.149c-.061,5.42.019,10.839-.009,16.259a1.138,1.138,0,0,0,.94,1.307,7.973,7.973,0,0,1,5.778,6.407c.2.954-.057,2.235,1.844,2.174,1.489-.049,2.876.191,4.108-.9a9,9,0,0,1,1.8-1.22,1.12,1.12,0,0,0,.669-1.168q-.035-14.288-.04-28.573a1.1,1.1,0,0,0-.382-.954Q68.6,31.2,65.7,28.414c-1.88-1.814-3.8-3.583-5.721-5.349-2.428-2.231-4.786-4.541-7.2-6.793-1.562-1.458-3.163-2.874-4.614-4.447-.3-.325-.49-.349-.815-.016-.78.8-1.609,1.547-2.433,2.3-2.64,2.417-5.2,4.923-7.8,7.379-1.694,1.6-3.422,3.154-5.113,4.751-2.647,2.5-5.278,5.019-7.916,7.528a1.106,1.106,0,0,0-.412.876c.033,4.887.04,9.772.054,14.66ZM91,62.682c.584-.563,1.192-1.1,1.75-1.694a3.006,3.006,0,0,0,.485-3.1,3.278,3.278,0,0,0-5.048-1.34Q79.6,62.282,71.043,68.076c-1.229.834-2.475,1.8-3.976,1.477-1.387-.3-2.866.349-4.157-.5-.907.466-1.811-.038-2.716,0-1.752.066-3.455-.419-5.217-.433-1.272-.009-2.57-.2-3.856-.327-1.6-.155-3.2-.264-4.8-.389-2.4-.186-4.8-.563-7.2-.714-2.339-.146-4.668-.407-7-.591a1.418,1.418,0,0,1-1.272-1.623c.087-.81.619-1.006,1.373-1.015,1.489-.016,2.947.285,4.416.365,3.036.163,6.051.495,9.078.749,1.691.144,3.4.21,5.078.433.992.132,1.986.049,2.961.181a58.522,58.522,0,0,0,6.821.553c.5.009.608-.193.528-.6a6.164,6.164,0,0,0-3.074-4.513,9.069,9.069,0,0,0-3.257-.773c-2.36-.365-4.746-.495-7.1-.883-2.115-.349-4.263-.429-6.392-.725A29.04,29.04,0,0,1,30.841,55.4a29.709,29.709,0,0,0-15.633-4.037c-.5.012-.773.012-.77.671q.039,12.313,0,24.623c0,.445.151.761.532.82a9.042,9.042,0,0,1,1.8.619q8.684,3.25,17.34,6.571a7.679,7.679,0,0,0,4.452.582c1.882-.386,3.816-.506,5.719-.8,1.246-.191,2.537-.17,3.743-.452,1.759-.41,3.545-.537,5.311-.841,1.6-.276,3.22-.384,4.826-.605,2.054-.283,4.105-.579,6.147-.921a43.519,43.519,0,0,0,4.4-.725,14.4,14.4,0,0,0,5.841-3.415q4.8-4.328,9.6-8.658,3.314-2.992,6.623-5.99L91,62.682Z" transform="translate(0.003 -0.02)" fill="#858585"/>
    </g>
  </g>
</svg>
