<svg xmlns="http://www.w3.org/2000/svg" xmlns:xlink="http://www.w3.org/1999/xlink" width="130" height="130" viewBox="0 0 130 130">
  <defs>
    <clipPath id="clip-Hypermarket">
      <rect width="130" height="130"/>
    </clipPath>
  </defs>
  <g id="Hypermarket" clip-path="url(#clip-Hypermarket)">
    <g id="Layer_1" data-name="Layer 1" transform="translate(19.001 24)">
      <g id="Group_50" data-name="Group 50" transform="translate(0 0)">
        <path id="Path_366" data-name="Path 366" d="M-.016,16.379C-.007,15.17.04,13.962,0,12.757c-.031-.907.487-1.2,1.236-1.3a7.572,7.572,0,0,1,1-.022c8.278,0,16.555-.011,24.835.016.709,0,.92-.171.892-.889-.06-1.508-.058-3.02-.015-4.53A6.356,6.356,0,0,1,33.416.249C41.735-.18,50.062.078,58.383.114A6.29,6.29,0,0,1,64.7,5.25a8.922,8.922,0,0,1,.209,2.124c.02,3.535.027,7.069-.007,10.6-.007.647.173.783.8.78q9.925-.035,19.848,0a.831.831,0,0,0,.949-.609,4.74,4.74,0,0,1,3.262-3.051c.327-.091.394-.325.369-.623-.045-.523-.451-.3-.692-.3q-7.161-.022-14.32-.011c-1.994,0-3.987.005-5.982-.005a1.288,1.288,0,0,1-1.363-.8,1.339,1.339,0,0,1,.216-1.476,1.422,1.422,0,0,1,1.274-.433c2.3-.011,4.592-.005,6.887-.005,4.894,0,9.788.016,14.683-.016a2.118,2.118,0,0,1,2.015.967v4.35a3.006,3.006,0,0,1-1.723.761,2.411,2.411,0,0,0-2.212,1.875,12.727,12.727,0,0,0-.627,4.265,55.689,55.689,0,0,1,0,5.777c-.042.956.243,1.25,1.167,1.134,1.448-.182,2.708.122,3.391,1.6v8.7c-.563.287-.823.938-1.421,1.185a8.371,8.371,0,0,1-2.333.065c-.627-.024-.8.136-.8.783.038,3.08.022,6.16.015,9.243,0,1.232-.565,1.866-1.579,1.768-.685-.065-1.145-.353-1.143-1.176.013-3.473-.013-6.946-.025-10.418.027-.129-.02-.182-.151-.147-.242-.009-.482-.027-.723-.027H8.345c-.242,0-.482.018-.723.027-.12-.024-.214-.016-.189.147q-.025,4.887-.049,9.777c-.007,1.158-.471,1.774-1.361,1.828-.841.053-1.312-.318-1.328-1.174-.038-1.992-.025-3.985-.029-5.977,0-1.506,0-3.015,0-4.48-1.692.029-3.378.254-4.465-1.43a2.939,2.939,0,0,1-.114-.576c.009-2.5.029-5,.047-7.507a2.048,2.048,0,0,1,2.141-2.217,12.51,12.51,0,0,1,1.63,0c.565.044.785-.1.776-.731-.038-2.628-.018-5.255-.015-7.883,0-.334.025-.667-.287-.9a1.13,1.13,0,0,1-.4-.94A2.572,2.572,0,0,0,1.71,17.622,1.7,1.7,0,0,1-.02,16.375Zm85.425,5.112c-.122,0-.242,0-.363,0l-19.668-.033c-.06,0-.122,0-.182,0-.34.018-.563.254-.442.529.342.765-.165,1.319-.385,1.944-.72,2.044-3.371,4.218-5.541,4.22q-11.964.008-23.93-.015a8.153,8.153,0,0,1-1.944-.153,6.712,6.712,0,0,1-5.021-6.3c.033-2.2-.033-4.412.022-6.617.018-.752-.171-.934-.929-.932-7.8.031-15.59.02-23.386.02a3.414,3.414,0,0,1-.452,0c-.449-.06-.44.209-.474.543-.06.6.48.46.72.56a4.525,4.525,0,0,1,2.749,2.8.859.859,0,0,0,.972.7c5.317-.04,10.636-.024,15.954-.024a4.169,4.169,0,0,1,.723.009A1.534,1.534,0,0,1,25.167,20a1.24,1.24,0,0,1-.89,1.368,2.985,2.985,0,0,1-.885.084q-7.886.022-15.77.031c-.12-.024-.214-.016-.189.147-.016,2.626.015,5.254-.075,7.878-.031.918.262,1.049,1.1,1.047q37.8-.035,75.6-.022c.331,0,.661-.024.994-.036.46.142.554-.069.551-.494-.024-2.791-.027-5.583-.036-8.374.027-.129-.02-.182-.151-.147ZM46.294,25.43v-.007c3.925,0,7.852-.031,11.778.011a4.048,4.048,0,0,0,4.1-4.076c.082-4.83.053-9.662.011-14.493A3.764,3.764,0,0,0,59.515,3.1a6.707,6.707,0,0,0-1.81-.3c-7.761-.018-15.521-.04-23.283.009a3.586,3.586,0,0,0-3.744,3.467c-.064,5.192-.009,10.386-.018,15.579a3.855,3.855,0,0,0,3.673,3.578H46.291Zm.211,13.982q21.3,0,42.594.016c.771,0,1.1-.111,1.047-.992a35.786,35.786,0,0,1,0-4.165c.044-.825-.2-1.029-1.023-1.027q-26.643.038-53.287.02-16,0-31.991-.016c-.754,0-1.061.113-1.01.963a36.146,36.146,0,0,1,0,4.256c-.047.829.225.965.99.963q21.341-.035,42.684-.018Z" transform="translate(0.02 -0.004)" fill="#858585"/>
        <path id="Path_367" data-name="Path 367" d="M67.361,311.115q-19.49,0-38.978,0a3.413,3.413,0,0,1-1.506-.124,1.825,1.825,0,0,1-1.15-1.746c.005-2.175-.018-4.351-.02-6.526q-.005-7.567,0-15.136a7.152,7.152,0,0,1,.018-.905c.075-.562.113-1.132.927-1.168s1.517.075,1.719,1.018a4.728,4.728,0,0,1,.053.99c0,6.648.022,13.293-.022,19.941-.005.841.251.96,1,.958q13.054-.041,26.107,0c.736,0,.945-.145.941-.92-.031-8.278,0-16.557-.036-24.835a3.27,3.27,0,0,1,3.033-3.151c5.257.045,10.515,0,15.772.013,1.972.005,3.287,1.519,3.289,3.711q.008,10.287,0,20.575c0,1.33.018,2.659-.011,3.987-.011.467.116.611.6.611q13.417-.022,26.832.005c.707,0,.587-.4.587-.8V287.576a8.836,8.836,0,0,1,.018-.9c.064-.634.205-1.172,1.047-1.163,1.05.011,1.5.265,1.63,1.1a5.279,5.279,0,0,1,.024.814v20.938c0,2.043-.7,2.751-2.717,2.751H67.36Zm8.43-15.694c0-4.045-.022-8.09.018-12.136.009-.85-.267-1.076-1.092-1.07q-7.292.052-14.582,0c-.84-.007-1,.305-1,1.054q.03,12.182,0,24.362c0,.652.194.783.809.78q7.518-.038,15.034,0c.7.005.836-.2.83-.856C75.777,303.512,75.792,299.467,75.792,295.422Z" transform="translate(-21.027 -228.716)" fill="#858585"/>
        <path id="Path_368" data-name="Path 368" d="M355.341,296.04a3.831,3.831,0,0,1,1.143,3.053c-.038,4.47-.056,8.941,0,13.41.031,2.371-1.241,3.631-3.558,3.6-5.435-.069-10.874-.044-16.31-.009a2.961,2.961,0,0,1-2.757-2.8c.051-5.1-.062-10.2.06-15.3a2.676,2.676,0,0,1,2.855-2.524q8.246-.011,16.492-.005c.211,0,.422-.013.632-.02l1.441.6Zm-10.128,2.139c-2.628,0-5.257.018-7.885-.015-.6-.007-.76.16-.758.756q.035,6.842,0,13.684c0,.592.167.771.767.769q7.84-.033,15.679,0c.623,0,.743-.209.741-.781q-.033-6.842,0-13.684c0-.6-.167-.752-.754-.745-2.6.031-5.2.013-7.794.015Z" transform="translate(-273.185 -241.752)" fill="#858585"/>
        <path id="Path_369" data-name="Path 369" d="M64.07,316.14H55.64a2.716,2.716,0,0,1-2.724-2.584q-.038-7.75,0-15.5a2.532,2.532,0,0,1,2.562-2.515q8.567-.041,17.133-.009a2.984,2.984,0,0,1,2.877,3.213c.015,4.683.005,9.366,0,14.049a3.79,3.79,0,0,1-.253,1.388,2.844,2.844,0,0,1-2.739,1.959h-8.43v0Zm0-2.715c2.6,0,5.2-.022,7.794.015.689.009.934-.142.927-.89-.036-4.5-.029-9-.005-13.5,0-.607-.125-.823-.785-.82q-7.84.041-15.679.005c-.525,0-.731.085-.727.68q.041,6.888,0,13.775c0,.621.2.756.772.75,2.568-.025,5.136-.011,7.7-.011Z" transform="translate(-43.281 -241.816)" fill="#858585"/>
        <path id="Path_370" data-name="Path 370" d="M213.06,34.35H206.3c-1.208,0-2.417,0-3.624,0a1.611,1.611,0,0,1-1.666-1.363,1.483,1.483,0,0,1,1.586-1.35c2.144-.024,4.289-.007,6.433-.007,1.541,0,3.082.038,4.621-.011a2.231,2.231,0,0,1,2.215,3.124c-.863,2.29-1.672,4.6-2.615,6.862a3.346,3.346,0,0,1-3.3,2.239c-2.657-.022-5.317-.064-7.972.018a3.671,3.671,0,0,1-3.505-3.107c-.458-2.419-.967-4.827-1.456-7.238-.093-.454-.371-.576-.827-.572-.687.005-1.454.242-1.968-.509-.229-.334-.6-.611-.389-1.083.225-.509.436-1.092,1.118-1.09a10.291,10.291,0,0,1,2.5.109c1.686.407,2.026,1.7,2.308,3.118.46,2.312.952,4.618,1.452,6.92a.835.835,0,0,0,.95.725c2.506-.033,5.014-.018,7.52,0a1.087,1.087,0,0,0,1.168-.823c.7-1.964,1.454-3.911,2.221-5.955Z" transform="translate(-158.55 -24.745)" fill="#858585"/>
        <path id="Path_371" data-name="Path 371" d="M264.2,112.05c1.09,0,1.445.309,1.432,1.241a1.425,1.425,0,0,1-1.5,1.479,1.745,1.745,0,0,1-1.579-1.41c-.031-.751.676-1.312,1.652-1.31Z" transform="translate(-214.83 -91.688)" fill="#858585"/>
        <path id="Path_372" data-name="Path 372" d="M232.048,112.05c1.107,0,1.612.354,1.645,1.165a1.377,1.377,0,0,1-1.5,1.374c-1.13,0-1.6-.383-1.586-1.3C230.623,112.4,231.023,112.054,232.048,112.05Z" transform="translate(-188.697 -91.688)" fill="#858585"/>
        <path id="Path_373" data-name="Path 373" d="M214.335,359.47c1.457,0,1.981.416,1.855,1.476a1.037,1.037,0,0,1-.04.264c-.4,1-1.247.994-2.139,1a1.5,1.5,0,0,1-1.583-1.009c-.394-1.076.343-1.726,1.906-1.726Z" transform="translate(-173.736 -294.146)" fill="#858585"/>
      </g>
    </g>
  </g>
</svg>
