<svg xmlns="http://www.w3.org/2000/svg" xmlns:xlink="http://www.w3.org/1999/xlink" width="130" height="130" viewBox="0 0 130 130">
  <defs>
    <clipPath id="clip-Accessories">
      <rect width="130" height="130"/>
    </clipPath>
  </defs>
  <g id="Accessories" clip-path="url(#clip-Accessories)">
    <g id="Layer_1" data-name="Layer 1" transform="translate(20.996 40.01)">
      <path id="Path_397" data-name="Path 397" d="M83.108,21.535c2.4.046,4.268,2.259,4.907,4.5a6.8,6.8,0,0,1-.683,4.855c-.1.209-.155.435-.233.651-.1.029-.185.07-.141.2A13.811,13.811,0,0,1,82.4,37.214a22.953,22.953,0,0,1-9.774,3.821,19.8,19.8,0,0,1-5.128.488,4.454,4.454,0,0,0-3.66,1.368,26.815,26.815,0,0,1-9.643,5.6,34.615,34.615,0,0,1-7.707,1.62,30.5,30.5,0,0,1-16.4-3.3,24.456,24.456,0,0,1-6.07-4.287,2.973,2.973,0,0,0-2.359-.991,27.7,27.7,0,0,1-10.449-1.62A18.087,18.087,0,0,1,4,35.545,13.97,13.97,0,0,1,.083,28.251a5.243,5.243,0,0,1,.843-3.8,5.866,5.866,0,0,1,3.864-2.929,5.89,5.89,0,0,1,3.889.656c2.254,1.171,4.6,2.162,6.818,3.4,1.363.755,2.706,1.547,4.061,2.315.291.165.581.325.666-.245a111.5,111.5,0,0,1,2.708-12.655c.889-3.3,1.708-6.631,3.478-9.6.952-1.6,1.725-3.345,3.4-4.409C31.985-.4,35.976-.5,37.705,1.766A8.28,8.28,0,0,0,39.77,3.191,7.441,7.441,0,0,0,45.3,4.267h.726A12.234,12.234,0,0,0,50.686,1.8C51.419,1.224,52,.277,53.115.267h.364c2.873-.743,5.23.27,6.961,2.835.471.7.9,1.423,1.38,2.111a4.693,4.693,0,0,0,.741,1.467c1.086,2.7,2.062,5.441,2.9,8.222a56.136,56.136,0,0,1,2.2,9.835c.09.789.226,1.572.362,2.354.1.551.313.84.959.522,2.9-1.436,5.832-2.8,8.718-4.268a25.453,25.453,0,0,1,3.218-1.676,10.158,10.158,0,0,1,1.637-.282c.119.291.352.143.549.146ZM36.775,4.289a1.358,1.358,0,0,0-.544-.542l-.559-.554a1.751,1.751,0,0,0-1.1-.5,3.673,3.673,0,0,0-4.209,1.231,8.235,8.235,0,0,0-1.431,2.191c-.124.18-.248.362-.374.542a5.11,5.11,0,0,0-.921,1.994c-.34.287-.3.758-.532,1.1a2.047,2.047,0,0,0-.364,1.091,3.954,3.954,0,0,0-.547,1.635,2.181,2.181,0,0,0-.3,1.278,2.445,2.445,0,0,0-.352,1.273.63.63,0,0,0-.192.726,18.929,18.929,0,0,0-.9,3.634.68.68,0,0,0-.2.726c0,.313-.352.564-.16.908a.68.68,0,0,0-.2.726l-.226.9c-.119.029-.287-.046-.333.136a.186.186,0,0,0,.151.238.684.684,0,0,0,.454.763A9.271,9.271,0,0,0,25.3,24.3c.036.226.228.151.362.185a12.5,12.5,0,0,0,2.733.862,7.349,7.349,0,0,0,2.171.6,2.406,2.406,0,0,0,1.28.311,4.917,4.917,0,0,0,1.635.364l.726.182h.364l.726.182a59.386,59.386,0,0,0,15.268.182c.347.158.6-.18.908-.182h.364l2-.364c.34.148.148.471.216.7.491,1.676.483,1.678-1.129,2.052-.058.015-.117.019-.175.029-.308.015-.649-.177-.916.131-1.851.362-3.745.267-5.613.527a29.009,29.009,0,0,1-4.056-.022,17.209,17.209,0,0,1-2.15.036,30.26,30.26,0,0,0-3.8-.306.724.724,0,0,0-.726-.182l-2.541-.406c-.194-.308-.479-.138-.731-.141-.221-.143-.44-.306-.726-.182-.316,0-.561-.34-.908-.182a3.253,3.253,0,0,0-1.4-.376c-.185-.333-.515-.146-.772-.216a1.746,1.746,0,0,0-.916-.323q-1.272-.444-2.546-.891l-.347-.049q-1.589-.734-1.831.981c-.039.284-.3.527-.153.843.068.328-.279.751.279.972.636.253,1.244.573,1.865.867a2.024,2.024,0,0,0,.891.355,35.93,35.93,0,0,0,8.385,2.866l2,.364c.437-.034.814.364,1.273.182.381-.044.692.325,1.091.182a46.933,46.933,0,0,0,12-.544c.4.143.709-.226,1.091-.182a54.9,54.9,0,0,0,7.5-1.994,36.551,36.551,0,0,0,5.805-2.334c.18.107.333.151.328-.151.175-.107.493.112.549-.287.117-.84-.255-1.64-.189-2.475.015-.2-.189-.165-.335-.189a2,2,0,0,0-.933.226,13.722,13.722,0,0,0-2.371.85c-.18.019-.359.039-.537.061-.151-.044-.3-.09-.372.119l-.175.053c-.129-.039-.17.046-.2.146-.279-.053-.5.143-.755.172-.163.019-.5.141-.476-.2a6.963,6.963,0,0,0-.406-1.7c-.073-.442-.024-.52.43-.658a25.481,25.481,0,0,0,4.717-1.608c.18.1.333.151.33-.151.277-.044.653.022.537-.466-.474-1.977-.853-3.979-1.455-5.924.27-.25.287-.442-.121-.537a33.06,33.06,0,0,0-1.484-4.379,10.292,10.292,0,0,0-.777-2.354.338.338,0,0,0,.036-.168l.131-.134-.138-.022c-.362-.219-.238-.709-.539-.964a1.045,1.045,0,0,0-.35-.717c-.187-.423-.372-.845-.559-1.268-.2-.347-.393-.692-.588-1.04A9.6,9.6,0,0,0,57.3,3.259c-.243-.126-.486-.25-.726-.376-.168-.056-.267-.289-.493-.194-.2-.311-.5-.185-.777-.17h-.726a.92.92,0,0,0-.908.189c-.42-.1-.539.25-.736.483-.479.024-.646.437-.908.731l-.719.6c-.427.284-.853.571-1.28.855a13.325,13.325,0,0,1-3.1,1.3,10.2,10.2,0,0,1-4.163.206,1.6,1.6,0,0,0-.882-.287L40.4,6.16l-.712-.226c-.444-.231-.891-.459-1.336-.69-.566-.253-.911-.87-1.576-.957l.007.007ZM72.918,28.666c-.583-.07-.976.345-1.445.561L68.748,30.5l-.554.311-5.628,2.24c-.129-.051-.175.029-.209.131a63.951,63.951,0,0,1-7.207,2.249c-1.586.393-3.187.751-4.8,1.013a39.932,39.932,0,0,1-6.021.585,58.533,58.533,0,0,1-9.56-.585c-.066-.211-.221-.163-.372-.131a6.479,6.479,0,0,0-1.445-.233c-.063-.216-.221-.163-.372-.131a7.956,7.956,0,0,0-1.81-.415c-.063-.219-.221-.165-.372-.131a3.809,3.809,0,0,0-1.445-.415c-.063-.219-.221-.165-.372-.131a1,1,0,0,0-.719-.233c-.061-.219-.221-.165-.372-.131l-2.6-1.057c-.236-.049-.386-.313-.661-.262q-2.179-1.093-4.36-2.184c-.036-.228-.228-.148-.364-.182a31.909,31.909,0,0,0-3.447-1.984.756.756,0,0,0-.738-.3c.024.381.308.513.534.692a.51.51,0,0,0,.35.532,1.007,1.007,0,0,0,.556.746,8.465,8.465,0,0,0,1.623,2.162.947.947,0,0,0,.564.731c.056.058.112.117.17.175.007.379.287.556.554.741a20.875,20.875,0,0,0,1.814,2.164,2.315,2.315,0,0,0,.729.743l2.363,2.363a1.564,1.564,0,0,0,.736.675l.9.78a.534.534,0,0,0,.547.359c.121.121.24.245.362.367a.567.567,0,0,0,.542.372c.192.381.578.517.911.719l1.093.719a6.791,6.791,0,0,0,1.45.916l1.64.721c.017.1.061.177.187.136l.547.172a.981.981,0,0,0,.717.245,4.891,4.891,0,0,0,1.644.561,5.125,5.125,0,0,0,1.635.476l.547.182a33.635,33.635,0,0,0,6.886.777c.534-.01,1.061-.457,1.4-.333,1.178.43,2.278-.087,3.3-.3A24.962,24.962,0,0,0,60.55,42.269c.066-.046.134-.092.2-.136.177-.158.347-.325.532-.474a44.978,44.978,0,0,0,7.474-7.539c.121-.124.243-.245.362-.369a.539.539,0,0,0,.364-.542l.362-.369c.233-.471.814-.692.911-1.263.119-.126.24-.25.359-.376q.372-.547.743-1.1a5.462,5.462,0,0,0,1.057-1.453c.1-.022.238.017.248-.141,0-.034-.068-.1-.1-.1-.158.012-.119.151-.141.248ZM67.856,38.96a14.581,14.581,0,0,0,4.158-.369,23.083,23.083,0,0,0,7.253-2.485,13.11,13.11,0,0,0,5.642-5.82,6.867,6.867,0,0,0,.855-2.261,7.622,7.622,0,0,0-.488-2.378,2.283,2.283,0,0,0-1.671-1.6,3.375,3.375,0,0,0-3,.376,16.775,16.775,0,0,0-3.031,2.429c-1.581,1.844-2.956,3.847-4.4,5.8a59.1,59.1,0,0,1-5.324,6.3Zm-47.605.09c-.08-.243-.085-.345-.136-.4A76.846,76.846,0,0,1,13,29.74a17.3,17.3,0,0,0-5.108-5.159,3.253,3.253,0,0,0-3.634-.2,3.446,3.446,0,0,0-1.627,3.534A11.409,11.409,0,0,0,7.3,35,19.517,19.517,0,0,0,13.7,37.957a38.716,38.716,0,0,0,6.556,1.1Z" transform="translate(0 0)" fill="#858585"/>
    </g>
  </g>
</svg>
