<svg xmlns="http://www.w3.org/2000/svg" xmlns:xlink="http://www.w3.org/1999/xlink" width="130" height="130" viewBox="0 0 130 130">
  <defs>
    <clipPath id="clip-Footwear">
      <rect width="130" height="130"/>
    </clipPath>
  </defs>
  <g id="Footwear" clip-path="url(#clip-Footwear)">
    <g id="Layer_1" data-name="Layer 1" transform="translate(26 30)">
      <g id="Group_48" data-name="Group 48" transform="translate(0 0)">
        <path id="Path_354" data-name="Path 354" d="M7.655,65.59c.071-1.829-.2-3.648-.189-5.475a.814.814,0,0,0-.153-.761c.158-1.833-.181-3.65-.151-5.479,0-.212.141-.45-.113-.614.063-.654-.2-1.323.261-1.962.406-.564.927-.315,1.365-.277a.779.779,0,0,1,.652.879c-.017.4.01.809.017,1.213l.154.761c-.132,1.831.233,3.648.149,5.479-.137.292.158.5.156.761-.133,1.831.233,3.648.149,5.479.166.231.109.505.156.761.015.309-.174.641.1.919.061.687.511.524.931.425.166.01.353.111.462-.114a1.24,1.24,0,0,0,.578-1.23q.011-1.207.025-2.412a3.485,3.485,0,0,1,.118-1.24c0-.153.006-.305.01-.458V57.982a.825.825,0,0,0,.154-.761q0-2.054,0-4.11a.82.82,0,0,0,.154-.761c-.057-2.944.3-5.881.149-8.828a.825.825,0,0,0,.154-.761A20.1,20.1,0,0,1,13.1,40a5.566,5.566,0,0,1,.79-1.638c.246-.2.608-.219.8-.507l.067-.036q1.037-.5.214-1.455a1.939,1.939,0,0,0-.622-.921A6.98,6.98,0,0,0,13.3,33.927c-.04-.322-.315-.5-.458-.761-1.083-1.415-2.044-2.92-3.21-4.272-.059-.065-.118-.128-.175-.193-.023-.071-.048-.143-.071-.214l-.351-.345a.5.5,0,0,0-.317-.465l-.288-.3a8.586,8.586,0,0,0-1.213-1.524c0-.383-.431-.482-.526-.8a.075.075,0,0,0-.046-.067l-.5-.5a.493.493,0,0,0-.32-.463l-.452-.463a.434.434,0,0,0-.307-.45l-.452-.465c-.01-.433-.5-.53-.62-.881-.038-.082-.067-.223-.118-.233-.172-.031-.162.124-.179.238a10.9,10.9,0,0,0,.648,2.575,4.612,4.612,0,0,0,.4,1.68c.324,1.217.534,2.462.975,3.646A3.008,3.008,0,0,0,6.11,31.2a7.063,7.063,0,0,0,.515,1.972,3.094,3.094,0,0,0,.41,1.539,3.7,3.7,0,0,0,.353,1.352l.137,1.219c0,.1,0,.2,0,.305-.029.126-.069.256.109.309a7.508,7.508,0,0,1,.877,2.758,10.548,10.548,0,0,1,.378,2.718c-.376.376-.069.637.154.913-.01.7-.04,1.405-.017,2.107a2.745,2.745,0,0,1-.177.933l-.3.292a.744.744,0,0,0-.145.042c-.341-.259-.713-.015-1.068-.061l-.16-.113-.132-.031a7.791,7.791,0,0,1-.339-2.864.819.819,0,0,0-.153-.761c0-.709,0-1.421,0-2.13a.265.265,0,0,0-.143-.362.085.085,0,0,0-.067-.072c-.082-.21-.162-.42-.244-.631a2.075,2.075,0,0,0-.269-1.068A4.5,4.5,0,0,0,5.494,38.2a27.05,27.05,0,0,0-.879-3.351c-.061-.3-.124-.606-.185-.91q-.441-1.6-.881-3.2c-.063-.3-.124-.606-.187-.91q-.441-1.6-.879-3.2a4.523,4.523,0,0,0-.338-1.367l-.727-2.742-.338-1.367L.355,18.409c-.025-.378.021-.776-.315-1.062v-.913c.156-.1.156-.2,0-.305V14.454c.381-.284-.069-.782.275-1.076.154-.008.309-.023.307-.231,0-.162-.128-.191-.254-.215A11.716,11.716,0,0,1,1.43,9.223a17.289,17.289,0,0,1,4.844-6.53A11.147,11.147,0,0,1,10.023.265a5.618,5.618,0,0,1,3.408.01c.149.063.254.254.456.153a5.52,5.52,0,0,1,2.428,2.63.9.9,0,0,0,.294.6c.37.9.757,1.8,1.217,2.662a13.277,13.277,0,0,1,.919,2.22,1.052,1.052,0,0,1-.681,1.318,1,1,0,0,1-1.377-.463c-.421-.824-.694-1.726-1.14-2.534C14.863,5.62,14.541,4.2,13.584,3.1a2.574,2.574,0,0,0-3.053-.566A15.4,15.4,0,0,0,6.108,6.1a14.952,14.952,0,0,0-2.5,3.824A12.026,12.026,0,0,0,2.5,14c-.053.3-.286.578-.153.913v.913c-.149.542.2.82.58,1.077A33.693,33.693,0,0,0,5.3,19.788c1.69,2.054,3.416,4.077,5,6.213.994,1.337,2.046,2.63,3.03,3.974a109.822,109.822,0,0,1,7.249,10.954,70.757,70.757,0,0,1,4.432,9.407c.183.479.408.942.614,1.413-.032.111.032.145.124.158.122.751.681,1.35.753,2.121-.031.029-.061.059-.093.088l.254.074c.124.29.246.582.37.872.126.082.027.311.225.347-.046.406.339.65.383,1.022.126.082.027.311.225.347a1.015,1.015,0,0,0,.3.761,20.856,20.856,0,0,0,3.368,5.588A17.277,17.277,0,0,0,33.8,65.294c.032.08.065.16.177.126a11.242,11.242,0,0,0,5.176,2.287c.3.053.629-.023.913.153.475-.013.95-.04,1.426-.04q9.234,0,18.466,0c1.205,0,1.5.246,1.594,1.283a1.478,1.478,0,0,1-.307.687,2.5,2.5,0,0,1-1.209.318c-6.465-.015-12.932-.032-19.4-.011a15.667,15.667,0,0,1-3.616-.515L35.8,69.133l-.908-.351a.9.9,0,0,0-.608-.305q-.767-.538-1.531-1.077c-.059-.042-.118-.084-.177-.124a3.574,3.574,0,0,0-.868-.612L30.179,65.13q-.778-.981-1.558-1.96L27.9,62.1q-.93-1.825-1.861-3.648a2.185,2.185,0,0,0-.416-.769,1.735,1.735,0,0,0-.345-.906l-.429-.921a.248.248,0,0,0-.032-.143c-.1-.2-.2-.406-.3-.608a4.471,4.471,0,0,0-.46-1.217c-.1-.2-.2-.406-.3-.608.023-.473-.408-.772-.46-1.217l-.423-.927A.213.213,0,0,0,22.839,51l-.427-.923a.248.248,0,0,0-.032-.143,2.082,2.082,0,0,0-.41-.769,6.771,6.771,0,0,0-.65-1.667l-.305-.608a10.871,10.871,0,0,0-1.177-2.441c-.034-.109.023-.261-.145-.307a2.127,2.127,0,0,0-.606-1.057,1.089,1.089,0,0,0-.309-.616,4.1,4.1,0,0,0-1.508-1.943,2.887,2.887,0,0,1-.534-.488c.031-.1,0-.139-.107-.1-1.211-.109-1.344,0-1.369,1.188-.011.5.019,1,.031,1.507l-.011.761c-.242.246-.174.559-.174.854.006,1.085.017,2.17.025,3.255,0,.254,0,.507-.006.761a8.387,8.387,0,0,0-.17,2.672c-.031.526-.013,1.057-.019,1.585-.339.149-.347.359-.113.614q0,2.054.006,4.11c0,.153,0,.305-.008.456a18.013,18.013,0,0,0-.141,4.262c0,.254-.01.507-.013.761-.278.3-.168.666-.17,1.005,0,.984.013,1.968.021,2.952.046.227-.267.364-.153.608.046.4-.311.681-.341,1.062l-.412.612a.2.2,0,0,0-.038.139l-.757.5a3.276,3.276,0,0,1-3.044.294c-.145-.078-.261-.219-.45-.195L8.267,68.643l-.458-1.064q-.02-.606-.042-1.211c-.011-.259.149-.544-.114-.765Z" transform="translate(-0.04 -0.005)" fill="#858585"/>
        <path id="Path_355" data-name="Path 355" d="M138.772,105.285a3.588,3.588,0,0,0-1.983-.622,1.512,1.512,0,0,0-1.394.008.271.271,0,0,0-.134.032,4.559,4.559,0,0,0-2.138,1.024c-.37.046-.582.376-.908.5l-.469.246c-.149.072-.3.143-.444.215-.322-.072-.515.185-.761.3-1.028.282-2.042.584-3.1.78a12.293,12.293,0,0,1-6.009-.275,14.492,14.492,0,0,1-7.449-5.794,15.7,15.7,0,0,1-1.766-3.006,6.149,6.149,0,0,1-.883-2.237c.082-.252-.065-.307-.269-.313-.242-.959-.99-1.716-1.1-2.731.082-.252-.065-.307-.269-.315-.244-.959-.99-1.716-1.1-2.729.082-.254-.063-.309-.271-.315-.393-1.386-1.295-2.54-1.733-3.929a24.952,24.952,0,0,0-1.215-2.576C104.224,81,103.03,78.464,101.9,75.9a31,31,0,0,1-1.545-3.614c-.214-.717-.715-1.383-1.011-2.107a24.945,24.945,0,0,0-1.066-2.319,1.324,1.324,0,0,1,.5-1.808,1.375,1.375,0,0,1,1.617.843q2.666,5.933,5.328,11.868,2.065,4.611,4.119,9.228.7,1.57,1.4,3.145c-.04.109.032.141.114.164a34.911,34.911,0,0,0,1.754,3.948,34.443,34.443,0,0,0,1.926,3.955c1.85,3.114,4.321,5.565,8,6.35a12.761,12.761,0,0,0,6.82-.835c1.383-.469,2.508-1.39,3.847-1.936a6.965,6.965,0,0,1,6.432.624,61.841,61.841,0,0,1,6.677,4.485c1.083.828,2.123,1.714,3.183,2.575.032.082.067.16.179.13l3.04,2.782,1.522,1.522a9.374,9.374,0,0,0,1.232,1.379,3.87,3.87,0,0,1,1.215,3.356c-.034.4,0,.4.3.421v.305c-.193-.391-.339-.04-.41.063a1.936,1.936,0,0,0-.174.547c.023.265-.273.372-.305.608l-.187.3a.493.493,0,0,0-.3.292,4.476,4.476,0,0,1-3.629,1.325c-2.43-.023-4.859-.006-7.287,0a1.327,1.327,0,0,1-1.247-1.121,1.184,1.184,0,0,1,1.148-1.129c2.632-.031,5.262-.025,7.893-.036a1.792,1.792,0,0,0,1.795-1.154l.114-.158c-.072-.454.164-.936-.122-1.371a.46.46,0,0,0-.315-.454,56.267,56.267,0,0,0-5.5-5.5l-.177-.13-3.171-2.615-.175-.124q-1.359-.97-2.719-1.941c-.2-.113-.315-.378-.6-.357a16.98,16.98,0,0,0-2.29-1.476l-1.057-.641Z" transform="translate(-79.412 -53.399)" fill="#858585"/>
      </g>
    </g>
  </g>
</svg>
