<svg xmlns="http://www.w3.org/2000/svg" xmlns:xlink="http://www.w3.org/1999/xlink" width="130" height="130" viewBox="0 0 130 130">
  <defs>
    <clipPath id="clip-Swimwear">
      <rect width="130" height="130"/>
    </clipPath>
  </defs>
  <g id="Swimwear" clip-path="url(#clip-Swimwear)">
    <g id="Layer_1" data-name="Layer 1" transform="translate(39 22)">
      <path id="Path_314" data-name="Path 314" d="M46.769,49.349a31.833,31.833,0,0,0,1.628,4.7c1.049,2.784,2.172,5.544,3.178,8.343a3,3,0,0,1-1.918,3.9,28.856,28.856,0,0,0-5.183,2.089,20.355,20.355,0,0,0-5.869,4.751,21.625,21.625,0,0,0-2.559,3.835,22.9,22.9,0,0,0-2.278,5.524,6.829,6.829,0,0,1-.659,1.639,2.282,2.282,0,0,1-1.185,1.018,6.551,6.551,0,0,1-2.192.192q-4.814.007-9.628.009c-.047-.085-.073-.218-.14-.243-.165-.058-.2.1-.243.216-1.229-.786-1.546-2.1-1.9-3.37a23.27,23.27,0,0,0-4.481-8.566,20.116,20.116,0,0,0-5.577-4.606,50.4,50.4,0,0,0-5.844-2.613,2.865,2.865,0,0,1-1.684-3.88c.726-2.207,1.682-4.325,2.488-6.5a46.215,46.215,0,0,0,2.212-6.437c0-.045,0-.089,0-.136a6.505,6.505,0,0,0,.7-3.753c-.078-.376.512-.539.292-.953.256-.423-.118-.294-.3-.336a9.517,9.517,0,0,0-.22-4.267c-.405-2.325-.857-4.646-1.405-6.947-.713-3-1.648-5.931-2.593-8.862a6.434,6.434,0,0,1,.6-5.3,21.785,21.785,0,0,0,2.437-7.294,36.309,36.309,0,0,0,.125-5.544A18.827,18.827,0,0,0,4.1,2.918,2.2,2.2,0,0,1,5.435.156,1.012,1.012,0,0,0,5.6,0h7.5a2.2,2.2,0,0,1,.862,1.276,11.186,11.186,0,0,0,2.568,4.884,11.9,11.9,0,0,0,11.058,4.187,12.385,12.385,0,0,0,8.526-5.4A20.22,20.22,0,0,0,38.143.5L38.27.37c.12-.187.425-.122.5-.37h7.165c1.918.911,2.051,1.653,1.65,3.55a21.785,21.785,0,0,0,.866,12.386,33.5,33.5,0,0,0,1.492,3.2,6.492,6.492,0,0,1,.327,5.19,92.276,92.276,0,0,0-3.1,11.1,39.009,39.009,0,0,0-1.236,8.644,12.207,12.207,0,0,0,.837,5.085v.194Zm.824-29.338-.131-.178a15.9,15.9,0,0,1-.878-1.884,22.706,22.706,0,0,1-1.993-9.265,23.214,23.214,0,0,1,.5-5.535c.111-.45-.013-.693-.581-.666-1.163.051-2.33.036-3.492,0-.459-.011-.612.1-.6.588.029,1.69.078,3.388-.013,5.074A21.256,21.256,0,0,1,40,11.713,14.477,14.477,0,0,1,34.365,20.3a9.917,9.917,0,0,1-5.1,2.232c-.118-.029-.16.018-.136.134a10.581,10.581,0,0,1-4.882.412c-.666-.073-1.29-.452-1.9-.506a7.463,7.463,0,0,1-2.991-1.089,1.094,1.094,0,0,1-.535-1.258,1.2,1.2,0,0,1,.973-.88,1.874,1.874,0,0,1,1.1.2,10.759,10.759,0,0,0,2.546.922,14.179,14.179,0,0,0,4.786-.089,11.953,11.953,0,0,0,7.145-4.5A12.4,12.4,0,0,0,37.9,7.339c.033-.127.087-.287-.085-.33-.236-.056-.225.151-.247.3-.3.287-.606.561-.884.864A14.883,14.883,0,0,1,25.12,13.018c-.684,0-1.336-.22-2.016-.158a.655.655,0,0,0-.666-.167,18.393,18.393,0,0,1-5.321-2.535,15.188,15.188,0,0,1-2.659-2.552c-.1-.116-.187-.312-.381-.261-.223.06-.127.272-.136.421a11.746,11.746,0,0,0,2.486,8.125,1.663,1.663,0,0,1,.341,1.305,1.157,1.157,0,0,1-1,.935c-.3.065-.735.241-1.022-.216a20.772,20.772,0,0,1-2.169-3.677,13.881,13.881,0,0,1-1.107-5.094c.024-2.027,0-4.054,0-6.08,0-.316.045-.586-.443-.575-1.332.031-2.666.027-4,0-.419-.009-.5.2-.4.5a10.987,10.987,0,0,1,.343,2.165,26.3,26.3,0,0,1-.073,7.161,24.672,24.672,0,0,1-2.695,7.72,4.066,4.066,0,0,0-.421,3.359c.158.43.343.851.488,1.285A93.907,93.907,0,0,1,7.088,35.253c.147.726.751,1.39.336,2.267H43.308c.194,0,.39,0,.584,0s.341-.007.388-.287c.187-1.138.416-2.267.628-3.4a.665.665,0,0,0,.167-.666c.869-3.261,1.788-6.5,2.844-9.711a4.023,4.023,0,0,0-.321-3.443ZM46.261,55.345l-.134-.176a59.779,59.779,0,0,1-2.294-6.891c-.114-.454-.321-.468-.668-.468-1.548.007-3.1,0-4.644.009a2.028,2.028,0,0,1-1.236-.325l-.381-.659c.1-1.114.514-1.512,1.6-1.519,1.388-.009,2.777-.02,4.165.007.463.009.637-.111.6-.595a20.188,20.188,0,0,1,.379-4.078c.08-.59.036-.635-.474-.635q-17.246.01-34.491,0c-.468,0-.639.114-.59.595a19.747,19.747,0,0,1,.33,3.913c-.067.673.176.811.815.808,6.666-.024,13.33-.016,20-.013,1.027,0,2.056-.009,3.083.027a1.241,1.241,0,1,1-.094,2.474H15.311c-2.194,0-4.39.036-6.582-.022-.639-.018-.831.245-.964.764-.209.82-.359,1.646-.63,2.463-1.33,3.991-3.009,7.849-4.439,11.8-.209.579-.143,1,.546,1.192.459.125.9.327,1.343.5.062.192.2.16.35.129A27.149,27.149,0,0,1,7.81,65.858a24.957,24.957,0,0,1,6.851,5.272,27.267,27.267,0,0,1,3.432,4.831,31.44,31.44,0,0,1,2.343,5.953,1.129,1.129,0,0,0,1.283.938q4.246-.057,8.493,0a.949.949,0,0,0,1.078-.822,26.99,26.99,0,0,1,1.4-4.1,38.292,38.292,0,0,1,2.864-4.918,20.525,20.525,0,0,1,4.619-4.784,28.557,28.557,0,0,1,8.172-4.194c.987-.332,1.016-.439.65-1.4-.924-2.423-1.822-4.855-2.731-7.283Z" transform="translate(-0.018 0)" fill="#858585"/>
    </g>
  </g>
</svg>
