<svg xmlns="http://www.w3.org/2000/svg" xmlns:xlink="http://www.w3.org/1999/xlink" width="130" height="130" viewBox="0 0 130 130">
  <defs>
    <clipPath id="clip-Baby_Strollers">
      <rect width="130" height="130"/>
    </clipPath>
  </defs>
  <g id="Baby_Strollers" data-name="Baby Strollers" clip-path="url(#clip-Baby_Strollers)">
    <g id="Layer_1" data-name="Layer 1" transform="translate(16.993 21.02)">
      <g id="Group_35" data-name="Group 35" transform="translate(0.008 -0.02)">
        <path id="Path_175" data-name="Path 175" d="M77.055,84.738A7.772,7.772,0,0,1,73.6,87.647a9.986,9.986,0,0,1-8.726.341,10.606,10.606,0,0,1-5.413-5.052c-.12-.236-.174-.558-.491-.66,0-.049,0-.095,0-.144a4.858,4.858,0,0,0-.517-1.408,1.23,1.23,0,0,0-.007-.16c-.056-.764-.116-1.531-.167-2.3a8.4,8.4,0,0,1,.827-4.339,1.258,1.258,0,0,0-.248-1.513q-2.731-3.165-5.46-6.338a13.746,13.746,0,0,1-1.181-1.45c-.345-.533-.612-.387-.924-.021q-3.423,4.024-6.843,8.05a.725.725,0,0,0-.2.864,11.307,11.307,0,0,1,1.017,5.147c-.2.044-.134.222-.176.345a9,9,0,0,1-2.377,5.928,10.232,10.232,0,0,1-5.448,3.435,9.838,9.838,0,0,1-6.37-.3,9.727,9.727,0,0,1-4.232-2.833,9.836,9.836,0,0,1-2.6-5.346,10.651,10.651,0,0,1,1.615-7.746A10.04,10.04,0,0,1,29.1,68.884a9.424,9.424,0,0,1,6.593-1.337c.776.16,1.839.69,2.657-.178.12.03.164-.014.132-.134a6.9,6.9,0,0,1,1.471-1.818c.588-.681,1.045-1.536,1.976-1.895.2-.079-.1-.517.234-.656.12.028.169-.016.139-.139a15.648,15.648,0,0,1,2.733-3.155c.125-.088.049-.206.042-.313.03-.125-.016-.174-.141-.141q-6.758,0-13.519,0c-.29,0-.577,0-.866-.009a9.592,9.592,0,0,1-8.812-7.646,10.884,10.884,0,0,1-.1-2.569c.076-2.6.019-5.2.035-7.8,0-.5-.032-.741-.674-.762-2.43-.086-4.139-3.336-3.213-5.177.315-.625.479-1.334,1.133-1.733l.192-.139c1.71-1.3,3.716-.732,5.687-.906-.72-.871-1.4-1.721-2.106-2.543-1.6-1.855-3.213-3.7-4.823-5.548a2.381,2.381,0,0,0-1.341-.82c-.561-.114-1.093-.366-1.089.639a1.093,1.093,0,0,1-1.193.984,1.314,1.314,0,0,1-1.3-1.313c.007-.642-.241-.514-.574-.514-2.655,0-5.309-.035-7.964.012a3.98,3.98,0,0,1-3.8-2,4.017,4.017,0,0,1,2.52-6.037,18.766,18.766,0,0,1,3.78-.148c1.99-.035,3.98-.035,5.969-.049.132.028.16-.037.13-.151.095-1.186.549-1.557,1.675-1.39.438.065.808.336.764.72-.123,1.077.514,1.073,1.251,1.015.169-.014.341-.021.512-.03l1.733.347A12.013,12.013,0,0,1,24.461,19.3c1.251,1.471,2.5,2.944,3.736,4.427a1.426,1.426,0,0,1-.065,1.8,1.39,1.39,0,0,1-1.842-.074c-1.267-1.455-2.479-2.956-3.75-4.4a8.071,8.071,0,0,0-4.994-3,.686.686,0,0,0-.693-.174c-.229-.009-.461,0-.688-.032-.4-.051-.572.063-.544.507a18.6,18.6,0,0,1,0,1.9c-.016.385.065.542.507.554a5.435,5.435,0,0,1,4.1,2.161,37.791,37.791,0,0,0,4.038,4.512,10.217,10.217,0,0,1,1.077,1.313c1.089,1.313,2.085,2.708,3.243,3.954a25.122,25.122,0,0,0,2.347,2.8c1.218.964,1.811,2.4,3.007,3.387.711.586,1.117,1.617,1.821,2.286,1.14,1.086,1.881,2.509,3.1,3.512l.445.646,2.143,2.462A2.411,2.411,0,0,0,42.334,49c1.679,2.043,3.445,4.014,5.133,6.048a28.156,28.156,0,0,0,2.884,3.238A17.577,17.577,0,0,1,51.8,60.149c1.784,2.115,3.553,4.241,5.339,6.352,1.123,1.327,2.277,2.629,3.4,3.959.317.375.554.382.855,0a4.387,4.387,0,0,1,.667-.676c1.079-.866,1.107-.88.269-1.869-1.765-2.087-3.57-4.139-5.337-6.224-2.11-2.492-4.186-5.017-6.3-7.508-1.8-2.126-3.646-4.223-5.469-6.338-1.045-1.214-2.1-2.416-3.109-3.66-.259-.32-.869-.287-.843-.866.285-.266.076-.315-.158-.354a1.76,1.76,0,0,1-.873-.822A3.567,3.567,0,0,0,38.6,40.337a.453.453,0,0,1-.278-.484c.278-.232.116-.306-.125-.354q-.893-.949-1.784-1.9c.287-.271.074-.317-.16-.352l-.345-.222c-.044-.042-.088-.083-.132-.123a6.916,6.916,0,0,0-2.21-2.467c-.069-.044-.067-.2-.1-.3.285-.266.076-.315-.158-.354a1.537,1.537,0,0,1-.887-.917,3.562,3.562,0,0,0-1.348-1.51c-.259-.188-.544-.31-.554-.683.283-.266.074-.315-.158-.354-.713-.718-.762-1.5-.123-2.041a1.408,1.408,0,0,1,2.048.35c.984,1.184,2.041,2.309,3.051,3.475a.977.977,0,0,0,.832.324c3.665-.009,7.329-.025,10.994.012.7.007.695-.317.695-.832q-.014-13.721-.014-27.44A3.9,3.9,0,0,1,50.168.3c.273-.132.649.023.825-.315h1.559c1.054.51,2.259.943,2.68,2.12a2.182,2.182,0,0,0,2.122,1.573A28.251,28.251,0,0,1,70.7,9.531,29.031,29.031,0,0,1,81.111,25.648a19.817,19.817,0,0,1,.725,6.139c-.037.612.188.8.792.792a3.8,3.8,0,0,1,3.218,3.37c-.081,2.694-.9,3.783-3.551,4.394-.482.111-.3.429-.3.662-.014,2.455.058,4.911-.037,7.362a15.61,15.61,0,0,1-.445,3.859A9.188,9.188,0,0,1,77.34,57.71a8.33,8.33,0,0,1-4.6,1.383c-1.645-.037-3.289.012-4.936.023h-.352c-.98-.211-1.281-.556-1.211-1.4A1.31,1.31,0,0,1,67.7,56.491c1.642-.009,3.287,0,4.929-.007a6.59,6.59,0,0,0,2.96-.748c.308-.155.473-.433.746-.6.019.042.039.081.058.123l-.049-.123c2.055-1.193,2.724-3.109,2.916-5.346.248-2.907.039-5.814.141-8.721.021-.568-.141-.718-.711-.716q-17.714.024-35.427.016c-.218,0-.486-.107-.635.139-.176.3.162.366.28.521,1.564,2.025,3.312,3.889,4.969,5.835,1.774,2.082,3.5,4.2,5.261,6.3.732.873,1.508,1.71,2.224,2.6a1.965,1.965,0,0,0,1.784.753c1.383-.06,2.773-.039,4.156-.007a1.364,1.364,0,0,1,1.411.873,1.33,1.33,0,0,1-.452,1.457,1.1,1.1,0,0,1-.873.257c-.866.012-1.73.019-2.6.028-.153,0-.394-.049-.438.023-.093.146.125.171.215.246A34.167,34.167,0,0,0,61.2,62.614c.818,1.052,1.686,2.062,2.555,3.072.6.695,1.418,1.2,1.793,2.085.139.331.313.035.47,0a10.786,10.786,0,0,1,8.988,1.538,10.155,10.155,0,0,1,4.417,7.023,10.4,10.4,0,0,1-1.575,7.554,2.433,2.433,0,0,1-.7.737c-.12-.044-.158-.007-.114.113ZM13,20.439c.009-.72-.012-1.441.037-2.159.037-.524-.19-.614-.649-.6-1.123.028-2.247.009-3.37.009-1.642,0-3.285.009-4.927,0A1.525,1.525,0,0,0,2.624,19.2c.1.857.547,1.438,1.436,1.443,2.937.012,5.872-.016,8.809-.03.153.023.16-.065.134-.178ZM73.675,84.571l.2-.139c.5-.109.637-.6.943-.913a7.944,7.944,0,1,0-1.144,1.056ZM39.184,71.393a3.733,3.733,0,0,1-.442-.218,8.069,8.069,0,0,0-8.74.174,7.732,7.732,0,0,0-3.468,6.514,8.117,8.117,0,0,0,2.356,5.956,6.856,6.856,0,0,0,4.2,2.217,7.92,7.92,0,0,0,3.852-.2,8.32,8.32,0,0,0,5.138-4.793,7.435,7.435,0,0,0,0-6.064,10.4,10.4,0,0,0-2.7-3.449l-.2-.139ZM38,35.171c.442.72,1.147,1.232,1.608,1.913a1.367,1.367,0,0,0,1.3.7q20.271-.021,40.544-.012a2.5,2.5,0,0,0,.6-.012c.669-.169,1.2-.459,1.186-1.295-.021-1.04-.477-1.443-1.747-1.443H48.146c-3.377,0-6.757.014-10.134.021l-.134.009.125.12ZM55.795,19.315c0,4.128.009,8.258-.012,12.386,0,.53.088.737.69.734q11.088-.035,22.173,0c.482,0,.6-.12.625-.612a15.569,15.569,0,0,0-.215-3.157A26.807,26.807,0,0,0,68.412,11.05,26.126,26.126,0,0,0,56.539,6.169c-.866-.123-.748.158-.748.672q0,6.237,0,12.472ZM45.146,56.484a5.2,5.2,0,0,0-.438-.649c-1.83-1.932-3.354-4.119-5.161-6.078-1.661-1.8-3.041-3.855-4.779-5.6-.06-.06-.12-.125-.176-.192-.9-1.066-1.8-2.126-2.685-3.2a1.111,1.111,0,0,0-.975-.4c-1.992.016-3.987.03-5.979-.007-.57-.009-.716.148-.709.713.03,2.569.079,5.142-.016,7.709a8.985,8.985,0,0,0,.419,3.451,6.824,6.824,0,0,0,5.55,4.225c4.936.09,9.875.028,14.943.028Zm5.316-38.647V30.39c0,2.113,0,2.092,2.136,2.043.524-.012.607-.2.607-.658Q53.188,18.009,53.2,4.245A1.51,1.51,0,0,0,51.651,2.6c-.72-.012-1.186.662-1.186,1.642q0,6.8,0,13.593ZM42.6,70.888c1.019-1.207,1.974-2.347,2.94-3.475q2.123-2.477,4.26-4.943a.439.439,0,0,0,0-.676c-.442-.482-.89-.964-1.293-1.478-.35-.449-.588-.38-.927.025-1.564,1.876-3.241,3.665-4.691,5.624-.713.964-1.969,1.42-2.319,2.715-.1.368-.1.47.178.646A8.575,8.575,0,0,1,42.6,70.89ZM29.335,37.765c-.63-.785-1.174-1.5-1.76-2.175-.195-.227-.368-.563-.72-.565-1.844,0-3.692-.049-5.529.053a1.193,1.193,0,0,0-1.179,1.378,1.224,1.224,0,0,0,1.193,1.288c2.636.049,5.272.019,7.994.019Z" transform="translate(-0.008 0.02)" fill="#858585"/>
        <path id="Path_176" data-name="Path 176" d="M130.611,324.385c-3.167.391-5.529-2.87-5.6-5.337-.076-2.9,2.5-5.636,4.946-5.6,3.588.056,6.173,1.992,6.169,4.746C136.124,322.149,134.139,324.375,130.611,324.385Zm-.014-8.321a2.768,2.768,0,0,0-2.965,2.733,2.963,2.963,0,0,0,2.682,3.009c2.249-.088,3.206-1,3.213-3.3,0-1.436-1.2-2.439-2.933-2.439Z" transform="translate(-96.057 -240.836)" fill="#858585"/>
        <path id="Path_177" data-name="Path 177" d="M278.9,313.4a5.284,5.284,0,0,1,5.682,5.4c-.123,3.384-2.289,5.62-5.691,5.629-3.289.009-5.418-2.446-5.511-5.654-.079-2.766,2.553-5.784,5.52-5.37Zm.153,2.6c-1.83,0-3.171,1.156-3.085,2.789a3.032,3.032,0,0,0,2.935,3.083,3.189,3.189,0,0,0,3.1-3.011A2.746,2.746,0,0,0,279.057,316Z" transform="translate(-210.058 -240.771)" fill="#858585"/>
      </g>
    </g>
  </g>
</svg>
