<svg xmlns="http://www.w3.org/2000/svg" xmlns:xlink="http://www.w3.org/1999/xlink" width="130" height="130" viewBox="0 0 130 130">
  <defs>
    <clipPath id="clip-Optics">
      <rect width="130" height="130"/>
    </clipPath>
  </defs>
  <g id="Optics" clip-path="url(#clip-Optics)">
    <g id="Layer_1" data-name="Layer 1" transform="translate(19.999 30)">
      <g id="Group_53" data-name="Group 53" transform="translate(0 0)">
        <path id="Path_381" data-name="Path 381" d="M43.414,47.149a15.272,15.272,0,0,0,.181,2.341,41.459,41.459,0,0,1-.356,4.415c.045.264-.314.425-.173.71a3.054,3.054,0,0,0-.221,1.038c-.1.031-.176.078-.135.2a23.679,23.679,0,0,1-3.061,6.031c-.271.173-.532.352-.551.718q-1.148,1.148-2.3,2.3c-.368.007-.537.276-.708.539l-3.03,1.937-.52.238A21.49,21.49,0,0,1,26.675,69.4l-.71.012c-.532-.178-1.012.143-1.535.162a29.863,29.863,0,0,1-4.325-.4c-.126-.276-.349-.128-.539-.126a2.886,2.886,0,0,0-1.416-.406c-.045-.216-.223-.145-.361-.166l-3.2-1.435c-.036-.223-.223-.145-.356-.178a5.071,5.071,0,0,0-1.6-1.067l-.347-.342a.538.538,0,0,0-.53-.356,2.252,2.252,0,0,0-.72-.708,24.209,24.209,0,0,1-2.676-3.032L8.039,61a1.183,1.183,0,0,0-.387-.708L7.5,60.114A28.415,28.415,0,0,1,5.48,55.435a3.891,3.891,0,0,1-.273-.967c.05-1.316-.936-1.678-1.806-2.174-.119-.119-.238-.238-.359-.354Q2.072,50.781,1.1,49.621a1.006,1.006,0,0,0-.373-.7,1.182,1.182,0,0,0-.368-.9A3.96,3.96,0,0,0,0,46.612v-3.2a29.853,29.853,0,0,0,1.207-4.684c.43-1.891.929-3.766,1.395-5.648,1.362-5.513,2.809-11,4.132-16.524.741-3.094,1.419-6.2,2.374-9.241l.131-.192A11.777,11.777,0,0,1,21.436.052a16.537,16.537,0,0,1,4.995,1.476c1.357.589,2.778,1.022,4.085,1.732a3.635,3.635,0,0,1,1.82,2.787A4.12,4.12,0,0,1,27.9,10.86a10.687,10.687,0,0,1-2.885-1.008c-1.373-.473-2.676-1.122-4.1-1.485a3.638,3.638,0,0,0-4.394,2.809c-.4,2.169-1.181,4.258-1.428,6.466A1.676,1.676,0,0,1,13.5,18.7,1.694,1.694,0,0,1,12.3,17c.637-2.4,1.257-4.814,1.925-7.212a6.046,6.046,0,0,1,4.769-4.1c2.433-.461,4.384.815,6.508,1.473.787.245,1.537.611,2.314.886a1.228,1.228,0,0,0,1.761-.7,1.349,1.349,0,0,0-.63-1.9,42.434,42.434,0,0,0-6.62-2.5,8.907,8.907,0,0,0-8.64,2.329,12.2,12.2,0,0,0-3.032,6.28c-.606,2.726-1.314,5.427-1.982,8.139Q7.069,26.2,5.463,32.7,4.2,37.792,2.925,42.882a7,7,0,0,0,1.017,6.107,1.625,1.625,0,0,0,.763.668,12.205,12.205,0,0,0,.226-2.39c.333-2.248.991-4.41,1.521-6.6,1.224-5.068,2.59-10.1,3.826-15.172.257-1.053.459-2.124.758-3.168.29-1.012.9-1.364,1.794-1.129.734.192.981.832.732,1.834q-1.536,6.188-3.061,12.38a2.337,2.337,0,0,0-.01.532c.043.135-.1.387.15.383.192,0,.19-.233.2-.4a23.591,23.591,0,0,1,4.113-3,2.276,2.276,0,0,0,1.055-.52,18.267,18.267,0,0,1,5.475-1.561,24.4,24.4,0,0,1,5.361.086,20.175,20.175,0,0,1,6.794,2.186,13.547,13.547,0,0,1,2.576,1.668c.542.473.936.53,1.407.093a9.206,9.206,0,0,1,2.367-1.186c.245-.086.535-.048.729-.269,1.521-.368,3.082-.468,4.622-.713H45.7a1.016,1.016,0,0,0,.642.216,11.491,11.491,0,0,1,2.92.435c.91.228,1.8.518,2.695.787a6.047,6.047,0,0,1,1.573.848c.385.254.551.266,1-.052a23.3,23.3,0,0,1,6.017-3.213,21.02,21.02,0,0,1,7.967-.917,17.85,17.85,0,0,1,8.747,2.98,29.476,29.476,0,0,1,3.113,2.329c.067.1.185.195.257.064.1-.19-.081-.216-.216-.245-.461-2.445-1.117-4.845-1.711-7.257q-1.914-7.752-3.84-15.5c-.207-.832-.361-1.682-.639-2.488-.722-2.093-2.982-3.127-5.558-2a32.085,32.085,0,0,1-5.442,2.046,3.674,3.674,0,0,1-3.12-.791c-.064-.048-.131-.1-.195-.14a4.125,4.125,0,0,1,1.262-6.969c1.9-.608,3.671-1.606,5.57-2.2A11.987,11.987,0,0,1,78.327,2.676c2.486,1.951,3.636,4.622,4.348,7.564.734,3.034,1.445,6.074,2.188,9.1q1.736,7.065,3.51,14.12c.413,1.659.848,3.312,1.274,4.971a7.056,7.056,0,0,0,.444,1.991c.8,2.7,1.3,5.394.223,8.141-.221.052-.164.214-.143.359l-.349.454a7.869,7.869,0,0,1-1.635,2.2,2.1,2.1,0,0,0-.71.71,2.824,2.824,0,0,0-1.941,2.5c-.235,1.887-1.3,3.446-1.989,5.152-.159.24-.321.48-.48.72-.131.173-.259.347-.39.52a1.328,1.328,0,0,0-.537.525H80.913c-.119-.116-.238-.233-.359-.349a1.377,1.377,0,0,1-.178-1.573c.162-.242.326-.482.487-.725a12.493,12.493,0,0,0,2.017-4.793c.207-.064.159-.216.128-.364A16.051,16.051,0,0,0,83.23,47.4c-.081-.556-.128-1.117-.19-1.675-.188-.413-.373-.829-.561-1.243a2.189,2.189,0,0,0-.492-1.25,4.181,4.181,0,0,0-.722-1.433,8.561,8.561,0,0,0-1.248-1.941,1.263,1.263,0,0,0-.53-.551,5.306,5.306,0,0,0-1.956-1.956c-.181-.183-.361-.366-.544-.549l-.195-.135A15.645,15.645,0,0,0,69.044,33.6a19.768,19.768,0,0,0-5.506.064,14.092,14.092,0,0,0-4.947,1.777c-.15.1-.3.207-.451.311a2.053,2.053,0,0,0-1.067.713c-.176.014-.354.029-.53.045-.128-.036-.169.04-.185.145a3.251,3.251,0,0,1-.879.922c-.147-.04-.311-.062-.385.1-.411.908-1,.649-1.618.266-.311-.192-.632-.371-.934-.577a9.748,9.748,0,0,0-4.7-1.616c-.064-.207-.216-.159-.364-.128a16.119,16.119,0,0,0-5.9.323c-.468.116-.867.468-1.388.4-.15-.029-.3-.062-.371.135a17.732,17.732,0,0,1-2.8,1.656c-.47.273-.841.2-.958-.409.031-.124-.017-.169-.14-.143-.71.1-1.1-.461-1.566-.813a16.075,16.075,0,0,0-8.345-3.277A16.653,16.653,0,0,0,14.58,36.337c-.128-.043-.166.04-.195.138l-.345.337a.549.549,0,0,0-.532.361,15.056,15.056,0,0,0-1.956,1.956.979.979,0,0,0-.554.72,5.688,5.688,0,0,0-1.421,2.136,3.861,3.861,0,0,0-.7,1.426l-.311.539a9.84,9.84,0,0,0-.523,1.777,14.771,14.771,0,0,0-.4,6.763c.024.173.026.352.038.525-.133.285.223.449.178.71a13.612,13.612,0,0,0,2.274,5.337.663.663,0,0,0,.378.582,14.717,14.717,0,0,0,4.855,4.688,15.751,15.751,0,0,0,8.816,2.531,16.808,16.808,0,0,0,10.6-3.883,14.227,14.227,0,0,0,3.657-4.268c.2-.05.131-.23.173-.356a15.458,15.458,0,0,0,1.005-2.143,17.682,17.682,0,0,0,.825-2.269,16.844,16.844,0,0,0,.164-6.9,19.691,19.691,0,0,0-1.716-5.026,1.363,1.363,0,0,1,.525-1.842,9.348,9.348,0,0,1,5.667-1.742c.561.026,1.124-.014,1.687-.024l.523.059a14.982,14.982,0,0,1,4.08,1.578c.031.1.067.183.195.133a1.7,1.7,0,0,1,.751,1.1c-.164.765-.822,1.326-.886,2.134a6.127,6.127,0,0,0-.763,2.281c-.1.033-.178.078-.128.2a5.339,5.339,0,0,0-.347,2.314c.026.261-.326.421-.195.71a21.655,21.655,0,0,0-.1,2.6,4.147,4.147,0,0,0,.466,1.842,2.694,2.694,0,0,0,.349,1.423c.017.589.435,1.043.537,1.6-.038.128.038.166.143.185a8.572,8.572,0,0,0,1.1,2.3c-.036.128.04.169.145.185.188.295.378.587.566.882-.026.124.017.176.145.14q.617.731,1.233,1.464a2.241,2.241,0,0,0,.72.72,15.974,15.974,0,0,0,5.161,3.336l.535.171a10.05,10.05,0,0,0,3.733.9l.523.059a8.99,8.99,0,0,0,3.077.109,11.944,11.944,0,0,0,1.913-.347l1.423-.356.532-.207.535-.15c.677-.454,1.552-.558,2.134-1.186a1.108,1.108,0,0,0,.727-.378l1.371-.891c.069-.048.14-.1.209-.14.176-.014.352-.019.525-.043a1.142,1.142,0,0,1,1.345.566,1.37,1.37,0,0,1-.271,1.6c-.126-.04-.166.043-.195.138l-.345.342a2.145,2.145,0,0,0-1.065.715l-2.312,1.24-2.669,1.065a3.755,3.755,0,0,0-1.592.406c-.238.01-.475-.295-.71,0a22.059,22.059,0,0,1-4.8.311c-.192-.3-.47-.126-.715-.133a19.091,19.091,0,0,1-9.127-3.75.807.807,0,0,0-.466-.211l-.532-.535a13.309,13.309,0,0,1-2.3-2.3l-.532-.535c-.428-.677-.829-1.373-1.29-2.025a24.892,24.892,0,0,1-1.96-4.189c.043-.152.081-.3-.131-.364a3.126,3.126,0,0,0-.228-1.06c.031-.147.078-.3-.128-.364a30.641,30.641,0,0,1-.359-5.5c.259-.124.147-.345.14-.539.014-.354.029-.706.04-1.06.207-.064.159-.216.128-.364q.431-1.629.86-3.258c.043-.233.3-.378.254-.646.535-.653.307-1.041-.447-1.2-.387-.083-.746-.34-1.171-.2-.214-.154-.425-.307-.71-.183-.592,0-1.186,0-1.777,0h-.71c-.509.169-1.01.373-1.53.5-.67.159-.592.482-.261.9a2.28,2.28,0,0,0,.349.891c.171,1.027.689,1.965.76,3.015-.133.285.226.447.178.71Zm44.421,0v-.126a4.3,4.3,0,0,0,.311-3.222c-.789-3.747-1.775-7.454-2.695-11.173-1.747-7.055-3.55-14.1-5.228-21.167C79.57,8.7,78.613,6.207,76.274,4.441c-.064-.045-.131-.09-.195-.133-.195-.124-.383-.259-.582-.371a9.393,9.393,0,0,0-8.4-.544c-1.806.715-3.64,1.35-5.4,2.189-.121-.029-.166.019-.14.138a1.356,1.356,0,0,0,0,1.96c-.029.121.017.166.138.14a1.034,1.034,0,0,0,.817.221c1.376-.01,2.478-.827,3.721-1.233,1.832-.6,3.538-1.585,5.639-1.119,2.284.5,4.056,1.67,4.717,3.852,1.578,5.2,2.714,10.527,3.971,15.816C81.714,30.209,83,35.03,84.187,39.876c.518,2.11,1.1,4.206,1.54,6.337a20.375,20.375,0,0,1,.368,3.614,4.367,4.367,0,0,0,1.739-2.68Z" transform="translate(0 0.022)" fill="#858585"/>
        <path id="Path_382" data-name="Path 382" d="M68.923,173.911c-.24.359-.482.718-.722,1.076a1.531,1.531,0,0,0-.658.718,7.153,7.153,0,0,1-1.286,1.228,1.283,1.283,0,0,0-.532.535,14.625,14.625,0,0,1-3.55,2c-.209.178-.547.045-.722.3l-.523.071c-.416.114-.829.23-1.245.345-.506-.162-.97.119-1.454.169a13.114,13.114,0,0,1-9.588-2.951,15.086,15.086,0,0,1-2.821-2.951c-.173-.233-.2-.57-.511-.708a18.282,18.282,0,0,1-1.735-4.467c-.048-.223-.069-.451-.1-.68,0-.247.162-.525-.135-.715a14.936,14.936,0,0,1,1.751-8.169c.368-.691,1.015-1.181,1.269-1.934.176-.181.354-.361.53-.539l1.079-1.079.345-.342c.181-.124.361-.247.539-.371.116-.114.233-.228.349-.34a18.177,18.177,0,0,1,4.94-2.048,13.894,13.894,0,0,1,9.949,1.54,10.5,10.5,0,0,1,1.785,1.2c.036.1.076.185.207.147a14.086,14.086,0,0,1,4.788,8.457c.1.563-.076,1.167.221,1.711v.71a35.5,35.5,0,0,1-.934,4.859c-.169.625-.789,1.038-.9,1.711-.114.173-.226.349-.34.523Zm-11.881,3.75A11.141,11.141,0,0,0,68.358,166.5c-.021-5.945-4.624-11.477-12.14-11.064a11,11,0,0,0-10.206,11.275,11.12,11.12,0,0,0,11.03,10.943Z" transform="translate(-33.014 -116.446)" fill="#858585"/>
        <path id="Path_383" data-name="Path 383" d="M222.85,166.193l.043-1.775q.335-1.337.672-2.671l1.3-2.659,1.24-1.6a14.34,14.34,0,0,1,4.6-3.593c.2-.192.556-.026.72-.307a31.562,31.562,0,0,1,3.548-.939l.535-.019a18.9,18.9,0,0,1,5.862.777,1.982,1.982,0,0,0,.891.352q1.155.627,2.307,1.257c.181.252.352.52.713.53l.356.354a1.328,1.328,0,0,0,.535.528,1.271,1.271,0,0,0,.528.523,2.373,2.373,0,0,0,.715.727,19.134,19.134,0,0,1,2.543,4.781c-.152.285.207.451.162.71a24.123,24.123,0,0,1,.371,4.622c.031.264-.326.421-.192.71a13.209,13.209,0,0,1-1.789,5.1,11.467,11.467,0,0,0-1.107,1.647q-1.055,1-2.112,1.994c-.133-.036-.171.057-.209.152l-2.11,1.392a1.253,1.253,0,0,0-.715.345,16.375,16.375,0,0,1-7.333,1.112c-.4-.019-.763-.337-1.186-.157a.885.885,0,0,0-.708-.216c-.169-.316-.48-.1-.708-.19-.1-.283-.364-.1-.532-.176-1.252-.7-2.55-1.316-3.733-2.134a1.3,1.3,0,0,0-.537-.525,35.006,35.006,0,0,1-2.638-3.023,1.107,1.107,0,0,0-.383-.715,20.64,20.64,0,0,1-1.521-4.548c-.09-.5.007-1-.114-1.478,0-.3,0-.592,0-.889Zm2.7.245c-.323,5.743,5.107,11.548,11.653,11.175a11.162,11.162,0,1,0-1.155-22.294c-5.375.178-10.726,5.1-10.5,11.118Z" transform="translate(-169.896 -116.357)" fill="#858585"/>
      </g>
    </g>
  </g>
</svg>
