<svg xmlns="http://www.w3.org/2000/svg" xmlns:xlink="http://www.w3.org/1999/xlink" width="130" height="130" viewBox="0 0 130 130">
  <defs>
    <clipPath id="clip-Others">
      <rect width="130" height="130"/>
    </clipPath>
  </defs>
  <g id="Others" clip-path="url(#clip-Others)">
    <g id="Layer_1" data-name="Layer 1" transform="translate(23.966 29.956)">
      <g id="Group_55" data-name="Group 55" transform="translate(0.033 0.044)">
        <path id="Path_392" data-name="Path 392" d="M77.693,35.479c.468.618.733,1.37,1.178,1.979a19.423,19.423,0,0,1,1.084,1.808,6.845,6.845,0,0,1,1.073,2.094c.009.054.1.1.152.143v.951c-1.623.984-3.407.384-5.115.5-1.436.094-1.44.019-1.44,1.466q0,12.316.009,24.632c0,1.22-.34,1.864-1.845,1.862q-32-.046-63.993-.028c-.6,0-1.248.269-1.775-.255L6.9,70.5a2.067,2.067,0,0,1-.293-1.431c0-8.4-.014-16.792.019-25.19,0-.785-.213-.97-.963-.934-1.37.066-2.745.028-4.117.016C.121,42.952-.342,42.2.348,40.959c1.841-3.286,3.71-6.555,5.567-9.831.026-.044.082-.077.1-.124.511-1.684,1.724-2.136,3.321-1.876.625.1.726-.171.719-.738-.03-2.454-.016-4.911-.012-7.365,0-.9.269-1.213,1.012-1.23.925-.019,1.351.351,1.356,1.276.016,2.4.035,4.806-.012,7.208-.014.689.145.869.852.864q7.128-.056,14.258,0c.656,0,.822-.248.918-.81.347-2.016.714-4.03,1.124-6.033a4.607,4.607,0,0,0,.117-.92c0-1.4.056-2.8-.007-4.2A4.19,4.19,0,0,1,33.887,13c1.265-.056,2.534-.028,3.8,0,.419.007.536-.124.529-.536-.023-1.452.066-2.909-.03-4.356s-.464-2.246-2.311-2.253c-7.075-.03-14.152-.014-21.227-.009-1.632,0-2.237.616-2.237,2.244q0,3.485,0,6.97c0,.581-.059,1.133-.693,1.431-.85.4-1.649.014-1.66-.906-.037-2.824-.15-5.658.021-8.473a3.973,3.973,0,0,1,3.785-3.625,6.859,6.859,0,0,1,.792-.019H35.88a4.423,4.423,0,0,1,4.7,4.707c.012,1.321.052,2.642-.016,3.96-.042.8.157,1.1,1.009,1.028a3.634,3.634,0,0,1,3.7,2.183,4.6,4.6,0,0,1,.541,2.148c0,1.082.042,2.166-.007,3.248a23.772,23.772,0,0,0,.714,5.515c.148.78.321,1.557.417,2.347.049.4.178.534.576.56,1.923.117,1.923.129,1.923-1.8,0-2.747.021-5.492-.007-8.239a6.269,6.269,0,0,1,1.525-4.637,5.59,5.59,0,0,1,2.4-1.475c.522-.164.721-.356.717-.939-.028-2.8.014-5.6,0-8.4a6.974,6.974,0,0,1,.164-.981c0-.042,0-.087,0-.129A4.464,4.464,0,0,1,56.461.535,4.856,4.856,0,0,1,57.613.162a13.774,13.774,0,0,1,4.618.155,4.315,4.315,0,0,1,3.1,4.105c.037.574-.176,1.356.119,1.672.351.375,1.141.108,1.738.117,1,.016,2.009-.037,3.009.023a1.161,1.161,0,0,1,1.232.838c.183.607-.115.92-.436,1.3-.222.262-.52.22-.8.222-1.136.007-2.269,0-3.405,0a1.3,1.3,0,0,0-1.457,1.494v.555a5.909,5.909,0,0,0,.054,2.04c.222.569,1.089.508,1.642.81a6.241,6.241,0,0,1,2.883,5.92,1.277,1.277,0,0,1-1.337,1.19,1.223,1.223,0,0,1-1.019-1.393,3.906,3.906,0,0,0-1.187-3.225,3.436,3.436,0,0,0-2.4-.9c-2.956-.042-5.913-.037-8.871,0a3.387,3.387,0,0,0-3.272,3.084q.021,5.227-.028,10.454c0,.6.337.522.707.522H64.068c.977,0,1.956-.023,2.93.009.45.014.585-.124.574-.574-.028-1.187-.012-2.375-.009-3.564,0-.834.445-1.389,1.1-1.393a1.233,1.233,0,0,1,1.269,1.349q.049,1.781,0,3.564c-.014.489.124.651.618.616.6-.042,1.22.049,1.82-.023a2.1,2.1,0,0,1,2.5,1.459c-.08.37.028.614.443.646-.049.2.117.311.192.461-.08.37.028.614.443.646-.049.2.117.311.192.461-.08.37.028.614.443.646-.049.2.117.311.192.461-.08.37.028.614.443.646-.049.2.117.311.192.461-.084.267.084.382.288.473Zm-56.106-3.8c.112-.049.18-.138.087-.237s-.187-.044-.237.075c-4.009-.007-8.021.009-12.03-.042A1.463,1.463,0,0,0,8,32.251c-1.506,2.595-2.972,5.213-4.471,7.815-.248.431-.152.52.309.52,4.117-.009,8.232,0,12.349-.007a.508.508,0,0,0,.557-.279c1.628-2.867,3.311-5.7,4.843-8.621Zm7.3,9.707c-1.29-1.895-2.29-3.958-3.489-5.906.016-.248-.03-.522-.319-.5s-.119.321-.148.5a.312.312,0,0,0,.159.321c-.007,1.054,0,2.11-.023,3.164-.087,4.445.19,8.895-.145,13.337a1.153,1.153,0,0,1-1.176,1.073,1.074,1.074,0,0,1-1.042-1.04,7.676,7.676,0,0,1-.012-.869l-.021-15.984c.016-.162.131-.377-.077-.45s-.19.152-.218.286a41.145,41.145,0,0,0-2.087,3.658c-.642,1.077-1.314,2.145-1.916,3.251a1.473,1.473,0,0,1-1.436.756c-2.375-.042-4.752,0-7.126-.03-.625-.009-.857.112-.855.8q.039,12,0,24c0,.66.218.77.808.768q6.018-.035,12.037,0c.7,0,.92-.141.913-.888-.03-3.536.009-7.073.026-10.609l.119-.169a1.041,1.041,0,0,1,1.492-.3,1.428,1.428,0,0,1,.724,1.4c-.007,3.274.012,6.548-.016,9.82,0,.564.1.747.717.747q22.848-.032,45.7,0c.639,0,.787-.183.785-.8q-.032-12,0-24c0-.649-.2-.775-.8-.773-4.3.023-8.607.014-12.909.012a7.522,7.522,0,0,1-.948-.03,1.148,1.148,0,0,1-.836-1.564c.307-.759.93-.794,1.593-.794h19.55c-1.731-3-3.412-5.878-5.045-8.782-.253-.45-.569-.288-.862-.288Q49.315,31.5,26.625,31.5h-.714c.766,1.5,1.7,2.817,2.344,4.3l-.112.1.112.012a32.389,32.389,0,0,1,2.457,4.052,1.078,1.078,0,0,0,1.073.63c6.6-.016,13.194-.009,19.792-.016a5.478,5.478,0,0,1,1.237.131.9.9,0,0,1,.8.911c.049.958-.349,1.347-1.447,1.347q-10.609.007-21.218,0c-1.225,0-1.686-.344-1.934-1.468.026-.1-.009-.148-.117-.112Zm8.7-12.265c2.138,0,4.276-.023,6.412.014.609.012.642-.251.548-.707-.309-1.5-.667-2.993-.892-4.506-.077-.525-.248-.564-.667-.562-3.511.012-7.021.028-10.529-.014a.744.744,0,0,0-.864.724c-.279,1.506-.457,3.037-.829,4.52-.169.677.145.529.489.529h6.333ZM56.426,7.839c0,1.614.012,2.984-.007,4.354,0,.375.1.494.482.492q2.807-.028,5.614,0c.34,0,.45-.089.447-.44-.014-2.609.009-5.22-.016-7.829A1.9,1.9,0,0,0,61.2,2.507a16.582,16.582,0,0,0-3.234,0c-.855.073-1.67.859-1.6,1.583.129,1.335-.012,2.667.059,3.756ZM37.653,20.994c1.66,0,3.323-.023,4.984.012.595.012.869-.105.815-.778-.063-.813-.014-1.632-.014-2.45A2.115,2.115,0,0,0,41.2,15.387c-2.45-.087-4.9-.063-7.354,0a1.685,1.685,0,0,0-1.806,1.862c.037,1,.04,2-.009,3-.028.569.1.775.721.756,1.632-.049,3.269-.016,4.9-.016Z" transform="translate(-0.033 -0.044)" fill="#858585"/>
        <path id="Path_393" data-name="Path 393" d="M236.272,85c-1.45,0-2.9.007-4.349,0-.855,0-1.2-.307-1.215-1.15-.026-1.923,0-3.848-.009-5.773a1.035,1.035,0,0,1,1.176-1.126q4.388-.028,8.778,0a1.329,1.329,0,0,1,1.319,1.4c.016,1.74.051,3.48-.012,5.218-.04,1.089-.583,1.485-1.5,1.452-1.4-.052-2.794-.014-4.19-.016Zm-3.014-5.658c-.1-.021-.173-.007-.148.124a23.928,23.928,0,0,0,0,3.012c-.021.133.047.155.155.124h6.176c.117.035.157-.014.136-.126q0-1.5,0-3.009c.023-.108-.016-.152-.126-.124h-6.185Z" transform="translate(-176.675 -58.926)" fill="#858585"/>
        <path id="Path_394" data-name="Path 394" d="M138.052,231.449H125.857a1.173,1.173,0,0,1-1.276-1.047,1.2,1.2,0,0,1,1.115-1.321,4.016,4.016,0,0,1,.475-.009h23.993c.876,0,1.452.375,1.513.972a1.206,1.206,0,0,1-1.351,1.4Q144.189,231.454,138.052,231.449Z" transform="translate(-95.411 -175.434)" fill="#858585"/>
        <path id="Path_395" data-name="Path 395" d="M138.054,208.493H126.021c-.916,0-1.426-.443-1.431-1.244,0-.66.539-1.119,1.384-1.119q12.19-.014,24.382-.012c.888,0,1.342.443,1.33,1.227-.009.719-.5,1.143-1.363,1.145q-6.133.007-12.269,0Z" transform="translate(-95.42 -157.857)" fill="#858585"/>
        <path id="Path_396" data-name="Path 396" d="M134.064,254.488c-2.719,0-5.438,0-8.157,0-.857,0-1.307-.422-1.307-1.171a1.175,1.175,0,0,1,1.311-1.194q8.2,0,16.4.009a1.261,1.261,0,0,1,1.26.74,1.2,1.2,0,0,1-.457,1.459.947.947,0,0,1-.649.173q-4.2-.007-8.4,0v-.009Z" transform="translate(-95.427 -193.086)" fill="#858585"/>
      </g>
    </g>
  </g>
</svg>
