<svg xmlns="http://www.w3.org/2000/svg" xmlns:xlink="http://www.w3.org/1999/xlink" width="130" height="130" viewBox="0 0 130 130">
  <defs>
    <clipPath id="clip-Healthcare">
      <rect width="130" height="130"/>
    </clipPath>
  </defs>
  <g id="Healthcare" clip-path="url(#clip-Healthcare)">
    <g id="Layer_1" data-name="Layer 1" transform="translate(21 24)">
      <g id="Group_49" data-name="Group 49" transform="translate(0 0)">
        <path id="Path_356" data-name="Path 356" d="M119.711,122.484c0-1.4-.01-2.793,0-4.189.01-1.169.482-1.649,1.632-1.654,2.124-.01,4.25-.024,6.373.012.58.01.765-.127.753-.735-.041-2.094-.022-4.189-.015-6.283,0-1.279.463-1.736,1.732-1.739q4.051-.007,8.1,0a1.64,1.64,0,0,1,1.822,1.836c.007,2.065.029,4.128-.015,6.193-.012.623.192.738.76.728,2-.034,4.006-.015,6.01-.012,1.4,0,1.99.58,1.992,1.943q0,3.916,0,7.832A1.666,1.666,0,0,1,147,128.3c-2.065.007-4.128.024-6.193-.012-.56-.01-.711.127-.7.7.039,2.063.019,4.128.012,6.193a1.641,1.641,0,0,1-1.885,1.87q-4.007.007-8.015,0c-1.325,0-1.756-.446-1.761-1.8,0-2-.056-4.009.024-6.01.034-.857-.263-.969-1.006-.952-2.034.049-4.067.022-6.1.015-1.171,0-1.649-.47-1.661-1.624-.012-1.4,0-2.793,0-4.189Zm17.493-7.757c0-1.093-.027-2.185.012-3.276.017-.507-.119-.67-.643-.658q-2.228.055-4.459,0c-.577-.015-.767.122-.755.733.041,2.031.019,4.065.015,6.1a1.674,1.674,0,0,1-1.917,1.926c-2.063,0-4.126.017-6.188-.01-.511-.007-.665.132-.653.648q.051,2.276,0,4.552c-.01.507.124.665.645.655,2.063-.029,4.126-.015,6.188-.012a1.673,1.673,0,0,1,1.921,1.919c0,2.063.019,4.128-.012,6.191-.007.516.139.66.653.648q2.276-.051,4.552,0c.514.012.66-.131.653-.65-.029-2.153-.019-4.308-.01-6.463,0-1.159.487-1.639,1.639-1.644,2.155-.01,4.308-.019,6.463.01.511.007.665-.129.653-.648q-.051-2.276,0-4.552c.01-.507-.122-.662-.645-.658-2.185.029-4.369.019-6.554.007A1.367,1.367,0,0,1,137.209,118c-.019-1.091,0-2.185,0-3.278Z" transform="translate(-90.556 -81.615)" fill="#858585"/>
        <path id="Path_357" data-name="Path 357" d="M20.057,281.5l2.379,1.283c.032.239.061.487.365.183L25.191,284c.229.1.458.2.689.295a16.733,16.733,0,0,0,8.867,2.533q6.316-.088,12.635.007a10.527,10.527,0,0,0,4.849-1.086c.779-.375,1.612-.638,2.423-.952.071-.044.139-.09.209-.134q1.443-.57,2.888-1.142c.071-.044.141-.09.209-.134,1.337-.412,2.555-1.12,3.9-1.534.916-.28.49-1.2.421-1.792a2.444,2.444,0,0,0-2.126-1.836c-2.913-.589-5.5.6-8.171,1.361a2.089,2.089,0,0,1-1.722-.051,1.341,1.341,0,0,1-.677-1.371,1.421,1.421,0,0,1,1.069-1.184c1.922-.6,3.867-1.14,5.8-1.7,1.266-.37,2.487-.073,3.726-.222,1.666-.2,4.055,1.995,4.729,3.6a7.007,7.007,0,0,1,.236,3.7,2.621,2.621,0,0,1-1.539,1.878c-2.348,1.033-4.737,1.973-7.114,2.942-1.912.779-3.833,1.539-5.735,2.34a2.819,2.819,0,0,1-1.132.207q-8.468,0-16.936,0a12.432,12.432,0,0,1-3.609-.787,31.244,31.244,0,0,1-5.557-2.462c-.083-.753-.443-.947-1.1-.553q-3.178-1.505-6.359-3.01c-.258-.122-.528-.219-.794-.329l-.037-.168c0,.056,0,.11-.01.166l-1.176-.536c-.049-.256-.129-.426-.373-.132-3.945-1.132-8-.942-12.026-.913A1.479,1.479,0,0,1,.034,279.32a1.275,1.275,0,0,1,1.291-1.24c2.275-.029,4.554-.1,6.824,0a22.489,22.489,0,0,1,10.09,2.608,3.518,3.518,0,0,0,.577.2,3.471,3.471,0,0,0,1.047.472l-.01-.01c.029.1.083.173.207.136Z" transform="translate(-0.016 -208.055)" fill="#858585"/>
        <path id="Path_358" data-name="Path 358" d="M106.4,10.982c0,1.193-.307,1.576-1.471,2A32.719,32.719,0,0,1,98.6,14.737a10.984,10.984,0,0,1-3.083-.2,5.746,5.746,0,0,1-3.522-2.041,5.849,5.849,0,0,1-.626-6.059,3.214,3.214,0,0,1,1.661-1.1c3.631-1.454,7.238-2.974,10.859-4.452a10.064,10.064,0,0,1,3.926-.855c3.887.017,7.776.1,11.661-.017,5.173-.158,9.766,1.522,14.257,3.884a58.518,58.518,0,0,0,8.687,4.018,15.848,15.848,0,0,0,5.319.879c2.185-.041,4.374-.012,6.558-.007a1.706,1.706,0,0,1,1.841,1.449,1.7,1.7,0,0,1-1.829,1.464c-2.7,0-5.411.1-8.107-.029a17.939,17.939,0,0,1-6.624-1.7c-3.638-1.685-7.231-3.463-10.845-5.2a16.066,16.066,0,0,0-5.9-1.644c-5.36-.373-10.725-.085-16.088-.146a8.1,8.1,0,0,0-3.115,1.113c-2.009.862-4.045,1.656-6.057,2.516-1.069.458-2.17.838-3.246,1.283-.874.363-.93,1.834-.127,2.808a4.589,4.589,0,0,0,4.262,1.059,57.768,57.768,0,0,0,6.093-1.668,1.4,1.4,0,0,1,1.69.7c-.039.129.044.17.146.2Z" transform="translate(-68.683 0.002)" fill="#858585"/>
        <path id="Path_359" data-name="Path 359" d="M45.949,233.108a1.5,1.5,0,0,1-2.082.524c-3.738-1.583-7.5-3.125-11.227-4.727a27.427,27.427,0,0,1-3.383-1.507,15.6,15.6,0,0,1-2.109-.945,1.2,1.2,0,0,1-.319-1.683,1.181,1.181,0,0,1,1.624-.682c1.576.606,3.132,1.259,4.693,1.9q3.518,1.454,7.026,2.92c1.023.426,2.06.826,3.064,1.293.538.251.677.222.731-.429.222-2.725-1.281-4.32-3.466-5.5-1.934-1.047-4-1.8-6.015-2.655-1.42-.6-2.832-1.227-4.272-1.783-.448-.173-.519-.521-.679-.852a9.532,9.532,0,0,0-7.355-5.363,14.836,14.836,0,0,0-8.244.762,2.223,2.223,0,0,1-.879.127q-5.648.011-11.293,0c-1.171,0-1.732-.487-1.724-1.469.007-.962.58-1.442,1.751-1.444,2.428,0,4.859-.051,7.287.012a23.534,23.534,0,0,0,6.61-.779,15.1,15.1,0,0,1,12.484,2.075,7.654,7.654,0,0,1,.621.509c.039.1.078.192.214.151a11.9,11.9,0,0,1,2.74,3.271,1.813,1.813,0,0,0,.877.835c2.715,1.13,5.426,2.277,8.144,3.4a10.834,10.834,0,0,1,4.742,3.456,7.846,7.846,0,0,1,.979,7.27c-.134.4-.153.872-.531,1.167l-.132.015.129.127Z" transform="translate(-0.034 -159.082)" fill="#858585"/>
        <path id="Path_360" data-name="Path 360" d="M169.705,29.987c2.258.923,4.52,1.834,6.77,2.769q4.358,1.808,8.7,3.648a1.463,1.463,0,0,1,.9,1.865,1.589,1.589,0,0,1-1.987.76c-2.092-.838-4.162-1.734-6.249-2.589-2.73-1.12-5.48-2.194-8.193-3.349-.735-.314-.833-.146-.867.57-.127,2.664,1.49,4.138,3.556,5.282,2.562,1.417,5.36,2.3,8.037,3.468.67.292,1.354.548,2.043.794a1.713,1.713,0,0,1,.935,1.025c1.454,3.181,4.082,4.788,7.362,5.46a13.841,13.841,0,0,0,7.7-.779,4.81,4.81,0,0,1,1.739-.3q5.326.007,10.655,0c1.21,0,2.1.636,2.085,1.481s-.894,1.434-2.129,1.434c-2.823,0-5.65.08-8.468-.029a17.6,17.6,0,0,0-5.056.826,15.231,15.231,0,0,1-10.823-1.018,11.152,11.152,0,0,1-4.961-4.476,4.408,4.408,0,0,0-2.494-1.848c-3.086-1.376-6.368-2.318-9.225-4.2a7.9,7.9,0,0,1-2.9-3.088c-.8-1.673-1.471-3.429-.65-5.36.158-.375.041-.862.2-1.308.516-1.408.869-1.663,2.233-1.415l.185.012c.168.095.3.283.528.229.068.207.224.173.382.139Z" transform="translate(-125.427 -22.334)" fill="#858585"/>
        <path id="Path_361" data-name="Path 361" d="M277.833,143.428a16.731,16.731,0,0,1,.015,3.541,28.331,28.331,0,0,1-2.219,9.878,27.616,27.616,0,0,1-3.68,6.439,1.57,1.57,0,0,1-2.129.56,1.78,1.78,0,0,1-.317-2.255c.636-.989,1.344-1.931,1.948-2.937.37-.616.93-1.181.774-2.026-.061-.331.39-.273.516-.536a19.847,19.847,0,0,0,1.785-5.918,33.941,33.941,0,0,0,.526-4.79c-.015-1.184-.114-2.387-.2-3.58-.076-1.072-.628-2.1-.287-3.2.227-.733.85-.818,1.512-.816a1.072,1.072,0,0,1,1.184.862,24.763,24.763,0,0,1,.572,4.773Z" transform="translate(-203.678 -104.232)" fill="#858585"/>
        <path id="Path_362" data-name="Path 362" d="M55.894,97.85a28.077,28.077,0,0,1,3.826-6.807,1.691,1.691,0,0,1,2.107-.248,1.664,1.664,0,0,1,.183,2.119,22.453,22.453,0,0,0-2.187,3.441,27.992,27.992,0,0,0-2.662,7.24,31.355,31.355,0,0,0-.511,8.149,12.249,12.249,0,0,0,.472,3.139,1.64,1.64,0,0,1-.886,1.929c-.811.217-1.768-.166-1.863-.928-.093-.728-.38-1.4-.465-2.107a39.589,39.589,0,0,1-.166-7.145,29.265,29.265,0,0,1,2.021-8.6l.132-.19Z" transform="translate(-40.591 -68.488)" fill="#858585"/>
        <path id="Path_363" data-name="Path 363" d="M97.11,74.87A1.126,1.126,0,0,1,95.761,73.7a1.574,1.574,0,0,1,3.1-.526c.1.855-.66,1.6-1.749,1.7Z" transform="translate(-72.438 -54.424)" fill="#858585"/>
        <path id="Path_364" data-name="Path 364" d="M251.41,253.641c.012-.989.458-1.347,1.658-1.332a1.417,1.417,0,0,1,1.442,1.274c.022.779-1.033,1.6-2.036,1.583-.555-.007-1.074-.75-1.064-1.522Z" transform="translate(-190.186 -190.861)" fill="#858585"/>
      </g>
    </g>
  </g>
</svg>
