<svg xmlns="http://www.w3.org/2000/svg" xmlns:xlink="http://www.w3.org/1999/xlink" width="130" height="130" viewBox="0 0 130 130">
  <defs>
    <clipPath id="clip-Jewelry">
      <rect width="130" height="130"/>
    </clipPath>
  </defs>
  <g id="Jewelry" clip-path="url(#clip-Jewelry)">
    <g id="Layer_1" data-name="Layer 1" transform="translate(27 22)">
      <g id="Group_51" data-name="Group 51" transform="translate(0 0)">
        <path id="Path_374" data-name="Path 374" d="M47,85.412a12.633,12.633,0,0,0-2.493-.482,26.93,26.93,0,0,1-7.393-2.817A25.455,25.455,0,0,1,30.264,76.4a21.114,21.114,0,0,1-3.24-4.824c-.21-.424-.421-.343-.676-.337a27.979,27.979,0,0,1-6.34-.649,25.152,25.152,0,0,1-8.47-3.539,24.839,24.839,0,0,1-6.427-6,24.429,24.429,0,0,1-3.724-7.02A34.54,34.54,0,0,1,.145,48.792a29.83,29.83,0,0,1-.118-3.553A18.1,18.1,0,0,1,1,38.629,19.792,19.792,0,0,1,2.109,35.65c.5-.952.836-2.025,1.421-2.957a19.724,19.724,0,0,1,2.939-3.95,1.206,1.206,0,0,1,1.514-.049A.982.982,0,0,1,8.4,29.983a4.6,4.6,0,0,1-1.14,1.543A9.023,9.023,0,0,0,5.6,33.66c-.5,1.05-.992,2.13-1.485,3.2-.6,1.309-.752,2.765-1.392,4.074-.165.339-.018.948-.085,1.45a30.871,30.871,0,0,0-.116,4.451A21.808,21.808,0,0,0,5.4,56.936c.138.259.426.444.417.778-.033.12.036.158.138.167A24.471,24.471,0,0,0,10.9,63.448,20.371,20.371,0,0,0,14.649,66a24.786,24.786,0,0,0,6.965,2.406,21.028,21.028,0,0,0,6.03.129l.5-.007a18.333,18.333,0,0,0,5.421-1.28c1.193-.417,2.237-1.14,3.423-1.559.281.087.4-.087.5-.306A31.334,31.334,0,0,0,42.47,61.16a21.93,21.93,0,0,0,4.063-6.287l.129-.183c.442-.879.575-1.871,1.1-2.741a5.61,5.61,0,0,0,.283-1.742,8.37,8.37,0,0,0,.236-3c-.067-.375.243-.694.243-1.113a25.126,25.126,0,0,0-2.362-10.557c-.045-.06-.089-.123-.132-.183a20.057,20.057,0,0,0-4.36-6.052,22.286,22.286,0,0,0-11.63-6.142,23.632,23.632,0,0,0-5.961-.473,22.113,22.113,0,0,0-11.411,3.867c-1.122.789-2,.493-2.27-.491a1.212,1.212,0,0,1,.627-1.4,22.452,22.452,0,0,1,6.717-3.285c.843-.256.787-.558.508-1.193-1.476-3.341-2.928-6.69-4.382-10.042-.564-1.3-.007-2.473,1.334-3.454C17.994,4.644,20.791,2.606,23.612.6a3.075,3.075,0,0,1,3.827.1c2.855,2.047,5.718,4.083,8.526,6.191a2.565,2.565,0,0,1,.979,3.555c-1.465,3.35-2.908,6.706-4.391,10.047-.252.569,0,.707.448.834a24.959,24.959,0,0,1,8.686,4.659,18,18,0,0,1,3.267,3.245,1.765,1.765,0,0,0,1.844.6,30.449,30.449,0,0,1,6.262-.022,6.6,6.6,0,0,0,1.951.174,3.494,3.494,0,0,0,1.5.335c.983.223,1.481.774,1.307,1.45-.227.888-.87,1.206-1.873.968-.415-.1-.845-.129-1.267-.192l-.29.029c.06.236.236.292.45.292,1.541,1.291,2.908,2.794,4.835,3.6A23.977,23.977,0,0,1,64.443,39.1c.413.3.8.651,1.231.934.027.091.065.167.183.129.513.252.687.932,1.314,1.039.076.185.143.143.205-.009.477-.457,1.222-.845,1.367-1.392.181-.689-.763-.925-1.22-1.34a19.516,19.516,0,0,0-5.1-3.318,4.144,4.144,0,0,1-.546-.343c-.769-.511-1.084-1.209-.8-1.76a1.49,1.49,0,0,1,1.985-.4,26.612,26.612,0,0,1,6.632,4.46c.616.6,1.5.954,1.737,1.9a2,2,0,0,1-.524,2.243c-.421.361-.789.781-1.184,1.173-.785.785-.792.787-.065,1.655a22.709,22.709,0,0,1,4.217,7.759c.27.843.638,1.659.865,2.513a9.735,9.735,0,0,1,.158,1.7l.167.5a29.807,29.807,0,0,1,.152,4.868,29.739,29.739,0,0,1-1.309,6.505,26.51,26.51,0,0,1-3.5,6.866,25.781,25.781,0,0,1-8.1,7.3,24.054,24.054,0,0,1-6.293,2.562c-1.093.285-2.223.421-3.336.627-.178.007-.4-.147-.5.136H47ZM61.174,48.381c-.065-.156.192-.636-.332-.33a16.739,16.739,0,0,0-8.535-4.186,3.376,3.376,0,0,0-1.269-.091c-.578.174.127.723-.029,1.115a.7.7,0,0,0,0,.248,29.53,29.53,0,0,1-.685,6.238A25.153,25.153,0,0,1,44.408,62.7a27.057,27.057,0,0,1-7.672,5.867c-.419.221-.526.388-.178.845A21.691,21.691,0,0,0,39.2,72.339a13.853,13.853,0,0,0,5.04,2.957,15.83,15.83,0,0,0,7.469.8A15.243,15.243,0,0,0,56.044,75a18.243,18.243,0,0,0,6.073-4.6,16.048,16.048,0,0,0,3.7-12.972,15.766,15.766,0,0,0-3.974-8.376c.045-.5-.172-.727-.676-.678l0,0ZM17.954,7.8l-.254.268c.089.016.178.033.27.049h2.161c.116.031.181,0,.156-.132q.672-1.3,1.347-2.6c-.049-.047-.1-.1-.145-.143Q19.723,6.518,17.954,7.8ZM52.168,33.986c-.06-.042-.12-.087-.183-.129-.616-.486-1.258-.946-1.84-1.47a.558.558,0,0,0-.8-.042c-.4.283-.769.6-1.157.9a.553.553,0,0,0-.161.676c.089.232.21.537.56.5,1.34-.125,2.681.134,4.161.076-.265-.236-.421-.375-.578-.515ZM27.8,8.11,27.93,8.1c-.038-.042-.076-.085-.114-.129q-1.077-2.074-2.157-4.15c-.129-.25-.225-.254-.366.011C24.56,5.2,23.757,6.542,23.133,7.974l-.12.125.129.016q2.332,0,4.661,0ZM63.676,47.384a19.613,19.613,0,0,1,2.168,3.035,17.519,17.519,0,0,1,2.6,9.547,16.022,16.022,0,0,1-.343,3.691,20.44,20.44,0,0,1-5.4,9.8,1.744,1.744,0,0,1-1.184.642c-.112-.025-.161.016-.127.132-.109.573-.571.727-1.037.876-.45-.107-.268.279-.355.455-.2.127-.408.252-.609.384a19.1,19.1,0,0,1-6.374,2.442c-.172-.236-.343-.236-.513,0a1.184,1.184,0,0,1-.522.2,25.583,25.583,0,0,1-3.923.031,16.763,16.763,0,0,1-5.814-1.5A17.2,17.2,0,0,1,34.424,70.7a1.234,1.234,0,0,0-1.586-.564c-.749.178-1.483.419-2.232.587-.863.194-1.019.453-.566,1.153A25.666,25.666,0,0,0,34.8,77.408c.027.091.065.167.183.132a18.141,18.141,0,0,0,4.5,3,22.131,22.131,0,0,0,11.487,2.4A26.621,26.621,0,0,0,56.606,81.9a13.8,13.8,0,0,0,4.61-2.152c.165.1.3.138.3-.136a16.336,16.336,0,0,0,3.84-2.819A23.466,23.466,0,0,0,72.7,61.67a18.436,18.436,0,0,0-.163-4.688A23.945,23.945,0,0,0,70.6,50.21a23.113,23.113,0,0,0-6.418-8.216l-.2-.136c-.479-.348-.943-.718-1.438-1.044a21.887,21.887,0,0,0-12.433-3.8c-.575.007-.7.08-.473.68a14.934,14.934,0,0,1,.827,3c.1.651.388.633.868.678a16.918,16.918,0,0,1,2.973.413,19.582,19.582,0,0,1,8.2,4.431l1.169,1.169ZM28.092,10.623c-1.648,0-3.227,0-4.806.007-.174,0-.517-.134-.453.263.169,1.035.368,2.067.549,3.1.314,1.806.673,3.606.908,5.424.074.575.187.81.767.749a3.287,3.287,0,0,1,.912,0c.459.083.6-.221.656-.535.194-1.117.335-2.243.517-3.363.3-1.862.622-3.722.948-5.651Zm6.09,0c-1.086,0-2.056.031-3.026-.013a.577.577,0,0,0-.669.549c-.138.745-.227,1.5-.348,2.246-.332,2.081-.653,4.164-1.019,6.238-.062.355-.321.7.207.845.488.134.7-.125.834-.6a14.079,14.079,0,0,1,.716-1.7c1.084-2.482,2.168-4.962,3.3-7.56Zm-17.323,0a.611.611,0,0,0,0,.134q2.027,4.727,4.054,9.453c.174.406.426.314.72.205.259-.1.375-.156.223-.508a5.467,5.467,0,0,1-.21-1.191c-.421-2.5-.787-5.011-1.2-7.515-.049-.3-.145-.609-.616-.591-.992.04-1.987.011-2.982.011ZM29.444,5.262l-.112.112c.433.847.881,1.688,1.289,2.547a.333.333,0,0,0,.368.221c.553,0,1.108,0,1.661-.007a.381.381,0,0,0,.283-.1c.1-.149-.045-.248-.149-.323q-1.669-1.228-3.343-2.446Zm3.822,2.77C33.246,8.021,33.222,8,33.21,8c-.08.033-.08.078,0,.114.013.007.045-.013.056-.027s0-.038,0-.058Z" transform="translate(-0.008 0.015)" fill="#858585"/>
        <path id="Path_375" data-name="Path 375" d="M31.482,146.546a19.217,19.217,0,0,1-1.157-8.838,10.308,10.308,0,0,1,.642-2.718c.239-.673.361-1.427.64-2.123a18.546,18.546,0,0,1,6.369-8.191,18.793,18.793,0,0,1,16.1-2.739,18.533,18.533,0,0,1,5.778,2.687,16.408,16.408,0,0,1,4.284,4.364c.165.259.435.417.551.7-.027.138-.071.281.123.339A10.792,10.792,0,0,1,66.5,133.4a10.593,10.593,0,0,1,.872,4.413c-.036.319.292.694.306,1.124a20,20,0,0,1-.529,5.265c-.116.029-.3-.045-.306.163s.161.172.29.187c-.553,1.322-.966,2.7-1.621,3.983a19.292,19.292,0,0,1-4.023,5.218c-.118-.036-.156.018-.138.129l-.863.7c-.12-.042-.156.038-.183.127a18.469,18.469,0,0,1-23.512-.689c-.065-.047-.129-.094-.194-.143l-.45-.337-.845-.845a28.027,28.027,0,0,1-2.344-3.147l-.134-.169a13.866,13.866,0,0,1-1.2-2.661c-.045-.06-.089-.118-.136-.178Zm27.867-5.009c.81-.029,1.215-.384,1.135-.977a.37.37,0,0,1,.116-.321,17.07,17.07,0,0,1,4.135-2.837c.377-.181.395-.408.265-.745a19.7,19.7,0,0,1-.885-2.915c-.1-.442-.348-.64-.894-.366a23.377,23.377,0,0,0-8.1,6.458,21.744,21.744,0,0,0-3.042,5.145,22.194,22.194,0,0,0-1.626,6.052,13.963,13.963,0,0,0-.154,4.639c.076.339.19.419.475.377a17.441,17.441,0,0,0,7.848-3.162l.185-.132a.245.245,0,0,0,.022-.018l.631-.522a.084.084,0,0,0,.018-.016l.156-.114.033-.027a16.094,16.094,0,0,0,4.48-6.594,13.348,13.348,0,0,0,1.006-4.54c0-.508-.214-.734-.727-.417-.718.444-1.563.633-2.034,1.5-.493.908-1.595,1.3-2.163,2.212a20.206,20.206,0,0,0-2.7,5.4c-.181.685-.546.966-1.144.932a.364.364,0,0,1-.308-.2c-.087-.181-.2-.3-.4-.234a.383.383,0,0,1-.448-.187.8.8,0,0,1-.011-.932c.649-.607.6-1.485.823-2.159a36.444,36.444,0,0,1,1.7-3.269c.145-.323.317-.756.859-.774m-5.477-4.427.2-.312c.172-.172.343-.343.515-.513.332-.239.025-.366-.1-.491-.633-.624-1.28-1.238-1.922-1.853-.047-.056-.094-.109-.138-.165-.707-1.22-.221-2.121.7-3a29.7,29.7,0,0,1,6.211-4.52c.462-.256.475-.435.08-.723a15.941,15.941,0,0,0-8.753-3.089,16.335,16.335,0,0,0-3.457.134,18.608,18.608,0,0,0-3.7.995,13.759,13.759,0,0,0-3.793,2.217,11.9,11.9,0,0,0-2.837,2.962.9.9,0,0,0-.508.682.513.513,0,0,0-.312.341c-.225.018-.136.241-.225.346a15,15,0,0,0-1.088,2.154c-.013.1-.025.207-.038.31a9.875,9.875,0,0,0-1.115,4.862c-.022.165-.042.328-.065.493-.294.3-.178.682-.129.995a26.09,26.09,0,0,0,.685,4.019l.5,1.5.442.845a2.774,2.774,0,0,0,.691,1.343c.018.123-.018.274.158.319a2.465,2.465,0,0,0,.839,1.189c.036.426.4.591.667.834.036.428.4.593.671.83a3.485,3.485,0,0,0,.834.834.5.5,0,0,0,.5.337c.23.283.417.618.832.673a1.432,1.432,0,0,0,.845.616,8.3,8.3,0,0,0,1.494.876c.163.241.471.143.676.288.223.112.444.223.667.332.5.167,1,.335,1.5.5.566.058,1.077.4,1.668.335.248-.049.4.292.667.167.85.042,1.084-.192.8-1.012a2.654,2.654,0,0,1-.1-1.443,15.754,15.754,0,0,0,.149-2.351c.236-.116.152-.321.136-.5a26.767,26.767,0,0,1,.658-3.243,29.106,29.106,0,0,1,3.053-7.094c.314-.2.421-.551.609-.843.089-.234.437-.317.381-.638a1.044,1.044,0,0,0,.462-.531Zm7.854-9.342c-.156.069-.279.12-.4.178a27.946,27.946,0,0,0-5.548,3.709c-1.155.95-1.12,1.177.094,2.15a.716.716,0,0,0,1.12-.009,26.03,26.03,0,0,1,4.833-3.336c.462-.265,1.256-.35,1.327-.781.067-.4-.5-.894-.852-1.314-.19-.225-.294-.508-.575-.6Z" transform="translate(-23.509 -94.157)" fill="#858585"/>
        <path id="Path_376" data-name="Path 376" d="M35.731,234.9c.045.06.089.118.136.178C35.772,235.058,35.7,235.02,35.731,234.9Z" transform="translate(-27.758 -182.512)" fill="#858585"/>
        <path id="Path_377" data-name="Path 377" d="M26.139,259.017c-.1-.009-.172-.047-.138-.167Z" transform="translate(-20.197 -201.12)" fill="#858585"/>
      </g>
    </g>
  </g>
</svg>
