<svg xmlns="http://www.w3.org/2000/svg" xmlns:xlink="http://www.w3.org/1999/xlink" width="130" height="130" viewBox="0 0 130 130">
  <defs>
    <clipPath id="clip-Dedicated_taxi_drop_off_and_pick_up_area">
      <rect width="130" height="130"/>
    </clipPath>
  </defs>
  <g id="Dedicated_taxi_drop_off_and_pick_up_area" data-name="Dedicated taxi drop off and pick up area" clip-path="url(#clip-Dedicated_taxi_drop_off_and_pick_up_area)">
    <g id="Layer_1" data-name="Layer 1" transform="translate(22.881 26.962)">
      <path id="Path_156" data-name="Path 156" d="M85.136,32.317v1.829c-1.253,3.119-3.693,4.557-7,4.815a8.862,8.862,0,0,1,1.875,4.328c.056.222.111.444.167.664a9.988,9.988,0,0,0,.116,1.889c-.036,2.464,0,4.93-.022,7.4a.9.9,0,0,0,.549.964,3.665,3.665,0,0,1,1.637,1.664,7.806,7.806,0,0,1,.475,4.413,4.066,4.066,0,0,1-2.326,3.466c-.4.191-.327.522-.327.84q0,3.573,0,7.148c-.007,3.284-2.9,5.737-5.523,5.486a17.112,17.112,0,0,0-2.657,0,5.2,5.2,0,0,1-5.215-5.1c.013-2.437-.016-4.875.007-7.312,0-.5-.109-.671-.635-.651-1.022.038-2.051.027-3.073-.024a1.158,1.158,0,0,1-1.122-1.193c-.016-.68.22-1.126,1.1-1.229a7.824,7.824,0,0,1,.913-.033q7.149,0,14.3,0c1.222,0,1.666-.271,2.02-1.26a5.913,5.913,0,0,0,.089-1.969c.022-1.72-.62-2.344-2.353-2.344H6.9c-.138,0-.278-.011-.415,0-1.291.113-1.88.589-1.82,1.855.036.718,0,1.44.016,2.16a1.507,1.507,0,0,0,.184.778c.451.787,1.182.778,1.92.778q11.261.007,22.523,0,13.381,0,26.762,0a2.421,2.421,0,0,1,1.957.609c.013.1.027.2.042.3v.5c-.007.684-.558.9-1.024,1.191-.771-.033-1.542-.1-2.313-.1q-16.937-.01-33.874,0c-.827,0-1.944-.293-2.4.124-.529.482-.133,1.615-.167,2.464a56.448,56.448,0,0,1-.133,6.039,5.35,5.35,0,0,1-4.122,4.273c-1.1.193-2.191.051-3.279.142a5.592,5.592,0,0,1-3.9-1.006q-.5-.51-1.006-1.018a6.274,6.274,0,0,1-.964-2.391q-.037-4.169.016-8.341c0-.427-.209-.544-.5-.7a3.926,3.926,0,0,1-2.215-3.6c-.016-.8.033-1.606-.011-2.406a3.835,3.835,0,0,1,2.135-3.633c.351-.213.591-.409.582-.864-.056-3.1.082-6.194-.078-9.29a.652.652,0,0,0,.167-.664,10.425,10.425,0,0,1,1.358-3.451c.573-.858.538-.9-.511-1.04a6.974,6.974,0,0,1-5.3-3.339c-.062-.176-.12-.356-.187-.529a4.992,4.992,0,0,1,.92-5.135,8.547,8.547,0,0,1,5.952-2.466,4.593,4.593,0,0,1,1.424-.076,15.705,15.705,0,0,1,4.517,1.775.3.3,0,0,0,.329.3l.076.033-.067-.042c0-.116-.007-.231-.011-.344a8.955,8.955,0,0,0,.589-2.488q.8-3.889,1.575-7.781a15.338,15.338,0,0,1,.88-3.81,8.423,8.423,0,0,1,4.144-4.022c.164.1.3.138.3-.136a49.81,49.81,0,0,1,8.821-.331c.591,0,.831-.1.8-.76-.062-1.16-.038-2.326-.009-3.491a5.816,5.816,0,0,1,.138-1.8A5.774,5.774,0,0,1,36.471.1c2.4-.122,4.819-.029,7.23-.024a47.683,47.683,0,0,1,5.937.178,4.754,4.754,0,0,1,1.6.464,6.111,6.111,0,0,1,3.337,5.652c.031,1.106.042,2.217-.009,3.324-.027.6.184.715.747.724a58.586,58.586,0,0,1,7.039.133,7.328,7.328,0,0,1,4.106,1.84A8.044,8.044,0,0,1,68.943,17c.542,2.777,1.184,5.537,1.733,8.314.267,1.346.584,2.682.911,4.173a6.331,6.331,0,0,1,2.793-1.655,9.418,9.418,0,0,1,4.886-.324,8.282,8.282,0,0,1,3.962,1.8,7.226,7.226,0,0,1,1.909,3.013ZM64.213,34.586c1.766.007,3.533,0,5.3.031.5.011.578-.22.5-.6-.3-1.4-.622-2.791-.964-4.317a51.688,51.688,0,0,0-4.837,4.8c-.064,0-.14-.02-.116.087a.4.4,0,0,0,.122,0Zm-41.919-.109-.118.091.144.013c2.215.007,4.43.011,6.643.029a.93.93,0,0,0,.724-.3q7.222-7.229,14.449-14.446c.124-.124.38-.236.227-.453-.064-.091-.3-.087-.449-.087-1.993,0-3.988.013-5.981-.016a1.553,1.553,0,0,0-1.224.513Q30.116,26.444,23.5,33.039A7.029,7.029,0,0,0,22.293,34.477Zm26.96.107c3.6.007,7.2.007,10.8.031A1.109,1.109,0,0,0,60.9,34.2c2.284-2.284,4.533-4.6,6.93-6.77a1.457,1.457,0,0,0,.447-1.6c-.389-1.7-.76-3.406-1.08-5.119-.258-1.382-.22-1.391-1.657-1.389a2.5,2.5,0,0,0-2.084.653c-4.479,4.568-9.023,9.07-13.551,13.591a2.743,2.743,0,0,0-.68.907c-.029.04-.06.078-.089.118.04,0,.08,0,.12-.007Zm-15.962.007c3.848,0,7.7,0,11.542.029a1.361,1.361,0,0,0,1.049-.529Q52.9,27.071,59.918,20.057a6.32,6.32,0,0,1,.7-.529c-.049-.069-.1-.14-.144-.209h-.8c-3.377,0-6.754.04-10.132-.024a2.931,2.931,0,0,0-2.364.986c-4.617,4.695-9.283,9.343-13.931,14.006-.131.033-.284.073-.224.249.036.1.162.118.269.053ZM28.434,19.022a1.167,1.167,0,0,1-.389-1.349,1.284,1.284,0,0,1,1.264-.847c.222-.009.442,0,.664,0h35.4c.222,0,.444-.007.664,0,.342.011.342-.171.262-.427-.58-1.826-2.151-2.644-3.617-3.573-.338-.213-.624.091-.958.091q-18.82-.043-37.642-.04a7.068,7.068,0,0,0-1.611.164,5.056,5.056,0,0,0-3.995,3.784c1.429,0,2.784-.007,4.142,0,.9.007,1.5.52,1.5,1.255a1.506,1.506,0,0,1-1.5,1.235c-1.246.009-2.493.022-3.739-.007-.547-.013-.813.111-.929.72-.384,2-.8,3.988-1.184,5.988-.513,2.7-1.18,5.379-1.771,8.07-.062.282-.069.54.378.527.942-.029,1.884-.011,2.824-.011a.609.609,0,0,0,.478-.218c2.648-2.631,5.244-5.317,7.976-7.868,2.024-1.889,3.93-3.9,5.888-5.861.313-.313.627-.624.931-.944.224-.238.2-.389-.162-.391-.527,0-1.053.024-1.578-.007a11.168,11.168,0,0,1-3.124-.169l-.178-.124ZM77.488,44.08c.044,0,.087-.009.131-.016l-.124-.122a3.4,3.4,0,0,0-.331-1.646,8.15,8.15,0,0,0-7.99-5.181c-17.73-.042-35.463-.018-53.193-.022a8.8,8.8,0,0,0-2.664.324,7.977,7.977,0,0,0-4.484,3.139,6.114,6.114,0,0,0-1.3,3.4c-.036.124.018.158.131.127.249.009.5.024.747.027a38.249,38.249,0,0,1,6.848.211A10.449,10.449,0,0,1,23.791,53c.067.449.282.624.762.618q2.949-.04,5.9,0c.491.007.589-.158.582-.611q-.037-2.366,0-4.735c.016-.953.413-1.315,1.373-1.331.553-.009,1.109,0,1.662,0q9.055,0,18.11,0c1.531,0,2.022.651,1.975,1.931-.051,1.382,0,2.768-.016,4.153,0,.371,0,.6.511.6,2.022-.033,4.044-.018,6.066-.009.32,0,.46-.04.509-.433A9.919,9.919,0,0,1,64.435,47a10.852,10.852,0,0,1,7.572-2.9c1.826,0,3.655-.018,5.481-.027ZM73.62,64.163c-1.191,0-2.382.031-3.571-.013-.567-.022-.691.173-.687.707.027,2.464,0,4.928.022,7.392a2.675,2.675,0,0,0,2.437,2.471,16.171,16.171,0,0,1,2.822.011,2.936,2.936,0,0,0,3.146-3.064c0-2.3-.013-4.6.009-6.894,0-.469-.127-.629-.6-.618-1.191.029-2.382.009-3.571.009ZM7.378,68.458v3.488c0,.027,0,.056,0,.082a2.653,2.653,0,0,0,2.644,2.684,22.051,22.051,0,0,1,2.655.011,2.927,2.927,0,0,0,3.1-3.011c.027-2.324,0-4.65.016-6.977,0-.415-.1-.587-.547-.582-2.435.018-4.872.022-7.308,0-.52,0-.578.227-.571.651.02,1.218.007,2.435.009,3.655ZM70.723,53.6c2.157,0,4.315-.013,6.472.011.471,0,.607-.131.6-.6-.024-1.935-.033-3.873,0-5.808.011-.569-.224-.613-.682-.609-1.935.024-3.873.016-5.81.022a6.109,6.109,0,0,0-1.733.313A8.014,8.014,0,0,0,63.8,52.858c-.176.624-.084.762.533.755,2.131-.022,4.259-.009,6.39-.009Zm-49.3,0a7.882,7.882,0,0,0-5.577-6.53c-2.673-.864-5.448-.349-8.176-.467-.338-.016-.293.258-.293.473,0,2.02.007,4.039-.007,6.059,0,.369.129.469.48.469,4.508-.009,9.018-.007,13.575-.007Zm21.15,0c2.8,0,5.6-.013,8.394.013.535,0,.722-.12.7-.68-.047-1-.029-2-.007-2.991.009-.391-.109-.524-.513-.524q-8.559.017-17.119,0c-.4,0-.524.111-.513.513.027.969.047,1.942,0,2.908-.033.607.113.791.758.78,2.771-.042,5.541-.018,8.31-.018ZM77.448,36.49a6.09,6.09,0,0,0,3.913-1.275,2.411,2.411,0,0,0,.38-3.895,5.55,5.55,0,0,0-3.346-1.442,5.9,5.9,0,0,0-5.31,1.611,2.237,2.237,0,0,0,.033,3.364,6.027,6.027,0,0,0,4.328,1.64ZM7.54,36.477A6.046,6.046,0,0,0,11.2,35.368c1.975-1.36,1.971-3.257-.067-4.555A6.925,6.925,0,0,0,3.73,30.9a2.434,2.434,0,0,0-.415,3.977,5.556,5.556,0,0,0,4.226,1.6Zm44.392-31a3.272,3.272,0,0,0-3.379-2.9c-4.1-.064-8.2-.033-12.3-.009A3.321,3.321,0,0,0,33.211,4.82c-.2.555-.071.667.46.664C39.737,5.475,45.8,5.48,51.933,5.48ZM34.76,9.335c0-1.306,0-1.278-1.2-1.3-.511-.011-.693.116-.635.635a9.785,9.785,0,0,1,.007,1.326c0,.244.049.493.3.518a3.222,3.222,0,0,0,1.393-.022c.322-.127.084-.649.138-.991a1.043,1.043,0,0,0,0-.167Zm8.645-.118c-.082-.5.367-1.253-.8-1.211-.869.031-1.169.249-1.033,1.091a4.8,4.8,0,0,1,0,.911.47.47,0,0,0,.311.522c.927.344,1.52-.062,1.52-1.044V9.215Zm8.645.133c0-1.455,0-1.438-1.438-1.318-.347.029-.407.156-.4.451.018.5.011,1,0,1.493,0,.24.029.5.284.527a3.264,3.264,0,0,0,1.393-.011c.347-.127.093-.64.153-.978a1.043,1.043,0,0,0,0-.167ZM39.084,9.135c0-1.093,0-1.055-1.071-1.1-.6-.029-.862.111-.769.755a9.2,9.2,0,0,1,.013,1.162c0,.153-.06.4.156.407a4.611,4.611,0,0,0,1.558-.049c.28-.087.064-.6.111-.92a1.86,1.86,0,0,0,0-.249Zm8.645.178q0-1.289-1.2-1.269h-.333c-.147,0-.284.02-.284.209,0,.638,0,1.273,0,1.911a.183.183,0,0,0,.2.2,4.128,4.128,0,0,0,1.478-.047c.349-.142.067-.7.142-1.009Z" transform="translate(0 0)" fill="#858585"/>
    </g>
  </g>
</svg>
