<svg xmlns="http://www.w3.org/2000/svg" xmlns:xlink="http://www.w3.org/1999/xlink" width="130" height="130" viewBox="0 0 130 130">
  <defs>
    <clipPath id="clip-Electronics">
      <rect width="130" height="130"/>
    </clipPath>
  </defs>
  <g id="Electronics" clip-path="url(#clip-Electronics)">
    <g id="Layer_1" data-name="Layer 1" transform="translate(23.999 24)">
      <g id="Group_46" data-name="Group 46" transform="translate(0 0)">
        <path id="Path_336" data-name="Path 336" d="M64.671,76.382a1.99,1.99,0,0,1-1.729.518c-3.346-.011-6.692.011-10.039-.021-.6-.007-.775.144-.745.748.055,1.027.023,2.06.014,3.087a1.539,1.539,0,0,1-1.693,1.67q-24.453.007-48.907,0c-1.108,0-1.566-.44-1.566-1.527Q0,68.675.005,56.491c0-.982.493-1.562,1.28-1.555a1.548,1.548,0,0,1,1.461,1.64c.007,4.663.023,9.323-.016,13.986-.007.739.2.874.892.862,2.716-.044,5.433-.018,8.151-.018,1.436,0,1.959.511,1.959,1.92,0,1.888.018,3.775-.011,5.663-.009.511.1.67.647.67q17.2-.028,34.4,0c.509,0,.67-.094.67-.644q-.024-26.813,0-53.624c0-.5-.089-.672-.642-.672q-13.083.031-26.169,0c-.5,0-.674.089-.674.642,0,2.112-.023,2.112,2.108,2.115.172,0,.344-.007.514,0a1.623,1.623,0,0,1,1.507,1.335,1.592,1.592,0,0,1-1.521,1.406c-.2.009-.4,0-.6,0-2.177,0-2.3.161-2,2.388.044.317.163.376.427.36.17-.011.344,0,.514,0H44.607c.229,0,.459-.016.686,0a1.615,1.615,0,0,1,1.383,1.374,1.59,1.59,0,0,1-1.28,1.353,5.075,5.075,0,0,1-.771.014q-20.507,0-41.012-.016c-.7,0-.89.149-.883.872.039,4.605.014,9.208.028,13.814a1.7,1.7,0,0,1-.571,1.433,1.252,1.252,0,0,1-1.321.3,1.249,1.249,0,0,1-.851-1.151c-.011-.2-.009-.4-.009-.6V23.843c0-1.5.355-1.865,1.837-1.865,3.718,0,7.436-.014,11.153.014.589,0,.759-.122.755-.736q-.045-6.134,0-12.27c0-.589-.124-.764-.739-.755-2.287.041-4.576.032-6.864,0-.521-.007-.67.11-.665.651.03,2.86.009,5.72.018,8.58a1.612,1.612,0,0,1-.475,1.3,1.283,1.283,0,0,1-1.447.365,1.253,1.253,0,0,1-.823-1.257q0-2.573,0-5.149,0-2.745,0-5.491c0-1.326.4-1.734,1.709-1.734,5.117,0,10.231,0,15.566,0-1.055-1.044-1.991-1.972-2.933-2.894a1.6,1.6,0,0,1-.6-.894c-.057-.528-.085-1.11.546-1.365a1.527,1.527,0,0,1,1.716.126c1.472,1.22,2.771,2.619,4.115,3.97.36.362.55.42.933.016,1.08-1.142,2.213-2.236,3.321-3.351.119-.119.3-.245.317-.383.11-.94.812-.734,1.381-.709a1.448,1.448,0,0,1,1.355,1.133,1.007,1.007,0,0,1-.278.993C28.952,3.3,27.842,4.3,26.72,5.5c1.587,0,3.032,0,4.477,0a1.546,1.546,0,0,1,1.759,1.777c0,4.605.025,9.208-.023,13.814-.009.8.239.9.945.9,5.463-.03,10.926-.016,16.387-.016,1.383,0,1.91.521,1.91,1.885,0,2.346.018,4.69-.014,7.036-.007.557.138.7.7.7q13.042-.028,26.084,0c.557,0,.7-.138.7-.7q-.028-13.727,0-27.456c0-.557-.138-.7-.7-.7q-19.221.024-38.439,0c-.555,0-.706.133-.7.7.025,4.663.007,9.323.023,13.986a1.716,1.716,0,0,1-.64,1.488,1.231,1.231,0,0,1-1.257.241,1.26,1.26,0,0,1-.842-1.069,5.23,5.23,0,0,1-.016-.6V1.781c0-1.388.383-1.775,1.755-1.775h41.7c1.3,0,1.853.55,1.853,1.855q0,39.339.011,78.679a1.766,1.766,0,0,1-.816,1.656,1.271,1.271,0,0,1-1.92-.924,6.448,6.448,0,0,1-.021-.943q0-22.523.016-45.044c0-.752-.151-.979-.952-.977q-12.825.052-25.655,0c-.693,0-.892.133-.89.865q.048,10.809,0,21.621c0,.695.133.892.865.89,7.293-.032,14.587-.021,21.88-.018,1.472,0,1.984.509,1.984,1.982V80.414c0,1.463-.514,1.968-2,1.968H56.524c-1.055,0-1.578-.443-1.6-1.321-.025-.9.507-1.417,1.5-1.42,2.832-.007,5.663,0,8.5,0,2.86,0,5.72-.016,8.58.014.539,0,.654-.142.654-.663q-.031-8.965,0-17.933c0-.541-.142-.654-.663-.651q-10.338.028-20.678,0c-.541,0-.654.144-.654.663,0,2.1-.018,2.1,2.039,2.1q4.249,0,8.5,0a4.107,4.107,0,0,1,1.844.436,2.619,2.619,0,0,1,1.351,2.578c.044,2.573.03,5.149.007,7.722a2.776,2.776,0,0,1-1.023,2.342c-.128-.039-.165.05-.2.142ZM10.9,32.961c2.573,0,5.147-.011,7.722.011.484,0,.619-.126.615-.612q-.038-3.516,0-7.034c0-.484-.128-.615-.612-.612q-7.634.028-15.27,0c-.484,0-.619.126-.615.612.025,2.316.03,4.633,0,6.949-.007.56.14.709.7.7,2.488-.032,4.977-.014,7.463-.014ZM6.865,79.641c1.2,0,2.4-.016,3.6.009.408.009.534-.106.528-.523q-.038-2.229,0-4.461c.007-.408-.108-.53-.523-.528q-3.6.028-7.206,0c-.408,0-.534.105-.528.523q.038,2.229,0,4.461c-.007.408.106.537.523.528C4.462,79.623,5.663,79.641,6.865,79.641ZM53.992,74.15c3,0,5.821-.016,8.644.014.523,0,.528-.229.525-.61-.009-2.287,0-4.571-.014-6.858,0-.255.19-.654-.149-.75a1.017,1.017,0,0,0-1.085.255c-2.582,2.621-5.192,5.218-7.922,7.947ZM52.173,72c2.048-2.05,4.05-4.053,6.085-6.087-1.89,0-3.784.009-5.681-.007-.365,0-.411.156-.411.459.009,1.874,0,3.748,0,5.635ZM17.895,8.249a1.251,1.251,0,0,0-1.417,1.413,1.176,1.176,0,0,0,1.328,1.333,1.251,1.251,0,0,0,1.417-1.413A1.176,1.176,0,0,0,17.895,8.249Zm6.819,1.294a1.137,1.137,0,0,0-1.28-1.294A1.289,1.289,0,0,0,21.968,9.7a1.137,1.137,0,0,0,1.28,1.294A1.289,1.289,0,0,0,24.713,9.542Zm4.069,1.452a1.252,1.252,0,0,0,1.424-1.408,1.176,1.176,0,0,0-1.323-1.337,1.252,1.252,0,0,0-1.424,1.408A1.176,1.176,0,0,0,28.782,10.994ZM17.851,13.74a1.213,1.213,0,0,0-1.376,1.369,1.217,1.217,0,0,0,1.369,1.376,1.213,1.213,0,0,0,1.376-1.369A1.21,1.21,0,0,0,17.851,13.74Zm6.862,1.4a1.252,1.252,0,0,0-1.436-1.4,1.176,1.176,0,0,0-1.312,1.349,1.252,1.252,0,0,0,1.436,1.4,1.176,1.176,0,0,0,1.312-1.349Zm5.491.028A1.252,1.252,0,0,0,28.8,13.74a1.176,1.176,0,0,0-1.337,1.323,1.252,1.252,0,0,0,1.408,1.424A1.176,1.176,0,0,0,30.2,15.164ZM17.872,19.233a1.252,1.252,0,0,0-1.4,1.436,1.176,1.176,0,0,0,1.349,1.312,1.252,1.252,0,0,0,1.4-1.436,1.176,1.176,0,0,0-1.349-1.312Zm5.55,0a1.289,1.289,0,0,0-1.456,1.461,1.137,1.137,0,0,0,1.289,1.284,1.289,1.289,0,0,0,1.456-1.461A1.137,1.137,0,0,0,23.422,19.233ZM30.2,20.648a1.252,1.252,0,0,0-1.417-1.415,1.176,1.176,0,0,0-1.328,1.333,1.252,1.252,0,0,0,1.417,1.415A1.176,1.176,0,0,0,30.2,20.648Z" transform="translate(-0.001 0.019)" fill="#858585"/>
        <path id="Path_337" data-name="Path 337" d="M66.225,183.863a3.508,3.508,0,0,1-.989-1.415,1.231,1.231,0,0,1,.612-1.6,1.448,1.448,0,0,1,1.709.257,5.275,5.275,0,0,1,.945,1.466,18.6,18.6,0,0,1,2.209,6.19,17.932,17.932,0,0,1-.734,8.724,15.626,15.626,0,0,1-3.176,5.534,18.119,18.119,0,0,1-6.016,4.69,20.808,20.808,0,0,1-6.195,1.7,16.3,16.3,0,0,1-7.757-1.08,18.053,18.053,0,0,1-5.319-3.138,17.846,17.846,0,0,1-4.553-5.858,18.308,18.308,0,0,1-1.658-5.7,16.069,16.069,0,0,1,.06-4.715,18.377,18.377,0,0,1,2.722-7.119,19.7,19.7,0,0,1,3.566-4l.2-.14a16.25,16.25,0,0,1,7.436-3.475,16.171,16.171,0,0,1,4.066-.5A19.473,19.473,0,0,1,63.3,176.85a1.442,1.442,0,0,1,.638,1.773,1.329,1.329,0,0,1-1.378.9,1.123,1.123,0,0,1-.672-.287,15.6,15.6,0,0,0-10.738-2.617,14.062,14.062,0,0,0-8.2,3.748,15.02,15.02,0,0,0-1.594,20.7,14.349,14.349,0,0,0,9.523,5.507,14.737,14.737,0,0,0,10.947-2.654,15.517,15.517,0,0,0,5.617-7.52,14.418,14.418,0,0,0,.711-3.828,17.177,17.177,0,0,0-.592-5.681,21.79,21.79,0,0,0-1.2-2.92c.032-.117,0-.163-.124-.117Z" transform="translate(-27.093 -133.84)" fill="#858585"/>
        <path id="Path_338" data-name="Path 338" d="M81,207.048c.032-.135.05-.264-.117-.328a1.154,1.154,0,0,0-.374-.876,7.045,7.045,0,0,0-2.523-3.408,10.044,10.044,0,0,0-11.543-.546,9.658,9.658,0,0,0-3.433,11.559,8.037,8.037,0,0,0,.569,1.2,1.469,1.469,0,0,1-.716,2.066,1.3,1.3,0,0,1-1.743-.709,13.19,13.19,0,0,1-1.11-2.745A12.355,12.355,0,0,1,78.989,199.67a11.792,11.792,0,0,1,5.137,8.491,12.45,12.45,0,0,1-14,13.965,11.57,11.57,0,0,1-4.332-1.5,1.488,1.488,0,0,1-.906-1.477,1.355,1.355,0,0,1,1-1.177,1.417,1.417,0,0,1,1.255.218,9.626,9.626,0,0,0,13.763-5.135,8.056,8.056,0,0,0,.25-5.309.7.7,0,0,0-.161-.7Z" transform="translate(-45.839 -152.117)" fill="#858585"/>
        <path id="Path_339" data-name="Path 339" d="M299.248,174.941c0-.97.062-1.947-.014-2.913-.147-1.885,1.874-3.748,3.814-3.839,3.044-.145,4.433,2.243,4.431,4.488,0,1.6.053,3.2-.014,4.8a4.32,4.32,0,0,1-2.312,3.876,4.066,4.066,0,0,1-5.4-1.6,3.554,3.554,0,0,1-.521-1.9c.057-.968.014-1.94.014-2.913Zm5.486.034c0-.883.018-1.768,0-2.651a1.528,1.528,0,0,0-1.507-1.493c-.757.023-1.222.578-1.229,1.509q-.017,2.566,0,5.133c0,.993.466,1.566,1.248,1.58a1.543,1.543,0,0,0,1.493-1.6c.014-.826,0-1.654,0-2.482Z" transform="translate(-230.6 -129.606)" fill="#858585"/>
        <path id="Path_340" data-name="Path 340" d="M307.4,49.167A15.139,15.139,0,0,1,307.095,53a3.69,3.69,0,0,1-2.936,2.759,4.059,4.059,0,0,1-4.881-2.846,2.755,2.755,0,0,1-.05-1.67,1.15,1.15,0,0,1,1.25-.922,1.489,1.489,0,0,1,1.413,1.241c.291,1.158.679,1.587,1.45,1.488.8-.1,1.312-.823,1.312-1.876,0-1.544,0-3.089,0-4.633a1.588,1.588,0,0,0-1.383-1.718c-.777-.055-1.241.447-1.365,1.477a1.634,1.634,0,0,1-1.472,1.257,1.318,1.318,0,0,1-1.271-1.31c-.312-2.589,2.548-4.826,5.206-3.975.489.156,1.142.028,1.456.459A6.077,6.077,0,0,1,307.4,46.3c0,.888,0,1.773,0,2.865Z" transform="translate(-230.52 -32.431)" fill="#858585"/>
        <path id="Path_341" data-name="Path 341" d="M176.448,170.4c-.628,0-1.255.009-1.883,0a1.6,1.6,0,0,1-1.369-2.321c.294-.477.931-.36,1.383-.392,1.307-.087,2.621-.048,3.933-.023A1.549,1.549,0,0,1,180,169.1a1.571,1.571,0,0,1-1.5,1.3c-.683.018-1.369,0-2.053,0Z" transform="translate(-133.324 -129.184)" fill="#858585"/>
        <path id="Path_342" data-name="Path 342" d="M27.309,170.433c-.683,0-1.367.018-2.05,0a1.287,1.287,0,0,1-1.289-1.447,1.227,1.227,0,0,1,1.243-1.28c1.394-.032,2.791-.037,4.186,0a1.525,1.525,0,0,1,1.424,1.482,1.6,1.6,0,0,1-1.463,1.25C28.676,170.446,27.993,170.433,27.309,170.433Z" transform="translate(-18.473 -129.214)" fill="#858585"/>
        <path id="Path_343" data-name="Path 343" d="M186.9,119.85a1.556,1.556,0,0,1,1.427,1.493,1.629,1.629,0,0,1-1.472,1.245,1.371,1.371,0,0,1,.046-2.736Z" transform="translate(-143.025 -92.358)" fill="#858585"/>
        <path id="Path_344" data-name="Path 344" d="M138.973,122.588a1.372,1.372,0,0,1,.016-2.738,1.371,1.371,0,1,1-.016,2.736Z" transform="translate(-106.119 -92.357)" fill="#858585"/>
        <path id="Path_345" data-name="Path 345" d="M35.936,73.254a1.284,1.284,0,0,1,1.349-1.3,1.371,1.371,0,1,1-.138,2.734A1.289,1.289,0,0,1,35.936,73.254Z" transform="translate(-27.693 -55.445)" fill="#858585"/>
        <path id="Path_346" data-name="Path 346" d="M300.591,278.225a1.371,1.371,0,0,1,.037-2.736,1.372,1.372,0,1,1-.037,2.738Z" transform="translate(-230.678 -212.301)" fill="#858585"/>
        <path id="Path_347" data-name="Path 347" d="M37.187,50.755a1.371,1.371,0,0,1,.064-2.736,1.589,1.589,0,0,1,1.424,1.4,1.619,1.619,0,0,1-1.488,1.333Z" transform="translate(-27.697 -37.001)" fill="#858585"/>
        <path id="Path_348" data-name="Path 348" d="M162.877,122.59a1.37,1.37,0,0,1,.085-2.734,1.59,1.59,0,0,1,1.415,1.41A1.62,1.62,0,0,1,162.877,122.59Z" transform="translate(-124.567 -92.361)" fill="#858585"/>
        <path id="Path_349" data-name="Path 349" d="M300.616,302.168a1.372,1.372,0,0,1-.03-2.738,1.371,1.371,0,1,1,.027,2.736Z" transform="translate(-230.671 -230.751)" fill="#858585"/>
        <path id="Path_350" data-name="Path 350" d="M29.456,119.823c1.255,0,2.511,0,3.766,0a1.407,1.407,0,1,1,0,2.743q-3.853.007-7.7,0c-1.021,0-1.544-.482-1.544-1.374s.53-1.362,1.548-1.367c1.312-.007,2.626,0,3.938,0Z" transform="translate(-18.473 -92.336)" fill="#858585"/>
      </g>
    </g>
  </g>
</svg>
