<svg xmlns="http://www.w3.org/2000/svg" xmlns:xlink="http://www.w3.org/1999/xlink" width="130" height="130" viewBox="0 0 130 130">
  <defs>
    <clipPath id="clip-Sprtswear">
      <rect width="130" height="130"/>
    </clipPath>
  </defs>
  <g id="Sprtswear" clip-path="url(#clip-Sprtswear)">
    <g id="Layer_1" data-name="Layer 1" transform="translate(21 21)">
      <g id="Group_40" data-name="Group 40" transform="translate(0 0)">
        <path id="Path_312" data-name="Path 312" d="M31.968-.008h.342c-.228.641.383.349.456.317A4.1,4.1,0,0,1,34.523.17C40.21.161,45.9.175,51.582.159a11.884,11.884,0,0,1,5.99,1.052c.123.313.463.326.691.5.091.262.333.128.5.189a.527.527,0,0,0,.516.335,5.73,5.73,0,0,0,1.536.856c.043.187.212.144.338.183l.164.144c.03.091.064.173.187.128.167.084.29.258.507.233l.691.452c.162.089.288.256.5.23a.517.517,0,0,0,.52.324c.034.2.2.144.326.167.023.1.066.169.187.139a2.279,2.279,0,0,0,1.02.559c.043.189.212.144.338.183a.926.926,0,0,0,.858.5c.13.3.436.342.691.452.162.089.288.256.5.233a.52.52,0,0,0,.52.324,5.117,5.117,0,0,0,1.531.867l.691.5c.094.262.333.128.5.189a.527.527,0,0,0,.516.335,5.19,5.19,0,0,0,1.524.842c.023.1.068.169.187.139a2.279,2.279,0,0,0,1.02.559c.123.313.463.326.691.5.094.26.338.119.5.189a.527.527,0,0,0,.516.335c.046.189.208.135.331.157.021.1.066.169.185.139a2.291,2.291,0,0,0,1.02.559l.691.454c.164.087.288.258.5.233a9.973,9.973,0,0,0,1.538,1.018c.023.094.059.167.178.116l.844.57c.173.242.329.509.68.513a4.249,4.249,0,0,0,1.522,1.522.863.863,0,0,0,.525.678c.128.2.253.392.381.586a.1.1,0,0,0,.11.084c.059.217.107.443.365.523a.558.558,0,0,0,.331.516,1.174,1.174,0,0,0,.356.7l.141.164c.082.162-.066.408.187.507.039.123-.023.3.171.342.132.34.262.68.395,1.02-.037.121.039.157.135.18a15.178,15.178,0,0,0,.577,2.136c.224.529-.155,1.209.452,1.609v14.17A2.722,2.722,0,0,1,85.331,41c-4.6-.03-9.207,0-13.81-.032-.685,0-.894.125-.89.86.032,7.131.021,14.264.021,21.395,0,.824-.014,1.647,0,2.471a1.391,1.391,0,0,1-.821,1.294,1.2,1.2,0,0,1-1.465-.253l-.322-.86q.01-10.559.018-21.118c.03-.037.1-.073,0-.107l.018.11a1.588,1.588,0,0,0-.618.755q-1.167,2.054-2.375,4.082a31.717,31.717,0,0,0-3.535,7.715,27.249,27.249,0,0,0-1.15,7.665c.068,4.774.018,9.552-.007,14.328,0,.507.167.6.627.6,2.1-.023,4.208-.043,6.309.009.675.016.778-.2.769-.805-.032-2.7-.011-5.4-.009-8.1a1.187,1.187,0,0,1,.833-1.31,1.383,1.383,0,0,1,1.531.634,1.773,1.773,0,0,1,.194,1.15c0,4.6-.014,9.209.016,13.817a2.65,2.65,0,0,1-.783,2.28H17.624c-.849-.431-.769-1.225-.769-1.983q0-21.841.016-43.683c0-.751-.189-.949-.947-.942-4.721.037-9.442.021-14.163.014-.413,0-.853.1-1.214-.219-.059-.046-.121-.091-.18-.135a1.075,1.075,0,0,1-.329-.974C.214,34.514-.35,29.36.389,24.235c.242-.121.167-.324.135-.516q.448-1.277.9-2.553a3.646,3.646,0,0,0,.634-1.2l.205-.326.812-1.209c.094-.24.44-.329.388-.655l.858-.876L5.505,15.71c.276-.235.554-.47.831-.7l.187-.13.513-.413a2.242,2.242,0,0,0,.863-.628,1.117,1.117,0,0,0,.694-.354l.16-.16a1.062,1.062,0,0,0,.68-.349l.856-.509,2.745-1.545.16-.16a1.078,1.078,0,0,0,.68-.349l.865-.516c.128-.018.278.007.331-.167l.856-.509c.135-.025.308.025.356-.176l.16-.16a2.425,2.425,0,0,0,1.036-.523l.16-.16a1.062,1.062,0,0,0,.68-.349l.856-.509c.126-.032.285,0,.335-.173.288-.171.573-.342.86-.511.135-.025.308.025.356-.176l.16-.16a1.059,1.059,0,0,0,.68-.347c.383-.014.568-.361.865-.518.128-.018.281.007.329-.167.285-.169.57-.338.856-.509.516-.288,1.034-.575,1.549-.86l.16-.16A1.059,1.059,0,0,0,26,3.417l.856-.509c.125-.032.285,0,.335-.173l.86-.511c.516-.288,1.034-.575,1.549-.86l.16-.16A20.145,20.145,0,0,1,31.87.353c.18-.034.454-.135.1-.363ZM19.424,44.769c.027-.041.1-.087-.016-.11l.032.11q-.01,17.285-.034,34.568c0,.541.228.573.653.57,2.106-.016,4.212-.03,6.316.007.6.011.755-.153.737-.748-.155-5.447.26-10.9-.258-16.343a30.527,30.527,0,0,0-.963-5.294,35.664,35.664,0,0,0-4.178-8.958,34.736,34.736,0,0,0-2.291-3.8ZM60.354,6a17.566,17.566,0,0,1,.021,1.96,3,3,0,0,0,.447,2.216,11.442,11.442,0,0,1,.678,1.041c1.23,2.122,2.437,4.258,3.678,6.373a38.382,38.382,0,0,1,4.187,9.285,38.1,38.1,0,0,1,1.262,10.841c-.014.625.192.732.764.73,4.009-.025,8.018-.014,12.028-.014,1.479,0,1.508,0,1.474-1.511-.087-3.813.3-7.642-.335-11.434a13.316,13.316,0,0,0-5.287-8.564,47.689,47.689,0,0,0-5.517-3.281c-4.431-2.54-8.84-5.12-13.257-7.685l-.144-.087c0,.046,0,.089,0,.135ZM29.268,16.214a9.585,9.585,0,0,1-1.109-2.469c-.025-.137-.03-.4-.31-.438s-.292.164-.388.333c-.981,1.725-1.956,3.452-2.964,5.162a35.716,35.716,0,0,0-4.043,8.776,28.677,28.677,0,0,0-1.07,6.428c-.057,1.536-.014,3.1.023,4.646a3.075,3.075,0,0,0,.445,1.584c1.036,1.727,2,3.5,3.035,5.23a39.48,39.48,0,0,0,2.252,3.749l.128.123c.078.648.548,1.12.753,1.711-.037.123.041.16.137.185a30.486,30.486,0,0,1,1.853,4.472,28.608,28.608,0,0,1,1.433,7.037c.043,1.232.214,2.469.217,3.71q.01,5.932,0,11.863A1.4,1.4,0,0,0,31.24,79.9q12.887,0,25.776,0c.379,0,.842.192.826-.554-.1-5.221.132-10.442-.126-15.66A.667.667,0,0,0,57.889,63a15.53,15.53,0,0,1,.525-3.557,27.275,27.275,0,0,1,2.243-6.978c1.928-3.92,4.253-7.617,6.41-11.409.374-.659,1-1.241,1-2.072A44.247,44.247,0,0,0,67.5,30.17a28.915,28.915,0,0,0-2.688-7.939c-1.527-2.912-3.227-5.732-4.847-8.593a.5.5,0,0,0-.443-.324c-.351-.009-.194.276-.249.427a16.955,16.955,0,0,1-9.162,9.472A16.1,16.1,0,0,1,41,24.358a14.448,14.448,0,0,1-6.711-2.779c-.922-.707-1.034-1.127-.317-2.019.488-.6,1.075-.584,1.94.016a13.031,13.031,0,0,0,7.407,2.448,18.857,18.857,0,0,0,2.179-.146A13.116,13.116,0,0,0,53.6,17.8a12.963,12.963,0,0,0,4.014-8.233c.062-.888.228-1.782.2-2.679-.066-2.453-1.529-4.1-3.977-4.128-6.914-.078-13.83-.034-20.744,0a3.758,3.758,0,0,0-3.227,2.462c-.5,1.212-.226,2.439-.274,3.66l.171.853a14.842,14.842,0,0,0,.465,2.314,15.923,15.923,0,0,0,2.031,4.1,1.259,1.259,0,0,1-.481,1.709,1.219,1.219,0,0,1-1.707-.42c-.23-.342-.454-.689-.682-1.031-.046-.059-.091-.116-.135-.176ZM26.959,5.882c-1.1.621-2.254,1.26-3.4,1.917-3.879,2.234-7.742,4.491-11.631,6.706-2.829,1.611-5.552,3.3-7.3,6.211a12.454,12.454,0,0,0-1.992,5.851c-.155,3.749-.034,7.51-.055,11.263,0,.481.128.612.612.612q6.531-.027,13.059,0c.5,0,.639-.146.6-.625a37.667,37.667,0,0,1-.034-3.8,28.13,28.13,0,0,1,.415-3.724,30.726,30.726,0,0,1,2.332-7.706c1.533-3.384,3.564-6.5,5.4-9.718,1.239-2.168,2.841-4.215,1.978-6.989ZM43.749,85.02H56.121c1.716,0,1.675,0,1.732-1.707.025-.719-.173-.874-.879-.872-8.5.027-17.009.018-25.513.018-1.807,0-1.773,0-1.816,1.791-.016.648.16.79.792.785,4.436-.03,8.874-.016,13.31-.016Zm-20.4-2.56H21.3c-1.93,0-1.912,0-1.894,1.962,0,.488.135.618.616.609,1.7-.027,3.409-.011,5.114-.011,2.065,0,2.051,0,1.976-2.049-.014-.408-.114-.534-.527-.523-1.079.027-2.159.009-3.238.009Zm40.893,2.56H66.2c1.93,0,1.91,0,1.894-1.962,0-.488-.137-.616-.616-.609-1.7.027-3.409.011-5.114.011-2.065,0-2.051,0-1.976,2.049.016.411.116.532.529.523,1.107-.027,2.216-.009,3.325-.009Z" transform="translate(0.004 0.01)" fill="#858585"/>
        <path id="Path_313" data-name="Path 313" d="M142.342,31.557a12.927,12.927,0,0,1-1.563-7.133,1.282,1.282,0,0,1,1.406-1.23c1.335-.014,2.672,0,4.007,0h16.03c1.168,0,1.577.55,1.634,1.556a12.769,12.769,0,0,1-2.289,8.007c-.043.046-.087.091-.13.135a2.327,2.327,0,0,0-.689.7c-.043.023-.084.048-.128.071l.121.141c-.947.486-1.522,1.476-2.542,1.862-.479-.379-.612-.08-.682.347a10.78,10.78,0,0,1-6.615,1.212,11.679,11.679,0,0,1-8.42-5.488c-.046-.059-.091-.121-.139-.18Zm16.867-.021c.333-.454.666-.906,1-1.36.454-.057.726-.205.342-.682.24-.924.523-1.841.7-2.777.107-.552.123-1.009-.8-1-5.417.062-10.834.03-16.251.032-.9,0-1.068.2-.826,1.091.258.949.566,1.883.853,2.825-.306.292-.068.317.169.342a1.224,1.224,0,0,1,.155.173,8.883,8.883,0,0,0,7.923,4.6,11.31,11.31,0,0,0,3.359-.742c.445.089.915.235.983-.468l1.543-1.18c.917.349.824-.315.853-.853Z" transform="translate(-108.634 -17.894)" fill="#858585"/>
      </g>
    </g>
  </g>
</svg>
