<svg xmlns="http://www.w3.org/2000/svg" xmlns:xlink="http://www.w3.org/1999/xlink" width="130" height="130" viewBox="0 0 130 130">
  <defs>
    <clipPath id="clip-Mobile_Accessories">
      <rect width="130" height="130"/>
    </clipPath>
  </defs>
  <g id="Mobile_Accessories" data-name="Mobile Accessories" clip-path="url(#clip-Mobile_Accessories)">
    <g id="Layer_1" data-name="Layer 1" transform="translate(30 24)">
      <path id="Path_380" data-name="Path 380" d="M68.03,16.775a4.118,4.118,0,0,1,1.388,3.264c.04,2.854.02,5.709.008,8.563,0,1.045-.59,1.739-1.372,1.639-.554-.07-.987-.3-.989-.983,0-2.935-.026-5.867-.038-8.8-.006-1.647-.57-2.206-2.239-2.206H47.261a1.438,1.438,0,0,0-1.649,1.613q0,9.165,0,18.328c0,1.069.437,1.559,1.514,1.563q9.123.024,18.247.006A1.744,1.744,0,0,0,67.023,37.9c.016-1.067,0-2.134.008-3.2a1.153,1.153,0,0,1,2.269-.4,12.166,12.166,0,0,1-.2,5.42A3.461,3.461,0,0,1,66.056,42.1a34.041,34.041,0,0,1-4,.056c-.518,0-.684.136-.676.668.03,1.813.01,3.629.012,5.442,0,1.4-.1,2.748-1.532,3.528-.225.122-.181.365-.183.574-.016,1.514.014,3.025-.124,4.539a31.338,31.338,0,0,1-1.464,7.36,24.862,24.862,0,0,1-4.206,7.57,27.067,27.067,0,0,1-10.6,8.058,28.427,28.427,0,0,1-6.473,1.779,58.072,58.072,0,0,1-5.923.315,26.3,26.3,0,0,1-2.9-.53c-.955-.281-1.924-.544-2.878-.812A21.9,21.9,0,0,1,20.5,78.764,18.093,18.093,0,0,1,16.712,76.2c-.836-.784-.913-1.228-.433-1.8.341-.409,1.224-.385,1.936.08a36.05,36.05,0,0,0,4.981,2.993,26.729,26.729,0,0,0,5.951,1.8,35.4,35.4,0,0,0,5.839.273c.624.014,1.28-.355,1.847-.381a12.772,12.772,0,0,0,2.144-.367,22,22,0,0,0,6.83-2.913,24.2,24.2,0,0,0,7.482-7.3,21.488,21.488,0,0,0,1.974-3.757c.038-.054.078-.108.116-.164a25.257,25.257,0,0,0,1.633-6.984c.134-1.581.289-3.151.275-4.74,0-.415-.052-.606-.544-.61-1.408-.012-1.39-.038-1.39,1.358A25.861,25.861,0,0,1,53.463,64.2,21.643,21.643,0,0,1,46.5,73.018a21.9,21.9,0,0,1-6.116,3.376,22.383,22.383,0,0,1-8.946,1.222,22.972,22.972,0,0,1-5.079-1.053,21.431,21.431,0,0,1-5.879-2.882,19.305,19.305,0,0,1-4.567-4.226,19.821,19.821,0,0,1-3.6-6.314,26.663,26.663,0,0,1-1.262-4.894,35.691,35.691,0,0,1-.1-5.073c.032-.616-.078-.9-.8-.852-1.111.072-1.1.018-1.137,1.133A27.1,27.1,0,0,0,10.1,62.9a23.334,23.334,0,0,0,3.358,6.515,12.877,12.877,0,0,1,.778,1.161,1.115,1.115,0,0,1-.359,1.575,1.056,1.056,0,0,1-1.53-.221,37.762,37.762,0,0,1-2.987-4.8,30.751,30.751,0,0,1-2.068-5.5,25.008,25.008,0,0,1-.6-3.853,52.141,52.141,0,0,1-.124-5.249.822.822,0,0,0-.409-.79,2.264,2.264,0,0,1-1.216-2.126c-.03-1.92-.034-3.841-.042-5.761-.006-1.587,0-1.595-1.555-1.585a3.313,3.313,0,0,1-2.321-.939,3.057,3.057,0,0,1-1.011-2.5c.038-6.8.02-13.606.02-20.41,0-.267,0-.534.012-.8.022-.584.124-1.1.877-1.131a1.266,1.266,0,0,1,1.488,1.065,6.61,6.61,0,0,1,.022.8V38.432c0,1.266.062,1.33,1.3,1.33H16.218c1.1,0,1.258-.156,1.258-1.246V3.7c0-.991-.315-1.306-1.32-1.308q-6.243,0-12.487,0c-1.111,0-1.236.118-1.236,1.206,0,2.694,0,5.39,0,8.084,0,.981-.309,1.338-1.167,1.436-.8.092-1.22-.273-1.222-1.1C.031,9.321.121,6.621,0,3.933A3.562,3.562,0,0,1,2.392-.008h15.05c.187.289.538.259.794.409A3.076,3.076,0,0,1,19.853,3c.012.187.026.371.026.558q0,17.553,0,35.1a3.407,3.407,0,0,1-2.62,3.51,10.137,10.137,0,0,1-2.058.108c-.114-.024-.16.018-.13.134-.008,1.974-.038,3.948-.014,5.919a7.313,7.313,0,0,1-.343,2.227c-.088.026-.162.062-.124.177-.319.461-.5,1.049-1.1,1.256-.259.09-.211.263-.211.437,0,1.28-.068,2.563.012,3.839a19.563,19.563,0,0,0,3.5,10.41,21.1,21.1,0,0,0,5.717,5.47c.4.261.574.865,1.179.812l.154.048a20.838,20.838,0,0,0,7.243,2.178,22.92,22.92,0,0,0,4.431-.07,18.287,18.287,0,0,0,5.207-1.372,19.943,19.943,0,0,0,4.724-2.9A19.873,19.873,0,0,0,49.305,66.8a26.531,26.531,0,0,0,1.775-3.081,16.742,16.742,0,0,0,1.4-4.65c0-.277.3-.5.16-.8a40.842,40.842,0,0,0,.189-5.713.848.848,0,0,0-.363-.848,2.839,2.839,0,0,1-1.258-2.63c.084-2.022-.018-4.052.046-6.076.024-.75-.223-.891-.891-.844a30.562,30.562,0,0,1-3.661.04,3.7,3.7,0,0,1-3.47-3.48c-.026-5.943-.012-11.887-.016-17.832,0-.293-.016-.586-.024-.879.042-.245.12-.507-.281-.505.032-.185.291-.114.327-.373a3.632,3.632,0,0,1,2.086-2.9c.333-.164.526-.329.457-.7-.283-1.53.457-2.712,1.3-3.867.078-.106.16-.154.249-.128.929.277.732-.4.732-.875,0-2.614-.036-5.227-.012-7.841A2.957,2.957,0,0,1,50.2.16c.108-.028.2-.042.223-.17H63.232c-.08.377.257.511.451.684a3.567,3.567,0,0,1,1.189,2.872c-.012,2.475.008,4.95-.014,7.426a1.013,1.013,0,0,0,.6,1.049,3.054,3.054,0,0,1,1.308,2.445.736.736,0,0,1-.008.239,1.467,1.467,0,0,0,1.1,1.944c.026.088.064.16.177.126ZM12.78,49.467c.263-.233.239-.4-.112-.487-.008-2.076-.028-4.154-.016-6.23,0-.439-.1-.6-.568-.592-1.41.03-2.822.022-4.234,0-.4-.006-.562.1-.558.536.02,2.156.012,4.315.006,6.471,0,.483.166.708.7.694,1.3-.032,2.61,0,3.915-.02.317-.006.714.06.869-.373Zm40.871-7.051c-.008,2.239-.006,4.477-.032,6.714-.006.534.241.718.718.718q1.959,0,3.917,0a.661.661,0,0,0,.738-.742c0-2.158,0-4.319,0-6.477,0-.277-.05-.473-.383-.461-1.643.054-3.29-.116-4.928.092-.01.052-.022.1-.032.156ZM56.368,7.3c1.837,0,3.673-.012,5.51.008.441.006.608-.106.6-.576-.032-1.091,0-2.182-.014-3.274-.008-.81-.267-1.065-1.1-1.067-3.3-.006-6.6.008-9.9-.01-.7,0-1.013.285-1.009.969.006,1.039.04,2.078-.012,3.113-.032.644.128.873.816.85,1.7-.052,3.406-.016,5.111-.016ZM56.2,15.848c2.505,0,5.011,0,7.516-.008.209,0,.487.152.626-.16a1.278,1.278,0,0,0-1.264-1.914H49.405a2.247,2.247,0,0,0-.558.008c-.971.261-.614,1.071-.662,1.7-.052.656.481.359.738.361,2.425.024,4.85.014,7.275.014ZM56.422,9.7c-1.809,0-3.621.03-5.43-.014-.9-.022-.5.6-.564.981-.07.421-.048.718.578.712q5.431-.054,10.862,0c.828.008.524-.526.55-.9.028-.389.173-.824-.566-.8-1.809.058-3.621.018-5.43.018Z" transform="translate(0.006 0.01)" fill="#858585"/>
    </g>
  </g>
</svg>
