<svg xmlns="http://www.w3.org/2000/svg" xmlns:xlink="http://www.w3.org/1999/xlink" width="130" height="130" viewBox="0 0 130 130">
  <defs>
    <clipPath id="clip-Car_Services">
      <rect width="130" height="130"/>
    </clipPath>
  </defs>
  <g id="Car_Services" data-name="Car Services" clip-path="url(#clip-Car_Services)">
    <g id="Layer_1" data-name="Layer 1" transform="translate(12 36)">
      <g id="Group_44" data-name="Group 44" transform="translate(0 0)">
        <path id="Path_326" data-name="Path 326" d="M104.7,45.4a5.17,5.17,0,0,1-4.492,1.726c-3.031-.115-6.071-.041-9.106-.016-.266,0-.841-.342-.769.4-.068.342-.138.687-.206,1.029A11.44,11.44,0,0,1,85.5,55.268,11.58,11.58,0,0,1,77.5,57.551a12.111,12.111,0,0,1-10.6-9.524c-.163-.75-.456-.955-1.2-.946-4.113.037-8.224.016-12.336.016-1.072,0-1.723-.559-1.734-1.493-.012-.973.649-1.585,1.777-1.589,4.078-.008,8.156-.021,12.233.01.81.006,1.375-.082,1.212-1.082a.249.249,0,0,1,0-.1c.1-.48.627-1.049.328-1.387-.332-.375-1.039-.126-1.579-.126q-15.728-.012-31.458-.006H32.966c.14.449.264.853.39,1.258-.159.449.256.8.208,1.231.014.309.219.19.379.169q5.551.015,11.1.031a3.421,3.421,0,0,1,1.278.194c.691.266,1.194.691,1.082,1.431-.124.821-.5,1.48-1.554,1.472-3.8-.029-7.609-.019-11.413,0-.369,0-.6-.169-.823.629-.746,2.725-1.942,5.377-4.315,7.131a11.851,11.851,0,0,1-4.412,2.344,6.22,6.22,0,0,0-1.86.357A11.91,11.91,0,0,1,13.8,54.518a11.385,11.385,0,0,1-3.7-6.37c-.163-.771-.4-1.115-1.26-1.076-1.606.074-3.218-.008-4.826.029A3.744,3.744,0,0,1,.225,44.711c-.056-.122-.054-.264-.225-.285v-3.5c.563-.687.792-1.635,1.645-2.092.4-.08.4-.381.4-.7Q2.02,33.056,2,27.973l.025-1.029a23.568,23.568,0,0,1,1.418-8.582,5.623,5.623,0,0,0,.418-.891l.476-1.216A2.718,2.718,0,0,0,4.96,15.02q.3-.51.6-1.023a1.385,1.385,0,0,0,.433-.829l.6-1.025a1.377,1.377,0,0,0,.431-.827c.2-.342.4-.684.6-1.025a1.383,1.383,0,0,0,.431-.827,2.68,2.68,0,0,0,.618-1.233c.348-.173.433-.52.559-.839l1.893-3.057A11.177,11.177,0,0,0,12.778,2.68c.064-.064.128-.128.192-.19l1.245-.837a2.838,2.838,0,0,0,1.237-.616l1.21-.458c.612.122,1.084-.326,1.645-.41C24.291-.211,30.282.1,36.271.006a5.514,5.514,0,0,1,.959.15l.8.674q.034.612.07,1.227l-.868.872a2.692,2.692,0,0,1-1.282.157q-7.381.019-14.761.035c-.418,0-.839,0-1.258,0-.315-.124-.505.243-.8.2-.249-.159-.534-.427-.8-.138-.406.449-1.023.425-1.468.755-.505-.118-.643.462-1.041.55-.262-.033-.406.186-.608.282-.15-.058-.192.043-.227.155-.371.32-1.062.674-.922,1.049.171.46.882.13,1.359.159a5.693,5.693,0,0,1,1.851.449,2.9,2.9,0,0,1,1.27,2.259l-1.293,4.311a4.585,4.585,0,0,0-.6,1.839q-.516,1.549-1.035,3.1c-.183.305-.369.61-.553.915l-.049.276a12.771,12.771,0,0,1-3.5,2.765c-.431-.095-.691.252-1.029.4l-1.029.008c-1.082.016-2.167.068-3.249.037-.728-.021-1.012.231-.831.948-.072.41-.388.781-.206,1.235,0,.342,0,.684,0,1.029-.181.7.072.973.783.788H7.817a11.242,11.242,0,0,1,2.051.666L11.153,28.8c.066.48.13.961.2,1.439a5.3,5.3,0,0,1-.831,3.546A4.081,4.081,0,0,1,7.11,35.387c-2.012-.033-2.012-.008-1.981,2.02a1.72,1.72,0,0,1,0,.206c-.07.495.14.641.633.633,2.053-.033,4.107-.027,6.16-.037.361.113.487-.01.373-.373.884-.256,1.311-1.049,1.921-1.627l.6-.454,2.066-1.175a8.95,8.95,0,0,0,2.047-.682,14.988,14.988,0,0,1,7.405.614l2.462,1.3c.808.763,1.627,1.517,2.422,2.295.243.237.509.146.767.146q18.044,0,36.09,0a1.946,1.946,0,0,0,1.674-.722,10.338,10.338,0,0,1,6.473-3.688,12,12,0,0,1,7.568,1.029,13.642,13.642,0,0,1,3.9,2.954,1.305,1.305,0,0,0,1.086.418c3.461-.012,6.923-.025,10.384.008.654.006.835-.194.788-.814-.064-.847.264-1.948-.157-2.484-.451-.575-1.6-.095-2.443-.194a9.735,9.735,0,0,1-4.787-1.688.575.575,0,0,0-.649-.569,7.673,7.673,0,0,1-2.6-4.267,4.572,4.572,0,0,1,2.163-4.226c.324-.159.627-.363.936-.548.023-.014.025-.062.037-.1a18.289,18.289,0,0,0-6.7-.831q-30.219-.028-60.435-.01c-2.175,0-2.942-.536-3.577-2.3a3.141,3.141,0,0,1-.047-1.177c-.033-2.911-.027-5.824-.014-8.735,0-.738.072-1.476.111-2.214L22.628,7c.41-.221.728-.612,1.231-.658.381-.243.829-.122,1.235-.225,2.7.012,5.4.035,8.106.037q12.676.006,25.353-.008c.307,0,.689.212.932-.179l.229-.132-.278-.07a7.1,7.1,0,0,0-2.047-1.41l-.47-.289-.043-.186c-.016.06-.033.12-.049.181A5.258,5.258,0,0,0,54.3,3.333h-.41c-.474-.1-.992.082-1.441-.206L43.2,3.071c-.043-.254-.26-.167-.41-.206a1.777,1.777,0,0,1,0-2.626c.153-.039.367.045.41-.208,3.22-.008,6.442-.041,9.663,0a21.141,21.141,0,0,1,2.672.359l1.435.256c.045.252.258.169.41.208a21.481,21.481,0,0,1,3.3,1.806Q61.7,3.6,62.723,4.539c.239.763.9,1.163,1.441,1.664a1.4,1.4,0,0,0,.608.6c.243.763.911,1.159,1.449,1.664l.408.39c.239.763.9,1.163,1.443,1.666a1.407,1.407,0,0,0,.606.6c.243.763.911,1.157,1.449,1.666l.408.39c.239.765.9,1.161,1.443,1.666l.606.6c.177.689.775,1.018,1.245,1.455a1.422,1.422,0,0,0,.612.6c.169.777.827,1.119,1.418,1.46.433.249.825.874,1.476.4,2.874.025,5.748.066,8.619.068a28.369,28.369,0,0,1,4.75.295l2.255.464c.068.247.247.19.418.153.93.489,1.851,1,2.793,1.462.783.383,1.288,1.154,2.115,1.466.031.418.342.612.651.808a10.7,10.7,0,0,0,1.425,1.67c.021.161-.043.363.21.4.245.315.27.765.618,1.016-.1.225-.252.47.206.416a2.443,2.443,0,0,0,.614,1.239c.08.34.163.678.243,1.018.138.48.274.961.412,1.439-.163.449.256.8.206,1.235.2,1.893.136,3.791.155,5.688,0,.157.027.408.124.458,1,.515,1.453,1.524,2.148,2.309,0,.128-.01.254-.014.381a13.443,13.443,0,0,1-.441,3.921c-.049.049-.1.1-.148.146ZM9.84,43.81A12.982,12.982,0,0,1,10.366,42c.27-.608.066-.7-.487-.693-1.643.019-3.286.006-4.929.006-2.02,0-2,0-1.87,1.973.035.515.2.732.736.724,1.95-.029,3.9-.027,5.851-.037.148.039.2-.021.171-.167ZM35.418,9.244c-3.29,0-6.581.016-9.869-.014-.631-.006-.816.173-.808.8q.046,4.317,0,8.634c0,.579.169.769.757.767q9.871-.025,19.74,0c.647,0,.8-.21.8-.825-.029-2.843-.033-5.688,0-8.531.008-.672-.169-.864-.851-.856-3.255.037-6.51.016-9.766.016Zm36.345,10.05c-1.575-1.74-3.148-3.468-4.709-5.205-1.018-1.134-1.967-2.334-3.045-3.406-.565-.563-.917-1.453-1.969-1.447q-6.117.037-12.231,0c-.612,0-.722.2-.715.761.027,2.843.052,5.688-.012,8.529-.019.837.285.924.994.922,6.921-.023,13.841-.012,20.762-.019.295,0,.612.105.926-.128Zm6.719,17.523c-4.424-.394-9.164,3.89-8.762,9.372A8.862,8.862,0,0,0,87.427,45.6a8.694,8.694,0,0,0-8.945-8.778Zm-65.533,8.7a8.8,8.8,0,0,0,8.679,8.953c4.315-.014,9.566-3.266,8.929-10.326a7.84,7.84,0,0,0-2.517-4.871A9.305,9.305,0,0,0,20.756,36.8c-3.822.216-8.042,4.03-7.805,8.725ZM15.221,9.246c-1.06,0-2.076,0-3.094,0a.622.622,0,0,0-.579.342c-1.509,2.73-3.088,5.424-4.488,8.209-.872,1.736-.75,1.806,1.291,1.746a4.608,4.608,0,0,0,4.544-3.02c.87-2.354,1.54-4.783,2.325-7.273ZM89.773,41.32a12.833,12.833,0,0,1,.52,2.325c-.014.46.3.361.552.361,3.459,0,6.917,0,10.376,0,.924,0,.994-.639,1-1.3.006-.707-.062-1.389-1.037-1.387q-5.7.006-11.411,0Zm9.762-9.665a11.488,11.488,0,0,0-1.855-4.327c-.243-.373-.47-.938-.957-.938a10.426,10.426,0,0,0-3.249.13c-.915.289-1.183.761-.913,1.666a5.534,5.534,0,0,0,2.422,2.723c1.359,1.008,2.938.773,4.554.746Zm-93.187.433q1.87,0,1.878-1.095.01-1.375-1.412-1.375H5.379c-.2,0-.437-.029-.439.272A5.692,5.692,0,0,0,5,31.915c.175.443.936.066,1.342.171Z" transform="translate(0 0.026)" fill="#858585"/>
        <path id="Path_327" data-name="Path 327" d="M358.195,204.422a5.892,5.892,0,0,1-5.886-5.824,5.928,5.928,0,1,1,5.886,5.826Zm-.085-3.084a2.793,2.793,0,1,0,.087-5.574,2.956,2.956,0,0,0-2.828,2.664C355.335,199.745,356.824,201.627,358.11,201.338Z" transform="translate(-279.678 -152.97)" fill="#858585"/>
        <path id="Path_328" data-name="Path 328" d="M82.718,204.38a5.867,5.867,0,1,1,5.991-5.828A5.809,5.809,0,0,1,82.718,204.38Zm.049-3.084a2.781,2.781,0,1,0-.076-5.554,2.63,2.63,0,0,0-2.725,2.812,2.7,2.7,0,0,0,2.8,2.742Z" transform="translate(-61.039 -152.932)" fill="#858585"/>
      </g>
    </g>
  </g>
</svg>
