<svg xmlns="http://www.w3.org/2000/svg" xmlns:xlink="http://www.w3.org/1999/xlink" width="130" height="130" viewBox="0 0 130 130">
  <defs>
    <clipPath id="clip-ATMs">
      <rect width="130" height="130"/>
    </clipPath>
  </defs>
  <g id="ATMs" clip-path="url(#clip-ATMs)">
    <g id="Layer_1" data-name="Layer 1" transform="translate(26.001 26.997)">
      <g id="Group_29" data-name="Group 29" transform="translate(0 0.003)">
        <path id="Path_144" data-name="Path 144" d="M0,74.577a1.561,1.561,0,0,1,1.509-.745c4.477.018,8.954,0,13.429.024.588,0,.7-.163.7-.717q-.021-26.751,0-53.5c0-.527-.116-.743-.659-.659a2.206,2.206,0,0,1-1.845-.635L13,18.219a2.571,2.571,0,0,1-.649-1.85c.024-4.626.047-9.254-.01-13.88A2.337,2.337,0,0,1,14.729.021c.788-.027,1.576-.02,2.364,0A1.185,1.185,0,0,1,18.324,1.06,1.131,1.131,0,0,1,17.062,2.3c-.661.016-1.323.018-1.982,0-.335-.01-.431.1-.429.433q.028,6.9.031,13.8c-.02.108.016.157.131.122.253.008.508.02.761.02q23.554,0,47.107.018c.719,0,.859-.2.853-.878q-.046-6.375,0-12.753c.006-.651-.174-.776-.794-.776q-19.926.028-39.853.014c-1.072,0-1.721-.778-1.358-1.633a1.083,1.083,0,0,1,.935-.643,4.672,4.672,0,0,1,.61-.014q19.965,0,39.931,0a2.669,2.669,0,0,1,2.4,1.109,3.708,3.708,0,0,1,.38,2.1c.045,4.352.031,8.707.018,13.059a2.441,2.441,0,0,1-2.674,2.682c-.668-.01-.576.343-.576.749q0,21.5,0,43a13.736,13.736,0,0,1-.108,1.662,1.09,1.09,0,0,1-1.676.7l-.161-.112a1.145,1.145,0,0,1-.335-1.39c.1-.233,0-.551,0-.831q0-21.457.014-42.915c0-.692-.165-.872-.866-.872q-20.345.034-40.69,0c-.666,0-.835.147-.833.827q.031,26.613,0,53.225c0,.735.229.851.89.851q20.308-.028,40.615,0c.67,0,.935-.122.89-.857-.069-1.141-.031-2.291-.014-3.436.012-.861.372-1.264,1.06-1.258a1.247,1.247,0,0,1,1.217,1.251c.033,1.2.043,2.395,0,3.589-.022.57.131.715.706.71,4.428-.027,8.856-.014,13.284-.016a1.46,1.46,0,0,1,1.188.349.993.993,0,0,1,.374,1.039,1.133,1.133,0,0,1-.976.888,4.109,4.109,0,0,1-.761.016q-37.065,0-74.129,0a6.226,6.226,0,0,1-1.647-.112c-.312-.084-.359-.386-.582-.525v-.917Z" transform="translate(0 -0.003)" fill="#858585"/>
        <path id="Path_145" data-name="Path 145" d="M126.611,245.626c-4.757,0-9.513-.039-14.268.022-1.486.018-2.276-.6-2.264-2.3.049-6.639.02-13.28.02-19.921a1.687,1.687,0,0,1,1.8-1.8c1.272-.018,2.544-.006,3.815-.006q12.475,0,24.951-.012a8.416,8.416,0,0,1,1.48.2,1.394,1.394,0,0,1,1.035,1.155,4.586,4.586,0,0,1,.106,1.123c.006,6.386,0,12.771.01,19.157a2.11,2.11,0,0,1-2.344,2.409c-4.781-.076-9.562-.027-14.343-.027Zm8.625-21.564c.027-.125-.037-.147-.141-.125H118.3c-.1-.024-.167,0-.141.125-.01.786,0,1.574-.041,2.358-.029.492.11.657.625.643,1.294-.037,2.589-.012,3.883-.012,3.985,0,7.97-.012,11.955.014.582,0,.745-.157.7-.721-.057-.757-.033-1.521-.043-2.28Zm-8.586,19.273c4.552,0,9.1-.012,13.657.014.584,0,.723-.157.708-.723-.039-1.627-.014-3.256-.014-4.883,0-4.375-.01-8.752.014-13.127,0-.565-.127-.759-.71-.715a18.152,18.152,0,0,1-2.211,0c-.447-.022-.557.135-.545.561.029.992.022,1.984.006,2.976a1.836,1.836,0,0,1-1.882,1.894c-.915.018-1.831,0-2.746,0q-7.515,0-15.031,0c-1.458,0-2.037-.506-2.058-1.89-.012-.917-.061-1.837.016-2.746.059-.719-.212-.859-.847-.806a11.633,11.633,0,0,1-1.9,0c-.561-.045-.727.112-.725.7q.037,9.006,0,18.012c0,.635.206.735.772.731,4.5-.02,9-.012,13.5-.012Z" transform="translate(-87.607 -176.37)" fill="#858585"/>
        <path id="Path_146" data-name="Path 146" d="M126.494,133.566q-7.365,0-14.729,0a1.726,1.726,0,0,1-1.641-1.662c-.014-4.912.022-9.821,0-14.733a1.828,1.828,0,0,1,1.976-1.886c6.31.027,12.618.012,18.928.012,3.383,0,6.767.027,10.15-.012a1.948,1.948,0,0,1,2.152,2.117c0,4.632.008,9.264-.008,13.894-.006,1.58-.741,2.272-2.323,2.274h-14.5v-.01Zm.223-7.051c4.5,0,9-.01,13.508.012.592,0,.839-.086.827-.768-.045-2.519-.033-5.038,0-7.557.006-.523-.165-.621-.647-.621q-13.66.021-27.321,0c-.539,0-.676.147-.67.676.029,2.519.033,5.038,0,7.557-.008.584.161.717.725.712,4.528-.022,9.056-.012,13.584-.012Zm-.065,4.771h12.6c1.684,0,1.654,0,1.7-1.7.016-.623-.127-.8-.78-.8q-13.054.037-26.108.016c-1.686,0-1.641,0-1.7,1.678-.027.727.235.817.861.815,4.479-.025,8.958-.012,13.435-.012Z" transform="translate(-87.639 -91.754)" fill="#858585"/>
        <path id="Path_147" data-name="Path 147" d="M212.919,25.917c.421-1.507.825-3.017,1.266-4.516.316-1.078.6-1.268,1.754-1.121.768.1.886.694,1,1.368.331,1.948.751,3.879,1.127,5.816.137.7.294,1.409.37,2.121a1.145,1.145,0,0,1-.941,1.376c-.747.067-1.213-.367-1.341-1.176-.18-1.117-.4-2.225-.6-3.338-.018-.1-.018-.218-.155-.2-.208.018-.267.167-.316.359-.243.927-.482,1.856-.768,2.77-.4,1.292-.553,1.57-1.664,1.623-.8.037-.982-.5-1.143-.984-.451-1.364-.815-2.756-1.237-4.222a9.127,9.127,0,0,0-.514,2.107c-.167.7-.2,1.423-.331,2.131a1.166,1.166,0,0,1-1.349.923,1.076,1.076,0,0,1-.937-1.155,19.335,19.335,0,0,1,.5-3.154c.261-1.776.715-3.522,1.015-5.293.108-.639.339-1,.988-1.078.741-.084,1.372.061,1.621.857.427,1.36.827,2.725,1.217,4.1a1.657,1.657,0,0,0,.192.4,1.214,1.214,0,0,0,.059.412c.031.061.18.024.186-.114Z" transform="translate(-164.851 -16.106)" fill="#858585"/>
        <path id="Path_148" data-name="Path 148" d="M128.793,30.09a.808.808,0,0,1-.71.939c-.59.1-1.194.084-1.456-.7-.443-1.321-.472-1.313-1.827-1.313a5.154,5.154,0,0,1-1.066-.012c-.955-.2-1.4.265-1.682,1.1-.3.88-.927,1.188-1.652.9-.61-.245-.761-.894-.451-1.709,1.019-2.664,2.013-5.336,3.034-8,.176-.457.376-.947,1.006-.951.653,0,1.288-.057,1.59.764.837,2.278,1.723,4.54,2.584,6.808a5.951,5.951,0,0,1,.627,2.17Zm-4.418-5.757a12.423,12.423,0,0,0-.892,2.258h1.735C124.949,25.871,124.692,25.183,124.375,24.333Z" transform="translate(-95.338 -16.191)" fill="#858585"/>
        <path id="Path_149" data-name="Path 149" d="M170.84,25.725c0-1.094-.035-2.188.014-3.281.024-.559-.163-.688-.68-.651-.59.043-1.219.145-1.6-.539-.367-.659-.031-1.684.7-1.7a26.54,26.54,0,0,1,5.3.106.907.907,0,0,1,.839,1.106,1.075,1.075,0,0,1-1.143,1.039c-1.133-.012-1.133.01-1.133,1.149,0,1.984.008,3.969,0,5.951-.006.982-.41,1.445-1.213,1.445-.741,0-1.057-.312-1.068-1.119C170.829,28.064,170.842,26.895,170.84,25.725Z" transform="translate(-134.042 -15.5)" fill="#858585"/>
        <path id="Path_150" data-name="Path 150" d="M138.267,285.141c0-.763.02-1.527-.006-2.288a1.2,1.2,0,0,1,1.1-1.358,19.176,19.176,0,0,1,4.677.043,1.349,1.349,0,0,1,1.2,1.468c.037,1.474.033,2.952,0,4.426a1.5,1.5,0,0,1-1.537,1.509c-1.323.025-2.646.031-3.967,0-1.035-.027-1.445-.474-1.468-1.507-.016-.763,0-1.527,0-2.29h0Zm2.319-1.3c-.01.784,0,1.57-.039,2.354-.016.37.114.557.467.453.639-.188,1.433.451,1.943-.369.022-.037,0-.1,0-.151,0-.633-.027-1.268.008-1.9.027-.455-.161-.561-.572-.537-.555.035-1.113.02-1.67.029-.106-.031-.165,0-.143.12Z" transform="translate(-110.034 -223.932)" fill="#858585"/>
        <path id="Path_151" data-name="Path 151" d="M241.3,296.606v-1.37c0-.59.169-1.015.861-1.066s1.258.165,1.358.862a11.4,11.4,0,0,1,0,3.185,1.187,1.187,0,0,1-1.3.994,1.06,1.06,0,0,1-.925-1.235c.018-.455,0-.913,0-1.37Z" transform="translate(-192.033 -234.111)" fill="#858585"/>
        <path id="Path_152" data-name="Path 152" d="M221.583,294.476c.312-.633.919-.521,1.384-.4a1.086,1.086,0,0,1,.761,1.094c.006.861.02,1.725,0,2.587a1.3,1.3,0,0,1-1.386,1.251c-.478.012-.888-.535-.892-1.249-.006-1.039.016-2.078.027-3.117.037-.055.073-.11.108-.165Z" transform="translate(-176.238 -233.968)" fill="#858585"/>
      </g>
    </g>
  </g>
</svg>
