<svg xmlns="http://www.w3.org/2000/svg" xmlns:xlink="http://www.w3.org/1999/xlink" width="130" height="130" viewBox="0 0 130 130">
  <defs>
    <clipPath id="clip-_24_hour_on_site_security">
      <rect width="130" height="130"/>
    </clipPath>
  </defs>
  <g id="_24_hour_on_site_security" data-name="24 hour on site security" clip-path="url(#clip-_24_hour_on_site_security)">
    <g id="Layer_1" data-name="Layer 1" transform="translate(23.963 22.03)">
      <g id="Group_38" data-name="Group 38" transform="translate(0.037 -0.03)">
        <g id="Group_36" data-name="Group 36">
          <path id="Path_178" data-name="Path 178" d="M66.054,82.57c-.112.318-.222.634-.334.952a1.09,1.09,0,0,0-.372.708c-.278.24-.553.479-.831.716-.2-.007-.266.148-.34.287a6.166,6.166,0,0,1-3.358.522q-28.433-.01-56.865-.013A3.893,3.893,0,0,1,.188,81.983c-.022-2.12-.016-4.243-.011-6.365,0-1,.3-1.39,1.066-1.422a1.427,1.427,0,0,1,1.442,1.52c.016,1.843.083,3.69-.022,5.526a1.747,1.747,0,0,0,2.031,2.02,33.906,33.906,0,0,1,3.934-.011c.519.016.649-.125.645-.643-.027-3.1-.013-6.2-.011-9.3,0-1.034.365-1.48,1.187-1.467s1.323.575,1.325,1.534c0,3.043.018,6.086-.011,9.128,0,.571.116.75.721.746,4.773-.027,9.547-.016,14.32-.013.392,0,.674.058.734-.551.134-1.368.441-2.72.64-4.084.331-2.257.549-4.529.969-6.777.271-1.442.376-2.917.515-4.382.025-.257.15-.466.186-.708a4.6,4.6,0,0,0-1.558-2.729c-.242-.105-.36.094-.528.146a2.8,2.8,0,0,1-3.553-1.207c-1.76-2.492-3.549-4.966-5.288-7.471-.513-.739-1.178-.289-1.621-.163-1.278.36-2.622.363-3.873.811-.287.011-.6-.166-.844.121-.318.06-.634.134-.954.181-1.39.2-1.379.193-.795,1.346a3.7,3.7,0,0,1,.069,3.37,9.615,9.615,0,0,1-2.629,3.336,3.632,3.632,0,0,1-4.292.528c-.257-.139-.531-.244-.855-.392a18.751,18.751,0,0,0-.589,4.769c0,1.034-.293,1.408-1.133,1.453a1.232,1.232,0,0,1-1.366-1.37,17.231,17.231,0,0,1,1.308-7.279,14.347,14.347,0,0,1,9.18-8.168c.307-.1.6-.038.891-.13.24-.217.627-.009.844-.289a4.639,4.639,0,0,0,1.843-.336c.269-.11.611.15.837-.168a19.1,19.1,0,0,0,3.685-.669c.269-.11.611.15.837-.168a31.961,31.961,0,0,1,4.1-.378c.636.034.7-.7.743-1.18.069-.746.009-1.5.016-2.257a.551.551,0,0,0-.284-.542,14.739,14.739,0,0,1-4.413-4.368c-.045-.058-.09-.114-.137-.172a15.628,15.628,0,0,1-1.923-5.188,1.576,1.576,0,0,0-1.321-1.511A3.53,3.53,0,0,1,13.7,33.14c-.038-1.187-.018-2.376-.025-3.56a2.818,2.818,0,0,1,.972-2.091,1.357,1.357,0,0,0,.472-1.16q-.04-2.68,0-5.36a.859.859,0,0,0-.575-.925,8.566,8.566,0,0,1-3.97-3.663,5.154,5.154,0,0,1,.271-5.006,15.386,15.386,0,0,1,4.843-5.418c.416-.3.8-.663,1.225-.958.065-.045.132-.087.2-.132a31.251,31.251,0,0,1,9.1-4.008,36.926,36.926,0,0,1,4.14-.741c.06-.009.11-.1.163-.148h.669c.168.271.336.2.5,0h4.021c1.285.546,2.7.455,4.021.811.558.168,1.117.336,1.675.5l1.675.493c.161.083.282.262.5.219a1.919,1.919,0,0,0,1,.343c.394.206.788.414,1.18.62a2.233,2.233,0,0,0,.831.383,2.385,2.385,0,0,0,1.005.5.507.507,0,0,0,.5.334c.058.051.114.105.172.157l1.838,1.182.159.154a4.171,4.171,0,0,0,1.182.846c.056.058.11.116.166.172a3.29,3.29,0,0,0,.84.831,1.165,1.165,0,0,0,.5.493,4.787,4.787,0,0,0,1.005,1.023c.056.056.11.114.166.17,0,.338.26.486.486.656.074.4.412.649.582.994.143.282.287.564.43.844.134.334.266.665.4,1-.172.32.15.549.15.837a5.682,5.682,0,0,1-.542,3.011c-.152.224-.3.45-.455.674-.224.439-.793.611-.882,1.153-.428.036-.6.392-.84.665-.7.264-1.236.833-1.952,1.086-.217.076-.228.349-.226.582q.024,3.2.038,6.4c-.034.119.038.154.132.177l0,0,.676.844a.345.345,0,0,0,.04.154l.434.851c.175,1.444.063,2.895.094,4.344-.067.168-.132.336-.2.5l-.04.475a5.351,5.351,0,0,1-2.669,2.389l-.17.009c-.6-.063-.88.2-.808.813l-.168,1.005c0,.289-.322.519-.15.837-.081.161-.3.271-.186.5-.072.161-.278.284-.143.5l-.231.331c-.195.056-.15.2-.125.338,0,.056,0,.112,0,.17-.228.461-.455.922-.683,1.386L46.4,44.019l-1.323,1.516-.835.826a1.28,1.28,0,0,0-.5.5l-.329.219c-.125-.038-.159.049-.195.137l-.311.318a.481.481,0,0,0-.5.338c-.36.134-.58.338-.5.777.157.913-.307,1.9.32,2.758.087.522.352.714.858.468h1.173c.291,0,.517.313.837.168l1.843.336.837.168q1.844.336,3.685.669l.837.168A20.686,20.686,0,0,1,58.8,55.261c.025.1.069.166.188.137a20.352,20.352,0,0,1,2.843,2.221l.5.5a12.992,12.992,0,0,1,2.046,3c-.036.121.038.157.134.177.26.15.04.54.334.674.235.609.468,1.218.7,1.827a19.378,19.378,0,0,1,.618,3.193c.02.275.043.553.063.828q0,7.036,0,14.072a.646.646,0,0,0-.177.669ZM17.8,23.922l-.139-.119-.02.134c-.007.752-.011,1.5-.022,2.255,0,.266.038.477.336.587,1.5.558,1.5.564,1.5-1.052,0-.195-.011-.39,0-.584a.488.488,0,0,0-.3-.528c-.457-.224-.907-.461-1.359-.692Zm30.943,2.521V23.936c.034-.125-.018-.17-.139-.146a14.923,14.923,0,0,1-1.39.755.692.692,0,0,0-.459.75c-.045,1.937-.054,1.937,1.767,1.31a.512.512,0,0,1,.081-.016c.121.025.172-.02.139-.143ZM59.321,58.75l-.195-.139c-.318-.289-.768-.593-1.075-.246a1.442,1.442,0,0,0-.472,1.6,11.61,11.61,0,0,0,1.545,2.1,1.767,1.767,0,0,0,2.353.517c.524-.311.647-.62.251-1.146a15.2,15.2,0,0,0-2.409-2.689ZM27.293,54.59c.036.087.069.177.195.134q2.552,1.931,5.107,3.862a.726.726,0,0,0,1.037.02c1.876-1.478,3.782-2.915,5.7-4.341,1.021-.761,1.041-.734.546-1.771-.056-.119-.1-.246-.154-.367a5.932,5.932,0,0,1-.336-2.669,15.866,15.866,0,0,1-6.921,1.39,10.533,10.533,0,0,1-4.561-.934c-.728-.334-1.193-.011-1.041.793a2.573,2.573,0,0,1-.4,1.623c-.105.246-.208.495-.311.741-.448.347-.448.372,0,.645l.484.376c.029.09.063.17.184.125.159.123.318.244.475.367ZM39.73,3.476a1.587,1.587,0,0,0-.844-.289,24.814,24.814,0,0,0-2.864-.5,29.416,29.416,0,0,0-3.7-.148,28.317,28.317,0,0,0-5.159.66c-.224-.132-.338.092-.5.157a27.89,27.89,0,0,0-9.381,4.523c-.2,0-.264.15-.343.289l-.318.181c-.04-.04-.081-.081-.119-.121-.007.04-.011.083-.018.123-.128.161-.255.325-.381.486a1.257,1.257,0,0,0-.5.5l-.5.5a1.519,1.519,0,0,0-.631.69c-.067.107-.137.213-.2.32a.566.566,0,0,0-.336.336c-.163.381-.634.553-.681,1.012a1.016,1.016,0,0,0-.334.672c-.262.1-.1.338-.172.5-.195.06-.15.2-.121.343-.275,1.384.513,2.25,1.473,3.034a.513.513,0,0,0,.5.338c.081.146.17.316.354.293.246-.029.157-.255.159-.4.011-.781-.045-1.567.022-2.342a3.122,3.122,0,0,1,1.621-2.646,19.279,19.279,0,0,1,5.129-1.511c1.722-.374,3.464-.575,5.19-.9A30,30,0,0,1,32.66,9.23c2.19,0,4.377.278,6.567.434l.493.058c.179.273.457.076.681.141.112.255.32.148.5.134.618.094,1.24.161,1.852.289,1.684.347,3.352.772,5.044,1.066a4.012,4.012,0,0,1,3.475,3.958c.052.66.009,1.325.009,2.013,2.116-1.339,2.577-2.252,2.326-3.611.116-.262-.168-.4-.2-.611a8.183,8.183,0,0,0-2.6-3.582c-.2-.213-.41-.425-.613-.636a3.27,3.27,0,0,0-.343-.36A26.042,26.042,0,0,0,42.9,4.439a9.979,9.979,0,0,0-3.159-.961ZM16.938,29.155c-.875-.125-.669.5-.681.976a16.752,16.752,0,0,0,.011,3.016c-.067.846.432,1.187,1.173,1.312.775.114,1.693-.233,2.208.7-.036.121.038.157.134.175a8.822,8.822,0,0,0,.016,1.42A12.659,12.659,0,0,0,24.646,45.3a13.561,13.561,0,0,0,9.569,2.958c.517-.047.9-.345,1.39-.372a11.272,11.272,0,0,0,6.256-2.774,12.369,12.369,0,0,0,4.565-8.372c.32-2.165.309-2.167,2.51-2.282.47-.186.916-.4,1.023-.969a9.478,9.478,0,0,0,.15-3.524c.047-.495-.152-.786-.672-.811a2.97,2.97,0,0,0-2.223.8,1.989,1.989,0,0,1-2.221.41c-.551-.19-.721-.974-.728-1.63-.007-.808-.013-1.619,0-2.427.007-.495-.074-.627-.622-.405a19.584,19.584,0,0,1-2.42.6,32.527,32.527,0,0,1-8.161.808,33.014,33.014,0,0,1-5.559-.262,20.949,20.949,0,0,1-5.394-1.274c0,1,.025,1.921-.007,2.841a1.8,1.8,0,0,1-1.151,1.751A1.688,1.688,0,0,1,19,29.943a2.951,2.951,0,0,0-2.062-.788ZM46.593,83.24c2.4,0,4.8-.02,7.2.013.627.009.844-.114.837-.8-.038-3.182,0-6.363-.016-9.545a.945.945,0,0,1,.7-.981,1.083,1.083,0,0,1,1.22.2,1.852,1.852,0,0,1,.6,1.469c-.018,2.987,0,5.974-.02,8.96,0,.526.1.719.674.7,1.31-.047,2.624-.013,3.934-.016,1.4,0,1.97-.584,1.973-2.017,0-4.326-.007-8.651.007-12.979a23.532,23.532,0,0,0-.381-3.1c-.049-.381-.222-.658-.781-.325a3.593,3.593,0,0,1-3.309.387,6.1,6.1,0,0,1-2.476-2.046c-1.478-1.749-2.633-3.4-.871-6.038.159-.237.054-.383-.134-.457a4.91,4.91,0,0,0-.864-.228q-3.345-.658-6.695-1.308a.53.53,0,0,0-.663.253c-1.789,2.541-3.634,5.044-5.447,7.57a3.033,3.033,0,0,1-3.73,1.151c-.358-.152-.535-.063-.672.184a3.007,3.007,0,0,1-.8.934,1.32,1.32,0,0,0-.486,1.4c.083.459.087.931.179,1.375.531,2.557.7,5.163,1.133,7.733.365,2.145.582,4.314.855,6.475.1.752.34,1.115,1.261,1.072,2.257-.105,4.52-.034,6.782-.034Zm1.4-62.364c-.562,0-.978,0-1.4,0-.446,0-.9.02-1.339-.025a1.243,1.243,0,0,1-1.151-1.628c.338-.743,1.037-.873,1.809-.875.936,0,2.226.428,2.711-.179.468-.582.123-1.816.134-2.763a1.305,1.305,0,0,0-1.014-1.422c-1.178-.166-2.226-.712-3.43-.862-2.062-.257-4.111-.66-6.175-.954a53.248,53.248,0,0,0-6.247-.419,38.161,38.161,0,0,0-8.947,1A26.728,26.728,0,0,0,18.5,13.861a1.222,1.222,0,0,0-.884,1.292c.011.752.049,1.511-.011,2.259-.058.732.13.978.931.974,6.558-.038,13.116-.022,19.674-.02.363,0,.725.011,1.086.043a1.272,1.272,0,0,1,1.267,1.243,1.615,1.615,0,0,1-1.42,1.258q-9.921-.013-19.84-.034h-.931a2.722,2.722,0,0,0,1.431,1.31,23.853,23.853,0,0,0,8.66,2.393,11.6,11.6,0,0,0,2.387.2,14.486,14.486,0,0,1,2.293-.036,27.4,27.4,0,0,0,5.273-.3,25.208,25.208,0,0,0,5.98-1.379A7.086,7.086,0,0,0,48,20.877ZM29.957,83.24c2.02,0,3.963.013,5.906-.011.448-.007.56-.311.358-.712a1.247,1.247,0,0,1-.177-.354q-.349-2.509-.676-5.018c-.175-1.323-.327-2.651-.515-3.972-.264-1.858-.562-3.71-.817-5.568-.054-.4.029-.817-.575-.781-.5.029-1.135-.213-1.249.6-.076.54-.125,1.084-.195,1.625-.179,1.406-.352,2.814-.546,4.218-.255,1.834-.486,3.67-.808,5.492-.26,1.464-.083,2.987-.705,4.48Zm5.649-23.032c1.274.562,2.364,1.066,3.475,1.518a.737.737,0,0,0,1-.246c.329-.443.62-.9.925-1.357,1.043-1.558,2.167-3.061,3.253-4.59.206-.291.741-.575.513-.893-.273-.381-.871-.222-1.332-.2-.137.007-.271.161-.4.255q-2.2,1.612-4.388,3.226c-.994.737-1.981,1.484-3.049,2.286Zm-5.109.038a1.123,1.123,0,0,0-.161-.21c-2.454-1.843-4.9-3.694-7.375-5.51-.385-.282-.922-.121-1.377-.074-.284.029-.246.235-.063.468.4.508.75,1.061,1.131,1.59,1.155,1.614,2.308,3.229,3.475,4.832a.812.812,0,0,0,1.191.3c1.023-.526,2.107-.934,3.179-1.4ZM5.651,62.8a1.67,1.67,0,0,0,1.614-.8c.352-.414.616-.907.987-1.3a1.518,1.518,0,0,0,.186-2.011c-.316-.566-.69-.54-1.135-.233a11.636,11.636,0,0,0-2.716,2.942c-.461.636-.311.967.428,1.321a1.732,1.732,0,0,0,.638.081Zm29.792.177c-1.193-.775-2.467-1.4-3.92-.354a1.221,1.221,0,0,1-.443.177c-.152.031-.327.1-.208.242.372.448.558,1.169,1.252,1.2,1.269.054,2.669.36,3.318-1.263Z" transform="translate(-0.037 0.03)" fill="#858585"/>
          <path id="Path_179" data-name="Path 179" d="M72.216,321.3a2.512,2.512,0,0,1,.716,2.178c-.087,1.18.222,2.38-.2,3.54a1.981,1.981,0,0,1-1.849,1.364c-2.23.011-4.46-.02-6.688.009a1.909,1.909,0,0,1-1.993-2.058c.056-1.14.007-2.284.011-3.428a1.939,1.939,0,0,1,2.053-2.111c2.174-.029,4.348-.007,6.522-.009a2.17,2.17,0,0,1,1.236.374c.034.09.072.175.195.139Zm-4.623,4.574h.92q2.06,0,1.91-2.111a.512.512,0,0,1,0-.083c.034-.293-.1-.385-.385-.383-1.643.009-3.287,0-4.93,0-.217,0-.387.054-.378.32a5.439,5.439,0,0,0,.13,2.12c.2.4,1.077.092,1.652.13.36.025.723,0,1.086,0Z" transform="translate(-48.281 -248.954)" fill="#858585"/>
          <path id="Path_180" data-name="Path 180" d="M191.132,328.455c-1.171,0-2.344.02-3.515-.007a1.778,1.778,0,0,1-1.67-1.61q-.1-2.153-.09-4.312a2.009,2.009,0,0,1,1.652-1.6c2.4-.038,4.8-.058,7.192-.009a1.793,1.793,0,0,1,1.8,1.762,11.9,11.9,0,0,1-.009,4.053,1.88,1.88,0,0,1-2.1,1.737c-1.088.011-2.176,0-3.264,0v-.018Zm.159-5.069h-.92c-2.067,0-2.053,0-1.968,2.069.016.4.114.526.517.517,1.086-.025,2.172-.009,3.258-.009a1.7,1.7,0,0,0,1.934-2.022.511.511,0,0,1,0-.083c.047-.369-.13-.484-.481-.477C192.851,323.4,192.07,323.386,191.291,323.386Z" transform="translate(-144.252 -249.037)" fill="#858585"/>
        </g>
        <g id="Group_37" data-name="Group 37" transform="translate(53.49 27.076)">
          <path id="Path_181" data-name="Path 181" d="M238.947,133.743c.13-.206.045-.446.094-.669.056-.262.087-.537.134-.806.069,0,.143,0,.15-.1a.1.1,0,0,0-.1-.123c-.047-.105.054-.179.054-.273.251-.166.26-.195.092-.331a3.078,3.078,0,0,1,.235-.817c.121.013.175-.06.2-.161.018-.083-.038-.105-.105-.114a.847.847,0,0,1,1.274-.654c.195.112.4.215.593.322.009.072.018.146.11.054a.788.788,0,0,1,.443,1.008,14.14,14.14,0,0,0-.5,2.035,11.442,11.442,0,0,0-.11,2.071c0,.228,0,.455-.007.683-.069.094.076.1.069.166a5.7,5.7,0,0,0,.291,1.733,8.042,8.042,0,0,0,.311,1c-.011.038.013.051.043.058a7.776,7.776,0,0,0,.667,1.527c-.011.038.011.051.043.058a.1.1,0,0,0,.013.051c-.011.045-.025.092.04.11a14.584,14.584,0,0,0,1.247,1.711c.137.152.264.311.4.468.016.3.139.419.383.383a11.942,11.942,0,0,0,2,1.529c.105.065.116.26.293.213a.489.489,0,0,1,.056,0,12.006,12.006,0,0,0,2.788,1.113c.06.2.181.2.329.094l.161.016c.016.076.038.128.112.04a13.464,13.464,0,0,0,2.615.166,9.165,9.165,0,0,0,1.375-.157c.043.056.078.047.11-.009A11.45,11.45,0,0,0,258,145.108c.242-.123.477-.255.714-.385.107,0,.119-.067.116-.15a2.9,2.9,0,0,0,1.023-.634,11.576,11.576,0,0,0,2.313-2.364c.181-.249.327-.522.49-.784v-.038a4.362,4.362,0,0,0,.629-1.117,6.859,6.859,0,0,0,.571-1.628v-.045a1.2,1.2,0,0,0,.159-.613c.069-.013.143-.022.054-.112l.067-.437c.076-.016.128-.038.04-.112a21.715,21.715,0,0,0,.132-2.642c.011-.228-.1-.419-.072-.634.161-.11.116-.177-.047-.219l-.11-.71c.208-.13.069-.172-.054-.219a12.4,12.4,0,0,0-.725-2.114c-.128-.307-.331-.573-.439-.889l.094-.045c-.116-.137-.148-.352-.365-.392-.291-.4-.58-.8-.871-1.2.027-.172-.043-.251-.217-.224a.417.417,0,0,1-.054-.6c.143.107.231.063.273-.1a.4.4,0,0,1,.412.2,3.912,3.912,0,0,1,.519.658c.022.049-.067.208.107.114a3.821,3.821,0,0,1,.423.607c-.063.011-.107.04-.06.107.036.052.087.063.13,0l.054.02.04.038a4.464,4.464,0,0,0,.349.712c-.011.038.011.051.043.058a5.586,5.586,0,0,1,.383.871c-.013.011-.025.022-.038.036a.218.218,0,0,1,.038,0,2.711,2.711,0,0,1,.376.9.816.816,0,0,1,.114.423c-.013.013-.027.025-.038.038.013,0,.027,0,.04,0a4.646,4.646,0,0,1,.32,1.207,14.126,14.126,0,0,1,.175,2.646,11.149,11.149,0,0,1-.36,2.584c-.036.152.078.358-.13.463-.072.009-.146.018-.054.11a5.4,5.4,0,0,1-.414,1.2,11.459,11.459,0,0,1-1.628,2.761,12.062,12.062,0,0,1-1.811,1.845,12.348,12.348,0,0,1-2.436,1.583,13.31,13.31,0,0,1-1.885.732,12.929,12.929,0,0,1-2.143.448,10.14,10.14,0,0,1-2.539.016,11.794,11.794,0,0,1-2.655-.553,12.441,12.441,0,0,1-3.77-2.082,12.688,12.688,0,0,1-2.266-2.369,11.136,11.136,0,0,1-1.151-1.928,13.1,13.1,0,0,1-1.034-3.2,12.008,12.008,0,0,1-.139-2.8,8.747,8.747,0,0,1,.468-2.651c.081-.2.114-.434.184-.649.094-.016.128-.078.069-.148a.188.188,0,0,0-.3-.011,4.712,4.712,0,0,1-.461-.237c-.083-.054-.128-.02-.186.016a.323.323,0,0,0-.163.493,13.071,13.071,0,0,0-.349,1.511c-.049.39-.119.772-.134,1.173-.011.343-.056.705-.065,1.057a9.442,9.442,0,0,0,.054,1.706,9.973,9.973,0,0,0,.257,1.379c-.036.007-.076.011-.074.056s.043.047.078.054a15.136,15.136,0,0,0,1.2,3.168c-.054.011-.11.027-.069.1s.087.081.137.007c.3.549.656,1.059.99,1.587-.031.018-.065.047-.031.081s.06,0,.081-.029c.121.2.376.3.441.551-.031.02-.063.047-.029.081s.06,0,.081-.029c.15.092.208.264.329.383-.016.163.058.237.222.224l.378.378c-.016.163.06.237.224.222.141.134.329.213.437.383-.031.02-.065.056-.027.078.06.036.065-.027.076-.067.139.047.19.2.318.264.011.029.022.058.065.045l.116.116c-.031.02-.063.047-.029.081s.06,0,.081-.029c.367.235.737.468,1.1.705.137.09.322.092.425.24,0,.074,0,.154.081.186.058.022.074-.029.083-.076a5.218,5.218,0,0,1,.712.367c.009.072.018.146.11.054.54.168,1.048.421,1.6.557.253.063.5.148.748.222.016.076.038.128.112.04.4.016.786.137,1.184.179a9.76,9.76,0,0,0,1.173.1c.392,0,.781.009,1.173,0a10.955,10.955,0,0,0,2.745-.434.43.43,0,0,1,.107,0l.06-.043a1.179,1.179,0,0,1,.486-.121c.166.172.231.065.28-.1l.871-.343c.141.119.163.029.166-.094a10.036,10.036,0,0,0,1.2-.613l.06-.04c.054-.025.092-.085.161-.074.163.134.161.007.166-.105a11.614,11.614,0,0,0,1.693-1.261c.036.045.081.074.128.027s.009-.092-.031-.125a12.856,12.856,0,0,0,1.16-1.158c.172.1.087-.058.11-.11.271-.233.414-.569.658-.824.04.011.052-.011.052-.045a4.25,4.25,0,0,1,.493-.766c.112-.007.24,0,.105-.166.307-.468.461-1.014.768-1.482.027.038.065.072.094.016.038-.074-.011-.107-.083-.116a6.1,6.1,0,0,1,.311-.714c.157,0,.157-.157.222-.244.114-.152-.031-.125-.11-.139-.011-.161.141-.275.128-.437l.04-.06c.087-.495.21-.983.291-1.482.056-.349.09-.7.141-1.055a4.187,4.187,0,0,0,.045-.913c-.043-.493-.025-.985-.076-1.478a14.391,14.391,0,0,0-.343-1.93,11.592,11.592,0,0,0-.768-2.183c-.09-.19-.181-.378-.271-.566-.013-.02-.029-.038-.043-.058a12.388,12.388,0,0,0-1.684-2.476,13.04,13.04,0,0,0-3.623-2.958q-.752-.406-1.54-.739A14.862,14.862,0,0,0,255,121.9a5.828,5.828,0,0,0-1.2-.112c-.354,0-.7-.076-1.052-.063a15.536,15.536,0,0,0-3.412.51,13.438,13.438,0,0,0-3.632,1.625,8.44,8.44,0,0,0-.992.714c-.193.161-.318.085-.468-.029s-.244-.4-.446-.343c-.152.04-.143.316-.208.484-.352.913-.7,1.829-1.041,2.745a.318.318,0,0,0-.009.081c-.009.016-.02.031-.029.045.031,0,.06,0,.092,0,.414-.15.835-.284,1.245-.45q.554-.225,1.119-.419c.327-.114.647-.251.969-.378l.074-.02c-.02-.011-.04-.022-.06-.036-.157-.161-.316-.32-.468-.484-.206-.219-.2-.378.016-.611.02-.013.04-.027.058-.04a11.6,11.6,0,0,1,1.323-.869,19.816,19.816,0,0,1,2.183-.965,15.12,15.12,0,0,1,2.313-.519,10.484,10.484,0,0,1,2.385-.051,10.251,10.251,0,0,1,2.5.428c.02.063.067.054.114.04a9.071,9.071,0,0,1,1.549.558,14.7,14.7,0,0,1,2.425,1.442c.152.112.278.255.428.372a.376.376,0,0,1,.038.549.394.394,0,0,1-.571.056,11.851,11.851,0,0,0-2.564-1.632,12.086,12.086,0,0,0-2.127-.741c0-.11-.029-.213-.157-.2s-.282-.1-.338.11a5.583,5.583,0,0,1-.557-.132,3.087,3.087,0,0,0-.587-.031,9.42,9.42,0,0,0-2.42.047c-.123.018-.251-.02-.367.047,0-.06.009-.141-.078-.143-.1,0-.134.069-.139.159a18,18,0,0,0-1.914.535,13.228,13.228,0,0,0-2.44,1.222c-.132.085-.163.168-.02.289a6.034,6.034,0,0,1,.466.461.415.415,0,0,1-.184.714c-.378.139-.772.244-1.14.4-.544.226-1.1.428-1.643.654-.307.128-.647.179-.945.322-.327.161-.683.242-1.008.407a.477.477,0,0,1-.553.009.422.422,0,0,1-.107-.537c.587-1.54,1.153-3.088,1.728-4.632a1.525,1.525,0,0,1,.161-.358.434.434,0,0,1,.64-.022,4.61,4.61,0,0,1,.4.407.241.241,0,0,0,.387.036,11.631,11.631,0,0,1,2.23-1.3,13.937,13.937,0,0,1,3.085-1.021,6.942,6.942,0,0,1,1.5-.21.281.281,0,0,0,.226-.11h2.132c.011.043.047.045.083.051.488.085.981.128,1.471.215a13.009,13.009,0,0,1,3.32,1.05,14.367,14.367,0,0,1,6.047,5.385,13.576,13.576,0,0,1,1.776,4.565,20.193,20.193,0,0,1,.293,2.785c.02.41-.045.828-.049,1.243-.074.439-.146.875-.219,1.314-.186.083-.193.114-.054.219a.44.44,0,0,1,.007.107,16.479,16.479,0,0,1-.766,2.454c-.029.009-.056.02-.043.06,0,.018-.007.036-.011.054-.029.007-.056.016-.04.054l-.114.275-.054.11-.437.824c-.067,0-.13.011-.152.081s.034.069.078.081a9.89,9.89,0,0,1-.7,1.1c-.02-.031-.047-.06-.081-.027s0,.06.031.081a4.717,4.717,0,0,1-.5.66c-.02-.031-.047-.063-.081-.029s0,.06.029.081c-.06.072-.06.186-.168.222-.172-.1-.087.06-.11.11a3.089,3.089,0,0,1-.383.437c-.172-.1-.087.058-.11.11a2.161,2.161,0,0,1-.378.378c-.049.022-.208-.063-.11.11-.114.163-.3.244-.437.383-.049.022-.208-.063-.11.11a.2.2,0,0,1-.116.116.059.059,0,0,0-.047-.007q-.159.007-.11.11c-.038.04-.078.078-.116.119-.04-.013-.051.016-.065.045l-.154.121c-.04-.016-.049.011-.058.04-.1.04-.137.177-.266.172-.018-.031-.047-.063-.081-.029s0,.06.027.081a7.905,7.905,0,0,1-1.1.7c-.009-.043-.02-.094-.078-.078s-.083.083-.083.148a9.22,9.22,0,0,1-2.295,1.039c-.009-.074-.034-.128-.121-.081-.056.029-.132.056-.038.132a6.131,6.131,0,0,1-.99.316c-.009-.076-.056-.1-.13-.1s-.083.054-.087.112a13.375,13.375,0,0,1-1.755.325c-.6.11-1.191-.013-1.787.049-.408.045-.808-.067-1.214-.063-.007-.056.013-.128-.067-.143s-.087.036-.1.09a6.493,6.493,0,0,1-1.276-.21,10.461,10.461,0,0,1-1.677-.5l-.063-.04a1.073,1.073,0,0,1-.484-.177c-.007-.056.013-.128-.069-.143-.067-.013-.087.036-.1.09-.074-.036-.146-.074-.219-.11,0-.081,0-.163-.094-.195-.074-.027-.114.013-.123.087a1.4,1.4,0,0,1-.6-.309c0-.051.022-.119-.038-.141s-.058.047-.069.085a1.189,1.189,0,0,1-.434-.235l-.06-.045c-.1.016-.139-.085-.213-.119l-.06-.045a3.923,3.923,0,0,1-.871-.6c0-.11.007-.246-.163-.11l-.107-.072c-.022-.016-.043-.031-.065-.045-.069-.058-.139-.116-.208-.172-.022-.016-.043-.031-.065-.045-.105-.094-.213-.188-.318-.28.013-.13-.06-.166-.172-.157-.168-.161-.34-.32-.5-.484a9.888,9.888,0,0,1-1.285-1.467c.043-.016.094-.031.078-.087-.029-.1-.119-.09-.2-.09a4.047,4.047,0,0,1-.6-.875c.051-.011.121-.016.085-.092s-.087-.085-.139-.009a2.193,2.193,0,0,1-.387-.663c.038-.013.11-.007.085-.072s-.094-.034-.146-.04a1.62,1.62,0,0,1-.322-.652c.1-.092.022-.1-.054-.11a5.013,5.013,0,0,1-.365-.824c.069-.009.119-.045.083-.116-.027-.056-.067-.025-.094.013a3.659,3.659,0,0,1-.316-.88c.054-.009.1-.029.09-.094-.016-.081-.085-.063-.143-.069-.054-.2-.119-.405-.157-.611a7.511,7.511,0,0,1-.228-1.355c.045-.009.09-.02.092-.078,0-.074-.054-.081-.11-.083-.13-.146.047-.354-.1-.495v-.766c.065-.04.054-.1.054-.163.107-.128.213-.255,0-.383,0-.06.009-.125-.054-.163v-.819Z" transform="translate(-238.94 -120.9)" fill="#858585" stroke="#000" stroke-miterlimit="10" stroke-width="0.3"/>
          <path id="Path_182" data-name="Path 182" d="M301.171,162.618c.737-1.27,1.431-2.564,2.223-3.8a2.572,2.572,0,0,0,.237-.329,1.026,1.026,0,0,1,1.966.459c.094,2.053.034,4.109.031,6.162,0,.2.043.273.251.253a6.31,6.31,0,0,1,.683,0,.4.4,0,0,1,.4.4.406.406,0,0,1-.4.414c-.228.007-.457.016-.683,0-.2-.016-.264.043-.262.253.007.775-.009,1.547-.016,2.322a.583.583,0,0,1-.011.217c-.083.2-.168.4-.446.374-.226-.025-.36-.2-.36-.486,0-.8,0-1.6.025-2.4,0-.208-.04-.278-.264-.275-1.547.011-3.1.007-4.644,0a.386.386,0,0,1-.367-.6c.369-.692.716-1.395,1.137-2.058.15-.237.269-.495.4-.743.107-.009.1-.087.1-.161Zm-.546,2.725c1.31,0,2.617,0,3.927.02.217,0,.271-.058.269-.271q-.007-3.083,0-6.166c0-.038-.022-.054-.047-.081-.152-.172-.338-.15-.488.087-.387.622-.786,1.24-1.149,1.876-.849,1.487-1.681,2.985-2.519,4.476l-.04.045.043.011Z" transform="translate(-285.919 -149.61)" fill="#858585" stroke="#000" stroke-miterlimit="10" stroke-width="0.2"/>
          <path id="Path_183" data-name="Path 183" d="M274.2,163.5l-.551.766c-.177-.092-.085.065-.107.116a7.286,7.286,0,0,1-.712,1.032c-.175-.092-.085.063-.107.114a1.808,1.808,0,0,1-.329.486c-.175-.092-.085.063-.107.114-.235.439-.587.8-.862,1.209a6.98,6.98,0,0,0-.613.86c-.02,0-.043,0-.029.034a.137.137,0,0,0,.038-.009c1.518.031,3.034-.018,4.552-.022a.518.518,0,0,1,.5.224.307.307,0,0,1-.036.43c-.02-.031-.047-.06-.081-.029s0,.06.029.081a.472.472,0,0,1-.425.161c-1.325-.009-2.651-.009-3.976-.027a5.672,5.672,0,0,1-1.292-.022c-.322-.076-.441-.2-.421-.553.179-.013.2-.092.09-.222.007-.018.011-.036.018-.051s.029-.038.045-.056c.334-.535.732-1.025,1.117-1.525a5.628,5.628,0,0,1,.681-.88c.184.02.175-.1.168-.224a.612.612,0,0,1,.269-.378c.184.02.175-.1.168-.224a12.716,12.716,0,0,1,.925-1.305c.186.02.175-.1.166-.226l.873-1.366c.09.112.141.013.184-.043.087-.114.018-.217-.047-.316.049-.1.1-.19.15-.287a.394.394,0,0,0,.168-.546,2.449,2.449,0,0,0-.45-1.69,2.139,2.139,0,0,0-1.655-.882,2.272,2.272,0,0,0-1.9.7,1.882,1.882,0,0,0-.535,1.07.268.268,0,0,1-.11.2c-.193-.137-.222.027-.275.15-.309,0-.443-.15-.428-.484.114-.049.271-.087.054-.219a2.649,2.649,0,0,1,.589-1.095c.24.038.233-.119.219-.278a2.768,2.768,0,0,1,1.48-.806,3.167,3.167,0,0,1,2.662.591,3,3,0,0,1,1.1,1.737,3.082,3.082,0,0,1-.253,2.017,12.832,12.832,0,0,1-.719,1.341c-.2-.031-.289.1-.217.32Z" transform="translate(-262.49 -149.238)" fill="#858585" stroke="#000" stroke-miterlimit="10" stroke-width="0.2"/>
          <path id="Path_184" data-name="Path 184" d="M310.96,132.937c.056-.206.222-.1.338-.11s.159.092.157.2a1.64,1.64,0,0,1-.495-.094Z" transform="translate(-294.835 -130.142)" fill="#858585"/>
          <path id="Path_185" data-name="Path 185" d="M264.743,218.883c-.244.038-.367-.087-.383-.383A2.212,2.212,0,0,1,264.743,218.883Z" transform="translate(-258.669 -196.648)" fill="#858585"/>
          <path id="Path_186" data-name="Path 186" d="M292.618,172.64a.394.394,0,0,1-.168.546A2.338,2.338,0,0,1,292.618,172.64Z" transform="translate(-280.469 -161.056)" fill="#858585"/>
          <path id="Path_187" data-name="Path 187" d="M244.9,164.113a.324.324,0,0,1,.163-.493A1.333,1.333,0,0,1,244.9,164.113Z" transform="translate(-243.519 -154.055)" fill="#858585"/>
          <path id="Path_188" data-name="Path 188" d="M356.922,201.68c.078.013.224-.013.11.139-.065.087-.065.24-.222.244a.681.681,0,0,1,.11-.383Z" transform="translate(-330.419 -183.594)" fill="#858585"/>
          <path id="Path_189" data-name="Path 189" d="M344.62,156.3c.217.043.251.255.365.392l-.094.045A1.637,1.637,0,0,1,344.62,156.3Z" transform="translate(-320.959 -148.374)" fill="#858585"/>
          <path id="Path_190" data-name="Path 190" d="M291.317,176.36c.063.1.132.2.047.316-.043.056-.094.154-.184.043C291.225,176.6,291.272,176.479,291.317,176.36Z" transform="translate(-279.484 -163.943)" fill="#858585"/>
          <path id="Path_191" data-name="Path 191" d="M291.143,183.484c-.072-.224.013-.352.217-.32C291.289,183.271,291.215,183.376,291.143,183.484Z" transform="translate(-279.436 -169.219)" fill="#858585"/>
          <path id="Path_192" data-name="Path 192" d="M248.73,164.376a.188.188,0,0,1,.3.011c.058.069.027.132-.069.148Z" transform="translate(-246.538 -154.589)" fill="#858585"/>
          <path id="Path_193" data-name="Path 193" d="M272.369,161.39c.011.161.018.316-.219.278C272.161,161.524,272.278,161.466,272.369,161.39Z" transform="translate(-264.714 -152.324)" fill="#858585"/>
          <path id="Path_194" data-name="Path 194" d="M271.19,169.955c.054-.121.083-.284.275-.15C271.4,169.9,271.333,170,271.19,169.955Z" transform="translate(-263.969 -158.816)" fill="#858585"/>
          <path id="Path_195" data-name="Path 195" d="M289.339,233.054c-.148.1-.269.107-.329-.094A.844.844,0,0,1,289.339,233.054Z" transform="translate(-277.799 -207.87)" fill="#858585"/>
          <path id="Path_196" data-name="Path 196" d="M319.76,239.07c-.047.163-.114.271-.28.1A.453.453,0,0,1,319.76,239.07Z" transform="translate(-301.447 -212.612)" fill="#858585"/>
          <path id="Path_197" data-name="Path 197" d="M339.793,146.786c-.045.163-.132.206-.273.1A.255.255,0,0,1,339.793,146.786Z" transform="translate(-317 -140.983)" fill="#858585"/>
          <path id="Path_198" data-name="Path 198" d="M292.43,132.588c0-.09.036-.163.139-.159s.074.085.078.143Z" transform="translate(-280.454 -129.848)" fill="#858585"/>
          <path id="Path_199" data-name="Path 199" d="M339.76,149.935c.177-.025.244.054.217.224A.67.67,0,0,1,339.76,149.935Z" transform="translate(-317.187 -143.43)" fill="#858585"/>
          <path id="Path_200" data-name="Path 200" d="M350.988,171.67c.125.047.262.09.054.219A.215.215,0,0,1,350.988,171.67Z" transform="translate(-325.891 -160.303)" fill="#858585"/>
          <path id="Path_201" data-name="Path 201" d="M351.716,175.82c.163.04.208.107.047.219C351.662,175.986,351.72,175.9,351.716,175.82Z" transform="translate(-326.456 -163.524)" fill="#858585"/>
          <path id="Path_202" data-name="Path 202" d="M271.073,205.82c.112.13.092.208-.09.222A.249.249,0,0,1,271.073,205.82Z" transform="translate(-263.807 -186.807)" fill="#858585"/>
          <path id="Path_203" data-name="Path 203" d="M269.3,167.52c.217.132.058.17-.054.219C269.208,167.652,269.316,167.6,269.3,167.52Z" transform="translate(-262.455 -157.082)" fill="#858585"/>
          <path id="Path_204" data-name="Path 204" d="M286.706,184.07c.009.123.02.246-.166.226A.313.313,0,0,1,286.706,184.07Z" transform="translate(-275.883 -169.926)" fill="#858585"/>
          <path id="Path_205" data-name="Path 205" d="M281.818,190.91c.007.123.016.244-.168.224A.3.3,0,0,1,281.818,190.91Z" transform="translate(-272.087 -175.235)" fill="#858585"/>
          <path id="Path_206" data-name="Path 206" d="M260.919,226.042c-.163.016-.237-.058-.224-.222A.782.782,0,0,1,260.919,226.042Z" transform="translate(-255.823 -202.329)" fill="#858585"/>
          <path id="Path_207" data-name="Path 207" d="M279.868,193.6c.007.121.016.244-.168.224A.3.3,0,0,1,279.868,193.6Z" transform="translate(-270.574 -177.323)" fill="#858585"/>
          <path id="Path_208" data-name="Path 208" d="M258.235,223.354c-.163.016-.237-.06-.222-.224A.729.729,0,0,1,258.235,223.354Z" transform="translate(-253.741 -200.241)" fill="#858585"/>
          <path id="Path_209" data-name="Path 209" d="M351.575,213.63c.134.161.009.159-.105.166A.176.176,0,0,1,351.575,213.63Z" transform="translate(-326.275 -192.868)" fill="#858585"/>
          <path id="Path_210" data-name="Path 210" d="M273.3,235.03c-.009.047-.025.1-.083.076-.083-.031-.081-.112-.081-.186Z" transform="translate(-265.483 -209.391)" fill="#858585"/>
          <path id="Path_211" data-name="Path 211" d="M331.866,233.4c-.007.114,0,.24-.166.105A.16.16,0,0,1,331.866,233.4Z" transform="translate(-310.931 -208.212)" fill="#858585"/>
          <path id="Path_212" data-name="Path 212" d="M324.8,237.12c0,.123-.027.213-.166.094A.271.271,0,0,1,324.8,237.12Z" transform="translate(-305.444 -211.099)" fill="#858585"/>
          <path id="Path_213" data-name="Path 213" d="M249.2,211.063c-.049.074-.1.054-.137-.007s.016-.085.069-.1Z" transform="translate(-246.785 -190.796)" fill="#858585"/>
          <path id="Path_214" data-name="Path 214" d="M347.063,153.947c-.043.065-.092.054-.13,0s0-.1.06-.107l.067.105Z" transform="translate(-322.739 -146.465)" fill="#858585"/>
          <path id="Path_215" data-name="Path 215" d="M340.1,227.33c.04.036.078.076.031.125s-.092.018-.128-.027C340.031,227.395,340.065,227.364,340.1,227.33Z" transform="translate(-317.373 -203.501)" fill="#858585"/>
          <path id="Path_216" data-name="Path 216" d="M306.677,179c0,.074.007.152-.1.161C306.565,179.077,306.538,178.986,306.677,179Z" transform="translate(-291.425 -165.988)" fill="#858585"/>
          <path id="Path_217" data-name="Path 217" d="M350.854,193.87c.087.09.013.1-.054.112C350.693,193.883,350.774,193.877,350.854,193.87Z" transform="translate(-325.715 -177.532)" fill="#858585"/>
          <path id="Path_218" data-name="Path 218" d="M355.381,206.57c.069.011.119.045.083.116-.029.056-.067.02-.094-.016l.013-.1Z" transform="translate(-329.302 -187.389)" fill="#858585"/>
          <path id="Path_219" data-name="Path 219" d="M327.406,226.616c0,.081-.009.152-.116.15C327.319,226.708,327.254,226.578,327.406,226.616Z" transform="translate(-307.509 -202.941)" fill="#858585"/>
          <path id="Path_220" data-name="Path 220" d="M345.005,150.754c-.175.094-.085-.063-.107-.114Z" transform="translate(-321.171 -143.981)" fill="#858585"/>
          <path id="Path_221" data-name="Path 221" d="M282.658,195.865c.022-.052-.067-.206.107-.114Z" transform="translate(-272.867 -178.97)" fill="#858585"/>
          <path id="Path_222" data-name="Path 222" d="M288.275,188.052c.022-.052-.069-.206.107-.116C288.347,187.973,288.311,188.011,288.275,188.052Z" transform="translate(-277.226 -172.905)" fill="#858585"/>
          <path id="Path_223" data-name="Path 223" d="M284.618,193.175c.022-.051-.067-.206.107-.114Z" transform="translate(-274.388 -176.882)" fill="#858585"/>
          <path id="Path_224" data-name="Path 224" d="M345.72,221.67c-.022.051.063.208-.11.11Z" transform="translate(-321.727 -199.108)" fill="#858585"/>
          <path id="Path_225" data-name="Path 225" d="M265.991,230.521c-.02.031-.047.063-.081.029s0-.06.029-.081Z" transform="translate(-259.86 -205.938)" fill="#858585"/>
          <path id="Path_226" data-name="Path 226" d="M351.531,191.43c.087.074.036.1-.04.112C351.482,191.5,351.466,191.45,351.531,191.43Z" transform="translate(-326.285 -175.639)" fill="#858585"/>
          <path id="Path_227" data-name="Path 227" d="M353.312,199.12c-.092-.092-.018-.1.054-.11C353.352,199.05,353.372,199.1,353.312,199.12Z" transform="translate(-327.671 -181.521)" fill="#858585"/>
          <path id="Path_228" data-name="Path 228" d="M254.036,218.561c-.02.031-.047.063-.081.029s0-.063.031-.081C254,218.528,254.02,218.546,254.036,218.561Z" transform="translate(-250.583 -196.655)" fill="#858585"/>
          <path id="Path_229" data-name="Path 229" d="M263.542,228.531c-.009.04-.016.1-.076.067-.04-.022-.007-.058.027-.078A.122.122,0,0,1,263.542,228.531Z" transform="translate(-257.961 -204.424)" fill="#858585"/>
          <path id="Path_230" data-name="Path 230" d="M243.788,196.43c-.036,0-.076-.009-.078-.054s.04-.051.074-.056C243.784,196.356,243.786,196.394,243.788,196.43Z" transform="translate(-242.642 -179.434)" fill="#858585"/>
          <path id="Path_231" data-name="Path 231" d="M256.22,221.251c-.02.031-.047.063-.081.029s0-.06.029-.081l.052.052Z" transform="translate(-252.278 -198.743)" fill="#858585"/>
          <path id="Path_232" data-name="Path 232" d="M256.853,208.39c-.063-.018-.049-.065-.04-.11C256.887,208.3,256.939,208.318,256.853,208.39Z" transform="translate(-252.805 -188.716)" fill="#858585"/>
          <path id="Path_233" data-name="Path 233" d="M291.312,233.461c-.074.087-.1.038-.112-.04C291.245,233.412,291.292,233.4,291.312,233.461Z" transform="translate(-279.499 -208.221)" fill="#858585"/>
          <path id="Path_234" data-name="Path 234" d="M309.62,233.447c-.031.056-.067.067-.11.009C309.541,233.38,309.577,233.371,309.62,233.447Z" transform="translate(-293.71 -208.207)" fill="#858585"/>
          <path id="Path_235" data-name="Path 235" d="M298.152,208.439c-.031-.02-.06-.047-.029-.081s.06,0,.081.029Z" transform="translate(-284.862 -188.765)" fill="#858585"/>
          <path id="Path_236" data-name="Path 236" d="M250.81,161.694c-.092.092-.1.018-.11-.054C250.74,161.651,250.8,161.627,250.81,161.694Z" transform="translate(-248.067 -152.518)" fill="#858585"/>
          <path id="Path_237" data-name="Path 237" d="M277.16,237.1c-.092.092-.1.018-.11-.054C277.09,237.061,277.149,237.037,277.16,237.1Z" transform="translate(-268.517 -211.044)" fill="#858585"/>
          <path id="Path_238" data-name="Path 238" d="M288.132,240.781c-.074.087-.1.038-.112-.04C288.065,240.732,288.112,240.716,288.132,240.781Z" transform="translate(-277.031 -213.902)" fill="#858585"/>
          <path id="Path_239" data-name="Path 239" d="M316.424,130.883c-.047.013-.094.022-.114-.04C316.359,130.827,316.42,130.778,316.424,130.883Z" transform="translate(-298.987 -128.597)" fill="#858585"/>
          <path id="Path_240" data-name="Path 240" d="M276.366,227.765a.489.489,0,0,1-.056,0l.029-.063Z" transform="translate(-267.943 -203.788)" fill="#858585"/>
          <path id="Path_241" data-name="Path 241" d="M270.213,144.82c.02.011.04.022.06.036l-.074.02.013-.054Z" transform="translate(-263.201 -139.464)" fill="#858585"/>
          <path id="Path_242" data-name="Path 242" d="M255,150.469h-.092c.009-.018.02-.034.029-.049l.06.049Z" transform="translate(-251.334 -143.811)" fill="#858585"/>
          <path id="Path_243" data-name="Path 243" d="M344.758,209.562v.038c-.013-.011-.025-.022-.038-.036a.222.222,0,0,0,.038,0Z" transform="translate(-321.036 -189.709)" fill="#858585"/>
          <path id="Path_244" data-name="Path 244" d="M271.505,205.34c-.016.018-.029.038-.045.056C271.449,205.358,271.474,205.344,271.505,205.34Z" transform="translate(-264.177 -186.434)" fill="#858585"/>
          <path id="Path_245" data-name="Path 245" d="M253.45,200.768c-.031-.007-.056-.02-.043-.058C253.42,200.73,253.436,200.748,253.45,200.768Z" transform="translate(-250.165 -182.841)" fill="#858585"/>
          <path id="Path_246" data-name="Path 246" d="M357.907,199.46l-.04.06C357.854,199.482,357.878,199.469,357.907,199.46Z" transform="translate(-331.237 -181.871)" fill="#858585"/>
          <path id="Path_247" data-name="Path 247" d="M349.091,217.79c0,.034-.013.056-.051.045C349.058,217.819,349.076,217.806,349.091,217.79Z" transform="translate(-324.389 -196.097)" fill="#858585"/>
          <path id="Path_248" data-name="Path 248" d="M350.128,197.11v.045l-.038-.038a.253.253,0,0,0,.04-.007Z" transform="translate(-325.204 -180.047)" fill="#858585"/>
          <path id="Path_249" data-name="Path 249" d="M265.345,229.795c-.04.011-.052-.016-.065-.045C265.3,229.766,265.323,229.781,265.345,229.795Z" transform="translate(-259.383 -205.379)" fill="#858585"/>
          <path id="Path_250" data-name="Path 250" d="M349.6,157.818c-.031-.007-.056-.018-.043-.058C349.57,157.78,349.586,157.8,349.6,157.818Z" transform="translate(-324.787 -149.507)" fill="#858585"/>
          <path id="Path_251" data-name="Path 251" d="M353.54,168.043c-.013,0-.027,0-.04,0,.013-.013.027-.025.038-.038v.043Z" transform="translate(-327.85 -157.454)" fill="#858585"/>
          <path id="Path_252" data-name="Path 252" d="M256.62,207.848c-.031-.007-.056-.018-.042-.058C256.59,207.81,256.606,207.828,256.62,207.848Z" transform="translate(-252.625 -188.336)" fill="#858585"/>
          <path id="Path_253" data-name="Path 253" d="M351.348,161.948a.215.215,0,0,1-.038,0c.013-.011.025-.022.038-.036Z" transform="translate(-326.151 -152.728)" fill="#858585"/>
          <path id="Path_254" data-name="Path 254" d="M317.1,240.028l-.06.043C317.049,240.041,317.062,240.014,317.1,240.028Z" transform="translate(-299.554 -213.353)" fill="#858585"/>
          <path id="Path_255" data-name="Path 255" d="M353.457,156.3c.013.02.029.038.043.058C353.468,156.352,353.444,156.34,353.457,156.3Z" transform="translate(-327.814 -148.374)" fill="#858585"/>
          <path id="Path_256" data-name="Path 256" d="M268.3,139.734c-.02.013-.04.027-.058.04C268.249,139.745,268.26,139.718,268.3,139.734Z" transform="translate(-261.68 -135.514)" fill="#858585"/>
          <path id="Path_257" data-name="Path 257" d="M347.87,154.427l-.04-.038C347.87,154.373,347.879,154.389,347.87,154.427Z" transform="translate(-323.45 -146.886)" fill="#858585"/>
          <path id="Path_258" data-name="Path 258" d="M275.97,205.635a.273.273,0,0,1-.038.009c-.016-.029.007-.031.029-.034l.013.009Z" transform="translate(-267.645 -186.644)" fill="#858585"/>
          <path id="Path_259" data-name="Path 259" d="M330.76,234.184l-.06.04C330.709,234.2,330.72,234.168,330.76,234.184Z" transform="translate(-310.155 -208.816)" fill="#858585"/>
          <path id="Path_260" data-name="Path 260" d="M275.309,239.746l-.219-.107c.009-.074.049-.114.123-.087.09.031.1.114.094.195Z" transform="translate(-266.996 -212.979)" fill="#858585"/>
          <path id="Path_261" data-name="Path 261" d="M320.763,242.129c-.034.083-.105.036-.161.051-.092-.074-.016-.1.038-.132.087-.047.112.007.121.081Z" transform="translate(-302.284 -214.91)" fill="#858585"/>
          <path id="Path_262" data-name="Path 262" d="M362.144,195.1a.22.22,0,0,1-.054.219C361.951,195.214,361.96,195.183,362.144,195.1Z" transform="translate(-334.443 -178.487)" fill="#858585"/>
          <path id="Path_263" data-name="Path 263" d="M251.261,220.425a.2.2,0,0,1-.121-.177c.081,0,.17-.013.2.09C251.355,220.394,251.3,220.409,251.261,220.425Z" transform="translate(-248.408 -198.004)" fill="#858585"/>
          <path id="Path_264" data-name="Path 264" d="M264.023,233.111a.162.162,0,0,1-.163-.11C264.03,232.865,264.019,233,264.023,233.111Z" transform="translate(-258.28 -207.858)" fill="#858585"/>
          <path id="Path_265" data-name="Path 265" d="M315.587,243.773l-.217.016c0-.058.02-.1.087-.112S315.576,243.694,315.587,243.773Z" transform="translate(-298.258 -216.186)" fill="#858585"/>
          <path id="Path_266" data-name="Path 266" d="M248.274,215.81c-.058-.011-.049-.06-.054-.1.051-.078.107-.063.139.009s-.036.081-.085.092Z" transform="translate(-246.142 -194.441)" fill="#858585"/>
          <path id="Path_267" data-name="Path 267" d="M331.881,237.236c-.052.027-.092.085-.161.069,0-.065.013-.128.083-.148S331.872,237.191,331.881,237.236Z" transform="translate(-310.947 -211.125)" fill="#858585"/>
          <path id="Path_268" data-name="Path 268" d="M277.213,240.676l-.163-.054c.009-.054.029-.1.1-.09s.063.087.069.143Z" transform="translate(-268.517 -213.745)" fill="#858585"/>
          <path id="Path_269" data-name="Path 269" d="M293.563,245.066l-.163-.054c.009-.054.029-.1.1-.09S293.559,245.01,293.563,245.066Z" transform="translate(-281.207 -217.152)" fill="#858585"/>
          <path id="Path_270" data-name="Path 270" d="M355.38,213.651c.011.069-.045.11-.074.159-.045-.009-.1-.02-.078-.081s.085-.083.152-.081Z" transform="translate(-329.188 -192.883)" fill="#858585"/>
          <path id="Path_271" data-name="Path 271" d="M340.574,231.524l-.094.056q-.049-.1.11-.11C340.585,231.488,340.578,231.506,340.574,231.524Z" transform="translate(-317.736 -206.714)" fill="#858585"/>
          <path id="Path_272" data-name="Path 272" d="M259.852,229.9c-.087-.02-.128-.092-.172-.157C259.794,229.732,259.866,229.77,259.852,229.9Z" transform="translate(-255.036 -205.372)" fill="#858585"/>
          <path id="Path_273" data-name="Path 273" d="M272.017,238.076c-.04-.013-.092,0-.107-.056.013-.038.007-.107.069-.085S272.015,238.024,272.017,238.076Z" transform="translate(-264.528 -211.728)" fill="#858585"/>
          <path id="Path_274" data-name="Path 274" d="M242.881,204.841c0-.034-.009-.069-.011-.1.027-.038.067-.069.094-.013C243,204.8,242.951,204.832,242.881,204.841Z" transform="translate(-241.99 -185.933)" fill="#858585"/>
          <path id="Path_275" data-name="Path 275" d="M246.29,212.537c-.06-.016-.043-.074-.06-.112.051,0,.123-.02.146.04S246.331,212.524,246.29,212.537Z" transform="translate(-244.598 -191.932)" fill="#858585"/>
          <path id="Path_276" data-name="Path 276" d="M341.74,230.484c-.036.036-.074.072-.11.11C341.532,230.421,341.691,230.506,341.74,230.484Z" transform="translate(-318.614 -205.947)" fill="#858585"/>
          <path id="Path_277" data-name="Path 277" d="M348.663,223.56c-.036.036-.072.074-.11.11C348.576,223.618,348.491,223.461,348.663,223.56Z" transform="translate(-324.01 -200.55)" fill="#858585"/>
          <path id="Path_278" data-name="Path 278" d="M357.924,209.5c.036.007.081.013.076.054-.011.074-.081.047-.13.056Z" transform="translate(-331.242 -189.663)" fill="#858585"/>
          <path id="Path_279" data-name="Path 279" d="M346.463,226.01l-.11.11C346.376,226.068,346.291,225.911,346.463,226.01Z" transform="translate(-322.303 -202.451)" fill="#858585"/>
          <path id="Path_280" data-name="Path 280" d="M344.179,228.294l-.11.11C343.971,228.231,344.128,228.316,344.179,228.294Z" transform="translate(-320.507 -204.247)" fill="#858585"/>
          <path id="Path_281" data-name="Path 281" d="M352.136,219.127c-.016.018-.034.036-.049.051-.031-.018-.063-.047-.031-.081s.06,0,.081.027Z" transform="translate(-326.719 -197.1)" fill="#858585"/>
          <path id="Path_282" data-name="Path 282" d="M349.7,222.309c-.016.018-.034.034-.049.051-.031-.018-.063-.047-.029-.081s.06,0,.081.029Z" transform="translate(-324.828 -199.57)" fill="#858585"/>
          <path id="Path_283" data-name="Path 283" d="M337.256,234.016c-.018.016-.036.034-.052.049-.031-.02-.06-.047-.027-.081s.06,0,.081.029Z" transform="translate(-315.171 -208.655)" fill="#858585"/>
          <path id="Path_284" data-name="Path 284" d="M244.594,209.13c-.058-.018-.04-.072-.054-.11C244.616,209.029,244.69,209.038,244.594,209.13Z" transform="translate(-243.286 -189.29)" fill="#858585"/>
          <path id="Path_285" data-name="Path 285" d="M340.94,231.517c0-.018.011-.036.016-.054a.068.068,0,0,1,.047.007c-.02.016-.043.031-.063.045Z" transform="translate(-318.103 -206.708)" fill="#858585"/>
          <path id="Path_286" data-name="Path 286" d="M261.925,231.745c-.04.011-.051-.016-.065-.045C261.882,231.716,261.9,231.731,261.925,231.745Z" transform="translate(-256.728 -206.892)" fill="#858585"/>
          <path id="Path_287" data-name="Path 287" d="M339.775,232.478l-.065.045C339.721,232.494,339.732,232.465,339.775,232.478Z" transform="translate(-317.148 -207.494)" fill="#858585"/>
          <path id="Path_288" data-name="Path 288" d="M263.145,232.725c-.04.011-.052-.016-.065-.045C263.1,232.7,263.123,232.711,263.145,232.725Z" transform="translate(-257.675 -207.653)" fill="#858585"/>
          <path id="Path_289" data-name="Path 289" d="M338.828,233.214c-.02.013-.04.027-.058.04C338.779,233.225,338.79,233.2,338.828,233.214Z" transform="translate(-316.418 -208.064)" fill="#858585"/>
          <path id="Path_290" data-name="Path 290" d="M358.87,207.52c-.013.02-.027.04-.043.06C358.814,207.542,358.841,207.529,358.87,207.52Z" transform="translate(-331.982 -188.126)" fill="#858585"/>
          <path id="Path_291" data-name="Path 291" d="M358.644,208.02l-.04.054C358.588,208.036,358.615,208.024,358.644,208.02Z" transform="translate(-331.808 -188.514)" fill="#858585"/>
          <path id="Path_292" data-name="Path 292" d="M269.75,237.125c-.038.009-.054-.013-.06-.045Z" transform="translate(-262.805 -211.068)" fill="#858585"/>
          <path id="Path_293" data-name="Path 293" d="M268.53,236.395c-.038.009-.054-.013-.06-.045Z" transform="translate(-261.858 -210.501)" fill="#858585"/>
          <path id="Path_294" data-name="Path 294" d="M279.993,242c-.038.016-.054-.009-.063-.04Z" transform="translate(-270.752 -214.855)" fill="#858585"/>
          <path id="Path_295" data-name="Path 295" d="M304.47,190.92a.464.464,0,0,0,0,.056l-.043-.011Z" transform="translate(-289.767 -175.243)" fill="#858585"/>
        </g>
      </g>
    </g>
  </g>
</svg>
