<svg xmlns="http://www.w3.org/2000/svg" xmlns:xlink="http://www.w3.org/1999/xlink" width="130" height="130" viewBox="0 0 130 130">
  <defs>
    <clipPath id="clip-Car_rental">
      <rect width="130" height="130"/>
    </clipPath>
  </defs>
  <g id="Car_rental" data-name="Car rental" clip-path="url(#clip-Car_rental)">
    <g id="Layer_1" data-name="Layer 1" transform="translate(21.98 22.002)">
      <g id="Group_30" data-name="Group 30" transform="translate(0.02 -0.002)">
        <path id="Path_153" data-name="Path 153" d="M78.915,222.538a6.2,6.2,0,0,1,2.244,3.373.864.864,0,0,0,.68.673,6.063,6.063,0,0,1,4.374,4.286c.034.1,0,.72.479.318v.339c-.616-.063-.37.458-.312.614a3.333,3.333,0,0,1-.138,2.077,6.673,6.673,0,0,1-4.457,4.55c-.21.106-.524-.145-.666.192H41.753c-.027-.135-.126-.154-.244-.169a8.89,8.89,0,0,1-3.6-1.271c-2.039-1.267-3.97-2.71-5.963-4.051q-8.955-6.022-17.917-12.031a.683.683,0,0,0-.732-.1c-1.764.614-3.55,1.165-5.32,1.764-.187.063-.445.07-.524.415a6.648,6.648,0,0,1-2.71,4.082c-1.441,1.036-3.595,1.287-4.721.382V198.072a.331.331,0,0,0,.16-.359c.221-.709.8-.727,1.393-.727h9.7c4.387,0,8.777.029,13.164-.009a12.3,12.3,0,0,1,9.362,3.482.2.2,0,0,0,.032.077q7.651,7.658,15.3,15.316c.212.212.411.377.727.271,4.024.009,8.048-.014,12.069.041a6.529,6.529,0,0,1,5.25,2.172,5.172,5.172,0,0,1,1.2,2.125c.156.7.506.777,1.093.765,1.6-.027,3.209,0,4.812-.011a7.4,7.4,0,0,1,4.448,1.192c.027.09.063.172.185.129Zm-33.782-7.081q-2.625-2.771-5.394-5.394-1.792-1.937-3.728-3.73-1.782-1.924-3.705-3.705a3.425,3.425,0,0,0-.86-.851,9.209,9.209,0,0,0-2.089-1.344,4.173,4.173,0,0,0-2.308-.644.675.675,0,0,0-.675-.169c-.391-.034-.781-.1-1.174-.1-5.575-.007-11.15.009-16.725-.023-.691,0-.878.142-.874.858.032,6.449.018,12.9.023,19.344a1.507,1.507,0,0,0,.09.847c1.8-.61,3.592-1.208,5.379-1.833A1.917,1.917,0,0,1,15,219c3.082,2.136,6.207,4.211,9.31,6.318,3.782,2.567,7.512,5.211,11.356,7.682,1.624,1.043,3.06,2.436,5.065,2.893a8.126,8.126,0,0,0,1.764.517c12.613.011,25.229.061,37.842-.041a3.7,3.7,0,0,0,3.3-5.241,3.744,3.744,0,0,0-3.841-2.3q-16.386-.02-32.775.007a6.14,6.14,0,0,1-4.085-1.4l-.185-.131a.719.719,0,0,1-.14-.084q-8.955-8.955-17.908-17.913a1.249,1.249,0,1,1,1.675-1.854,15.886,15.886,0,0,1,1.436,1.264q8.339,8.322,16.662,16.66a2.959,2.959,0,0,0,2.057.9,3.706,3.706,0,0,0,3.547-1.809,3.634,3.634,0,0,0-.192-4.274l-4.749-4.742ZM2.549,225.918a14.536,14.536,0,0,0,1.253-.786,4.122,4.122,0,0,0,1.276-3.2q.02-10.341.007-20.683c0-1.736,0-1.7-1.736-1.748-.68-.018-.813.192-.811.833q.034,12.369.014,24.736v.847Zm49.383.373h5.139q10.429,0,20.855-.007c.205,0,.495.133.61-.1.1-.2-.122-.4-.226-.58a3.724,3.724,0,0,0-3.473-1.831c-7.063-.038-14.128-.014-21.191-.027-.4,0-.653.122-.734.488A5.6,5.6,0,0,1,51.932,226.291Zm-.036-7.6a4.468,4.468,0,0,1,.989,1.915c.122.522.375.632.867.63,3.376-.018,6.751-.009,10.127-.009h2.1a3.666,3.666,0,0,0-2.9-2.384,41.809,41.809,0,0,0-5.446-.14c-1.847-.045-3.694-.009-5.74-.009Z" transform="translate(-0.02 -152.499)" fill="#858585"/>
        <path id="Path_154" data-name="Path 154" d="M240.461,19.386c-.047-1.6-.269-3.184-.458-4.773-.513-4.288,1.423-7.853,5.58-9.208a2.226,2.226,0,0,0,1.745-1.463A5.8,5.8,0,0,1,252.707.006a6.138,6.138,0,0,1,6.517,4.387,1.086,1.086,0,0,0,.917.86,7.847,7.847,0,0,1,6.126,6.088,10.5,10.5,0,0,1,.016,3.857c-.176,1.283-.262,2.574-.445,3.854-.2,1.389-.382,2.782-.49,4.18-.081,1.045-.174,2.084-.35,3.121a7.622,7.622,0,0,1-4.256,5.7,4.318,4.318,0,0,1-2.073.693c-.49-.007-.348.425-.35.7-.011,2.141-.029,4.279.007,6.42a2.2,2.2,0,0,1-.795,1.922,1.31,1.31,0,0,0-.5,1.158c.02,4.561,0,9.122.029,13.684a2.526,2.526,0,0,1-.648,1.809,18.18,18.18,0,0,1-2.687,2.518.877.877,0,0,1-1.2-.059c-.962-.946-1.9-1.917-2.872-2.854-.3-.289-.2-.621-.2-.937-.009-4.5-.023-9.009.009-13.514a2.29,2.29,0,0,0-.838-2.132.471.471,0,0,1-.205-.431c.027-.158.079-.33-.174-.35-.142-1.289-.027-2.583-.061-3.875-.018-.756.264-1.208,1.1-1.2.924,0,1.382.343,1.42,1.219.038.9,0,1.8.018,2.7,0,.23-.075.463.181.682a3.586,3.586,0,0,1,1.073,2.924c.016,3.994.045,7.991-.018,11.986-.02,1.233.131,2.272,1.305,2.893a2.845,2.845,0,0,0,1.28-2.786c-.072-4.191.007-8.384-.052-12.575a2.993,2.993,0,0,1,.942-2.43,1.034,1.034,0,0,0,.355-.869c-.011-1.913-.034-3.827.011-5.74.016-.63-.208-.718-.761-.711-2.109.032-4.22-.011-6.329.018a6.831,6.831,0,0,1-4.279-1.576,8.212,8.212,0,0,1-3.281-6.591c-.059-1.452-.336-2.895-.515-4.342.149-.373-.108-.677-.169-1.014ZM253.077,7.559c-.2,0-.4-.007-.592,0-1.924.081-3.866-.212-5.776.178a5.286,5.286,0,0,0-4.2,5.173c.056,2.326.438,4.618.671,6.923.212,2.082.355,4.173.693,6.241a5.466,5.466,0,0,0,4.88,4.283c2.953.038,5.909.065,8.863-.016a5.021,5.021,0,0,0,3.672-1.892,5.856,5.856,0,0,0,1.364-3.7c.124-1.951.418-3.888.646-5.832.149-1.285.361-2.565.449-3.854a9.782,9.782,0,0,0-.059-3.5,5.487,5.487,0,0,0-5.381-4c-1.741-.065-3.489-.014-5.234-.014ZM256.7,5a3.682,3.682,0,0,0-3.787-2.491,3.36,3.36,0,0,0-3.179,2.515h6.65C256.469,5.023,256.552,5.009,256.7,5Z" transform="translate(-185.752 0.002)" fill="#858585"/>
        <path id="Path_155" data-name="Path 155" d="M270.557,44.638c1.687,0,3.378-.047,5.062.011,2.272.079,3.125,1,3.3,2.9a16.719,16.719,0,0,1-.323,3.369c-.1.874-.172,1.752-.294,2.624-.321,2.285-.359,4.611-.867,6.869a2.854,2.854,0,0,1-2.66,1.962c-2.7.007-5.4-.029-8.1.014a3.129,3.129,0,0,1-2.917-2.9c-.19-1.976-.454-3.945-.659-5.918-.133-1.292-.183-2.594-.343-3.882-.093-.747-.142-1.49-.183-2.24a2.911,2.911,0,0,1,2.753-2.8c1.743,0,3.489,0,5.232,0V44.64Zm.126,2.533c-1.6,0-3.2.023-4.8-.011-.592-.014-.82.178-.761.772.126,1.292.23,2.585.336,3.879.032.382.271.434.585.434q4.718-.007,9.438,0c.271,0,.47.011.465-.384-.011-1.271.273-2.52.359-3.789.054-.813-.244-.914-.9-.905-1.574.023-3.145.007-4.719.007Zm-1.174,10.222V57.31c-.056-.831.359-1.94-.167-2.412-.456-.409-1.547-.106-2.357-.124-.709-.016-1.373-.248-1.077,1.045a18.7,18.7,0,0,1,.388,3.522c.009.3.12.495.438.492a6.643,6.643,0,0,0,2.637-.124c.445-.212.084-1.346.135-2.064.007-.084,0-.169,0-.253Zm2.576-.1c.034.831-.382,1.876.117,2.425.35.384,1.427.106,2.179.122h.084c.406.025.58-.129.632-.571.136-1.149.26-2.3.35-3.452.081-1.052.167-1.066-.872-1.039-.831.023-1.942-.366-2.409.16-.4.452-.084,1.544-.084,2.355Z" transform="translate(-203.284 -34.544)" fill="#858585"/>
      </g>
    </g>
  </g>
</svg>
