<svg xmlns="http://www.w3.org/2000/svg" xmlns:xlink="http://www.w3.org/1999/xlink" width="130" height="130" viewBox="0 0 130 130">
  <defs>
    <clipPath id="clip-Accessories">
      <rect width="130" height="130"/>
    </clipPath>
  </defs>
  <g id="Accessories" clip-path="url(#clip-Accessories)">
    <g id="Layer_1" data-name="Layer 1" transform="translate(12.999 31)">
      <g id="Group_52" data-name="Group 52" transform="translate(0 0)">
        <path id="Path_378" data-name="Path 378" d="M103.388,52.133a46.416,46.416,0,0,1-2.976,4.29,34.724,34.724,0,0,1-5.233,5.054,29.817,29.817,0,0,1-9.9,5.046,36.356,36.356,0,0,1-6.546,1.262,24.108,24.108,0,0,1-5.268-.06A41.522,41.522,0,0,1,67.814,66.6c-4.033-1.127-7.713-3.153-11.692-4.417-1.04-.33-2.1-.823-3.134-1.259a3.888,3.888,0,0,0-2.608.284c-4.49,1.435-8.84,3.25-13.255,4.883a30.27,30.27,0,0,1-6.18,1.473,32.11,32.11,0,0,1-5.923.144,25.689,25.689,0,0,1-8.829-2A37.706,37.706,0,0,1,10.8,63.088a29.31,29.31,0,0,1-6.294-5.154,40.823,40.823,0,0,1-4.5-6.2v-.406q.207-.1,0-.2v-.406q.207-.1,0-.2V50.1a4.543,4.543,0,0,1,1.611-1.333q7.471-3.957,14.91-7.976c2.348-1.262,4.677-2.559,7.047-3.781a.939.939,0,0,0,.553-1.021c-.008-2.936.019-5.874-.008-8.81a26.206,26.206,0,0,1,3.556-13.119,26,26,0,0,1,4.908-6.34,27.226,27.226,0,0,1,13.049-7A25.7,25.7,0,0,1,52.858.054,28.59,28.59,0,0,1,67.318,4.8,28.13,28.13,0,0,1,75.9,14.01c.195.339.366.691.547,1.037-.043.144.046.187.16.217,2.982,5.79,3.2,12.044,3.012,18.555,1.035-.734,1.985-1.3,2.806-2.012a42.745,42.745,0,0,0,7.253-7.824,2.065,2.065,0,0,1,2.316-.794,1.88,1.88,0,0,1,1.446,1.6c.317,1.633.688,3.255,1,4.891.111.585.347.826.98.813,1.923-.041,3.849-.014,5.774-.016.945,0,1.858.173,2.226,1.148a2.547,2.547,0,0,1-.52,2.668,23,23,0,0,1-3.794,3.7c-.152-.049-.2.06-.238.165a20.148,20.148,0,0,1-9.127,3.678,1.233,1.233,0,0,0,.745.815c3.962,2.113,7.914,4.247,11.882,6.348a14.138,14.138,0,0,1,1.162.924,5.065,5.065,0,0,1-.138,2.215ZM59.163,5.327c-.081-.057-.154-.146-.244-.165a26.834,26.834,0,0,0-9.588-.888,24.37,24.37,0,0,0-6.27,1.463,24.156,24.156,0,0,0-9.292,6.646,23.834,23.834,0,0,0-3.339,5.1,27.564,27.564,0,0,0-2.256,7.659c-.16,1.016-.027,1.216,1.035,1.216H73.174c.7,0,1.6.217,2.058-.13.534-.4.049-1.289-.035-1.964-.008-.065.014-.138,0-.2a13.946,13.946,0,0,0-1.419-4.8c0-.057,0-.114-.005-.171a20.524,20.524,0,0,0-5.688-8.458A22.054,22.054,0,0,0,59.591,5.49c-.016-.39-.241-.222-.425-.157ZM10.342,48.734l-.152.024c.049.046.1.092.149.135.157.344.471.192.71.19,2.909-.008,5.8.116,8.7.371,2.47.217,4.916.59,7.375.829A100.448,100.448,0,0,1,37.1,52a73.239,73.239,0,0,1,9.7,2.573c.073.236.249.2.425.157,1.8.55,3.637,1.016,5.4,1.668,4.052,1.5,8.133,2.958,12.087,4.7a29,29,0,0,0,15.44,2.41c.49-.06.766-.534,1.295-.439,1.514.276,2.773-.612,4.136-.994a18.308,18.308,0,0,0,4.677-2.186A23.523,23.523,0,0,0,96.07,55.1c.4-.482.739-1.081,1.135-1.473.455-.455.891-.929,1.314-1.419.379-.439.125-.607-.249-.807q-5.493-2.953-10.98-5.918c-2.8-1.511-5.585-3.044-8.4-4.523a6.23,6.23,0,0,0-3.117-1.054c-4.962.087-9.929.038-14.893.024a1.761,1.761,0,0,1-1.9-1.923c-.016-1.379.7-2.107,2.172-2.113,4.526-.016,9.051-.024,13.577.011.72.005.915-.19.88-.894a33.4,33.4,0,0,1,0-3.645c.049-.807-.211-.983-.991-.98-8.171.03-16.345.019-24.519.019-7.025,0-14.048.011-21.074-.019-.718,0-.91.184-.878.888.06,1.246.062,2.5,0,3.746-.035.72.187.888.891.883,4.423-.035,8.848-.022,13.271-.014,1.444,0,2.267.756,2.267,2.034,0,1.319-.764,2.015-2.245,2.015-4.964,0-9.929.014-14.893-.014a3.563,3.563,0,0,0-1.785.471c-2.2,1.2-4.379,2.424-6.579,3.618-2.909,1.582-5.831,3.142-8.745,4.713ZM5.662,53c.864,1.018,1.582,1.983,2.421,2.825a26.12,26.12,0,0,0,8.71,5.872,22.5,22.5,0,0,0,9.338,1.988c1.536-.06,3.066.041,4.61-.165a24.845,24.845,0,0,0,5.205-1.265c2.164-.788,4.26-1.75,6.462-2.451a13.7,13.7,0,0,0,1.636-.631c.479-.225,1.091-.252,1.509-.772a131.555,131.555,0,0,0-39.891-5.4ZM82.024,37.1a14.768,14.768,0,0,0,6.622.7,16.072,16.072,0,0,0,7.375-2.654c.168-.116.4-.176.339-.42-.065-.26-.322-.184-.509-.187-1.01-.011-2.02-.014-3.031-.022a1.823,1.823,0,0,1-1.766-1.341,12.339,12.339,0,0,1-.452-2.3c-.043-.3.03-.655-.3-.783-.366-.141-.515.252-.707.45a48.69,48.69,0,0,1-7.573,6.56Zm14.8-2.5c-.022-.022-.041-.06-.062-.062s-.046.035-.068.054l.1.065c.011-.019.024-.041.033-.057ZM89.5,41.974l.073-.07-.07-.07-.073.106c.024.011.049.024.07.035Z" transform="translate(-0.01 -0.007)" fill="#858585"/>
        <path id="Path_379" data-name="Path 379" d="M184.09,134.605a1.87,1.87,0,0,1,1.828-2.026,1.92,1.92,0,0,1,2.018,2.053,1.924,1.924,0,1,1-3.843-.027Z" transform="translate(-134.235 -96.674)" fill="#858585"/>
      </g>
    </g>
  </g>
</svg>
