<svg xmlns="http://www.w3.org/2000/svg" xmlns:xlink="http://www.w3.org/1999/xlink" width="130" height="130" viewBox="0 0 130 130">
  <defs>
    <clipPath id="clip-prayer_rooms_for_men_and_women">
      <rect width="130" height="130"/>
    </clipPath>
  </defs>
  <g id="prayer_rooms_for_men_and_women" data-name="prayer rooms for men and women" clip-path="url(#clip-prayer_rooms_for_men_and_women)">
    <g id="Layer_1" data-name="Layer 1" transform="translate(19 41.014)">
      <g id="Group_32" data-name="Group 32" transform="translate(0 -0.014)">
        <path id="Path_164" data-name="Path 164" d="M92.478,72.348a11.844,11.844,0,0,1-1.28,7.5,5.584,5.584,0,0,1-.779.99c-.23.273-.547.593-.411.922.152.375.607.368,1,.358.692-.019,1.285.1,1.515.912A1.323,1.323,0,0,1,91.411,84.8a7.207,7.207,0,0,1-.723.01H2c-.736,0-1.539.123-1.836-.84C.14,83.644.3,83.291,0,83.02v-.181c.273-.181.319-.363,0-.542v-.723q.189-.091,0-.181,0-.457,0-.907c.363-1.606.733-3.211,1.081-4.819.135-.622.225-1.253.336-1.88,0-.315.339-.559.181-.9a8.6,8.6,0,0,1,1.285-3.416,5.5,5.5,0,0,1,.9-.936c.065-.044.131-.087.2-.133,1.79-1.309,3.772-1.023,5.763-.7,1.386.227,2.77.469,4.164.634.377.046.719.322,1.12.172l.9.181c1.038.094,1.694.646,1.631,1.369a1.655,1.655,0,0,1-1.807,1.377c-.121,0-.24-.012-.36-.019-.736-.235-.808-.174-.881.743.044.38-.324.69-.181,1.086.051.438-.365.811-.181,1.268.077.44-.317.818-.174,1.268-.058.363-.356.685-.189,1.086a3.332,3.332,0,0,1-.249,1.273c-.406.99.215,1.164.856,1.207,1.991.138,3.927.656,5.918.8,1.452.1,2.894.4,4.333.646a2.939,2.939,0,0,0,.7.027c.484-.128.965.409,1.449,0a13.071,13.071,0,0,0,3.8.723c.8.421,1.711.092,2.536.363a7.9,7.9,0,0,0,2.533.181,4.755,4.755,0,0,0,4.152-4.5,1.821,1.821,0,0,0,.094-.97c.007-3.573,0-7.147.007-10.72,0-.508.039-1.016.06-1.524a1.606,1.606,0,0,1,1.118-.755h.363l1.248.815c.377.247.644.128.733-.283a7.294,7.294,0,0,1,3.273-4.474q1.089-.541,2.175-1.079c.36-.14.719-.283,1.079-.423.44.012.706-.37,1.094-.481l3.078-1.268.356-.051,1.086-.552,1.086-.353c.864-.656,1.456-.448,2.335.218-.031.423.377.82.075,1.261a3.344,3.344,0,0,1-1.142.944c-.469-.073-.685.426-1.094.484a1.788,1.788,0,0,0-1.079.423c-.467-.07-.685.421-1.094.481l-1.077.24c-.133,0-.312-.109-.324.148-.16.445-.687.285-.944.573-.385-.085-.615.215-.9.365-.443-.128-.639.5-1.086.351-.474-.034-.767.283-1.086.554-.448-.111-.573.387-.912.481A2.349,2.349,0,0,0,46.7,63.454a1.126,1.126,0,0,0-.375.721c-.576.593-.285,1.321-.315,2a2.547,2.547,0,0,0,.186,1.449l.5,1.091a5.544,5.544,0,0,0,.549,1.447l.225.721c-.039.131.041.172.145.194a2.017,2.017,0,0,0,.348.9c.138.421.273.84.411,1.261.285.665.569,1.333.854,2,.087.172-.1.44.2.537.073.242.148.481.22.723-.039.131.041.169.145.194.3.472-.024,1.7,1.234,1.036.167.056.223-.082.3-.172a2.829,2.829,0,0,0,1-.368c.2-.2.576-.017.733-.324.184-.044.428.111.54-.165.162-.063.322-.128.486-.184,1.081-.37,1.1-.411.757-1.464-.186-.542-.37-1.086-.556-1.628l-.53-1.449c-.186-.542-.37-1.086-.556-1.628l-.53-1.449q-.457-1.357-.917-2.715c.23-.373.3-.856.762-1.065q1.081-.388,2.165-.774c1.757-.569,3.52-1.12,5.27-1.715a2.11,2.11,0,0,1,1.771-.058l.6.716a3.16,3.16,0,0,1-.223,1.248c-.3.2-.6.4-.9.6-1.945.646-3.89,1.3-5.84,1.933-.184.06-.235.031-.189.3a5.912,5.912,0,0,0,.748,2.272,4.515,4.515,0,0,0,.569,1.636A2.8,2.8,0,0,0,57,72.706a4.47,4.47,0,0,0,.569,1.636c0,.322.184.438.467.556a6.235,6.235,0,0,0,6-.6c1.822-1.135,2.8-3,4.024-4.638A11.875,11.875,0,0,0,70.434,65.6a8.4,8.4,0,0,0-.017-3.769,4.038,4.038,0,0,0-.873-1.817c-.2-.24-.206-.615-.552-.74l-.723-.723-.564-.377c-.16-.119-.317-.244-.479-.358q-2.21-1.561-4.42-3.119a.1.1,0,0,0-.08-.08c-1.648-1.159-3.218-2.424-4.943-3.472l-.181-.181c-.1-.261-.431-.387-.414-.716v-.363a2.164,2.164,0,0,1,.4-1.062,2.912,2.912,0,0,1,1.258-.235,1.3,1.3,0,0,1,.837.4,18.558,18.558,0,0,0,3.121,2.173c.293.179.242.738.75.685l.9.593c-.019.273.08.406.37.312.3.2.6.4.9.593-.019.273.08.406.37.312l.9.6c.046.2.23.143.36.189a16.569,16.569,0,0,0,2.715,1.989l1.619,1.793c-.114.506.636.438.593.9.2.206.034.573.327.736.024.653.648,1.115.578,1.8a3.194,3.194,0,0,1,.135,1.669c-.039.6.169.765.757.757,2.315-.031,4.633.031,6.949-.027A22.106,22.106,0,0,1,86,64.7a11.061,11.061,0,0,1,2.869,1.669q1.005,1.092,2.008,2.185c-.058.344.3.448.4.7.121.242.244.484.365.723.593.677.479,1.606.844,2.364ZM7.249,82.069h5.775a1.6,1.6,0,0,0,1.142-.138H13.033c-.15-.29-.421-.167-.641-.174-1.456-.053-2.1-.876-1.827-2.207-1.413-.825-2.018.121-2.606,1.173a12.206,12.206,0,0,1-.869,1.2c-.027.133.015.191.155.143Zm62.395-.155a11.157,11.157,0,0,1-3.131-6.034,11.238,11.238,0,0,1-2.671,1.59,3.736,3.736,0,0,1,2.207,1.88,3.4,3.4,0,0,1,.225,2.719h3.053c.133,0,.363.206.317-.155ZM45.255,72.532l-.145-.191q-.563-1.535-1.123-3.07c-.048-.063-.094-.126-.143-.189A1.917,1.917,0,0,0,42.63,67.64c0,2.843-.046,5.579.015,8.313a9.854,9.854,0,0,1-1.561,5.961l-.119.148c.046,0,.094,0,.14.01h7.762l.145-.007c-.041-.048-.082-.1-.123-.148-1.406-3.053-2.5-6.223-3.636-9.383Zm35.7,1.916V67.487c0-.358.08-.716-.51-.709-2.349.024-4.7.007-7.053.015-.256,0-.513-.017-.624.353a12.135,12.135,0,0,1-2.33,3.8,4.667,4.667,0,0,0-1.309,3.714c.056.351.186.677.215,1.036a7.809,7.809,0,0,0,5.894,6.254c1.645.273,3.288.036,4.924.155.624.046.818-.135.806-.781-.041-2.289-.017-4.58-.017-6.871ZM83.7,81.914c4.253-1,6.448-4.065,6.066-8.717A7.094,7.094,0,0,0,83.7,67.035ZM7.268,70.163a2.7,2.7,0,0,0-2.739,2.081c-.336,2.015-.8,4.007-1.236,6a13.042,13.042,0,0,0-.576,3.189c.01.285.012.564.331.656a.633.633,0,0,0,.728-.213c.126-.165.278-.31.394-.479.985-1.427,1.955-2.867,2.957-4.285.194-.273.387-.663.818-.615a7.51,7.51,0,0,1,2.136.145c.6.237,1.067,0,1.144-.745a46.094,46.094,0,0,1,.726-4.7c.051-.244.034-.479-.334-.494-1.42-.056-2.78-.586-4.348-.54ZM57.984,82.071v.017q2.261,0,4.524,0a1.076,1.076,0,0,0,1.212-.929,1.012,1.012,0,0,0-.847-1.178c-1.781-.44-3.537-.951-5.3-1.466a1.8,1.8,0,0,0-1.137.082c-1.544.6-3.107,1.147-4.662,1.713-.363.131-.5.3-.169.639a3.064,3.064,0,0,0,2.214,1.118c1.386.01,2.775,0,4.161,0Z" transform="translate(0 -36.83)" fill="#858585"/>
        <path id="Path_165" data-name="Path 165" d="M93.711,36.2l-.537.051a.723.723,0,0,0-.723-.181l-.537-.051c-.2-.2-.285-.685-.731-.31l-.544.181a.69.69,0,0,0-.723-.181H89.37c-.491-.331-1.164-.172-1.621-.6a1.3,1.3,0,0,1-.23-1.623A1.172,1.172,0,0,1,89,32.935a17.048,17.048,0,0,0,3.375.2c.682.048.421-.324.3-.68q-1.619-4.634-3.208-9.276c-.227-.658-.433-1.326-.648-1.986l-1.277-4.164a14.635,14.635,0,0,1-.152-2.891,4.4,4.4,0,0,1,.157-1.454c.131-.6.264-1.2.394-1.8a2.067,2.067,0,0,0,.377-1.1A21.589,21.589,0,0,1,92.888,3.6l.237-.063.946-.786A20.88,20.88,0,0,1,98.789.514c.462.027.83-.29,1.268-.353a31.632,31.632,0,0,1,5.178-.138,9.132,9.132,0,0,1,1.7.315L108.2.565a2.033,2.033,0,0,0,1.086.363l1.091.489a2.041,2.041,0,0,0,.888.406,17.991,17.991,0,0,1,2.223,1.619c.01.266.191.16.329.15l.936.755c.01.269.191.162.329.15l.936.755c.01.269.191.162.329.152q.468.377.939.755c.01.266.191.16.329.15l.936.755c.01.269.191.162.329.152l1.086.907c1,.315,1.043,1.038.8,1.882a1.463,1.463,0,0,1-1.164.726l-.535-.063c-.552-.416-1.1-.84-1.66-1.246-1.135-.82-2.262-1.65-3.419-2.439a33.959,33.959,0,0,0-3.419-2.277c-.46-.254-.815-.716-1.408-.7a1.856,1.856,0,0,0-1.144-.53,6.9,6.9,0,0,0-3.034-.721,19.256,19.256,0,0,0-4.643.138,2.338,2.338,0,0,0-.469.223c-.465-.029-.832.285-1.268.36a3.865,3.865,0,0,0-1.454.675,3.808,3.808,0,0,0-1.623.941,7.664,7.664,0,0,0-2.543,2.494.991.991,0,0,0-.564.733,8.5,8.5,0,0,0-1.548,2.727.938.938,0,0,0-.247.719,2.179,2.179,0,0,0-.3,1.273,6.474,6.474,0,0,0-.191,2.715,20.043,20.043,0,0,0,1.452,4.887,12.788,12.788,0,0,0,1.031,2.906,9.225,9.225,0,0,0,.6,2.136q.541,1.553,1.084,3.107l.726,2.144c.411,1.2.772,2.412,1.268,3.573.165.385-.109.665.024.98-.293.288-.479.709-.961.755h-.723c-.307.058-.583-.5-.912-.051Z" transform="translate(-66.202 0.014)" fill="#858585"/>
      </g>
    </g>
  </g>
</svg>
