<svg xmlns="http://www.w3.org/2000/svg" xmlns:xlink="http://www.w3.org/1999/xlink" width="130" height="130" viewBox="0 0 130 130">
  <defs>
    <clipPath id="clip-Fashion">
      <rect width="130" height="130"/>
    </clipPath>
  </defs>
  <g id="Fashion" clip-path="url(#clip-Fashion)">
    <g id="Layer_1" data-name="Layer 1" transform="translate(27.001 22)">
      <g id="Group_47" data-name="Group 47" transform="translate(0 0)">
        <path id="Path_351" data-name="Path 351" d="M11.615,37.95l-.211.664a7.248,7.248,0,0,0-.671,1.671,1.833,1.833,0,0,0-.329.821c-.089.028-.173.062-.124.184Q9.441,43.8,8.6,46.312c-.052.278-.1.558-.158.837-.075.161-.292.273-.178.5.034.243-.293.4-.159.669A6.287,6.287,0,0,0,7.56,50.3c-.092.029-.171.065-.122.186-.511,1.928-1.026,3.854-1.527,5.784a1.275,1.275,0,0,0,.035.407c-.082.161-.305.267-.189.5.047.352-.3.637-.168,1-.069.163-.278.278-.168.5.049.352-.3.637-.168,1-.287.4-.179.9-.335,1.338q-.251,1.338-.5,2.675c0,.29-.313.518-.168.837.03.4-.34.749-.153,1.17-.077.161-.3.272-.183.5q-.251,1.672-.5,3.344a.652.652,0,0,0-.168.837,18.915,18.915,0,0,0-.335,2.675c-.055.278-.112.558-.168.837-.193.712.1.865.793.855a32.739,32.739,0,0,1,4.867.454c.593-.069,1.073.434,1.673.335q1,.251,2.007.5c.245-.035.4.3.669.164.275.288.7.144,1,.337a12.83,12.83,0,0,0,2.51.826l1.338.511a.888.888,0,0,0,.666.206c.035.206.21.141.335.168a1.784,1.784,0,0,0,1,.335,1.125,1.125,0,0,0,.977.334c.03.1.077.166.2.121a2.545,2.545,0,0,0,1.142.381c.032.1.08.164.2.121a10.133,10.133,0,0,0,2,.726.872.872,0,0,0,.845.29,13.473,13.473,0,0,0,2.843,1,.887.887,0,0,0,.664.21,19.581,19.581,0,0,0,2.677.666c.05.206.2.156.339.127a4.8,4.8,0,0,0,1.487.2c.027.092.065.169.184.132a19.361,19.361,0,0,0,4.131.188,18.4,18.4,0,0,0,9.284-2.756c.746-.463.694-1.051.63-1.685-.129-1.271-.37-2.533-.469-3.805-.039-.486-.211-.523-.593-.521-5.431.02-10.863.023-16.294.06-.262,0-.444-.236-.7-.122a5.614,5.614,0,0,1-1.152-.872c-.749-1.623-.131-3.2.186-4.778.035-.179.146-.347.1-.545l.325-.692a21.335,21.335,0,0,1,1.066-2.332l1.118-1.514c.179-.216.357-.433.536-.65L32,62.211l.474-.36.184-.132.652-.536.184-.126a22.367,22.367,0,0,1,7.423-3.167,1.506,1.506,0,0,1,1.111.094c.4.042.672.345,1.007.518l.364.515c-.035.119.035.154.132.171-.039.211.127.335.208.5-.079.733.585.942.959,1.356.111.112.223.225.334.335a1.38,1.38,0,0,0,1.008.66c.015.1.055.164.171.127h1.338a.755.755,0,0,0,.674-.29c.292.012.555-.029.681-.344a.262.262,0,0,0,.149-.042.867.867,0,0,0,.521-.459.3.3,0,0,0,.148-.037,2.413,2.413,0,0,0,.855-.8l.156-.156a3.568,3.568,0,0,0,.845-.85c.176-.047.141-.208.176-.33a2.5,2.5,0,0,0,.952-1.18c.6-.835,1.167-1.688,1.8-2.494a1.478,1.478,0,0,0,.256-.843c.188-.045.129-.213.168-.334.464.069.3-.409.377-.562a12.072,12.072,0,0,0,1.452-3.106,4.319,4.319,0,0,0,.632-1.19l.883-1.834c.164-.28.33-.558.495-.838s.335-.557.5-.837l1.458-2.012.521-.617.525-.535.677-.515q.646-.44,1.294-.882l.523-.146c.28.28.307.054.335-.168a7.88,7.88,0,0,1,4.357-.511l.329.047c.059.194.2.149.342.119.223.122.446.243.667.365.025.22.233.127.342.2a8.812,8.812,0,0,1,1.876,2.136c.148.282.293.563.441.843a19.954,19.954,0,0,1,1.519,7.9,1.411,1.411,0,0,0,.159.619,2.471,2.471,0,0,0-.292,1.008l-.049.83a1.279,1.279,0,0,0-.282.843.926.926,0,0,0-.223.662l-.332.837c-.216.039-.107.29-.245.379q-.3.729-.6,1.458a2.371,2.371,0,0,0-.488,1.009,1.7,1.7,0,0,0-.342,1,4.969,4.969,0,0,0-.7,2.773c-.047,3.049.161,6.1-.1,9.15-.025.288-.2.51-.206.786a6.685,6.685,0,0,1-1.313,1.044,11.548,11.548,0,0,1-2.533.132c-.516,0-1.064.109-1.474-.35a3.8,3.8,0,0,1-1.029-1.653q.123-5.436-.007-10.871a.905.905,0,0,0-.171-.837c.01-.3.029-.6.027-.9-.008-1.234-.255-1.371-1.336-.751a1.425,1.425,0,0,0-.847.619c-.406-.005-.52.419-.826.562-.173-.032-.213.126-.3.211-.137.146-.277.292-.414.436l-.154.149c-.044.045-.087.091-.129.136a6.993,6.993,0,0,0-1.849,2.025,1.055,1.055,0,0,0-.85.848l-.649.712c-.226-.01-.136.188-.191.29A15.684,15.684,0,0,0,54.236,68.7a10.517,10.517,0,0,0-1.356,2.848q-.5,1.086-1,2.174a3.852,3.852,0,0,1-2.416.687c-.313-.037-.246.22-.218.4.256,1.638.4,3.287.508,4.94-.126.268.213.421.169.669-.03.453-.479.709-.54,1.147a.866.866,0,0,0-.837.5.838.838,0,0,0-.667.506.958.958,0,0,0-.669.334l-.163.055c-.116-.029-.158.017-.132.131l-1.7.87c-.357-.08-.567.2-.837.335-1.267.37-2.515.8-3.814,1.071-.456.1-.979-.174-1.371.233h-.5c-.223-.293-.446-.186-.669,0H34.168c-.888-.168-1.779-.327-2.667-.5a49.053,49.053,0,0,1-8.03-2.332,123.158,123.158,0,0,0-15-5.059,6.03,6.03,0,0,1-2.012-.5c-.047-.03-.107-.089-.142-.077-1.722.55-3.47-.139-5.2.122-.662.1-.986-.315-1.066-.9a12.105,12.105,0,0,1,.181-2.962c.154-1.4.387-2.788.657-4.167.283-1.45.548-2.909.818-4.355.231-1.237.481-2.489.681-3.742.139-.875.312-1.745.471-2.617,0-.29.313-.518.168-.837.513-2,1.043-4,1.536-6.01.593-2.416,1.274-4.806,2.012-7.18a60.684,60.684,0,0,1,3.361-8.826,4.239,4.239,0,0,0-.218-3.574.668.668,0,0,0-.168-.669c.146-.319-.166-.546-.168-.837.146-.319-.166-.546-.168-.837a9.394,9.394,0,0,0-.5-2.174.668.668,0,0,0-.168-.669,5.775,5.775,0,0,0-.335-1.673c.146-.319-.166-.546-.168-.837A49.631,49.631,0,0,1,6.9,16.957c-.022-1.391.124-1.557,1.507-1.629.159.084.287.241.495.215.54.4.381,1.056.461,1.566A12.3,12.3,0,0,1,9.6,19.036c.055.278.112.558.168.837.374,2.189.778,4.372,1.338,6.523-.146.319.166.546.168.837q.251,1.086.5,2.174c-.146.319.166.546.168.837.216.934.479,1.861.625,2.806.064.407.174.49.55.49q11.406-.015,22.812-.012a1.254,1.254,0,0,0,.243-.05c.709.117.459-.389.473-.724.62-1.968.915-4.012,1.386-6.015a1.563,1.563,0,0,0,.119-.843,30.1,30.1,0,0,0,.865-3.824A51.216,51.216,0,0,0,40,8.446c-.06-1.826-.148-3.651-.131-5.478,0-.422-.146-.49-.526-.5C37.8,2.426,37.789,2.411,37.8,3.955A14.157,14.157,0,0,1,35,13.136a14,14,0,0,1-6.281,4.59,12.937,12.937,0,0,1-5.742.6,11.986,11.986,0,0,1-6.065-2.414A13.243,13.243,0,0,1,11.8,8.233a16.135,16.135,0,0,1-.22-4.712c.047-.9-.248-1.18-1.09-1.048a7.913,7.913,0,0,1-.915.04c-.111-.023-.158.017-.126.131a69.546,69.546,0,0,0-.184,8.4,1.654,1.654,0,0,1-.25,1.1c-.337.391-.739.867-1.311.664a1.309,1.309,0,0,1-.954-1.292c.01-1.309.032-2.62-.027-3.928-.087-1.945.173-3.876.183-5.815A1.81,1.81,0,0,1,8.687.022a12.286,12.286,0,0,1,3.328.022c1.524.248,2.04,1.036,2.052,2.632.01,1.282,0,2.565.034,3.846a3.572,3.572,0,0,0,.362,1.643,5.436,5.436,0,0,0,1.111,2.518,8.97,8.97,0,0,0,3.653,3.708,11.664,11.664,0,0,0,2.4,1.1c.35-.034.639.3,1,.168a2.553,2.553,0,0,0,2.137-.03c.1-.05.173-.148.29-.079,1.093.649,2.136.057,3.068-.3a10.845,10.845,0,0,0,6.437-6.394,11.683,11.683,0,0,0,.711-4.846A5.641,5.641,0,0,0,35.1,1.692c-.154-.342.5-1.031,1.014-1.353A2.021,2.021,0,0,1,37.249-.02,17.993,17.993,0,0,1,40.63.121a1.953,1.953,0,0,1,1.733,2.09c.008,1.532,0,3.064,0,4.6a1.085,1.085,0,0,0,.194.857c0,.278.005.558.008.837q0,2.844-.007,5.686v.5a7.373,7.373,0,0,0-.2,2.027c-.122,1.279-.305,2.551-.463,3.825,0,.29-.313.518-.168.837q-.251,1.338-.5,2.676a.668.668,0,0,0-.168.669,5.877,5.877,0,0,0-.335,1.673.668.668,0,0,0-.168.669l-.156.669c.013.3-.339.511-.179.837a39.1,39.1,0,0,0-.982,4.682.83.83,0,0,0-.236.662.284.284,0,0,0-.137.411,8.58,8.58,0,0,0,1.147,2.3c.05.161-.092.391.171.476l.211.5a.772.772,0,0,0,.3.838,5.4,5.4,0,0,0,.666,1.526c.013.1.025.208.039.312.483,1.591,1.182,3.111,1.509,4.753l.332.934c-.037.116.03.156.127.171-.03.444.376,1,.293,1.184-.367.811.65,1.276.376,1.993l.394.5c-.142.414.228.764.149,1.172,0,.168.005.334.007.5-.034.137-.075.28.119.339a10.289,10.289,0,0,1,.989,3.24c.148.557.552,1.138.221,1.774l-.376.5a1.132,1.132,0,0,1-1.651,0c-.495-.449-.381-1.142-.667-1.673-.369-1.509-.729-3.019-1.118-4.523a2.948,2.948,0,0,1-.057-.476c.042-.042.084-.085.124-.127l-.126-.069c-.013-.163-.025-.325-.039-.488.084-.277-.1-.4-.3-.516-.013-.218-.025-.436-.039-.654.084-.277-.1-.4-.3-.516-.013-.218-.025-.436-.039-.654.094-.28-.07-.34-.3-.35-.013-.132.027-.292-.166-.337-.052-.163.1-.391-.154-.491-.034-.6.054-1.244-.515-1.683a.331.331,0,0,0-.035-.149,4.83,4.83,0,0,0-.5-1.505c.03-.139.072-.282-.121-.34a35,35,0,0,0-1.344-3.7c.072-.22-.148-.31-.208-.473-.075-.181-.1-.391-.283-.511-.039-.308-.018-.64-.339-.835-.2-.863-.612-1.341-1.634-1.246a31.548,31.548,0,0,1-3.584.018c-.553-.012-.987-.007-.659.738a1.054,1.054,0,0,1,.032.329c-.028.139-.077.287.126.34a9.8,9.8,0,0,0,.208,1.668c.055.223.112.446.168.669-.142.577.22,1.1.168,1.673-.146.319.166.546.168.837-.114.733.3,1.433.124,2.169-.228.253.082.245.168.345.015.221.028.443.044.664-.26.6.1,1.432-.7,1.821-1.051.225-1.663-.262-1.817-1.732-.29-2.776-.644-5.54-1.184-8.28A1.392,1.392,0,0,1,29,36.939c.241-.186.241-.354-.035-.5-.1-.372-.372-.4-.7-.4-2.305.01-4.61.007-6.913.005-.951,0-.535.78-.7,1.227-.32.575-.1,1.249-.335,1.841a30.982,30.982,0,0,1-.717,4.008c-.342.25-.055.456.047.676a10.924,10.924,0,0,0-.186,2.01c-.2.042-.174.188-.148.332-.216,1.08-.838,1.413-1.857,1-.117-.226-.4-.357-.376-.664.183-.625-.256-1.21-.121-1.832.194-.059.149-.2.121-.342.055-.223.112-.446.168-.669.161-.273.387-.541.047-.843.189-1.45.387-2.9.567-4.349a7.083,7.083,0,0,0,.223-1.666c.132-.2.31-.4.137-.647-.111-.156-.292-.065-.444-.032-1.626-.015-3.252-.055-4.878-.034-.744.01-.639.8-.949,1.214-.075.158-.251.275-.2.484-.092.027-.171.064-.127.186ZM66.1,42.958l.007-.007c-.163.067-.4-.092-.5.164a1.035,1.035,0,0,0-.831.344c-.344,0-.5.246-.677.484a.515.515,0,0,0-.459.273l-.382.414.005-.005-.332.334a19.343,19.343,0,0,0-2.184,3.188l-.29.438-.61,1.271c-.131.325-.412.583-.427.961q-1.431,2.846-2.86,5.693L56.239,57a9.743,9.743,0,0,0-1.177,1.851.513.513,0,0,0-.32.344c-.169.273-.479.458-.51.818-.256.161-.5.33-.515.676l-.324.322-1.505,1.505-.5.495c-.339.012-.5.267-.672.5-.122.037-.3-.015-.325.186a4.165,4.165,0,0,0-1.175.66c-.411-.054-.694.283-1.061.349a5.632,5.632,0,0,1-6.11-3.091c-.352-.706-.66-1.333-1.7-.957a10.579,10.579,0,0,1-1.661.577.7.7,0,0,0-.676.278,4.807,4.807,0,0,0-1.841.837,7.217,7.217,0,0,0-1.47.937c-.176.153-.354.305-.53.456a4.08,4.08,0,0,0-1.3,1.3,11.112,11.112,0,0,0-1.852,3.011c-.069.221-.136.444-.2.666-.21.049-.158.2-.129.339a3.363,3.363,0,0,0-.335,1.17c-.065.317-.146.63-.191.951-.054.391-.032.664.531.662,6.152-.013,12.306.007,18.459,0A1.152,1.152,0,0,0,50.4,71a10.745,10.745,0,0,1,1.524-3.277l.136-.186c.012-.288.223-.483.334-.724.486-1.063,1.351-1.884,1.876-2.924.1-.111.208-.221.313-.332.173-.045.169-.184.171-.322q.249-.256.5-.515a.5.5,0,0,0,.337-.495c.166-.169.334-.337.5-.506a28,28,0,0,1,2.855-2.857l.337-.334c.21-.184.563-.178.667-.5l.382-.362.235-.077c.186-.22.541-.211.679-.5a7.343,7.343,0,0,1,2.545-1.152c1.551-.246,2.1-.3,2.593,1.3a19.19,19.19,0,0,1,.6,5.706q.013,4.388.023,8.774v.127l.127-.106a2.62,2.62,0,0,1,.5,0c.83.158,1-.2.977-.987-.057-2.335-.042-4.672,0-7.007a9.053,9.053,0,0,1-.074-1.266,19.486,19.486,0,0,1,1.294-4.127l.131-.184c.121-.325.24-.652.36-.977a1.8,1.8,0,0,0,.458-.843c-.085-.319.377-.409.3-.724.04-.22.3-.352.245-.609A5.871,5.871,0,0,0,71.812,53c.278-.179.127-.441.129-.672,0-.5,0-1,0-1.505,0-.168-.005-.335-.007-.5q-.163-1.086-.329-2.174c0-.112-.007-.223-.012-.335q-.485-1.416-.969-2.833c-.044-.059-.087-.116-.132-.174-.681-1.229-1.44-2.354-3.1-2.173-.374.04-.741.127-1.111.193-.119-.04-.156.037-.183.127Z" transform="translate(-0.006 0.08)" fill="#858585"/>
        <path id="Path_352" data-name="Path 352" d="M226.73,510.216c.223-.186.446-.293.669,0Z" transform="translate(-188.722 -424.52)" fill="#858585"/>
        <path id="Path_353" data-name="Path 353" d="M264.493,77.411c-.28-.334-.424-.781-.838-1l-.667-.674c-.186-.307-.3-.676-.672-.831a2.257,2.257,0,0,0-.667-.672c-.282-.332-.416-.788-.838-1l-.5-.5a2.811,2.811,0,0,1-.872-2.322c.181-.493.36-.986.541-1.48a9.35,9.35,0,0,0,.831-1.884,1.359,1.359,0,0,1,1.725-.788,1.328,1.328,0,0,1,.629,1.618c-.089.329-.3.655-.171,1.026-.107.027-.317-.007-.2.191.094.166.257.146.362-.034h6.011c.508.3.275-.166.337-.325.164-1.09.334-2.178.484-3.269a4.738,4.738,0,0,0-.008-.739c.059-.334.315-.634.168-1v-.169c-.012-.293.347-.51.173-.837.072-.335.085-.582-.4-.565-1.251.042-2.5.039-3.757.055-.456-.142-.635.1-.691.5-.305.322-.36.84-.815,1.044l-.837.161c-1.014-.436-1.3-1.125-.756-2.065.173-.3.275-.64.424-.954a2.067,2.067,0,0,1,2.015-1.237c.417,0,.837-.005,1.254-.005q9.03,0,18.058,0c.305,0,.61-.025.915-.039a3.605,3.605,0,0,1,1.826,1.106c1.142,2.711,2.265,5.43,3.437,8.125.464,1.068.912,2.1.251,3.237a.858.858,0,0,0-.459.5l-.541.649a2.433,2.433,0,0,0-.8.857q-.269.324-.54.649a2.413,2.413,0,0,0-.8.857c-.179.216-.36.433-.54.647a3.415,3.415,0,0,0-.961,1.024c-.181.216-.364.433-.545.65a2.371,2.371,0,0,0-.795.855l-.545.649a2.37,2.37,0,0,0-.795.855q-.272.324-.543.65a2.409,2.409,0,0,0-.8.855l-.541.649a2.428,2.428,0,0,0-.8.857l-.54.649a2.414,2.414,0,0,0-.8.857l-.54.647c-.382.357-.863.63-1.021,1.184a1.2,1.2,0,0,0-.484.493,4.579,4.579,0,0,0-1,1.013c-.21-.028-.34.124-.5.215-.256.171-.558.1-.836.161l-.669,0-.994-.553a1.7,1.7,0,0,0-.672-.83l-.5-.5c-.28-.334-.422-.783-.838-1l-.667-.674c-.186-.307-.3-.676-.672-.831l-.667-.674c-.189-.305-.3-.672-.672-.831a2.219,2.219,0,0,0-.667-.672l-.5-.674c-.28-.277-.558-.555-.838-.831-.28-.334-.419-.785-.838-1l-.5-.5c-.282-.332-.421-.783-.838-1l-.5-.5Zm-1.349-5.49q4.624,5.265,9.25,10.529a31.294,31.294,0,0,0-1.046-4.149c-.672-2.188-1.358-4.372-2.038-6.558.025-.119-.018-.168-.139-.136h-6.02l-.3.035C262.948,71.735,263.047,71.827,263.144,71.921Zm15.87-.176c.023-.117-.02-.168-.141-.136h-6.69c-.116-.023-.179,0-.126.134.982,3.847,2.288,7.6,3.463,11.409.629-1.762,1.155-3.524,1.7-5.281.156-.508.28-1.043.977-1.116,1.475-.153,1.738.717,1.428,1.839-.339,1.22-.729,2.427-1.1,3.638.319.1.4-.082.5-.2,1.046-1.2,2.074-2.424,3.131-3.618,1.862-2.1,3.745-4.191,5.613-6.29.1-.111.307-.191.218-.394s-.278-.144-.438-.144q-1.838-.005-3.678,0a5.255,5.255,0,0,0-1.981.057c-.58.256-.441,1.135-.684,1.717a1.27,1.27,0,0,1-2.154.334c-.659-.677-.089-1.3-.042-1.946Zm-3.47-2.67c1,0,2.007-.023,3.007.01.495.017.552-.179.469-.593-.126-.635-.228-1.277-.313-1.919-.173-1.294-.434-2.573-.53-3.879a.558.558,0,0,0-.65-.555c-1.334.054-2.674.032-4.01.012-.52-.008-.655.226-.681.7-.034.622-.153,1.239-.243,1.856-.189,1.289-.387,2.577-.578,3.866-.06.406.127.516.52.506,1-.025,2-.008,3.009-.008Zm5.024-6.918a3.57,3.57,0,0,1,.149.484c.282,2.018.565,4.035.821,6.055.035.278.1.382.382.382,2.121-.008,4.243-.005,6.436-.005-.954-2.238-1.866-4.365-2.764-6.5a.588.588,0,0,0-.614-.426c-1.443.012-2.887.005-4.411.005Zm7.644,9.5c-.018-.02-.035-.054-.055-.055s-.04.03-.06.049l.086.055c.01-.018.02-.035.029-.049Z" transform="translate(-215.94 -49.604)" fill="#858585"/>
      </g>
    </g>
  </g>
</svg>
