<svg xmlns="http://www.w3.org/2000/svg" xmlns:xlink="http://www.w3.org/1999/xlink" width="130" height="130" viewBox="0 0 130 130">
  <defs>
    <clipPath id="clip-Banks_and_finance">
      <rect width="130" height="130"/>
    </clipPath>
  </defs>
  <g id="Banks_and_finance" data-name="Banks and finance" clip-path="url(#clip-Banks_and_finance)">
    <g id="Layer_1" data-name="Layer 1" transform="translate(20.416 20.413)">
      <g id="Group_42" data-name="Group 42" transform="translate(0 0)">
        <path id="Path_319" data-name="Path 319" d="M2.452,88.25H2.279A3.38,3.38,0,0,1,.016,84.562c.108-1.253.032-2.521.021-3.783a2.843,2.843,0,0,1,1.018-2.2l.187-.132a4.512,4.512,0,0,1,.822-.4,10.607,10.607,0,0,1,3.054-.15,1.137,1.137,0,0,0,1.039-.517c1.136-1.634,2.3-3.25,3.465-4.864a3.872,3.872,0,0,0,.783-2.405c-.039-9.882-.023-19.764-.028-29.645a1.518,1.518,0,0,0-.226-1.048c-1.1-1.48-2.158-3-3.218-4.508-.589-.84-1.043-1.865-2.384-1.533-.067.016-.152-.069-.233-.083A5.361,5.361,0,0,1,.388,30.273a5.4,5.4,0,0,1-.332-1.258C.03,27.254.065,25.49.079,23.729L.2,23.547a2.33,2.33,0,0,1,.464-.476c1.909-1.055,3.832-2.08,5.741-3.137,2.3-1.272,4.58-2.576,6.874-3.853q2.895-1.61,5.805-3.185c.854-.459,1.648-.286,1.985.365a1.388,1.388,0,0,1-.785,1.994c-.346.178-.695.349-1.034.536-2.306,1.27-4.624,2.521-6.913,3.823A38.766,38.766,0,0,0,7.417,22.5c-.256.229-.676.162-.914.51a2.789,2.789,0,0,0,1.152-.032c.143,0,.286.009.429.009H81.1c.2,0,.4-.012.6-.016.053.023.113.072.12-.039-.042,0-.081,0-.122,0-2.394-1.431-4.857-2.735-7.306-4.072-3.9-2.126-7.749-4.34-11.629-6.5-2.444-1.36-4.912-2.675-7.359-4.03-3.25-1.8-6.489-3.619-9.741-5.413-.877-.485-1.9-.039-2.8-.36A25.1,25.1,0,0,1,38.99,4.81a27.128,27.128,0,0,1-3.853,2.052h-.053a.081.081,0,0,0-.106.009c-.12-.03-.265-.111-.256.125a2.283,2.283,0,0,1-.471.482q-4.134,2.282-8.282,4.533a1.194,1.194,0,0,1-1.48-.108c-.755-.662-.57-1.577.381-2.124,3.6-2.068,7.253-4.046,10.881-6.064,1.5-.836,3-1.669,4.49-2.532A7.107,7.107,0,0,1,47.646.978c1.925,1.05,3.813,2.167,5.732,3.229q6.44,3.566,12.892,7.11,3.5,1.929,6.987,3.866c3.894,2.163,7.811,4.287,11.666,6.516,1.154.667,2.544,1.02,3.365,2.2v5.348c-1.009,2.578-2.768,4.13-5.653,4.139a.6.6,0,0,0-.545.314c-1.182,1.7-2.389,3.391-3.566,5.1a2.586,2.586,0,0,0-.593,1.535q.035,15.332.014,30.666a1.433,1.433,0,0,0,.293.928c1.076,1.468,2.107,2.968,3.128,4.478.653.967,1.313,1.708,2.7,1.51a3.625,3.625,0,0,1,4.229,2.225v6.039a5.476,5.476,0,0,1-2.412,2.071H84.844c-.252-.289-.591-.166-.891-.166q-40.351-.007-80.7,0c-.27,0-.582-.127-.8.168ZM9.167,77.713l-.122.132.136.016H24.337c.1.035.215.074.272-.042.016-.032-.076-.12-.118-.182q-1.375-1.963-2.747-3.924a.976.976,0,0,0-.884-.524c-2.7.023-5.394.009-8.093.016-.212,0-.464-.083-.626.155q-1.489,2.178-2.973,4.356Zm69.826-.182q-1.406-2.032-2.814-4.07a.711.711,0,0,0-.669-.268c-2.724.007-5.448,0-8.169.009-.21,0-.432-.06-.607.189-1.018,1.461-2.057,2.908-3.167,4.469H78.974c.06-.032.159-.051.175-.1.039-.122-.042-.2-.157-.235Zm-34.883.355q7.8,0,15.6.009a1.082,1.082,0,0,0,1.073-.579,46.194,46.194,0,0,1,2.74-3.841,5.257,5.257,0,0,0,1.493-4.222,15.3,15.3,0,0,1-.021-2.324c0-1.812-.012-3.622.007-5.434.009-.854.367-1.186,1.189-1.191.946-.007,1.383.452,1.387,1.514.009,2.673.018,5.348-.009,8.021,0,.566.09.8.734.789,2.124-.044,4.252-.039,6.376,0,.589.012.7-.182.7-.729q-.024-14.317,0-28.634c0-.531-.125-.672-.66-.665-2.1.035-4.194.053-6.29-.007-.753-.021-.87.222-.866.907.032,4.169.023,8.338.009,12.506a8.629,8.629,0,0,1-.155,1.777,1.234,1.234,0,0,1-2.424-.321c.012-4.974,0-9.946,0-14.921a1.763,1.763,0,0,0-.21-1.069q-1.939-2.756-3.9-5.491a1.584,1.584,0,0,0-1.45-.669c-4.508.037-9.019.021-13.529.021H28.586c-.4,0-.783-.035-1.043.392-1.166,1.9-2.7,3.546-3.737,5.533-.189.365-.492.628-.489,1.131q.035,15.352.014,30.7a1.514,1.514,0,0,0,.286.849c1.09,1.747,2.565,3.218,3.548,5.039a1.677,1.677,0,0,0,1.69.939c5.083-.06,10.168-.03,15.251-.03Zm.062,2.588H3.931c-.231,0-.462.016-.688,0-.473-.042-.644.132-.63.632.037,1.265.039,2.53,0,3.795-.021.63.233.764.813.764q40.628-.017,81.254,0c.759,0,1.023-.325,1.025-1,0-.976,0-1.955,0-2.932q0-1.256-1.207-1.256H44.172Zm.03-54.905H3.71a5.242,5.242,0,0,1-.6,0c-.372-.042-.5.1-.487.478.025.8,0,1.609.012,2.414A2.512,2.512,0,0,0,4.22,30.633a4.571,4.571,0,0,0,1.747.1q38.167.01,76.333,0c.344,0,.69,0,1.034-.021a2.219,2.219,0,0,0,2.013-1.438,3.542,3.542,0,0,0,.358-1.616c-.039-.683.293-1.581-.139-1.983-.362-.335-1.249-.115-1.9-.115Q63.933,25.565,44.2,25.569Zm-31.236,30c0,4.741.016,9.482-.018,14.221,0,.692.192.852.854.838,2.066-.044,4.134-.039,6.2,0,.607.012.764-.169.762-.766q-.028-14.265,0-28.531c0-.639-.208-.736-.776-.727-2.1.032-4.192.037-6.285,0-.6-.012-.757.136-.755.746.028,4.741.016,9.482.016,14.221ZM24.591,33.4H9.035c1.076,1.553,2.082,2.989,3.061,4.443.18.27.4.175.6.175,2.724.012,5.448.007,8.171.007.254,0,.5.032.683-.231.993-1.447,1.994-2.89,3.038-4.395Zm39.075-.046c.969,1.62,2.043,2.982,3.04,4.4.222.316.533.275.847.275,2.126,0,4.261-.132,6.373.042a3.027,3.027,0,0,0,3.252-1.731c.575-1.023,1.318-1.946,2.036-2.985H63.665ZM24.593,33.2c.016-.016.046-.03.048-.046s-.023-.037-.035-.058c-.016.016-.046.03-.048.046S24.581,33.181,24.593,33.2Z" transform="translate(0.003 -0.036)" fill="#858585"/>
        <path id="Path_320" data-name="Path 320" d="M353.99,99.2V99.16c.042,0,.081,0,.122,0-.009.111-.069.062-.12.039Z" transform="translate(-272.278 -76.279)" fill="#858585"/>
        <path id="Path_321" data-name="Path 321" d="M171.318,33.9a5.8,5.8,0,0,1,5.845,5.33c.208,4.042-2.645,6.526-6.445,6.526a5.952,5.952,0,0,1-5.434-5.923,5.736,5.736,0,0,1,6.034-5.93Zm-.1,2.588c-1.794-.358-3.435,1.884-3.379,3.329.058,1.47,1.747,3.472,2.994,3.379,2.511-.185,3.843-1.613,3.758-3.707A3.238,3.238,0,0,0,171.215,36.484Z" transform="translate(-127.13 -26.077)" fill="#858585"/>
        <path id="Path_322" data-name="Path 322" d="M133.054,179.463a14.339,14.339,0,0,1,6.279-2.733c.376-.076.81.113,1.131-.229l.69-.012a16.724,16.724,0,0,1,7.257,1.611,20.152,20.152,0,0,1,2.084,1.36c.012.249.182.148.312.141a14.435,14.435,0,0,1,5.7,10.526,16.452,16.452,0,0,1-.593,5.974,14.546,14.546,0,0,1-2.2,4.009,14.8,14.8,0,0,1-9.238,5.84,11.283,11.283,0,0,1-6.869-.48,22.9,22.9,0,0,1-4.342-2.022,15.062,15.062,0,0,1-5.891-8.52c-.088-.319-.138-.646-.208-.972.15-.33-.171-.563-.173-.863.009-.66.042-1.318.025-1.978a12.869,12.869,0,0,1,1.556-6.431A22.8,22.8,0,0,0,129.8,182.6c.459-1.163,1.66-1.549,2.341-2.461a3.249,3.249,0,0,1,.743-.554c.125.058.15-.028.171-.12ZM134.57,201.2c.037.09.072.182.2.141a10.536,10.536,0,0,0,5.9,2.234,12.281,12.281,0,0,0,12.5-16.606,11.444,11.444,0,0,0-5.457-6.269,11.852,11.852,0,0,0-7.32-1.436,11.73,11.73,0,0,0-5.972,2.3c-.129-.037-.166.055-.205.145a10.751,10.751,0,0,0-2.031,2,11.208,11.208,0,0,0-2.562,6.117,12.129,12.129,0,0,0,.863,6.2c-.035.125.039.164.141.18a7.231,7.231,0,0,0,1.872,2.934c.021.355.284.524.538.7l.517.517a.521.521,0,0,0,.517.349l.492.492Z" transform="translate(-97.676 -135.759)" fill="#858585"/>
        <path id="Path_323" data-name="Path 323" d="M176.427,205.389a5.833,5.833,0,0,1,1.371,7.984,4.193,4.193,0,0,1-2.625,1.5c-.325.085-.512.095-.478.487a1.194,1.194,0,0,1-1.113,1.422c-.84.111-1.336-.381-1.457-1.376-.037-.314-.035-.457-.441-.529a4.223,4.223,0,0,1-3.527-3.753,1.54,1.54,0,0,1,1.113-1.567,1.31,1.31,0,0,1,1.47,1.124,2.268,2.268,0,0,0,.194.8c.212.36.478.757.993.644.536-.118.24-.572.256-.859.044-.861-.037-1.729.035-2.585.053-.635-.185-.942-.766-1.011a3.564,3.564,0,0,1-2.973-2.544,8.287,8.287,0,0,1-.187-2.876,4.037,4.037,0,0,1,.628-2.576,3.2,3.2,0,0,1,2.648-1.493c.469-.009.556-.152.561-.584,0-.979.485-1.487,1.323-1.5.868-.016,1.2.346,1.244,1.42.014.4.088.693.566.649a3.1,3.1,0,0,1,2.193.884l.344.344.554,1.018c-.037.122.039.162.139.185a13.418,13.418,0,0,1,.189,1.413,1.363,1.363,0,0,1-1.226,1.334,1.283,1.283,0,0,1-1.355-1.2,2.178,2.178,0,0,0-.261-.861c-.178-.351-.443-.607-.843-.506s-.189.482-.2.729c-.025.942.039,1.89-.025,2.83-.053.776.21,1.055.963.875.254-.035.413.3.69.178ZM172.2,202.91c0-.545-.035-1.092.009-1.632.042-.51-.217-.579-.612-.524a.892.892,0,0,0-.838.806,12.714,12.714,0,0,0,.009,2.315,1.52,1.52,0,0,0,.6,1.064.742.742,0,0,0,.642.1c.282-.055.175-.319.178-.5.014-.545,0-1.087,0-1.632Zm2.588,7c0,.515-.021,1.032.009,1.544.014.226-.173.547.178.669s.517-.162.7-.365a4.511,4.511,0,0,0,.1-3.631c-.037-.044-.09-.074-.122-.12a.6.6,0,0,0-.7-.157c-.261.067-.155.332-.159.512-.014.515,0,1.03,0,1.544Z" transform="translate(-129.33 -150.841)" fill="#858585"/>
      </g>
    </g>
  </g>
</svg>
