<svg xmlns="http://www.w3.org/2000/svg" xmlns:xlink="http://www.w3.org/1999/xlink" width="130" height="130" viewBox="0 0 130 130">
  <defs>
    <clipPath id="clip-path">
      <rect id="Rectangle_16" data-name="Rectangle 16" width="92.763" height="92.791" fill="#858585"/>
    </clipPath>
    <clipPath id="clip-Accessories">
      <rect width="130" height="130"/>
    </clipPath>
  </defs>
  <g id="Accessories" clip-path="url(#clip-Accessories)">
    <g id="Group_58" data-name="Group 58" transform="translate(21380.006 -3701.042)">
      <g id="Group_57" data-name="Group 57" transform="translate(-21361.791 3719.256)">
        <g id="Group_56" data-name="Group 56" clip-path="url(#clip-path)">
          <path id="Path_398" data-name="Path 398" d="M86.736,85.245a8.937,8.937,0,0,0-5.251-1.739q-25.526.008-51.053-.015c-2.634-.005-4.979.53-6.822,2.538-.455-.055-.649.148-.591.6l-.75,1.337c-.252.029-.53.044-.2.382-.237,1.344-.237,1.344,1.163,1.344h36.3a7.461,7.461,0,0,1,.772.007,1.541,1.541,0,1,1-.03,3.081c-.128.012-.257,0-.386,0q-19.547,0-39.095,0c-.16,0-.32-.02-.48-.031-.029-.191-.091-.351-.329-.326-.187.019-.222.168-.25.317a5.775,5.775,0,0,1-3.285-.582c-.019-.2.04-.448-.246-.5-.232-.043-.3.127-.334.319l-.974-.525c.015-.651-.243-.782-.767-.4a10.05,10.05,0,0,1-3.874-4.64c.371-.456.3-.73-.32-.779a2.214,2.214,0,0,1-.408-1.352c.735-.458.248-.609-.193-.773l-.451-2.126a.765.765,0,0,0-.193-.773c.2-.536-.326-1.011-.129-1.546.488-.369.46-.482-.193-.773L7.52,74.04a.761.761,0,0,0-.193-.773c.205-.536-.326-1.01-.129-1.546.735-.458.248-.609-.193-.773L6.167,66.7a.761.761,0,0,0-.193-.773c.206-.536-.327-1.011-.129-1.546.735-.458.248-.609-.193-.773L5.4,62.068c.134-.036.352-.017.309-.223-.047-.228-.283-.148-.448-.171l-.451-2.319a.761.761,0,0,0-.193-.773c.205-.536-.327-1.011-.129-1.546.735-.458.248-.61-.193-.773q-.124-.769-.248-1.538c.134-.036.352-.016.309-.223-.047-.228-.283-.148-.448-.171-.243-1.3-.471-2.6-.743-3.9a2.493,2.493,0,0,1-.03-.74c.735-.458.248-.61-.193-.773L2.7,47.382c.134-.036.352-.016.309-.223-.047-.228-.283-.148-.448-.171a14.755,14.755,0,0,0-.451-2.319.483.483,0,0,0,0-.773c.034-.545-.563-.958-.322-1.546.237-.02.553.03.508-.348-.048-.4-.381-.424-.7-.425L.757,37.326c-.012-.266.188-.57-.138-.781.071-.528-.347-1-.183-1.538a.351.351,0,0,0,.34-.436c-.03-.348-.292-.326-.534-.337A4.273,4.273,0,0,1,.065,32.3a1.171,1.171,0,0,0,1.111-1.309l14.911-.044c1.09,0,2.183-.046,3.27.017.669.039.783-.214.767-.808-.034-1.217.008-2.436.019-3.654.124-.019.272-.033.273-.192s-.147-.175-.271-.194a21.943,21.943,0,0,1,.32-4.831l.261-.773c.651-.293.678-.405.19-.773a17.373,17.373,0,0,1,1.307-3.869c.2-.019.466.067.547-.218.068-.241-.107-.322-.308-.357l.58-1.159c.338-.016.737.08.883-.362.1-.292-.11-.391-.361-.42a6.194,6.194,0,0,1,1.355-2.125c.645.074.623-.352.588-.787l-.009.007c.646.088.617-.346.6-.773l.241-.372c.517-.014,1.123.052.722-.795l.665-.778a.109.109,0,0,0,.089-.087l.809-.83.176-.043c.124.156.28.264.45.1s.042-.322-.092-.453l.8-.61c.6.477.565.01.574-.389l-.007.009c.435.035.86.058.787-.588a6.759,6.759,0,0,1,2.125-1.355c.034.144.028.361.237.328.371-.059.34-.38.352-.657a4.817,4.817,0,0,1,1.343-.633c.493.441.662.113.782-.33l2.879-1.2c.177.063.39.222.406-.15l.386,0c.033.273.2.366.456.338.237-.026.3-.19.309-.393a8.435,8.435,0,0,1,2.791-.5A10.06,10.06,0,0,1,46.389.064c.018.124.033.272.191.274s.176-.145.2-.269a28.216,28.216,0,0,1,4.637.575c.163.442.315.928.773.193a11.461,11.461,0,0,1,3.477,1.085l.187.061c.11.307.4.1.586.212.094.842.585.8,1.181.534a1.132,1.132,0,0,1,.759.373c.06.839.475.972,1.154.581a12.635,12.635,0,0,1,3.015,2.026,1.013,1.013,0,0,1,.042,1.723c-1.14,1.1-1.045,1.181-2.559.188A33.89,33.89,0,0,0,53.7,4.273c-.079-.03-.134-.121-.2-.183.021-.141.088-.32-.108-.365-.155-.035-.361-.081-.441.156a9.5,9.5,0,0,1-3.385-.6c-.118-.033-.231-.156-.339-.146-2.167.2-4.376-.278-6.512.408h-.773c-.318.242-.7.116-1.053.193-.189.207-.455.137-.686.193a1.589,1.589,0,0,1-1.151.374c-.475-.391-.742-.3-.782.334-.737-.1-.993.889-1.739.773-.062-.365-.212-.64-.63-.411-.312.17-.836.262-.508.839l-1.563.971c-.032-.153-.081-.417-.251-.315-.6.364-1.326.637-1.476,1.467a.978.978,0,0,1-.574.774l-.214.152a8.788,8.788,0,0,0-2.533,2.431c-.184.236-.2.606-.556.706-.1-.145-.285-.269-.4-.157a5.894,5.894,0,0,0-1.276,1.687c-.048.106.143.177.271.2-.322.439-.431,1.02-.9,1.361-.883.356-1.06.71-.579,1.159.215.852-.555,1.282-.827,1.925-.4.081-.446.279-.193.577.126.257-.114.393-.193.582-.421.107-.461.3-.139.588a.2.2,0,0,0,.01.187l-.193.578a13.2,13.2,0,0,0-.542,4.827,7.682,7.682,0,0,1-.066,1.069q-.008,8.135,0,16.269c0,1.7.689,2.234,2.306,1.792.237-.053.5.293.669.061s-.112-.348-.292-.451A2.269,2.269,0,0,0,26.3,42.76q0-8.128.025-16.255c.124-.019.273-.033.273-.192s-.147-.175-.271-.194a21.315,21.315,0,0,1,.984-6.563,14.1,14.1,0,0,1,1.34-2.9c.124-.018.268-.034.272-.19s-.138-.179-.263-.2c-.119-.312.024-.414.317-.4.2.039.256.456.495.253.2-.173.14-.445-.088-.63A16.368,16.368,0,0,1,32.662,11.6c.312.339.5.256.589-.172q0-.181,0-.362a23.061,23.061,0,0,1,3.771-2.556,18.264,18.264,0,0,1,8.057-2.106,19.532,19.532,0,0,1,13.174,3.74,17.686,17.686,0,0,1,5.755,6.7c-.043.138.043.181.152.206A21.347,21.347,0,0,1,66.324,25.3c.321,5.582.041,11.162.158,16.742.007.354,0,.708,0,1.061.019,1.105.551,1.751,1.438,1.751a1.732,1.732,0,0,0,1.65-1.807q0-8.489,0-16.979a9.244,9.244,0,0,1-.164-2.27c.416.028.585-.166.54-.577-.055-.5-.438-.355-.733-.389a22.036,22.036,0,0,0-3.682-9.369c-.249-.358-.465-.741-.729-1.087a1.553,1.553,0,0,1,.08-2.338,1.614,1.614,0,0,1,2.365.438A25.053,25.053,0,0,1,71.5,18.859a27.668,27.668,0,0,1,1,5.627c.32,3.882.068,7.763.156,11.643a1.21,1.21,0,0,0,.594,1.158,8.692,8.692,0,0,1,3.98,7.356,9.261,9.261,0,0,1-15.2,7.34l-.212-.157-.179-.179c.111-.712-.094-1.132-.911-.989a8.063,8.063,0,0,1-1.367-2.318c.275-.038.587-.161.466-.46-.246-.608-.13-1.473-1.046-1.665a10.913,10.913,0,0,1,.958-5.6,2.311,2.311,0,0,1,.345-.425c.189.268.379.278.6.021.3-.353.519-.709.189-1.161A12.052,12.052,0,0,1,62.6,37.318l.214-.142c.43-.045.557-.3.59-.712.193-2.424.2-2.424-2.212-2.424q-13.151,0-26.3,0c-.417,0-.833-.028-1.25-.042-.107-.538-.155-1.14-.978-.894a1.05,1.05,0,0,1,0-1.215c.824.247.872-.356.979-.895.417-.015.835-.042,1.252-.042,9.17,0,18.339-.018,27.509.024.893,0,1.017-.263,1.015-1.061a30.025,30.025,0,0,0-.792-8.387,16.3,16.3,0,0,0-3.552-6.405,16.075,16.075,0,0,0-8.818-5.287,17.222,17.222,0,0,0-9.633.486,16.617,16.617,0,0,0-3.5,1.707c-.123-.177-.287-.272-.467-.111-.116.1-.026.221.089.3a4.522,4.522,0,0,1-1.359.981c-.1-.169-.24-.214-.391-.087-.177.148-.211.314.015.459l-1.364,1.364c-.146-.225-.312-.192-.46-.014-.127.152-.082.292.088.391l-.982,1.36c-.069-.113-.17-.215-.284-.1s-.007.216.106.283c-.326.8-1.034,1.4-1.189,2.289-.106.032-.2.074-.149.213l-.106.3-.027.03c-.219.158.046.528-.28.64-.745.314-.854.6-.374.97.069.751-.5,1.369-.441,2.118-.124.018-.271.032-.274.19s.143.177.267.2a6.483,6.483,0,0,0-.128,2.558c-.064,3.271-.01,6.543-.042,9.815a1.167,1.167,0,0,0,.606,1.149c-.222.15-.181.315-.005.459.152.125.291.079.389-.09a2.894,2.894,0,0,1,1.548,1.54c.036.549.072,1.1.8,1.172.781.94.753,2.161,1.139,3.237.345.958-.058,1.847-.051,2.768a1.886,1.886,0,0,0-.644,2.05,6.729,6.729,0,0,1-1.441,2.413c-.684-.293-.546.23-.579.583a8.808,8.808,0,0,1-5.848,2.694,8.774,8.774,0,0,1-7.115-2.7c.4-.842-.2-.781-.717-.794a6.834,6.834,0,0,1-1.367-2.318,1.354,1.354,0,0,0-.247-1.817c-.029-.014-.153.164-.232.253-.287-2.322-.281-4.59,1.2-6.589.951.094.707-.634.784-1.14a12.06,12.06,0,0,1,1.723-1.729l.214-.142c.8-.267.575-.935.578-1.5.01-1.635,0-1.635-1.638-1.635H3.407l.442,3.285c-.735.458-.248.609.193.773.475,2.238.93,4.481,1.212,6.754-.312.26-.129.343.141.4l.837,4.444c-.145.31.245.486.193.773L6.607,52c-.321.284-.28.481.14.589.056.581.46,1.111.247,1.73-.312.259-.131.343.14.4a12.388,12.388,0,0,1,.419,2.207c-.02.278.154.308.365.3s.45,0,.675,0q14.7,0,29.4,0c.353,0,.705.02,1.058.031.1.415.3.462.585.146.416-.078.66.227.95.43.425,1.3.242,1.857-.747,2.3-.29-.086-.636-.464-.788.154q-7.615.016-15.23.031c-4.692.005-9.384.032-14.075-.022-1.063-.012-1.371.461-1.395,1.367-.312.259-.131.343.14.4a13.964,13.964,0,0,1,.451,2.319l.193.966c-.058,1.249.753,1.176,1.647,1.173,7.435-.024,14.87-.01,22.305-.021a2,2,0,0,1,1.7.614,1.384,1.384,0,0,1,.183,1.649,1.5,1.5,0,0,1-1.54.839q-11.008-.008-22.016,0H9.887a13.134,13.134,0,0,1,.4,2.125c-.145.31.245.487.193.773l.182,1.537c-.321.284-.28.481.14.589q.419,2.222.837,4.444c-.144.31.245.486.193.773l.182,1.537c-.322.284-.28.481.14.589l.633,2.889c-.322.32-.065.354.192.388a5.3,5.3,0,0,1,.762,1.338c-.055.44.131.646.58.6l.574.574c-.047.448.158.635.6.58l1.91,1.007c.052.271.137.452.395.139.563.068.9.129,1.013-.735a7.22,7.22,0,0,1,2.043-4.084c.647.08.625-.351.6-.785l.772-.772c.127.179.3.281.476.107s.083-.346-.093-.478l.057-.386.147-.151.389-.006c.05.347.286.39.561.319.4-.1.409-.431.4-.76a1.414,1.414,0,0,1,.965-.386c.482.416.575.119.589-.322l1.352-.4c.027.15.057.3.246.324.24.029.3-.132.334-.324,2.627-.479,5.279-.1,7.916-.236.319-.016.7.2.964-.161-.018-.391.019-.866-.58-.387a3.965,3.965,0,0,1-1.9-3.027,6.911,6.911,0,0,1,.006-1.247c.191-.029.352-.092.326-.331-.021-.188-.17-.221-.319-.249a2.76,2.76,0,0,1,.9-2.33c.709.082.846-.338.8-.915.429-.436,1.046-.515,1.548-.812.17-.021.4.06.471-.153s-.156-.2-.291-.237a9.208,9.208,0,0,1,.837-2.895c.183-.019.41.034.481-.208s-.1-.335-.309-.372a9.559,9.559,0,0,1,1.3-2.354c.993.181.442-.6.588-.945l-.007.005c.644.073.612-.357.582-.784l-.008.007c.651.082.614-.355.592-.782a7.424,7.424,0,0,1,2.318-2.318c.5.323.344-.128.4-.334a21.089,21.089,0,0,1,6.569-3.284c.027.15.057.3.246.325.24.029.3-.132.334-.325a11.145,11.145,0,0,1,4.057-.57c.009.254.005.513.366.525.275.01.39-.14.413-.391l1.733.05c.018.123.032.27.189.275s.178-.141.2-.265l1.546.377c.052.271.137.452.395.139a6.435,6.435,0,0,1,1.929.586c.037.256.075.509.389.187q10.885.011,21.769.031c.475,0,.6-.11.67-.612.186-1.291.506-2.563.772-3.842.321,0,.653-.023.7-.425.045-.379-.271-.328-.508-.349.209-1.279.413-2.559.63-3.837.167-.977.352-1.951.529-2.926.207-.021.475.042.509-.269.027-.248-.178-.29-.37-.319l.827-4.63c.164-.022.4.055.448-.167.047-.207-.168-.189-.3-.224q.12-.867.24-1.734c.17-.023.4.059.468-.171s-.134-.311-.292-.4c-.174-.476.29-.885.146-1.358.154-.3.507-.568.193-.966L89.267,34H76.918c-.107-.538-.155-1.14-.978-.894a1.05,1.05,0,0,1,0-1.215c.824.247.872-.356.979-.895q7.143-.02,14.286-.04c.157,0,.326-.011.4.179a1.126,1.126,0,0,0,.935.976,8.125,8.125,0,0,1-.189,2.312c-.326.211-.126.514-.138.78l-.837,4.251c-.653.291-.681.4-.193.773.163.54-.254,1.01-.184,1.539-.549.171-.117.516-.138.78l-.837,4.251c-.653.291-.681.4-.193.773.2.535-.325,1.011-.129,1.546-.456.16-.255.484-.193.773l-.837,4.251c-.653.291-.681.4-.193.773.216.476-.284.883-.129,1.353-.045.326-.513.567-.193.966l-.837,4.251c-.442.163-.928.316-.193.773.216.476-.284.883-.129,1.353-.045.326-.513.567-.193.966l-.837,4.251c-.653.291-.681.4-.193.773.216.476-.284.883-.129,1.353,0,.335-.361.6-.193.966-.269,1.435-.534,2.87-.809,4.3a1.6,1.6,0,0,1-1.838,1.1,1.988,1.988,0,0,1-1.24-1.817l.6-2.817c.321,0,.653-.023.7-.425.045-.379-.271-.328-.508-.348-.142-.6.279-1.143.194-1.739.145-.034.359-.054.237-.265-.082-.14-.209-.021-.277.092a1.539,1.539,0,0,0-1.1-.422c-2.221.033-4.444.041-6.665,0-.73-.014-1.02.24-.928.942A60.963,60.963,0,0,1,74.2,79.9c-.013.559.28.523.656.522,2.029-.008,4.057-.013,6.086,0A12.286,12.286,0,0,1,87.43,82a10.561,10.561,0,0,1,4.977,6.911,17.758,17.758,0,0,0,.315,2.131c.247.7-.647,1.646-1.51,1.739a7.193,7.193,0,0,1-.772.007q-11.593,0-23.185,0c-.386,0-.771-.028-1.156-.043-.107-.538-.155-1.14-.978-.894a1.05,1.05,0,0,1,0-1.215c.824.247.872-.356.979-.895,3.534-.015,7.068-.035,10.6-.042,3.631-.007,7.263,0,10.894,0,1.8,0,1.828-.036,1.3-1.72l-.153-.211a12.115,12.115,0,0,0-1.776-2.353l-.225-.164M62.9,48.392l.086.259c-.187.268-.238.553.078.732.255.144.3-.1.338-.29l.774.772c-.01.326-.015.658.392.758.242.06.337-.1.373-.313.208.1.464.115.6.343-.266.2-.179.384.059.485.273.115.279-.133.318-.308a9.452,9.452,0,0,0,4.037-.01c.489.438.576.127.593-.317l.738-.421.225-.153c3.068-2.736,3.5-5.883,1.162-8.911,0,.706.025,1.337,0,1.964a4.811,4.811,0,0,1-2.29,4.271,4.313,4.313,0,0,1-4.534.173,4.1,4.1,0,0,1-2.438-3.8c0-.8-.01-1.607-.015-2.411-.04-.184.112-.508-.226-.484-.2.015-.134.3-.148.475a6.111,6.111,0,0,0-.424,6.75c-.4.072-.335.294-.157.529.205.271.355.159.469-.091M28.42,50.078c.5-.028.955-.086.536-.761a.2.2,0,0,1,.1-.134.917.917,0,0,0,1.077-1.239c1.07-2.883.883-4.772-.737-6.925-.019,1.777.147,3.529-.973,5.012-.966-.36-1.048.323-1.155.978a4.045,4.045,0,0,1-5.238.013c.157-.927-.393-1.069-1.122-1.009a3.8,3.8,0,0,1-.8-2.774c.035-.674,0-1.352,0-2.027-.04-.184.112-.508-.226-.484-.2.015-.134.3-.148.475a6.073,6.073,0,0,0-1.2,3.442,8.055,8.055,0,0,0,.838,3.49c-.017.681.236,1,.753.957l1.183.974c-.114.065-.228.162-.114.283s.216.015.285-.1a1.271,1.271,0,0,1,.771.393c.036.256.074.51.389.187a7.931,7.931,0,0,0,4.243-.143c.019.123.046.291.189.27.269-.038.165-.286.2-.455L28,50.079h.416M47.557,80.008c-.413-.169-.827-.333-1.237-.509a3.479,3.479,0,0,0-3.408.171l-2.251.653a3.46,3.46,0,0,0,.445.089c.409,0,.818-.018,1.227-.028h6.279c0-.04.006-.079.008-.119l-1.063-.257m-5.2-13.88c-.521,1.2-1.086,2.377-1.551,3.6-.528,1.384-.491,1.4.891,1.873a12,12,0,0,1,1.68.558,3.411,3.411,0,0,0,2.895,0c1.049-.372,2.121-.678,3.181-1.018a4.57,4.57,0,0,1,5.726,2.551c.183.452.348.552.772.551,4.82-.01,9.641-.026,14.461.014.75.006.746-.308.682-.85a32.019,32.019,0,0,0-.946-4.567l-.155-.206a15.708,15.708,0,0,0-4.672-6.414l-.213-.15a16.008,16.008,0,0,0-9.81-3.3,20.5,20.5,0,0,0-5.231.992c-.324-.344-.507-.247-.583.186l-2.509,1.359c-.715,0-1.016.248-.936.766l-.789.573q-1.136-.156-.98.98l-.619.751c-.449-.04-.59.195-.54.6.043.36-.318.485-.436.751-.212.048-.656-.089-.316.4M67.717,60.32a15.745,15.745,0,0,1,4.453,5.785c.172.445.488.4.83.4,2.959,0,5.917.007,8.876-.009.463,0,1.028.227,1.372-.13a2.419,2.419,0,0,0,.537-1.618,13.838,13.838,0,0,1,.559-3.729c.143-.784-.1-.7-.6-.7q-4,.009-8.008,0Zm-14.648,20.1H68.783c2.534,0,2.519,0,2.353-2.584-.029-.447-.182-.515-.57-.514-4.919.011-9.838.006-14.757.011-.228,0-.428-.066-.556.319a5.156,5.156,0,0,1-2.183,2.769m-2.117-6.393a28.643,28.643,0,0,0-4.268,1.215c-.34.085-.264.452-.306.737-.057.386.251.429.449.5,1.192.428,2.384.869,3.6,1.212a1.593,1.593,0,0,0,1.76-.673,2.108,2.108,0,0,0,.173-2.223,1.208,1.208,0,0,0-1.41-.767m-12.182-.01c-.529.07-.91-.083-1.238.268a2.625,2.625,0,0,0,.1,3.069,1.3,1.3,0,0,0,1.228.343c1.36-.419,2.705-.888,4.056-1.338a.474.474,0,0,0,.381-.485c-.007-.206.062-.4-.266-.51a32.431,32.431,0,0,0-4.258-1.348" transform="translate(0 0)" fill="#858585"/>
          <path id="Path_399" data-name="Path 399" d="M227.638,178.956c.916.193.8,1.057,1.046,1.665.121.3-.191.422-.466.46a5.9,5.9,0,0,1-.58-2.126" transform="translate(-168.851 -132.742)" fill="#858585"/>
          <path id="Path_400" data-name="Path 400" d="M124.332,26.546c.15-.829.872-1.1,1.476-1.467.17-.1.218.162.251.315l-1.726,1.152" transform="translate(-92.224 -18.585)" fill="#858585"/>
          <path id="Path_401" data-name="Path 401" d="M103.1,47.711c-.129-.02-.319-.091-.271-.2a5.893,5.893,0,0,1,1.276-1.687c.11-.112.3.011.4.157-.665.416-.906,1.174-1.4,1.727" transform="translate(-76.267 -33.96)" fill="#858585"/>
          <path id="Path_402" data-name="Path 402" d="M60.435,180.4c.08-.089.2-.268.232-.254a1.354,1.354,0,0,1,.247,1.817,5.116,5.116,0,0,1-.479-1.563" transform="translate(-44.828 -133.627)" fill="#858585"/>
          <path id="Path_403" data-name="Path 403" d="M1.364,120.014a1.171,1.171,0,0,1-1.111,1.309,1.291,1.291,0,0,1,1.111-1.309" transform="translate(-0.188 -89.021)" fill="#858585"/>
          <path id="Path_404" data-name="Path 404" d="M233.471,151.2c.331.451.108.808-.189,1.161-.216.257-.406.248-.595-.021a1.692,1.692,0,0,1,.784-1.14" transform="translate(-172.597 -112.157)" fill="#858585"/>
          <path id="Path_405" data-name="Path 405" d="M136.769,19.954c-.328-.577.2-.668.508-.839.418-.228.568.046.63.412l-1.138.427" transform="translate(-101.372 -14.117)" fill="#858585"/>
          <path id="Path_406" data-name="Path 406" d="M128.13,181.755a1.887,1.887,0,0,1,.644-2.05,5.458,5.458,0,0,1-.644,2.05" transform="translate(-94.976 -133.298)" fill="#858585"/>
          <path id="Path_407" data-name="Path 407" d="M97.416,59.676c-.481-.449-.3-.8.579-1.159.077.521-.409.761-.579,1.159" transform="translate(-72.065 -43.405)" fill="#858585"/>
          <path id="Path_408" data-name="Path 408" d="M126.464,128.02c.823-.246.872.356.978.894-.472-.138-.909-.315-.978-.894" transform="translate(-93.806 -94.918)" fill="#858585"/>
          <path id="Path_409" data-name="Path 409" d="M65.874,151.2c-.077.507.167,1.234-.784,1.14a1.693,1.693,0,0,1,.784-1.14" transform="translate(-48.281 -112.155)" fill="#858585"/>
          <path id="Path_410" data-name="Path 410" d="M127.44,120.014c-.107.538-.155,1.141-.979.895.07-.579.505-.758.979-.895" transform="translate(-93.803 -89.021)" fill="#858585"/>
          <path id="Path_411" data-name="Path 411" d="M295.038,120.014c-.107.538-.155,1.141-.979.895.07-.579.505-.758.979-.895" transform="translate(-218.121 -89.021)" fill="#858585"/>
          <path id="Path_412" data-name="Path 412" d="M294.062,128.02c.823-.246.872.356.978.894-.472-.138-.909-.315-.978-.894" transform="translate(-218.123 -94.918)" fill="#858585"/>
          <path id="Path_413" data-name="Path 413" d="M252.163,355.493c.823-.246.872.356.978.894-.472-.138-.909-.315-.978-.894" transform="translate(-187.044 -263.647)" fill="#858585"/>
          <path id="Path_414" data-name="Path 414" d="M253.138,347.487c-.107.538-.155,1.141-.979.895.07-.579.505-.758.979-.895" transform="translate(-187.041 -257.751)" fill="#858585"/>
          <path id="Path_415" data-name="Path 415" d="M268.046,88.416c.295.034.678-.108.733.389.045.411-.124.605-.54.577l-.193-.966" transform="translate(-198.825 -65.583)" fill="#858585"/>
          <path id="Path_416" data-name="Path 416" d="M227.207,12.588c-.679.391-1.094.258-1.154-.58a2.491,2.491,0,0,1,1.154.58" transform="translate(-167.677 -8.907)" fill="#858585"/>
          <path id="Path_417" data-name="Path 417" d="M219.721,9.026c-.6.27-1.087.308-1.181-.534a1.88,1.88,0,0,1,1.181.534" transform="translate(-162.104 -6.298)" fill="#858585"/>
          <path id="Path_418" data-name="Path 418" d="M235.181,196.085c.817-.144,1.022.277.911.989a2.635,2.635,0,0,1-.911-.989" transform="translate(-174.447 -145.427)" fill="#858585"/>
          <path id="Path_419" data-name="Path 419" d="M6.058,161c.32,0,.653.023.7.425.045.379-.271.328-.508.348A.77.77,0,0,1,6.058,161" transform="translate(-4.464 -119.422)" fill="#858585"/>
          <path id="Path_420" data-name="Path 420" d="M355.662,121.528a1.126,1.126,0,0,1-.935-.976,1.012,1.012,0,0,1,.935.976" transform="translate(-263.122 -89.42)" fill="#858585"/>
          <path id="Path_421" data-name="Path 421" d="M318.253,278.476c.237.02.553-.03.508.348-.048.4-.381.424-.7.424a.77.77,0,0,1,.193-.773" transform="translate(-235.894 -206.562)" fill="#858585"/>
          <path id="Path_422" data-name="Path 422" d="M90.807,316.552c.012.329,0,.657-.4.76-.275.071-.512.028-.561-.319l.958-.441" transform="translate(-66.646 -234.805)" fill="#858585"/>
          <path id="Path_423" data-name="Path 423" d="M89.747,51.718c.251.029.457.129.361.42-.146.442-.545.346-.883.362l.522-.782" transform="translate(-66.183 -38.362)" fill="#858585"/>
          <path id="Path_424" data-name="Path 424" d="M115.289,79.672c-.48-.375-.371-.656.374-.97a2.126,2.126,0,0,1-.374.97" transform="translate(-85.301 -58.378)" fill="#858585"/>
          <path id="Path_425" data-name="Path 425" d="M124.36,153.084c-.73-.074-.766-.623-.8-1.172a1.821,1.821,0,0,1,.8,1.172" transform="translate(-91.65 -112.682)" fill="#858585"/>
          <path id="Path_426" data-name="Path 426" d="M332.492,201.4c.237.02.553-.03.508.349-.048.4-.381.424-.7.425-.144-.31.244-.487.193-.773" transform="translate(-246.461 -149.393)" fill="#858585"/>
          <path id="Path_427" data-name="Path 427" d="M154.718,246.995c-.146.346.406,1.126-.588.945a1.3,1.3,0,0,1,.588-.945" transform="translate(-114.327 -183.211)" fill="#858585"/>
          <path id="Path_428" data-name="Path 428" d="M136.175,277.881c.043.578-.095,1-.8.915a1.254,1.254,0,0,1,.8-.915" transform="translate(-100.413 -206.12)" fill="#858585"/>
          <path id="Path_429" data-name="Path 429" d="M215.577,215.752c-.023.251-.138.4-.413.391-.361-.012-.357-.271-.366-.525.268,0,.568-.192.779.134" transform="translate(-159.328 -159.894)" fill="#858585"/>
          <path id="Path_430" data-name="Path 430" d="M67.583,196.165c.517.014,1.117-.048.717.794a1.667,1.667,0,0,1-.717-.794" transform="translate(-50.13 -145.507)" fill="#858585"/>
          <path id="Path_431" data-name="Path 431" d="M102.544,32.991a1.344,1.344,0,0,0,.163-.03c.4.847-.205.781-.722.795.046-.358.453-.451.559-.765" transform="translate(-75.648 -24.449)" fill="#858585"/>
          <path id="Path_432" data-name="Path 432" d="M.658,132.564c.242.011.5-.011.534.337a.351.351,0,0,1-.34.436c-.456-.16-.255-.484-.193-.773" transform="translate(-0.416 -98.33)" fill="#858585"/>
          <path id="Path_433" data-name="Path 433" d="M337.065,172.939c.192.029.4.071.37.319-.034.31-.3.248-.509.269-.074-.224-.587-.553.139-.588" transform="translate(-249.736 -128.279)" fill="#858585"/>
          <path id="Path_434" data-name="Path 434" d="M35.987,323.372c.441.163.928.315.193.773a.77.77,0,0,1-.193-.773" transform="translate(-26.664 -239.864)" fill="#858585"/>
          <path id="Path_435" data-name="Path 435" d="M199.859,2.568c-.457.735-.61.249-.773-.193a.769.769,0,0,1,.773.193" transform="translate(-147.674 -1.731)" fill="#858585"/>
          <path id="Path_436" data-name="Path 436" d="M80.065,77.217,80,77.024l.257-.58c.488.368.46.48-.19.773" transform="translate(-59.339 -56.703)" fill="#858585"/>
          <path id="Path_437" data-name="Path 437" d="M352.129,153.54c-.488-.369-.46-.482.193-.773a.758.758,0,0,1-.193.773" transform="translate(-260.945 -113.316)" fill="#858585"/>
          <path id="Path_438" data-name="Path 438" d="M27.008,274.734c.441.163.929.315.193.773a.77.77,0,0,1-.193-.773" transform="translate(-20.004 -203.786)" fill="#858585"/>
          <path id="Path_439" data-name="Path 439" d="M14.01,145.31c-.441-.163-.929-.315-.193-.773a.759.759,0,0,1,.193.773" transform="translate(-9.968 -107.212)" fill="#858585"/>
          <path id="Path_440" data-name="Path 440" d="M331.179,267.277c-.488-.369-.46-.482.193-.773a.769.769,0,0,1-.193.773" transform="translate(-245.406 -197.682)" fill="#858585"/>
          <path id="Path_441" data-name="Path 441" d="M21.771,246.3c.441.163.929.315.193.773a.77.77,0,0,1-.193-.773" transform="translate(-16.119 -182.695)" fill="#858585"/>
          <path id="Path_442" data-name="Path 442" d="M346.892,181.974c-.488-.369-.46-.482.193-.773a.77.77,0,0,1-.193.773" transform="translate(-257.061 -134.407)" fill="#858585"/>
          <path id="Path_443" data-name="Path 443" d="M341.654,210.408c-.488-.369-.46-.482.193-.773a.77.77,0,0,1-.193.773" transform="translate(-253.176 -155.498)" fill="#858585"/>
          <path id="Path_444" data-name="Path 444" d="M336.293,238.842c-.735-.457-.249-.61.193-.773a.769.769,0,0,1-.193.773" transform="translate(-249.168 -176.59)" fill="#858585"/>
          <path id="Path_445" data-name="Path 445" d="M54.673,351.974c.525-.38.782-.25.768.4a1.156,1.156,0,0,1-.768-.4" transform="translate(-40.554 -260.923)" fill="#858585"/>
          <path id="Path_446" data-name="Path 446" d="M32.245,303.169c.653.291.682.4.193.773a.77.77,0,0,1-.193-.773" transform="translate(-23.888 -224.878)" fill="#858585"/>
          <path id="Path_447" data-name="Path 447" d="M137.733,8.453c-.12.443-.289.771-.782.33a.876.876,0,0,1,.782-.33" transform="translate(-101.585 -6.261)" fill="#858585"/>
          <path id="Path_448" data-name="Path 448" d="M130.059,12.218c-.012.277.02.6-.352.657-.209.033-.2-.184-.237-.328a.947.947,0,0,1,.589-.329" transform="translate(-96.035 -9.063)" fill="#858585"/>
          <path id="Path_449" data-name="Path 449" d="M148.208,16.327c.039-.629.306-.725.781-.334-.182.3-.561.128-.781.334" transform="translate(-109.934 -11.69)" fill="#858585"/>
          <path id="Path_450" data-name="Path 450" d="M118.982,18.738c.074.646-.352.623-.787.589.2-.284.387-.576.787-.589" transform="translate(-87.672 -13.899)" fill="#858585"/>
          <path id="Path_451" data-name="Path 451" d="M112.622,59.982c.228.184.291.457.088.63-.238.2-.3-.214-.495-.253a.668.668,0,0,1,.407-.377" transform="translate(-83.236 -44.492)" fill="#858585"/>
          <path id="Path_452" data-name="Path 452" d="M11.319,189.432c.441.163.929.315.193.773.05-.286-.338-.463-.193-.773" transform="translate(-8.372 -140.513)" fill="#858585"/>
          <path id="Path_453" data-name="Path 453" d="M159.2,240.977c.022.427.059.865-.592.782a1.031,1.031,0,0,1,.592-.782" transform="translate(-117.645 -178.747)" fill="#858585"/>
          <path id="Path_454" data-name="Path 454" d="M99.335,37.479c.02.427.048.86-.6.772a.992.992,0,0,1,.6-.772" transform="translate(-73.239 -27.8)" fill="#858585"/>
          <path id="Path_455" data-name="Path 455" d="M16.556,217.866c.441.163.929.315.193.773.05-.286-.338-.463-.193-.773" transform="translate(-12.256 -161.604)" fill="#858585"/>
          <path id="Path_456" data-name="Path 456" d="M97.081,40.442c.035.435.057.86-.588.787a1.05,1.05,0,0,1,.588-.787" transform="translate(-71.574 -29.998)" fill="#858585"/>
          <path id="Path_457" data-name="Path 457" d="M81.363,324.783c.026.434.049.865-.6.785a1.054,1.054,0,0,1,.6-.785" transform="translate(-59.907 -240.91)" fill="#858585"/>
          <path id="Path_458" data-name="Path 458" d="M38.429,331.6c.618.049.692.323.32.779-.31-.176-.154-.544-.32-.779" transform="translate(-28.505 -245.968)" fill="#858585"/>
          <path id="Path_459" data-name="Path 459" d="M156.963,243.98c.029.427.062.857-.582.784a1.016,1.016,0,0,1,.582-.784" transform="translate(-115.997 -180.974)" fill="#858585"/>
          <path id="Path_460" data-name="Path 460" d="M154.959,3.028c-.012.2-.072.367-.309.393-.256.028-.424-.065-.456-.338l.765-.054" transform="translate(-114.375 -2.246)" fill="#858585"/>
          <path id="Path_461" data-name="Path 461" d="M116.575,20.982c-.01.4.028.865-.574.389a.583.583,0,0,1,.574-.389" transform="translate(-86.045 -15.564)" fill="#858585"/>
          <path id="Path_462" data-name="Path 462" d="M139.2,308.66c.6-.48.562,0,.58.387a.583.583,0,0,1-.58-.387" transform="translate(-103.251 -228.801)" fill="#858585"/>
          <path id="Path_463" data-name="Path 463" d="M120.557,197.323c.033-.353-.1-.876.579-.583a1.482,1.482,0,0,1-.579.583" transform="translate(-89.424 -145.87)" fill="#858585"/>
          <path id="Path_464" data-name="Path 464" d="M86.279,59.234c.2.035.377.115.308.357-.081.285-.342.2-.547.218-.04-.241.139-.391.239-.575" transform="translate(-63.817 -43.937)" fill="#858585"/>
          <path id="Path_465" data-name="Path 465" d="M99.161,171.444c.181.1.463.223.292.451s-.432-.113-.669-.06a.645.645,0,0,1,.377-.39" transform="translate(-73.274 -127.17)" fill="#858585"/>
          <path id="Path_466" data-name="Path 466" d="M342.949,144.557c.158.093.355.185.292.4s-.3.148-.468.171q-.016-.193-.033-.385c0-.046,0-.091,0-.137l.207-.052" transform="translate(-254.23 -107.226)" fill="#858585"/>
          <path id="Path_467" data-name="Path 467" d="M86.455,320.36c.177.132.273.3.093.478s-.349.072-.476-.107a.636.636,0,0,1,.383-.37" transform="translate(-63.845 -237.63)" fill="#858585"/>
          <path id="Path_468" data-name="Path 468" d="M61.417,355.237c.031-.191.1-.362.334-.319.286.053.227.3.246.5-.259.149-.391-.107-.58-.182" transform="translate(-45.557 -263.258)" fill="#858585"/>
          <path id="Path_469" data-name="Path 469" d="M148.589,259.769c.209.037.383.118.309.372s-.3.189-.481.208l.171-.58" transform="translate(-110.09 -192.686)" fill="#858585"/>
          <path id="Path_470" data-name="Path 470" d="M151.2,232.458c.152-.618.5-.24.788-.154-.21.318-.516.152-.788.154" transform="translate(-112.155 -172.17)" fill="#858585"/>
          <path id="Path_471" data-name="Path 471" d="M127.064,43.654c-.088.428-.277.511-.589.172l.387-.386.2.214" transform="translate(-93.814 -32.222)" fill="#858585"/>
          <path id="Path_472" data-name="Path 472" d="M135.107,51c-.225-.146-.192-.312-.015-.459.152-.127.292-.082.391.087l-.377.372" transform="translate(-100.099 -37.434)" fill="#858585"/>
          <path id="Path_473" data-name="Path 473" d="M25.114,201.958c-.42-.107-.461-.3-.14-.589.332.129.4.32.14.589" transform="translate(-18.368 -149.367)" fill="#858585"/>
          <path id="Path_474" data-name="Path 474" d="M116.026,144.887c-.1.168-.237.214-.389.09-.175-.144-.217-.309.005-.459a.629.629,0,0,1,.384.369" transform="translate(-85.666 -107.197)" fill="#858585"/>
          <path id="Path_475" data-name="Path 475" d="M205.053,14.5c.08-.237.286-.191.441-.156.2.045.129.224.108.365-.193-.044-.532.295-.55-.209" transform="translate(-152.1 -10.616)" fill="#858585"/>
          <path id="Path_476" data-name="Path 476" d="M128.38,57.73c-.17-.1-.214-.239-.088-.391.148-.177.314-.21.46.015l-.372.377" transform="translate(-95.108 -42.425)" fill="#858585"/>
          <path id="Path_477" data-name="Path 477" d="M97.884,313.814c-.014.441-.107.737-.589.321.14-.209.376-.245.589-.321" transform="translate(-72.169 -232.774)" fill="#858585"/>
          <path id="Path_478" data-name="Path 478" d="M9.827,181.949c.165.023.4-.057.448.171.043.207-.175.187-.309.223-.225-.069-.172-.235-.138-.395" transform="translate(-7.267 -134.962)" fill="#858585"/>
          <path id="Path_479" data-name="Path 479" d="M144.659,273.225c.134.038.358.021.291.237s-.3.133-.471.153c.036-.141-.025-.327.18-.39" transform="translate(-107.168 -202.667)" fill="#858585"/>
          <path id="Path_480" data-name="Path 480" d="M40.827,287.261c-.42-.108-.461-.3-.14-.589.295.137.145.38.14.589" transform="translate(-30.023 -212.641)" fill="#858585"/>
          <path id="Path_481" data-name="Path 481" d="M131.879,290.448c.15.028.3.061.319.249.026.239-.135.3-.326.331q0-.29.006-.58" transform="translate(-97.818 -215.442)" fill="#858585"/>
          <path id="Path_482" data-name="Path 482" d="M341.43,153.5c.133.035.349.017.3.224-.051.222-.284.145-.448.167-.032-.161-.09-.331.146-.391" transform="translate(-253.127 -113.858)" fill="#858585"/>
          <path id="Path_483" data-name="Path 483" d="M105.393,312.273c-.03.192-.094.353-.334.324-.189-.022-.219-.174-.246-.324h.58" transform="translate(-77.746 -231.631)" fill="#858585"/>
          <path id="Path_484" data-name="Path 484" d="M141.869,46.2c-.115-.074-.205-.191-.089-.3.18-.162.343-.066.467.111-.046.225-.232.164-.378.185" transform="translate(-105.126 -33.988)" fill="#858585"/>
          <path id="Path_485" data-name="Path 485" d="M46.064,315.695c-.42-.108-.461-.3-.14-.589.295.137.145.38.14.589" transform="translate(-33.907 -233.732)" fill="#858585"/>
          <path id="Path_486" data-name="Path 486" d="M92.314,75.536c-.323-.283-.282-.481.139-.588,0,.208.155.451-.139.588" transform="translate(-68.316 -55.593)" fill="#858585"/>
          <path id="Path_487" data-name="Path 487" d="M15.065,210.384c.165.023.4-.057.448.171.043.207-.175.187-.309.223-.225-.069-.172-.235-.138-.394" transform="translate(-11.152 -156.054)" fill="#858585"/>
          <path id="Path_488" data-name="Path 488" d="M197.422,217.991c-.03.192-.094.353-.334.324-.189-.022-.219-.174-.246-.324h.58" transform="translate(-146.009 -161.697)" fill="#858585"/>
          <path id="Path_489" data-name="Path 489" d="M89.113,333.706c-.059-.452.136-.654.591-.6l-.591.6" transform="translate(-66.093 -247.078)" fill="#858585"/>
          <path id="Path_490" data-name="Path 490" d="M53.771,335.858c-.448.048-.635-.159-.58-.6a1.436,1.436,0,0,1,.58.6" transform="translate(-39.448 -248.681)" fill="#858585"/>
          <path id="Path_491" data-name="Path 491" d="M58.268,340.38c-.44.055-.646-.132-.6-.58a1.437,1.437,0,0,1,.6.58" transform="translate(-42.771 -252.049)" fill="#858585"/>
          <path id="Path_492" data-name="Path 492" d="M151.77,221.728a1.091,1.091,0,0,0,.018.147c-.286.316-.482.269-.585-.146h.568" transform="translate(-112.155 -164.469)" fill="#858585"/>
          <path id="Path_493" data-name="Path 493" d="M20.3,238.818c.165.023.4-.057.448.171.043.207-.175.187-.309.223-.225-.069-.172-.235-.138-.394" transform="translate(-15.037 -177.145)" fill="#858585"/>
          <path id="Path_494" data-name="Path 494" d="M76.381,358.211c.028-.149.063-.3.25-.317.238-.025.3.135.329.326l-.58-.009" transform="translate(-56.656 -265.469)" fill="#858585"/>
          <path id="Path_495" data-name="Path 495" d="M93.765,71.035c-.253-.3-.2-.5.193-.577.128.257-.111.391-.193.577" transform="translate(-69.436 -52.263)" fill="#858585"/>
          <path id="Path_496" data-name="Path 496" d="M170.268,230.708c-.052.206.1.658-.4.334.09-.161.169-.335.4-.334" transform="translate(-126.004 -171.13)" fill="#858585"/>
          <path id="Path_497" data-name="Path 497" d="M20.017,174.079c-.27-.052-.453-.136-.141-.4.226.068.178.233.141.4" transform="translate(-14.621 -128.831)" fill="#858585"/>
          <path id="Path_498" data-name="Path 498" d="M123.906,64.289c-.113-.066-.22-.164-.106-.283s.215-.017.284.1l-.178.186" transform="translate(-91.793 -47.438)" fill="#858585"/>
          <path id="Path_499" data-name="Path 499" d="M31.986,239.179c-.27-.053-.452-.137-.14-.4.225.069.174.235.14.4" transform="translate(-23.501 -177.119)" fill="#858585"/>
          <path id="Path_500" data-name="Path 500" d="M241.4,220.987c-.314.322-.352.069-.389-.187.145.03.343-.05.389.187" transform="translate(-178.77 -163.78)" fill="#858585"/>
          <path id="Path_501" data-name="Path 501" d="M110.959,62.972c.124.019.267.041.263.2s-.148.172-.272.19q0-.194.009-.388" transform="translate(-82.298 -46.71)" fill="#858585"/>
          <path id="Path_502" data-name="Path 502" d="M26.749,210.745c-.27-.053-.452-.137-.14-.4.225.069.174.235.14.4" transform="translate(-19.616 -156.028)" fill="#858585"/>
          <path id="Path_503" data-name="Path 503" d="M232.4,218.036c-.258.313-.342.132-.395-.139.161-.035.328-.091.395.139" transform="translate(-172.093 -161.603)" fill="#858585"/>
          <path id="Path_504" data-name="Path 504" d="M49.286,328.963c-.257-.034-.514-.068-.192-.388.22.053.152.247.192.388" transform="translate(-36.305 -243.723)" fill="#858585"/>
          <path id="Path_505" data-name="Path 505" d="M101.946,101.137c.124.019.272.035.271.194s-.149.174-.273.192l0-.387" transform="translate(-75.618 -75.019)" fill="#858585"/>
          <path id="Path_506" data-name="Path 506" d="M78,101.137c.124.019.272.035.271.194s-.149.174-.273.192l0-.387" transform="translate(-57.859 -75.019)" fill="#858585"/>
          <path id="Path_507" data-name="Path 507" d="M85.021,341.013c-.325-.338-.047-.353.2-.382-.029.148.026.342-.2.382" transform="translate(-62.956 -252.666)" fill="#858585"/>
          <path id="Path_508" data-name="Path 508" d="M67.8,345.987c-.258.313-.342.132-.395-.139.161-.036.329-.093.395.139" transform="translate(-49.996 -256.511)" fill="#858585"/>
          <path id="Path_509" data-name="Path 509" d="M113.62,91.048c-.124-.02-.27-.038-.267-.2s.15-.171.274-.19q0,.193-.007.387" transform="translate(-84.08 -67.249)" fill="#858585"/>
          <path id="Path_510" data-name="Path 510" d="M319.516,270.626c.069-.114.2-.232.277-.092.123.211-.091.231-.236.265a.393.393,0,0,1-.041-.173" transform="translate(-237.004 -200.623)" fill="#858585"/>
          <path id="Path_511" data-name="Path 511" d="M224.912,216.5c-.021.124-.04.269-.2.265s-.17-.151-.189-.275l.387.01" transform="translate(-166.543 -160.587)" fill="#858585"/>
          <path id="Path_512" data-name="Path 512" d="M180.02.25c-.02.124-.036.271-.2.269s-.172-.15-.191-.274l.387,0" transform="translate(-133.244 -0.182)" fill="#858585"/>
          <path id="Path_513" data-name="Path 513" d="M151.533,3.167c-.016.372-.229.213-.406.15.071-.224.238-.188.406-.15" transform="translate(-112.1 -2.328)" fill="#858585"/>
          <path id="Path_514" data-name="Path 514" d="M215.733,6.911l-.187-.061.131-.205.055.267" transform="translate(-159.883 -4.928)" fill="#858585"/>
          <path id="Path_515" data-name="Path 515" d="M128.176,43.184l-.2-.214c.028-.1.058-.2.2-.147q0,.181,0,.362" transform="translate(-94.926 -31.752)" fill="#858585"/>
          <path id="Path_516" data-name="Path 516" d="M335.871,330.1l.225.164c-.142.038-.185-.061-.225-.164" transform="translate(-249.135 -244.851)" fill="#858585"/>
          <path id="Path_517" data-name="Path 517" d="M121.281,33.974l.214-.152c-.033.105-.076.2-.214.152" transform="translate(-89.961 -25.088)" fill="#858585"/>
          <path id="Path_518" data-name="Path 518" d="M239.4,200.687l.212.157c-.136.036-.181-.051-.212-.157" transform="translate(-177.579 -148.861)" fill="#858585"/>
          <path id="Path_519" data-name="Path 519" d="M242.608,143.908l-.213.142c.034-.1.072-.2.213-.142" transform="translate(-179.798 -106.732)" fill="#858585"/>
          <path id="Path_520" data-name="Path 520" d="M343.589,339.84l.154.211c-.108-.029-.2-.073-.154-.211" transform="translate(-254.852 -252.079)" fill="#858585"/>
          <path id="Path_521" data-name="Path 521" d="M118.683,76.109l.136.1c-.115.133-.105-.051-.163-.065l.027-.03" transform="translate(-88.014 -56.454)" fill="#858585"/>
          <path id="Path_522" data-name="Path 522" d="M87.889,318.259l-.147.151c-.036-.134.018-.179.147-.151" transform="translate(-65.075 -236.065)" fill="#858585"/>
          <path id="Path_523" data-name="Path 523" d="M75.01,143.908l-.213.142c.034-.1.072-.2.213-.142" transform="translate(-55.481 -106.732)" fill="#858585"/>
          <path id="Path_524" data-name="Path 524" d="M119.133,74.331c-.048-.139.043-.181.149-.213l-.149.213" transform="translate(-88.358 -54.978)" fill="#858585"/>
          <path id="Path_525" data-name="Path 525" d="M342.356,144.758c0,.046,0,.092,0,.137l-.134-.126.136-.012" transform="translate(-253.844 -107.375)" fill="#858585"/>
          <path id="Path_526" data-name="Path 526" d="M247.978,65.432c-.11-.025-.2-.067-.152-.206l.152.206" transform="translate(-183.818 -48.382)" fill="#858585"/>
          <path id="Path_527" data-name="Path 527" d="M112.516,186.894l1.077-1.238a.917.917,0,0,1-1.077,1.238" transform="translate(-83.46 -137.712)" fill="#858585"/>
          <path id="Path_528" data-name="Path 528" d="M106.748,177.962c-.332.388-.569.889-1.155.978.106-.655.189-1.338,1.155-.978" transform="translate(-78.324 -131.931)" fill="#858585"/>
          <path id="Path_529" data-name="Path 529" d="M82.084,179.155c-.563-.126-.835-.577-1.122-1.009.73-.059,1.279.082,1.122,1.009" transform="translate(-60.054 -132.132)" fill="#858585"/>
          <path id="Path_530" data-name="Path 530" d="M172.361,242.537l-.98.98q-.157-1.136.98-.98" transform="translate(-127.11 -179.89)" fill="#858585"/>
          <path id="Path_531" data-name="Path 531" d="M74.989,186.4l.753.957c-.516.047-.77-.276-.753-.957" transform="translate(-55.623 -138.262)" fill="#858585"/>
          <path id="Path_532" data-name="Path 532" d="M179.186,237.406c-.2.389-.687.433-.936.766-.081-.518.221-.765.936-.766" transform="translate(-132.209 -176.098)" fill="#858585"/>
          <path id="Path_533" data-name="Path 533" d="M248.492,193.084c.358-.03.5.3.765.445-.035.211-.13.373-.373.314-.407-.1-.4-.433-.392-.758" transform="translate(-184.319 -143.22)" fill="#858585"/>
          <path id="Path_534" data-name="Path 534" d="M110.027,191.523a1.31,1.31,0,0,1,.543-.553c.42.675-.037.733-.536.761,0-.069,0-.139-.007-.209" transform="translate(-81.613 -141.654)" fill="#858585"/>
          <path id="Path_535" data-name="Path 535" d="M243.464,188.388l.415.442c-.038.188-.083.434-.338.29-.316-.178-.264-.464-.078-.732" transform="translate(-180.481 -139.738)" fill="#858585"/>
          <path id="Path_536" data-name="Path 536" d="M241.5,185.692l.311.438c-.114.251-.263.362-.468.091-.178-.235-.243-.456.157-.529" transform="translate(-178.916 -137.739)" fill="#858585"/>
          <path id="Path_537" data-name="Path 537" d="M253.3,196.141c.146.016.329-.047.377.177-.039.175-.046.423-.318.308-.238-.1-.325-.289-.059-.485" transform="translate(-187.766 -145.489)" fill="#858585"/>
          <path id="Path_538" data-name="Path 538" d="M270.865,195.877l.593-.317c-.016.444-.1.756-.593.317" transform="translate(-200.916 -145.058)" fill="#858585"/>
          <path id="Path_539" data-name="Path 539" d="M167.459,249.28a1.112,1.112,0,0,1-.54.6c-.05-.407.092-.642.54-.6" transform="translate(-123.806 -184.902)" fill="#858585"/>
          <path id="Path_540" data-name="Path 540" d="M76.772,158.194l-.373-.008c.013-.175-.053-.46.147-.475.338-.025.186.3.226.484" transform="translate(-56.669 -116.982)" fill="#858585"/>
          <path id="Path_541" data-name="Path 541" d="M192.208,230.822c-.118.3-.388.125-.583.186.075-.433.258-.531.583-.186" transform="translate(-142.139 -171.06)" fill="#858585"/>
          <path id="Path_542" data-name="Path 542" d="M244.37,158.194l-.373-.009c.013-.175-.053-.46.147-.475.338-.025.186.3.226.484" transform="translate(-180.986 -116.982)" fill="#858585"/>
          <path id="Path_543" data-name="Path 543" d="M104.065,195.745l.387-.185c-.033.169.071.417-.2.455-.143.02-.17-.147-.189-.27" transform="translate(-77.191 -145.058)" fill="#858585"/>
          <path id="Path_544" data-name="Path 544" d="M163.993,254.531a.479.479,0,0,1-.316.4c-.34-.487.105-.349.316-.4" transform="translate(-121.317 -188.8)" fill="#858585"/>
          <path id="Path_545" data-name="Path 545" d="M82.022,193.874l.17.184c-.068.114-.169.222-.285.1s0-.218.114-.283" transform="translate(-60.721 -143.808)" fill="#858585"/>
          <path id="Path_546" data-name="Path 546" d="M86.13,196.105c.144.031.342-.049.388.187-.315.323-.352.069-.388-.187" transform="translate(-63.888 -145.462)" fill="#858585"/>
          <path id="Path_547" data-name="Path 547" d="M108.852,193.11c0,.069,0,.139.007.209h-.416c.051-.237.259-.166.409-.21" transform="translate(-80.438 -143.241)" fill="#858585"/>
          <path id="Path_548" data-name="Path 548" d="M252.339,240.495c-.138.046-.181-.044-.213-.15l.213.15" transform="translate(-187.017 -178.278)" fill="#858585"/>
          <path id="Path_549" data-name="Path 549" d="M271.167,265.967c-.111-.024-.2-.067-.155-.206l.155.206" transform="translate(-201.018 -197.13)" fill="#858585"/>
          <path id="Path_550" data-name="Path 550" d="M276.019,193.451c.041-.1.079-.206.225-.153l-.225.153" transform="translate(-204.739 -143.37)" fill="#858585"/>
        </g>
      </g>
    </g>
  </g>
</svg>
