<svg xmlns="http://www.w3.org/2000/svg" xmlns:xlink="http://www.w3.org/1999/xlink" width="130" height="130" viewBox="0 0 130 130">
  <defs>
    <clipPath id="clip-Books">
      <rect width="130" height="130"/>
    </clipPath>
  </defs>
  <g id="Books" clip-path="url(#clip-Books)">
    <g id="Layer_1" data-name="Layer 1" transform="translate(22 22)">
      <g id="Group_43" data-name="Group 43" transform="translate(0 0)">
        <path id="Path_324" data-name="Path 324" d="M-.008,84.568V76.945c.175-.113.175-.227,0-.338v-.17c.544-.392,1.07-.737,1.8-.365.714.363.743.961.739,1.621-.007,1.863.016,3.726-.014,5.59-.009.585.17.782.771.782Q21.144,84.041,39,84.058a1.078,1.078,0,0,0,.827-.3,5.469,5.469,0,0,1,6.616-.215,2.175,2.175,0,0,0,1.516.524q17.473-.024,34.948-.011c1.158,0,1.2-.043,1.2-1.183V32.134c0-2.047,0-2-2.026-2.067-.855-.029-.993.252-.993,1.038q.037,19.9.016,39.81,0,4.444-.05,8.89c-.011,1.124-.458,1.532-1.6,1.532q-36.3,0-72.6,0a.985.985,0,0,1-.775-.2L5.9,81.016c-.732-.535-.372-1.276-.372-1.954q0-23.487,0-46.975c0-2,0-1.961-2.02-2.017-.845-.025-1,.258-1,1.049.025,12.555.014,25.11.032,37.666,0,.7-.136,1.369-.743,1.65A1.513,1.513,0,0,1-.01,70v-.17c.175-.113.175-.227,0-.338V29.68a3.227,3.227,0,0,1,3.52-2.133c.308.023.621-.016.929.007.585.043,1.063.032,1.163-.755a1.177,1.177,0,0,1,.787-.818,64.725,64.725,0,0,1,6.87-2.226c.546-.131.75-.342.748-.934C13.982,17.464,13.991,12.106,14,6.75a4.6,4.6,0,0,1,.091-1.174c.068-.258.141-.639.558-.626a6.5,6.5,0,0,1,1.421.059c1.915.487,3.817,1.018,5.676,1.684.6.213.73.079.723-.508-.023-1.55-.016-3.1,0-4.651A1.385,1.385,0,0,1,23.994.018c.372-.014.689.175,1.047.156.254-.054.406.3.678.17.249-.036.406.3.678.168A2.622,2.622,0,0,0,27.576.9a1.834,1.834,0,0,0,.85.331l1.358.639c.161.086.29.245.5.218L32.32,3.264a1.014,1.014,0,0,0,.673.347.514.514,0,0,0,.505.342,1.143,1.143,0,0,0,.7.56.1.1,0,0,0,.084.077,2.078,2.078,0,0,0,.909.712,2.141,2.141,0,0,0,.675.685,9,9,0,0,0,1.353,1.355l.49.5c.016.351.279.515.526.691q.7,1.006,1.392,2.011c.175.292.347.585.521.879.118.152.07.4.288.5.231.161.059.524.333.662a4.461,4.461,0,0,0,.553,1.181l.462.852A41.055,41.055,0,0,1,44.41,25.237c.823-.6,1.548-1.122,2.271-1.648.063-.043.129-.086.193-.131a30.308,30.308,0,0,1,4.284-2.672,53.135,53.135,0,0,1,11.229-4.323,57.785,57.785,0,0,1,6.367-1.124,33.265,33.265,0,0,1,5.787-.231c1.167.048,1.489.315,1.494,1.482.009,2.031,0,4.062,0,6.093a2.413,2.413,0,0,0,2.031,2.593c.052.014.122-.025.165,0,.909.462,2.183.46,2.613,1.525.311.768.741.784,1.36.762,1.287-.048,2.582-.1,3.584.945.17.179.34.36.508.539a11.262,11.262,0,0,1,.351,3.872V82.6a4.883,4.883,0,0,1-.141,1.641c-.179,1.321-1.188,1.861-2.228,2.371h-.338c-.247-.283-.58-.163-.875-.163q-17.745-.01-35.487,0c-.295,0-.626-.116-.875.165h-.338c-.057-.147-.113-.131-.17,0h-.17a8.709,8.709,0,0,1-.709-.641,2.776,2.776,0,0,0-2.19-.907c-1.14-.014-1.768.755-2.511,1.38-.145-.007-.279.009-.342.168h-.338c-.249-.279-.58-.163-.875-.165q-17.826-.01-35.655,0c-.295,0-.626-.12-.875.163H2.025A5.447,5.447,0,0,1-.005,84.577Zm41.8-18.612c0,.039,0,.079,0,.118.023.1.014.238.075.3.1.1.224.036.24-.093a1.61,1.61,0,0,0-.052-.913q0-16.256,0-32.509a64.07,64.07,0,0,0-.231-7.661A35.98,35.98,0,0,0,40.6,18.9C38.9,13.35,36.058,8.6,31.023,5.419A21.3,21.3,0,0,0,24.994,2.8V50.887c0,.141,0,.283,0,.424.011.2.041.333.308.4A25.028,25.028,0,0,1,32.476,54.8a20.854,20.854,0,0,1,3.992,3.221,23.835,23.835,0,0,1,4.821,7.061c.107.238.152.549.494.6,0,.093,0,.184,0,.277Zm23.179,4.032.007-.007c-.274.1-.61-.141-.848.154l-1.85.406a.713.713,0,0,0-.685.286l-.5.052c-.118-.043-.161.029-.188.125l.009-.009a16.951,16.951,0,0,0-3.545,1.238.443.443,0,0,0-.569.308.213.213,0,0,0,.408.018l2.872-.39c1.174.277,2.3-.274,3.486-.165,2.156.2,4.32.195,6.476.508a56.854,56.854,0,0,1,7.466,1.557c1.07.306,1.065.326,1.065-.712V29.33c0-.281-.027-.562-.041-.841.125-.51-.351-.5-.6-.621a13.387,13.387,0,0,0-1.437-.524c-.383-.22-.471-.061-.462.324.02,1.009.016,2.017.02,3.026-.345.435-.528,1.061-1.249,1.045-.286-.066-.626.063-.848-.233l-.131-.131A1.952,1.952,0,0,1,73.5,30.02V19.8a1.871,1.871,0,0,0-2.249-2.117c-.227,0-.451,0-.678,0-.768.3-1.612-.034-2.375.288-.27.116-.617-.15-.845.17-.385.125-.83-.163-1.185.17a4.826,4.826,0,0,0-1.693.338,16.4,16.4,0,0,0-2.532.562c-.358-.084-.569.213-.845.333a9.65,9.65,0,0,0-2.709.857,11.877,11.877,0,0,0-2.539,1c-.322.2-.764.134-1.022.469a6.688,6.688,0,0,0-1.7.841,5.063,5.063,0,0,0-1.353.682l-1.516.9c-.338.224-.678.447-1.015.671-.277.22-.666.288-.857.628-.122.039-.29-.014-.335.175q-.592.425-1.185.85a1.293,1.293,0,0,0-.505.512.5.5,0,0,0-.512.333,2.664,2.664,0,0,0-1.287,2.7c.048,15.094.032,30.188.032,45.284v1.1l.607-.433.5-.5c.3.043.41-.267.641-.356.063-.043.129-.086.193-.131l2.21-1.55L50.571,72.5a.939.939,0,0,0,.544-.281c.3-.238.762-.168,1.015-.51a1.1,1.1,0,0,0,.678-.342,6.822,6.822,0,0,0,1.367-.685.982.982,0,0,0,.673-.34.748.748,0,0,0,.662-.213l2.2-.843a3.892,3.892,0,0,0,1.7-.623,3.015,3.015,0,0,0,1.192-.354.829.829,0,0,0,.662-.2q.745-.153,1.489-.308c1.312-.277,2.623-.558,3.935-.834l.839-.048a37.782,37.782,0,0,1,5.1-.469c.653.016.884-.181.884-.861-.023-9.11-.016-18.222-.036-27.332a1.023,1.023,0,0,1,.243-.662,1.439,1.439,0,0,1,2.079-.116c-.036.315.175.555.245.839q0,14.362,0,28.721c0,.195.027.392.041.587-.093.281-.186.562-.279.841a1.892,1.892,0,0,1-1.51.524c-.56-.036-1.124,0-1.686.014l-.845.02-1.353.154c-.29,0-.6-.159-.852.122a11.861,11.861,0,0,0-2.879.34c-.27.116-.617-.15-.845.17l-.673.054c-.122-.048-.156.034-.184.125ZM47.375,78.45c-.2,0-.422.07-.4.277.014.125.263.086.415.043q7.613.014,15.228.023,7.868,0,15.735-.023c.127.039.168-.014.145-.134a4.622,4.622,0,0,1,.032-.589c.143-.784-.193-1.108-.961-1.3-1.351-.329-2.686-.719-4.037-1.054a43.621,43.621,0,0,0-8.94-1.1,35.624,35.624,0,0,0-8.747.821,32.165,32.165,0,0,0-8.471,3.035Zm-39.4.186c-.023.12.018.175.143.136q6.854.014,13.707.023,8.629,0,17.261-.023c.195.025.4.118.576-.052l-.272-.152A29.658,29.658,0,0,0,34.9,76.618a45.363,45.363,0,0,0-6.594-1.591,44.012,44.012,0,0,0-4.654-.505,34.4,34.4,0,0,0-5.7.349,44.555,44.555,0,0,0-8.584,1.739,1.823,1.823,0,0,0-1.4,2.026ZM38.444,65.088a21.718,21.718,0,0,0-5.619-6.981l-.184-.129a20.261,20.261,0,0,0-8.539-3.9c-.991-.195-1.657-.73-1.657-1.389,0-1.6.011-3.205.011-4.808V10.528c0-.4.116-.821-.456-1.011-1.387-.465-2.756-.986-4.139-1.471-.41-.143-.92-.447-1.235-.315-.571.238-.063.811-.063,1.224q-.051,15.117-.027,30.235c0,5.562.016,11.123-.023,16.685,0,.592.254.839.687.882a12.261,12.261,0,0,1,2.6.714A40.658,40.658,0,0,1,31.288,63.4c.029.091.063.172.184.127.161.125.322.247.481.372.034.088.07.177.195.138.868.737,1.777,1.433,2.6,2.221a44.956,44.956,0,0,1,5.884,6.533c.109.156.238.458.505.335.333-.15.034-.367,0-.56-.052-.3-.054-.619-.136-.913a41.1,41.1,0,0,0-2.421-6.39c-.045-.059-.091-.118-.134-.179ZM16.58,72.346c.281,0,.564,0,.845,0a31.289,31.289,0,0,1,4.046-.27,27.189,27.189,0,0,1,5.828.29,32.6,32.6,0,0,1,6.932,1.376,43.773,43.773,0,0,1,4.86,1.813c.127-.016.179.258.3.125.143-.163-.073-.265-.152-.385a29.148,29.148,0,0,0-3.69-4.672,44.344,44.344,0,0,0-4.921-4.552l-.186-.129a33.961,33.961,0,0,0-5.218-3.393,36.835,36.835,0,0,0-10.279-3.736,1.051,1.051,0,0,1-.9-.952,8.445,8.445,0,0,1-.05-1.1q0-14.858.009-29.714c0-.687-.131-.9-.855-.671-1.423.449-2.849.891-4.266,1.362a.993.993,0,0,0-.83,1.151q.027,22.263.014,44.527c0,.113.009.227,0,.338-.041.474.086.546.576.4a42.584,42.584,0,0,1,4.83-1.165,14.2,14.2,0,0,0,3.1-.653Zm24.748.879c-.091-.054-.154-.12-.206-.116s-.1.086-.147.134c.057.041.109.113.168.116s.107-.073.188-.134Z" transform="translate(0.01 -0.017)" fill="#858585"/>
        <path id="Path_325" data-name="Path 325" d="M378.52,125.638c.408-.045.567.145.508.539-.17-.179-.34-.36-.508-.539Z" transform="translate(-292.719 -97.158)" fill="#858585"/>
      </g>
    </g>
  </g>
</svg>
