<svg xmlns="http://www.w3.org/2000/svg" xmlns:xlink="http://www.w3.org/1999/xlink" width="130" height="130" viewBox="0 0 130 130">
  <defs>
    <clipPath id="clip-Baby_Strollers_and_Wheelchairs">
      <rect width="130" height="130"/>
    </clipPath>
  </defs>
  <g id="Baby_Strollers_and_Wheelchairs" data-name="Baby Strollers and Wheelchairs" clip-path="url(#clip-Baby_Strollers_and_Wheelchairs)">
    <g id="Layer_1" data-name="Layer 1" transform="translate(24.21 22.98)">
      <g id="Group_28" data-name="Group 28" transform="translate(0.01 0.02)">
        <path id="Path_142" data-name="Path 142" d="M42.084,76.6a13.77,13.77,0,0,1-1.968,1.943c-.06.062-.119.124-.179.183l-1.487,1.156L35.645,81.7,33.34,82.743a.8.8,0,0,0-.5.276,32.025,32.025,0,0,1-3.293.874c-.324-.044-.66-.115-.834.285a18.908,18.908,0,0,0-2.535.342c-.829.207-1.63-.225-2.51-.033-1.33.287-2.676-.227-4.026-.263a.658.658,0,0,0-.66-.165,2.68,2.68,0,0,0-1.3-.331A.982.982,0,0,0,17,83.519l-3.96-1.654-.827-.488a4.552,4.552,0,0,0-1.152-.668c-.2-.313-.545-.421-.832-.611-.3-.121-.4-.567-.807-.534a1.3,1.3,0,0,0-.51-.5c-.163-.113-.329-.223-.492-.335a2.18,2.18,0,0,0-.662-.655L6.615,76.923a3.5,3.5,0,0,0-.829-.843c-.157-.463-.578-.735-.818-1.138-.168-.225-.333-.452-.5-.677l-.49-.642-.534-.885a.091.091,0,0,0-.077-.077c-.121-.232-.139-.523-.382-.688l-.869-1.809C2.062,69.357,1.4,68.779,1.289,68c-.038-.046-.075-.095-.11-.141a1.092,1.092,0,0,0-.21-.677c.115-.258-.055-.443-.17-.642.031-.185.1-.382-.13-.5C.548,65.322.425,64.61.3,63.9c.029-.137.071-.278-.119-.338q-.026-2.389-.055-4.78c.007-.165.011-.331.018-.5a31.947,31.947,0,0,1,.525-3.629c.234-.117.148-.315.128-.5a.687.687,0,0,0,.165-.64.978.978,0,0,0,.21-.673L2.99,48.716c.24-.168.258-.457.382-.688a.089.089,0,0,0,.075-.079c.179-.293.355-.589.534-.882a8.16,8.16,0,0,0,1.156-1.65,1.381,1.381,0,0,0,.6-.668.2.2,0,0,0,.044-.143,3.508,3.508,0,0,0,.832-.843c.441-.439.882-.88,1.326-1.319l.5-.494.128-.013c.06-.044.121-.086.181-.13.064-.062.128-.124.192-.183l.536-.527.229-.079.373-.377c.362-.029.545-.355.832-.507l.159-.152c.463-.43,1.438-.282,1.438-1.235,0-8.219.02-16.441-.02-24.66a3.218,3.218,0,0,0-1.244-2.848.573.573,0,0,0-.338-.326A21.342,21.342,0,0,0,7.947,9.856C6.2,9.263,4.442,8.7,2.688,8.12c-.212-.3-.6-.311-.867-.523-.446-.216-.635-.686-.99-.988L.683,6.448a1.166,1.166,0,0,0-.331-.66A3.506,3.506,0,0,0,.01,4.637V3.653c.3-.322.068-.8.329-1.136.183-.055.143-.221.174-.351.143-.289.468-.463.5-.816l.8-.655L3.3.02H5.28A16.618,16.618,0,0,0,9.143,1.493a41.773,41.773,0,0,1,5.815,2.191c.415.232.792.525,1.187.79.035.088.071.174.194.137l.655.545.825.825A12.077,12.077,0,0,1,20.6,12.1a19.167,19.167,0,0,1,.174,3.19c-.038,2.363.02,4.725-.031,7.085-.015.7.24.781.832.774,2.554-.029,5.109-.018,7.663-.009,1.05,0,1.474.382,1.465,1.26a1.1,1.1,0,0,1-1.253,1.211c-2.72.007-5.44,0-8.158,0-.11,0-.218.015-.329.024-.11-.024-.19-.009-.163.135q-.007,1.522-.013,3.042a12.611,12.611,0,0,0,2.854.093q10.847.02,21.691,0c.4,0,1.057.192,1.147-.121A2.45,2.45,0,0,0,46.4,26.95a2.209,2.209,0,0,0-1.915-1.2c-2.985-.265-5.969-.062-8.954-.135-.924-.022-1.489-.465-1.522-1.2-.024-.58.735-1.246,1.527-1.266,1.182-.029,2.365-.007,3.547-.007,1.595,0,3.192-.053,4.782.011,2.574.1,4.18,1.136,5.052,3.424a5.483,5.483,0,0,1,.1,1.866c.015.448.152.624.622.644A7.037,7.037,0,0,1,56.1,34.516a16.591,16.591,0,0,1,.2,4.4c-.009.529.126.688.679.7a6.112,6.112,0,0,1,5.859,3.715,7.241,7.241,0,0,1,.527,2.824c.042,1.29.029,2.583,0,3.876a.927.927,0,0,0,.543.955,8.553,8.553,0,0,1,4.586,6.86,1.2,1.2,0,0,0,.194.435c0,.276,0,.549,0,.825-.086.7.1,1.454-.481,2.063a1.061,1.061,0,0,1-1.231.373,1.207,1.207,0,0,1-.805-1.191,9.712,9.712,0,0,0-.461-3.732,6.3,6.3,0,0,0-5.3-4.149c-.015-.106-.031-.229-.165-.229s-.15.124-.165.229a2.147,2.147,0,0,0-1.019-.207c-3.739.009-7.476.029-11.215-.015-.785-.009-.772.315-.6.851a4.532,4.532,0,0,1,.426,1.35c-.037,1.046.49,1.145,1.35,1.134,3.3-.042,6.6-.02,9.9-.015,2.532,0,4,1.37,3.984,3.96-.018,3.051.011,6.1.02,9.15-.031.119.018.163.135.137.706-.649,1.507-.15,2.206-.06.788.1.964-.088.94-.779-.02-.6.015-1.207-.009-1.809s.212-1.026.8-1.107c.655-.088,1.275-.073,1.533.792a11.106,11.106,0,0,1,.143,2.5c.035.49.026.984.035,1.478-.035.119.013.157.128.135a6.273,6.273,0,0,1,1.815,1.685c-.044.026-.09.051-.135.077l.135.031c.415.783,1.138.715,1.864.706,1.621-.018,3.245-.057,4.864.009a4.122,4.122,0,1,1,.271,8.237c-1.95.009-3.9,0-5.852,0a.8.8,0,0,0-.863.428,6.033,6.033,0,0,1-2.1,2.1l-1.328.772c-.481.135-.966.26-1.443.408a2.021,2.021,0,0,1-1.493-.038c-.1-.044-.181-.21-.338-.113-1.043.649-1.93-.049-2.863-.333q-.556-.291-1.112-.58c-.042-.188-.207-.135-.329-.168-.108-.106-.216-.21-.322-.315a6.285,6.285,0,0,1-1.33-1.33c-.1-.108-.207-.216-.309-.326-.033-.124.007-.285-.174-.326l-.7-1.315a9.085,9.085,0,0,1-.472-3.841,1.685,1.685,0,0,1,.132-.781l.009-.331c.218-.56.435-1.121.653-1.681l.885-1.447.324-.333.649-.649a1.726,1.726,0,0,0,1.174-1.983,11.4,11.4,0,0,1-.011-2.054c.015-.366-.113-.461-.468-.459q-6.045.033-12.093.044c-.117-.024-.159.026-.13.139-.057.11-.115.221-.17.333-.053.276-.106.549-.157.825-.6,1.738-1.414,3.388-2.164,5.063-.205.119-.379.26-.353.534a4.949,4.949,0,0,0-.843,1.328A3.486,3.486,0,0,0,43.07,75.6l-.154.159a2.9,2.9,0,0,0-.827.836Zm30.38,1.617c1.7.007,3.4.022,5.1.02a1.78,1.78,0,0,0,1.663-1.555A1.663,1.663,0,0,0,77.7,74.954c-1.672-.044-3.346-.009-5.021-.018-.263,0-.481.068-.377.355a7.881,7.881,0,0,1,.018,2.795c-.022.117.018.168.139.132ZM60.74,49.841c.13.031.165-.026.137-.146.007-1.317.086-2.638.007-3.951a3.7,3.7,0,0,0-4.132-3.651c-.382.013-.448.154-.446.49q.017,3.335,0,6.669c0,.371.077.545.494.543,1.315,0,2.627.024,3.942.042ZM48.364,63.527H60.243c.119.035.168-.009.146-.13.009-1.425.031-2.85.024-4.275a.983.983,0,0,0-1.074-1.07c-3.51-.013-7.019,0-10.529-.011-.276,0-.459.015-.45.384a44.488,44.488,0,0,1-.132,4.97c-.022.117.018.17.139.132ZM20.8,31.541c-.013,1.456-.015,2.912-.046,4.368-.009.41.115.461.516.461a50.555,50.555,0,0,1,6.144.1,22.493,22.493,0,0,1,8.793,2.941,1.315,1.315,0,0,0,.679.2q8.209-.023,16.417,0c.454,0,.551-.163.543-.574-.024-.988.044-1.983-.024-2.969A4.7,4.7,0,0,0,51.091,31.9a6.617,6.617,0,0,0-2.905-.51c-4.674-.031-9.349-.018-14.023-.013q-6.6.007-13.2.024c-.11-.024-.19-.009-.163.135ZM42.748,49.2a15.086,15.086,0,0,0-3.437-4.456,22.045,22.045,0,0,0-7.35-4.557,20.139,20.139,0,0,0-5.453-1.335,21.489,21.489,0,0,0-7,.309,23.57,23.57,0,0,0-7.041,2.936A21.845,21.845,0,0,0,5.7,49.038,19.55,19.55,0,0,0,2.69,57.6a24.589,24.589,0,0,0,.243,6.922,21.581,21.581,0,0,0,4.71,9.841,21.2,21.2,0,0,0,8.321,6.088,19,19,0,0,0,6.051,1.562,22.576,22.576,0,0,0,7.582-.6,24.319,24.319,0,0,0,7.626-3.671,24.5,24.5,0,0,0,3.635-3.488,9.3,9.3,0,0,0,1.89-2.762v-.121a13.4,13.4,0,0,0,2.27-4.926,20.463,20.463,0,0,0,.75-8.365A26.52,26.52,0,0,0,44.354,52.3a9.158,9.158,0,0,0-1.606-2.976V49.2ZM15.081,37.986a14.224,14.224,0,0,1,2.709-.893c.492-.1.5-.45.5-.858-.009-7.452.022-14.9-.022-22.355A9.177,9.177,0,0,0,15.41,7.07c-.375-.36-.58-.309-.814.079-.357.593-.677,1.211-1.074,1.774a.8.8,0,0,0,.066,1.1,6.385,6.385,0,0,1,1.4,4.355q-.013,11.343,0,22.684a1.734,1.734,0,0,0,.1.926ZM59.087,76.5A5.444,5.444,0,0,0,64,82.046a5.463,5.463,0,1,0,.653-10.9A5.325,5.325,0,0,0,59.085,76.5ZM40.154,42.072c.765.757,1.352,1.4,1.928,2.052a23.821,23.821,0,0,1,3.574,5.118.809.809,0,0,0,.84.558c2.228-.026,4.456-.033,6.684,0,.585.009.668-.21.664-.715-.024-2.118-.029-4.235,0-6.353.009-.545-.148-.677-.682-.675-4.127.022-8.252.013-12.38.013h-.633ZM12.842,5.321c-2.585-.856-5.129-1.7-7.677-2.537-.622-.2-1.26-.545-1.89-.013a1.648,1.648,0,0,0-.781,1.5,1.85,1.85,0,0,0,1.293,1.5c2.241.759,4.5,1.478,6.737,2.239a.667.667,0,0,0,.957-.4c.395-.757.869-1.471,1.363-2.3Z" transform="translate(-0.01 -0.02)" fill="#858585"/>
        <path id="Path_143" data-name="Path 143" d="M31.445,193.781a18.735,18.735,0,0,1,7.441-4.039,18.52,18.52,0,0,1,7.229-.47,12.429,12.429,0,0,0,2.409.28,5.387,5.387,0,0,1,1.769.629,18.812,18.812,0,0,1,6.805,4.313,17.7,17.7,0,0,1,5.034,9.47,15.867,15.867,0,0,1,.494,4.37c-.06.591-.124,1.182-.185,1.774-.084.1-.395.093-.165.344a4.379,4.379,0,0,1-.474,2.177l-.124.018.119.119c0,.159-.011.318-.015.479-.192.06-.148.2-.119.338l-.695,1.8c-.09.026-.168.064-.128.181a15.531,15.531,0,0,1-3.633,5.283,18.507,18.507,0,0,1-9.258,5.113,17.339,17.339,0,0,1-5.4.481,19.145,19.145,0,0,1-10.1-3.995,18.676,18.676,0,0,1-6.717-10.536,19.038,19.038,0,0,1-.271-6.627,18.168,18.168,0,0,1,3.512-8.716c.585-.81,1.306-1.522,1.965-2.279.17-.168.338-.338.507-.505Zm11.308,24.74c0-1.568.007-3.135-.007-4.7,0-.205.106-.417-.247-.587-1.6-.768-1.588-.794-2.835.452l-.117.117c-1.906,1.906-3.8,3.825-5.729,5.707-.426.415-.39.622.073.92.717.461,1.377,1.021,2.12,1.432a14.33,14.33,0,0,0,6.159,1.965c.485.026.6-.139.6-.6-.024-1.566-.009-3.135-.009-4.7Zm0-21.57v-4.039c0-1.26,0-1.262-1.246-1.118a15.027,15.027,0,0,0-7.791,3.375c-.3.238-.349.311-.079.576q3.448,3.431,6.878,6.878a.491.491,0,0,0,.71.117,2.848,2.848,0,0,1,.876-.371c.538-.126.688-.413.671-.966-.049-1.482-.015-2.967-.015-4.452Zm12.029,12.007c-1.264,0-2.53.06-3.79-.02-1.01-.064-1.694.082-1.977,1.235-.121.5-.214.757.192,1.154,1.91,1.857,3.779,3.757,5.663,5.641,1.41,1.41,1.421,1.418,2.524-.243a16.928,16.928,0,0,0,2.583-6.706c.161-.979.075-1.061-.913-1.061H54.779Zm-.082-2.475c1.456,0,2.914-.062,4.363.024.854.051,1.057-.265.918-1-.088-.47-.205-.935-.3-1.405a16.6,16.6,0,0,0-3.188-6.622c-.245-.338-.408-.232-.64,0q-3.4,3.415-6.81,6.816c-.236.236-.36.45-.137.783a2.379,2.379,0,0,1,.382.863c.1.551.448.551.88.547,1.509-.015,3.02-.007,4.529-.007ZM31.652,218.238c2.188-2.193,4.291-4.368,6.479-6.455.717-.684,1.026-1.2.512-2.179-.267-.507-.468-.662-1-.657-2.859.022-5.718.011-8.577.011q-1.288,0-1.1,1.319c.051.344.077.695.161,1.032a16.336,16.336,0,0,0,3.523,6.931Zm.024-21a10.462,10.462,0,0,0-1.824,2.513,17.675,17.675,0,0,0-2.054,6.093c-.077.463.033.664.587.657,2.722-.033,5.446-.051,8.169,0,1.125.022,2.1.077,2.369-1.4.066-.364.1-.518-.141-.761-2.356-2.349-4.707-4.705-7.105-7.105ZM45.23,218.472v4.282c0,1.1.207,1.284,1.253,1.041a17.944,17.944,0,0,0,7.48-3.393c.468-.379.41-.476.071-.814-2.221-2.2-4.456-4.4-6.627-6.649-.724-.752-1.132.108-1.692.15-.51.038-.49.4-.488.77,0,1.538,0,3.075,0,4.613Zm0-21.479c0,1.568-.007,3.135.007,4.7,0,.24-.106.505.271.671,1.381.613,1.372.633,2.442-.437.234-.234.465-.468.7-.7q2.654-2.654,5.312-5.3c.307-.3.523-.465.007-.867a18.418,18.418,0,0,0-2.762-1.774,18.624,18.624,0,0,0-5.475-1.652c-.5-.09-.512.205-.507.576.013,1.595,0,3.19,0,4.785Zm-1.372,7.674a2.988,2.988,0,0,0-3.148,3.018,3.174,3.174,0,0,0,3.161,3.252,3.256,3.256,0,0,0,3.247-3.194A3.009,3.009,0,0,0,43.858,204.668Z" transform="translate(-19.72 -147.397)" fill="#858585"/>
      </g>
    </g>
  </g>
</svg>
