<svg xmlns="http://www.w3.org/2000/svg" xmlns:xlink="http://www.w3.org/1999/xlink" width="130" height="130" viewBox="0 0 130 130">
  <defs>
    <clipPath id="clip-Cosmetics">
      <rect width="130" height="130"/>
    </clipPath>
  </defs>
  <g id="Cosmetics" clip-path="url(#clip-Cosmetics)">
    <g id="Layer_1" data-name="Layer 1" transform="translate(26.001 24.665)">
      <g id="Group_45" data-name="Group 45" transform="translate(0 0)">
        <path id="Path_329" data-name="Path 329" d="M1.612,34.81A24.618,24.618,0,0,1,4.53,29.4c1.2-1.546,2.279-3.25,3.99-4.342.107.031.142-.008.117-.113a10.9,10.9,0,0,1,1.887-1.567l.184-.126c.909-.618,1.889-1.11,2.84-1.652a22.755,22.755,0,0,1,4.593-1.841,13.293,13.293,0,0,1,3.334-.831c1.868-.061,3.774-.4,5.644.054.312.075.534-.151.813-.157.086-.038.237-.065.245-.117.031-.182-.132-.163-.251-.182-.149-.593.075-1.271-.059-1.751a15.6,15.6,0,0,1-.239-2.119c-.147-1.012-.243-2.025-.306-3.043-.1-1.569-.161-3.144-.331-4.7a10.775,10.775,0,0,1,.637-3.418c0-.048.006-.1.006-.147.406-.117.572-.49.834-.767a6.761,6.761,0,0,1,3.5-2.143,20.737,20.737,0,0,1,4.658-.4q8.023-.019,16.049,0A32.157,32.157,0,0,1,58.2.21c.042.22.111.367.32.113A4.527,4.527,0,0,1,60.993,1.37a6.16,6.16,0,0,1,2.576,3.644,16.266,16.266,0,0,1,.09,3.317c-.22.042-.371.107-.117.32.05,1.992-.329,3.96-.354,5.948-.1.015-.222.025-.226.153s.117.145.218.161c-.174.429-.008.938-.413,1.332a1.045,1.045,0,0,1-1.437.212c0-.358.036-.739-.492-.752a7.677,7.677,0,0,1,.069-2.626c.08-1.148.111-2.308.262-3.454.031-.23-.017-.471.008-.7.115-1.009.119-1.007-.93-1.007q-15,0-30,0a1.827,1.827,0,0,0-.821.054c.084.953.214,1.889.237,2.827.027,1.139.145,2.274.207,3.408s.239,2.3.272,3.449c.048,1.74.312,3.46.465,5.192.075.846.086,1.7.134,2.547.1,1.751.272,3.5.377,5.248.124,2.1.3,4.205.457,6.308.161,2.13.329,4.258.482,6.388.151,2.1.3,4.21.465,6.312.17,2.078.3,4.157.471,6.233.172,2.05.329,4.1.446,6.153.021.358.241.681.161,1.06-.044.212.113.256.289.253.157,0,.314,0,.469,0,7.336,0,14.675-.013,22.012.021.729,0,.88-.337.88-.886,0-1.837.214-3.663.362-5.485.191-2.325.306-4.66.565-6.983.2-1.768.182-3.556.343-5.328.193-2.1.291-4.208.48-6.306.119-1.322.195-2.645.314-3.965.151-1.686.18-3.382.434-5.062.113-.758.063-1.537.145-2.312.188-1.795.22-3.6.348-5.406.044-.628.115-1.267.834-1.581a1.07,1.07,0,0,1,1.508.819,16.1,16.1,0,0,1-.216,3.946c-.176,1.1-.071,2.191-.209,3.288-.306,2.425-.32,4.886-.53,7.326-.121,1.409-.191,2.823-.312,4.233-.184,2.13-.3,4.262-.475,6.39-.17,2.078-.3,4.157-.467,6.233s-.235,4.168-.478,6.231a133.357,133.357,0,0,0-.4,15.869c0,2.76-.98,4.748-3.648,5.739-.168.006-.375-.138-.471.128H15.726c-.082-.094-.145-.228-.249-.279a.972.972,0,0,1-.423-1.625,1.405,1.405,0,0,1,1.25-.45c5.217.006,10.434,0,15.747,0a6.113,6.113,0,0,1-.645-3.858c.034-.748-.113-1.009-.949-.995-3.366.059-6.733.025-10.1.025-5.69,0-11.379.01-17.069-.015-.672,0-.787.17-.574.769a6.109,6.109,0,0,0,3.722,3.774,10.725,10.725,0,0,0,3.824.283c.681.019,1.292.17,1.527.8.256.689-.163,1.208-.762,1.564H6.949a13.293,13.293,0,0,1-3.393-1.537,8.342,8.342,0,0,1-3.5-6.589c-.025-.978.406-1.4,1.409-1.4,3.265-.008,6.528,0,9.793,0,.287,0,.572-.021.859-.034.132.023.155-.046.126-.153.006-1.617,0-3.234.029-4.851a.825.825,0,0,0-.482-.79A25.2,25.2,0,0,1,4.569,58.06,23.893,23.893,0,0,1,.406,48.139a20.827,20.827,0,0,1-.2-7.056,7.564,7.564,0,0,0,.031-1.091c.193-.036.367-.08.145-.308a19.465,19.465,0,0,1,.989-4.03,1.58,1.58,0,0,0,.084-.515c.2-.036.41-.063.157-.32ZM31.369,70.54q0-1.25-.006-2.5c-.086-.285-.188-.155-.3-.015a3.32,3.32,0,0,0-.7.046,18.245,18.245,0,0,1-4.231.6,24.327,24.327,0,0,1-8.2-.961c-1.11-.35-2.189-.79-3.317-1.2,0,1.273.021,2.476-.01,3.676-.013.459.14.57.572.553.808-.034,1.619-.008,2.429-.01l13.632-.031c.134.025.155-.046.128-.155ZM58.04,2.507c-.348.128-.632-.14-.974-.14-7.86.015-15.722,0-23.582.031C32,2.4,29.813,3.831,29.57,5.563h.7q15.082,0,30.163.019c.815,0,.857-.243.555-.846.371-.67-.134-.708-.574-.794l-.35-.452c-.015-.316.017-.7-.469-.314l-.62-.358c-.23-.66-.48-.741-.94-.312ZM10.561,31.072l.471-.471c.262-.262.521-.524.783-.783.348.029.327-.314.482-.48.626-.471,1.24-.961,1.881-1.412a20.683,20.683,0,0,1,6.25-2.8c.023.121.046.245.2.264.195.023.247-.107.27-.264.616-.251,1.288-.113,1.929-.314a7.013,7.013,0,0,1,2.693-.161c.316.025.528-.431.712-.209.421.5.965.243,1.439.369.442.117.542-.017.607-.438a13.407,13.407,0,0,0-.165-2.767c-.01-.207-.1-.3-.285-.26-.427.082-.806-.147-1.213-.163a24.068,24.068,0,0,0-8.7,1.106,22.572,22.572,0,0,0-5.791,2.848c-.119-.042-.151.044-.184.126-.58.459-1.187.884-1.734,1.378a25.045,25.045,0,0,0-5.1,6.226c-.069.178-.14.356-.209.532a18.586,18.586,0,0,0-1.851,4.813A14.317,14.317,0,0,0,2.429,42.2a35.036,35.036,0,0,0,.119,4.346,19.061,19.061,0,0,0,.98,4.1c0,.168-.124.367.115.478.067.207.136.415.2.622-.034.111.034.147.124.163a18.934,18.934,0,0,0,1.6,3.441c-.031.113.036.149.128.165a23.127,23.127,0,0,0,4.222,5.056,12.669,12.669,0,0,0,2.664,1.992c.017.094.057.157.168.132a11.858,11.858,0,0,0,2.189,1.292c.04.184.209.117.32.165a23.237,23.237,0,0,0,5.577,1.877c.555.109,1.112.126,1.663.22a18.91,18.91,0,0,0,4.9,0,15.233,15.233,0,0,0,3.286-.555c.237-.075.559-.1.542-.425a12.676,12.676,0,0,0-.119-2.938c-.084-.3-.031-.4-.444-.283a19.739,19.739,0,0,1-4.084.815A19.241,19.241,0,0,1,6.762,37.891c.272-.89.762-1.69.986-2.593.178-.042.121-.2.157-.314.289-.232.3-.618.5-.9q1.071-1.5,2.149-3.007Zm18.795,4.855c.04-.329-.077-.517-.438-.484a1.225,1.225,0,0,0,.128-.819c-.151-2.281-.318-4.561-.459-6.842-.025-.4-.308-.444-.563-.478-.934-.126-1.87-.272-2.811-.31a14.906,14.906,0,0,0-4.677.6,16.225,16.225,0,0,0-6.377,3.328c-.121-.042-.145.046-.172.128a20.129,20.129,0,0,0-3.313,3.988,20.616,20.616,0,0,0-1.548,3.338,14.945,14.945,0,0,0-.373,9.68,16.424,16.424,0,0,0,6.993,9.659,16.633,16.633,0,0,0,9.37,2.834,23.228,23.228,0,0,0,5.328-.869.868.868,0,0,0,.589-1.148c-.551-.869-.27-1.83-.362-2.71-.226-2.117-.4-4.252-.494-6.381-.08-1.805-.325-3.6-.375-5.406a14.947,14.947,0,0,0-.147-2.31c-.323-1.728-.142-3.493-.446-5.219a.783.783,0,0,1,.151-.578Zm16.149,29.78c-3.707,0-7.414.008-11.121-.01-.5,0-.66.111-.656.637.027,3.133.019,6.264.019,9.4a1.449,1.449,0,0,0,.212.787,2.949,2.949,0,0,0,3.091,1.41c.446-.034.568-.147.561-.58-.025-1.487-.021-2.976,0-4.463.01-1.1.335-1.407,1.451-1.41q6.305,0,12.61,0c1.11,0,1.606.49,1.613,1.594.006,1.437,0,2.871.008,4.308,0,.18-.124.511.172.511a5.91,5.91,0,0,0,1.971-.168,2.631,2.631,0,0,0,1.686-2.7c.019-2.871-.015-5.743.023-8.614.008-.616-.186-.716-.748-.712-3.63.025-7.257.013-10.886.013Zm-.159,12.2c1.671,0,3.34-.013,5.012.008.423.006.6-.082.584-.551-.036-1.016-.023-2.036,0-3.054.006-.364-.092-.5-.48-.5-3.34.013-6.681.019-10.024,0-.471,0-.492.205-.486.557.013.94.038,1.881-.008,2.819-.027.559.088.762.708.739,1.564-.054,3.131-.017,4.7-.017Z" transform="translate(0.014 -0.003)" fill="#858585"/>
        <path id="Path_330" data-name="Path 330" d="M301.882,142.952c.057-.09.113-.18.17-.272l.128-.165a5.569,5.569,0,0,1,1.565-1.73c.473.383.459.015.473-.308.1-.107.207-.212.31-.318.473.383.459.015.473-.308.1-.107.207-.212.31-.318.478.383.459.01.473-.31.1-.1.207-.212.312-.316.48.385.459.01.471-.312a1.524,1.524,0,0,1,1.093-.635c.228.266.39.237.48-.107a3,3,0,0,1,3.288,3.244q.006,4.932-.006,9.862c0,.427.065.674.534.848.624.23.731.834.731,1.456-.006,4.252.008,8.505-.019,12.757,0,.542.145.806.662.961.7.209.748.825.75,1.426q.006,6.066,0,12.13c0,1.539-.04,3.079.01,4.618a3.779,3.779,0,0,1-2.5,4.069H301.4q-.079-.16-.157,0h-.626c.015-.23-.312-.09-.32-.3.061-.632-.408-.459-.746-.488a3.348,3.348,0,0,1-1.053-2.714c.025-5.82.01-11.64.015-17.463,0-1.154.318-1.458,1.481-1.46q5.089-.016,10.178-.023c.117.036.155-.013.132-.126V154.121c.025-.109-.013-.157-.128-.132-2.471-.01-4.943-.006-7.416-.04-.492-.006-.534.2-.532.6.015,2.471.008,4.945,0,7.416,0,.205-.034.411-.05.618-.22.038-.4.092-.128.325a1.079,1.079,0,0,1-1.319.76c-.545-.063-.729-.5-.8-.991a4.384,4.384,0,0,1-.048-.618q0-4.835.008-9.668c.029-.052.061-.1.09-.155.115-.138.22-.383.346-.394.861-.067.808-.685.8-1.267-.006-1.717-.069-3.435-.017-5.15a3.207,3.207,0,0,1,.582-1.979c.13.174.241.153.341-.029.119-.216.126-.39-.161-.463Zm2.664.205c-.553-.01-.79.228-.62.787a4.519,4.519,0,0,0-.459,1.657c-.027,1.851.023,3.7.017,5.554,0,.41.17.465.513.461,1.644-.021,3.286-.025,4.93-.033.107.029.147-.013.121-.119q.016-5.158.031-10.315c0-.354.061-.785-.314-.945a1.041,1.041,0,0,0-1.045.316q-1.583,1.319-3.173,2.639Zm1.711,29.962a2.4,2.4,0,0,1,1.118-.2c1.4,0,2.806-.013,4.21-.023.109.021.159-.017.124-.132v-3.443c.034-.111,0-.161-.121-.14-3.341-.01-6.683,0-10.024-.048-.609-.008-.716.172-.714.737.023,5.221.013,10.442.015,15.666,0,.182,0,.367.013.549a.752.752,0,0,0,.844.79c2.976-.008,5.954,0,8.93-.008.76,0,1.074-.323,1.076-1.093,0-3.445-.01-6.892-.019-10.338.038-.115-.013-.153-.121-.132q-2.268-.013-4.534-.029c-.276,0-.576.063-.8-.191l-.161-.117a1.283,1.283,0,0,1,0-1.73l.163-.119Z" transform="translate(-235.981 -108.968)" fill="#858585"/>
        <path id="Path_331" data-name="Path 331" d="M264.46,382.591c.1-.266.3-.121.471-.128v.128h-.469Z" transform="translate(-209.07 -302.336)" fill="#858585"/>
        <path id="Path_332" data-name="Path 332" d="M311.6,382.9q.079-.16.157,0Z" transform="translate(-246.337 -302.643)" fill="#858585"/>
        <path id="Path_333" data-name="Path 333" d="M179.485,123.9a24.8,24.8,0,0,1-3.619-.1,6.668,6.668,0,0,1-4.748-3.25c-1.273-2.065-.911-4.241-.97-6.411a.931.931,0,0,1,.97-.922c2.168-.034,4.369-.249,6.39.869a5.952,5.952,0,0,1,2,1.652c.425.589.63.268.867-.054a6,6,0,0,1,3.012-2.08,15.1,15.1,0,0,1,5.295-.39,1.063,1.063,0,0,1,1.07,1.024,13.538,13.538,0,0,1-.354,4.909,6.993,6.993,0,0,1-6.7,4.752c-.991-.01-1.983,0-3.213,0Zm-5.59-8.237c-.364,0-.731.015-1.1,0-.306-.015-.446.036-.469.408-.182,2.844,1.665,5.636,5,5.5,1.552-.065,1.569,0,1.43-1.56a11.007,11.007,0,0,0-.274-1.255A4.314,4.314,0,0,0,173.9,115.659Zm11.82,0c-.446.094-.982-.113-1.523.115a4.675,4.675,0,0,0-2.943,3.192,3.784,3.784,0,0,0-.071,2.205c.325.848,1.292.2,1.96.346a1.282,1.282,0,0,0,.465-.048,4.59,4.59,0,0,0,3.774-4.189c.067-1.621.038-1.623-1.665-1.623Z" transform="translate(-134.506 -89.466)" fill="#858585"/>
        <path id="Path_334" data-name="Path 334" d="M193.456,182.7q-2.384,0-4.771,0a1.5,1.5,0,0,1-1.3-1.125,1.256,1.256,0,0,1,1.236-1.206q4.888-.025,9.776,0a1.188,1.188,0,0,1,1.211,1.213,1.143,1.143,0,0,1-1.223,1.12c-1.642.021-3.284.006-4.928.006Z" transform="translate(-148.136 -142.586)" fill="#858585"/>
        <path id="Path_335" data-name="Path 335" d="M303.52,379.455c.335.029.8-.145.746.488C303.958,379.87,303.658,379.788,303.52,379.455Z" transform="translate(-239.949 -299.984)" fill="#858585"/>
      </g>
    </g>
  </g>
</svg>
